<?xml version="1.0" encoding="utf-8"?>
<!-- Generator: Adobe Illustrator 26.4.1, SVG Export Plug-In . SVG Version: 6.00 Build 0)  -->
<svg version="1.1" id="Ebene_1" xmlns:serif="http://www.serif.com/"
	 xmlns="http://www.w3.org/2000/svg" xmlns:xlink="http://www.w3.org/1999/xlink" x="0px" y="0px" viewBox="0 0 5000 5000"
	 style="enable-background:new 0 0 5000 5000;" xml:space="preserve">
<style type="text/css">
	.sic-logo-arrows{fill-rule:evenodd;clip-rule:evenodd;fill:#34C899;}
	.sic-logo-arrow-frames{fill-rule:evenodd;clip-rule:evenodd;fill:#095A6E;}
	.sic-logo-lakes{fill-rule:evenodd;clip-rule:evenodd;fill:#1F8CCD;}
	.sic-logo-white{fill-rule:evenodd;clip-rule:evenodd;fill:#FFFFFF;}
	.sic-logo-canton{fill:#095A6E;}
</style>
<rect x="0" y="0" class="st0" width="4998.3" height="4998.3" style="fill:none;"/>
<path class="sic-logo-arrows" d="M448.3,2018.3c0,0,519.8-1882.2,2495.2-1559.4l45-431.9c0,0,898.6,778,1123.2,1059.4L2933.6,1709
	c-988.7,137-1665.7-540.6-1430.7,525.8L448.3,2018.3z"/>
<path class="sic-logo-arrow-frames" d="M448.3,2018.3c0,0,519.8-1882.2,2495.2-1559.4l45-431.9c0,0,898.6,778,1123.2,1059.4L2933.6,1709
	c-988.7,137-1665.7-540.6-1430.7,525.8L448.3,2018.3z M516.4,1978.3C619,1676.9,1205.6,228.6,2935,511.1
	c14.4,2.3,29.1-1.3,40.7-10.2c11.6-8.8,19-22.1,20.5-36.5l34.5-330.6c206.7,181,775.2,684,998.3,936.5l-1111.7,587.4
	c-485.7,64.9-894.6-68.6-1154-87.2c-123.9-8.9-217.8,9.4-278.6,68.2c-38.1,36.9-65,90.3-75.9,167.3c-12,84.6-4.6,201.5,26,360.7
	L516.4,1978.3L516.4,1978.3z"/>
<path class="sic-logo-arrows" d="M3236.1,1695.2l944.7-490.6c0,0,928.2,1009.1,261.6,2469l463.9,209.6c0,0-940,527.1-1726.1,815.6
	c0,0-371-1237.6-430.6-1711.3c96.6,70.8,741-230,862.7-160.5C3612.3,2827,3452.1,2402.1,3236.1,1695.2z"/>
<path class="sic-logo-arrow-frames" d="M3236.1,1695.2l944.7-490.6c0,0,928.2,1009.1,261.6,2469l463.9,209.6c0,0-940,527.1-1726.1,815.6
	c0,0-371-1237.6-430.6-1711.3c96.6,70.8,741-230,862.7-160.5C3612.3,2827,3452.1,2402.1,3236.1,1695.2z M2812.3,3050.9
	c62.7-3.2,158.1-27.6,262.7-58.6c129.5-38.4,274.3-86.5,385.1-109.8c33.9-7.2,64.4-12,89.7-12.9c15.5-0.6,28.1-1.3,36.3,3.4
	c19.4,11.1,43.6,8.8,60.6-5.7c17-14.5,23.1-38,15.2-58.9c0,0-153.4-407-362.2-1086.6l0,0l868.2-450.8
	c143.2,176.4,810.6,1101.4,226.6,2380.7c-5.9,12.8-6.4,27.4-1.4,40.6c5,13.2,14.9,23.8,27.8,29.6l367.5,166
	c-247.8,134.7-950.6,506.9-1573.3,741.6C3147,4399.7,2884,3496,2812.3,3050.9z"/>
<path class="sic-logo-arrows" d="M2702.8,3531.8c0,0,245.9,776.6,343.3,1203.6c-541,122.3-1968.4,142.7-2564.1-1479.6L94.1,3400.4
	c0,0,189-790.9,319.2-1245.2l1274.2,248.9L1338,2610.9C1661.6,2393.6,1268.7,4879.8,2702.8,3531.8z"/>
<path class="sic-logo-arrow-frames" d="M1348.8,2604.6c304.1-154.8-63.7,2259.9,1354.1,927.3c0,0,245.9,776.6,343.3,1203.6
	c-541,122.3-1968.4,142.7-2564.1-1479.6L94.1,3400.4c0,0,189-790.9,319.2-1245.2l1274.2,248.9L1348.8,2604.6
	c-3.5,1.8-7.1,3.9-10.8,6.3L1348.8,2604.6z M1323.4,2558.1l217.4-128.6l-1090-212.9c-100.6,357.7-229.9,884.7-282,1099.6
	l294.7-109.8c13.2-4.9,27.8-4.4,40.6,1.5c12.8,5.9,22.7,16.6,27.5,29.8c563.4,1534.3,1888,1565.2,2450.5,1457.1
	c-82.9-345.9-243.5-869.9-305-1067.7l0,0c-179.4,160.8-329.9,260-456.1,312.2c-153.8,63.6-275.1,59.7-371.6,14.4
	c-113.6-53.3-194.8-167.3-252-311.5c-78.9-198.9-114-456.2-145.4-665.7c-17.7-118-33.9-220.1-57.9-284.6c-3.9-10.6-8-20-12.5-28
	c-2.4-4.2-6.3-9.2-8.7-12.2l-1.3,0.7l-6.8,4c-24.6,14.6-56.4,6.9-71.7-17.3c-15.3-24.2-8.5-56.2,15.2-72.2
	C1313.5,2563.6,1318.5,2560.6,1323.4,2558.1z"/>
<path class="sic-logo-lakes" d="M1702.7,2893.1l105.6,920.2c353,169.8,564.2,248.2,902.8,466.3c55.4,25.9,102.2,41.9,163.4,37.5
	c46.3-3.3,97.9-20.1,190.8-81.4l87.7-236.6l287.1-475.2l171.4-350.6l-134.2-642.4L1702.7,2893.1z"/>
<g>
	<path class="sic-logo-white" d="M2648.1,4246.9l45.9,13.6c-57.2-87.4-135.8-154.1-135.8-154.1s-65.2,19.5-55.5-16.9
		c9.7-36.4-67.3-84.4-67.3-84.4c-44.5-119.1-76.9-87.7-76.9-87.7l-39.7,1.7c0,0-236.2-125-259.3-216.1
		c-23.2-91-103.6-247.6-103.6-247.6s-9.6-80.9-10.7-82.2c-1-1.3-61-113.6-95.7-222.3c-34.7-108.7,89.9-194.7,89.9-194.7l68,106.7
		l40.9,13.2l6.9,37.5l18.7,13.9l42.5,208.1c141.6,438.1,338.6,397.6,338.6,397.6l54.9,24.2l128.7,89.5c0,0,25.9,38.1,46.1,40.8
		s49.6,28.7,49.6,28.7s24,46.8,50.8,43.6s53.9,36.5,53.9,36.5s85.8,36.3,111.9,21.5c26.2-14.8,139.1-8.3,139.1-8.3l31.3,10l24.9-2.9
		l3.4-41.6l24,9.4l65.5-46.4l54.6-2.9l15,28.3l43.5-18.6c0,0,15.2,30.2,14.8,30.8s67.4-38.8,67.4-38.8l1.7,39.6
		c0,0,92.6,54.8,111.2-30.3c0,0,135.5,5.9,170.5-30.3l22.8,24.1l89.3-34.6l31.3,10l11.3-48.4l40.2-38.6l-15.8-18.6
		c0,0,38.6-23.7,42.2-63.1l-32.9,9.6l-41.7-65.1l70.5-16.4l60.3-103.5l81.4,1.8l57.8-103.7l-25.7-48.9l16.5-82.4l-26-14.5
		c0,0,36.6-116.2-53.5-103l-43.4-104.6l-1.9-37.1l-61.3-37.1l-26.1-44.1l4.2-51.4l-50.3-80.6l-91.9-24.8c0,0,60.4-77,55.9-111.3
		c-4.4-34.3-14.8-92.4-14.8-92.4l107.8-18.3l-107.9-40.9l-21-46.1l22.4-32.7l-55.4-78.5l-1.5-42l-54.6-58.7l15.8-72.7l61.7-29.4
		l-24.6-31.6l5.9-103l28.6-17.4l3.5-135.3c0,0-58.4-46.3-83.6-36.5c0,0-116.7-49.4-186.7-44.9c0,0-25.4-83.5-55.1-113l0.8-71.4
		l59.5-2.5l51.7-27.8l-43.9-38.1l-54.7-70.7l-39.1,27.9l-64,7.6l-12.6-57.7l-27.6-56.5l-164.1-80l-89.4,5l4.6-56.3l-48.2-45.9
		l23.8-49.8l26.4,9.6l-1.4-74.1l48.4,43.4l26.1-17.6l141.2,88l-11.3,48.4l79,31.2l-13.4-47.9l19.9-62.5l56.2-22.5l-22.4-29
		l15.6-40.6l46-18.4c0,0,29-59,22.6-126.3l-100.1-45.2l7.7-95.5l-88.6-4.8l-10.6,70.6l-67.6,41.3l-31.5-7.5l-45.9,48l-60.5,14.7
		l-22.6-26.5l-109.2,5.8l-41.2-40.4l-31.4,22.1c0,0-151.8-101.4-123.9-209.9c0,0-79.4-38.2-31.4-101.2l-123.8-89.1
		c0,0-148.8-0.7-90.2,76.4c0,0-1.8,77.5-64.9,39l-50.4,42.7l28.2,78.7l22.3-0.6l51.3,68.3c0,0,49.3,111.1-93.4,99.6l1-34.1
		c0,0,41.6-0.3,2.7-55.4c-38.9-55.1-96.5,45.8-96.5,45.8s10.3,63.3,3.5,122.3c-6.8,58.9,107.7,90.7-4.2,146.5l-13.1,70.4
		c0,0-117.6,8-81,146.2l-45.6,13.5c0,0-25.2,114.5-86.7,155.6c0,0-37.2-58.5-34.4-94c2.8-35.5-26.9-34.3-26.9-34.3l20.6-40.2
		l-53.4-11.8l9.3-53.5c0,0,29.2-70.1,86.6-61.9l12.8-35.9l53.7-22.7l14.8-60.4l49-25.5c0,0-72.5-26.6-81.7-90.5l-89.7-22.2
		l-8.9-42.6c0,0-58.8-6.5-72.1-25.6l-42.5,6.4l-20.1,64.9l-27.6,5.1l6.3,44.9c0,0-81.1,23.7-146.4,7.7l-23,40l-36.8-3l7.2,32.6
		c0,0-31.4,23.5-73.2,18.6c0,0-1.7,36.9,17.1,63l-10.9,43.5l31.9,2.6l4.8,32.4c0,0,72.4-5.2,97.9-19.1l31.2,42l-29.8,32.1l-54-4.4
		l-57.2,34.7l-50.8-14l-112.4,45l-38.3-15.5L1413,1456l-24.5,89.2l5.9,49.8l-26.8-4.7l-25.1,34.9l0.7,22.2l-25.4-21.8l7.5,59.8
		c0,0-73.4-19.9-51,50l-40.4-20.6l-43.5,109.8c0,0-98.5-38-97.1,38.9l-19.8,30.4l35.6,17.7l-33.5,17c0,0,27.3,12,18.9,41l-3.5,73.7
		l53.6,9.3c0,0-3.3,52.7,3.7,76.7l-39.9,4.1l-2.8,34.3c0,0,30.9,58.8,32.1,61.7c0,0,0,0.1,0,0.1c0,0.1,0,0,0-0.1
		c0.9-0.9,34.4,2.9,34.4,2.9l25.1,56.3l-31.4,22.1c0,0-5.5,40.1,5.1,59.6c10.5,19.5,9.3,37.7,9.3,37.7s-36.2-10.2-50.3,10.7
		c0,0,30.3,35.9,51.6,33.8c21.3-2,20,58.3,20,58.3l-22.2,30.2l-23.6-14.3l2.5,29.8l-19.8,30.4l17.3,31l-21.2,18
		c0,0-58.2-14.5-82,5.6c-23.8,20.1,70.2,24.6,79.8,21.4s15,28.3,15,28.3s73.2-7.4,52.7,51.2c-20.5,58.6,16,107.3,16,107.3l-5.8,41.4
		l49.3,1.6c0,0,4.5,38.9-20.9,45.1l14.3,67.7l-32,59l32.2,29.8l-0.7,39.4c0,0,49.6,2.8,26.9,34.3c-22.7,31.5-40.1,86.8,47.2,58.1
		c0,0,67.3,37.4,93.2-21.9l46.8-28.2c0,0-52.3,108.4-77,126.8c0,0-59.7,67.7-59.9,98.6l-52.7,40l-114.8,44.8l-35-25.1l13.2,112
		l38.2,47.5l-19.1,52.7l25.2,24.3l-19.1,52.7l59.2,93.6l22.7,147.3l96.9-6.8l29.3,34.5l36.2,10.4l33.3,47.1l47-1.1l-3,36.7l61.4,5
		l51.5-25.3l51.4,6.7l50.8-47.6l92.7,15l12.2-28.6l37.2-1.9c0,0,68.6,9.6,118.1,36.8c49.5,27.3,97.8,13,97.8,13l-1.3,46.7
		c0,0,30.5-6,64.5,27.5l5.3,57.1l34.7-31.7l59.8,86.3l2.6,59.4l44.4,62.8l-27.3,32.3l81.5,31.4l10.3,25.5c0,0,58.1-44.1,85.3-15.2
		l3.7,76.7l65.5,15.2c0,0,6.4-27.5,84.2-32.5l5.2-34.1c0,0-67.4-35.6-54.1-95.7l37.7-38.8l31.1-78.8l43,18.3L2648.1,4246.9z
		 M2822.2,4325.3c86.7-4.2,172.4-40.7,243.1-89.5l80.9-219.1l-80.9,219.1c0,0-247.7,170.4-371.3,24.8 M2497.5,2930.5
		c0,0-100.5,116.5,7.1,187.9l7.7,57.3l63.9,34.8l35.7,108.9l44.4,92.4l71.9-33.5l8.3-41.2c0,0,72.7-15,59.6-64.1l-83.8-63.6
		l-17-65.5l-12.6-57.7c-10.4-40.9-34.4-52.9-63.4-71.8C2619.2,3014.5,2613.4,2936.7,2497.5,2930.5z M3034.3,3107.8
		c0,0,26.1,61.8,26.2,73.6c0,11.9,9.4,67.3,9.4,67.3l104.4,23.4l20-32.9l29.6-29.6l-78-166.6
		C3145.8,3043,3040.5,3094.1,3034.3,3107.8z"/>
	<path class="sic-logo-canton" d="M2490.5,4570.2c-1.2,0-2.4-0.2-3.6-0.5l-65.5-15.2c-4.7-1.1-8.1-5.2-8.3-9.9l-3.5-72.3
		c-8.1-5.9-20.8-5.4-37.9,1.6c-16.5,6.7-30.3,17.1-30.4,17.2c-2.7,2-6.1,2.7-9.3,1.8c-3.2-0.9-5.8-3.2-7.1-6.3l-8.5-21.2l-77.1-29.7
		c-3.2-1.2-5.7-4-6.6-7.4c-0.9-3.4,0-7,2.2-9.6l21.9-25.9l-39.6-56c-1.2-1.7-1.9-3.7-2-5.7l-2.5-56.3l-51-73.6l-25.6,23.4
		c-3,2.8-7.3,3.6-11.1,2.1c-3.8-1.5-6.4-5-6.8-9l-4.9-53.1c-27.4-25.3-50.4-22.2-52.2-21.9c-3.2,0.7-6.4-0.1-9-2.2
		c-2.6-2.1-3.9-5.3-3.8-8.6l0.9-33.3c-19.2,2.6-55.1,3.6-91.9-16.7c-44-24.3-105.1-34.2-113.5-35.5l-29.5,1.5l-9.6,22.4
		c-1.9,4.5-6.7,7.2-11.6,6.4l-87.5-14.2l-47,44c-2.3,2.2-5.5,3.2-8.7,2.8l-48.1-6.3l-48.6,23.9c-1.7,0.9-3.7,1.2-5.6,1.1l-61.4-5
		c-5.9-0.5-10.3-5.7-9.8-11.6l2-24.9l-35.1,0.8c-3.6,0.1-7-1.6-9-4.5l-31.1-44l-32.6-9.3c-2-0.6-3.9-1.8-5.2-3.4l-25.8-30.3
		l-91.5,6.4c-5.6,0.4-10.5-3.6-11.4-9.1l-22.4-145.1l-58-91.7c-1.8-2.8-2.2-6.3-1-9.4l16.7-46.1l-20.2-19.4
		c-3.1-2.9-4.1-7.4-2.7-11.4l17-47l-34.4-42.8c-1.3-1.6-2.1-3.5-2.3-5.5l-13.2-112c-0.5-4.2,1.5-8.3,5.2-10.5
		c3.7-2.2,8.3-2,11.7,0.5l30.3,21.7l108-42.1l47.7-36.2c2.2-14.9,12.6-35.1,31.6-61.5c15.1-21,29.9-37.8,30.5-38.6
		c0.5-0.6,1-1.1,1.6-1.5c12.5-9.3,37.2-51.9,57-89.7l-12,7.3c-8.2,16.9-20.3,28.1-36,33.4c-26.7,9-55.7-2.4-66.5-7.4
		c-36,11.2-58.9,9.3-69.8-5.6c-13.4-18.3-1.1-48.3,14.8-70.4c3.4-4.7,4.3-8.1,3.7-9.4c-1.8-3.8-13.6-7.3-22.5-7.8
		c-5.8-0.3-10.2-5.2-10.1-10.9l0.6-34.6l-28.7-26.5c-3.6-3.3-4.5-8.7-2.2-13l30.1-55.5l-13.5-63.9c-1.2-5.7,2.3-11.3,8-12.7
		c10-2.4,12.4-15.2,12.9-24.3l-39.1-1.3c-3-0.1-5.9-1.5-7.9-3.8c-2-2.3-2.8-5.4-2.4-8.4l5.2-37.3c-8.6-13.3-34-59.2-15-113.5
		c4.2-11.9,4-20.7-0.4-26.4c-8.6-11-33.2-11.3-41.1-10.5c-5.6,0.5-10.7-3.3-11.6-8.9c-1.2-7.2-3.7-15.2-5.6-19
		c-10.4,1.3-30,0.2-41.7-1c-37.2-3.9-46-11.5-49.5-17.7c-1.5-2.7-5.7-12.4,5.6-21.9c23.4-19.8,69.6-12.5,86.1-9l10.4-8.8l-13-23.3
		c-1.9-3.5-1.8-7.7,0.4-11.1l17.8-27.3l-2.2-26.1c-0.3-4,1.6-7.9,5-10c3.4-2.1,7.8-2.2,11.2-0.1l15.2,9.2l14.3-19.5
		c0-4.3-0.3-12.3-1.3-20.6c-2.3-18.2-6.3-22.7-7.2-23.5c-11.8,1-25.8-5.3-41.6-18.7c-10.8-9.2-18.7-18.5-19.1-18.9
		c-3.1-3.7-3.4-9-0.7-12.9c11.6-17.2,33-18.8,47.4-17.5c-1.1-5.6-3.1-12.6-6.9-19.8c-11.9-22-6.9-61.7-6.3-66.1c0.4-3,2-5.6,4.5-7.3
		l24.2-17l-19-42.6c-10.3-1.1-20.8-2.1-24.7-2.3c-3.8,0.8-7.9-0.5-10.5-3.5c-0.8-1-1.5-2.1-1.9-3.3c-2.5-5.1-20.4-39.4-31.5-60.5
		c-0.9-1.8-1.4-3.8-1.2-5.9l2.8-34.3c0.4-5.2,4.5-9.3,9.6-9.8l28.1-2.9c-2.8-19.4-2.5-44.7-2-58.3l-44.3-7.7
		c-5.3-0.9-9.1-5.7-8.9-11.1l3.5-73.7c0-0.8,0.2-1.7,0.4-2.5c2.4-8.2,1.2-15-3.7-20.8c-4.1-4.9-9.3-7.3-9.3-7.4
		c-3.8-1.7-6.3-5.4-6.4-9.5c-0.1-4.2,2.2-8,5.9-9.9l14.4-7.3l-16.5-8.2c-2.7-1.4-4.8-3.8-5.6-6.8c-0.8-3-0.3-6.1,1.4-8.7l18-27.7
		c0.3-20.7,7.4-36,21-45.5c13.9-9.7,33.6-12.6,58.6-8.5c8.6,1.4,16.2,3.3,22,5l39.7-100.4c1.1-2.8,3.4-5,6.2-6.1
		c2.8-1.1,6-0.9,8.7,0.5l20.6,10.5c-0.8-13.1,2.5-23.6,9.9-31.3c11.8-12.3,30.3-13.3,43.5-12.1l-5.7-45.4c-0.6-4.4,1.7-8.7,5.6-10.8
		c3.9-2.1,8.7-1.6,12.1,1.3l7.1,6.1c0.3-1.7,0.9-3.3,1.9-4.7l25.1-34.9c2.4-3.3,6.5-5,10.6-4.3l12.6,2.2l-4.2-35.5
		c-0.2-1.4-0.1-2.8,0.3-4.1l24.5-89.2c0.9-3.2,3.1-5.7,6.1-7l43.5-18.6c2.6-1.1,5.6-1.2,8.2-0.1l34.3,13.9l108.4-43.4
		c2.2-0.9,4.6-1,6.9-0.4l46.3,12.8l53.2-32.3c1.9-1.2,4.2-1.7,6.5-1.5l48.8,4l20.1-21.7l-20.7-27.9c-30.4,11.6-86.7,16-93.7,16.5
		c-5.6,0.4-10.6-3.6-11.4-9.1l-3.5-24l-23.4-1.9c-3.1-0.3-6-1.9-7.9-4.5s-2.5-5.8-1.7-8.9l9.8-38.8c-17.8-28.3-16.4-64-16.3-65.6
		c0.1-3,1.5-5.8,3.8-7.7c2.3-1.9,5.2-2.8,8.2-2.5c27.1,3.2,49.7-7.2,59.8-13l-5.6-25.3c-0.7-3.3,0.1-6.8,2.4-9.4
		c2.2-2.6,5.6-3.9,9-3.6l30,2.5l19.6-34.1c2.4-4.1,7.2-6.2,11.9-5.1c49.4,12.1,109.5,0.1,131.9-5.3l-4.9-35.4c-0.8-5.7,3-11,8.7-12
		l21.2-3.9l18.2-58.7c1.2-3.9,4.6-6.8,8.7-7.5l42.5-6.4c4.1-0.6,8.1,1.1,10.4,4.5c7.1,10.3,42.6,18.7,64.4,21.1
		c4.6,0.5,8.4,3.9,9.3,8.5l7.5,36l83.1,20.5c4.2,1,7.4,4.6,8.1,8.9c8.1,56.7,74.1,81.7,74.7,82c4,1.5,6.7,5.2,7,9.4
		c0.3,4.2-2,8.2-5.7,10.2l-44.7,23.3l-13.6,55.7c-0.8,3.3-3.1,6-6.3,7.3l-49.4,20.9l-11.2,31.5c-1.7,4.8-6.6,7.8-11.6,7
		c-44.9-6.4-71,46.4-74.7,54.4l-7.3,42l43.4,9.6c3.2,0.7,6,2.9,7.4,5.9s1.4,6.5-0.2,9.5l-14.2,27.8c3.8,1.7,7.9,4.1,11.4,7.9
		c8,8.3,11.4,19.9,10.3,34.7c-1.7,21.8,15.4,57.3,26.8,77.4c50.8-43,72.9-141,73.1-142.1c0.8-3.8,3.7-6.9,7.4-8l35.8-10.6
		c-9.8-44-5.1-79.7,14-106.3c21.5-30,55.1-39.3,70.7-42.1l11.7-62.8c0.6-3.3,2.8-6.1,5.8-7.6c26-13,40.4-25.1,43-36.1
		c2.5-11-7-23.4-18.1-37.7c-13.9-17.9-29.6-38.3-26.6-64.3c6.5-56.7-3.3-118.7-3.4-119.3c-0.4-2.4,0.1-4.9,1.3-7
		c3.8-6.7,38.6-65.8,77.1-67.7c10-0.5,24.7,2.8,37.5,20.9c17.5,24.8,22.6,43.4,15.6,57c-4,7.8-10.8,11.6-16.6,13.5l-0.5,15
		c35.9,1.4,60.7-6.1,71.9-21.9c15.7-22.1,3.5-55.9,1-62.2l-47.2-62.8l-16.7,0.5c-4.6,0.1-8.8-2.7-10.4-7.1l-28.2-78.7
		c-1.5-4.2-0.2-8.9,3.2-11.8l50.4-42.7c3.5-3,8.6-3.4,12.5-1c10,6.1,23.9,12.3,33.2,7.2c10.4-5.7,14.2-24.2,15.1-33.9
		c-13.8-19.5-17-36.9-9.6-51.9c18.8-37.8,101.5-38.5,110.8-38.5c2.2,0,4.4,0.7,6.2,2l123.8,89.1c2.4,1.7,3.9,4.3,4.4,7.1
		c0.4,2.9-0.3,5.8-2.1,8.1c-11.2,14.7-15.3,28.8-12.2,41.9c6.3,26.5,39.4,42.9,39.7,43c4.6,2.2,7,7.4,5.7,12.4
		c-22.6,88,86.5,174.2,113.5,194l25.2-17.7c4.2-3,10-2.5,13.7,1.1l37.9,37.1l104.5-5.6c3.3-0.2,6.6,1.2,8.8,3.8l18.3,21.5l51-12.4
		l43.7-45.7c2.6-2.8,6.5-3.9,10.3-3l27.2,6.5l59.5-36.4l9.9-65.7c0.8-5.5,5.7-9.4,11.2-9.1l88.6,4.8c2.9,0.2,5.6,1.5,7.5,3.7
		c1.9,2.2,2.9,5,2.6,7.9l-7.1,88l93.2,42.1c3.5,1.6,5.9,4.9,6.3,8.8c6.6,69.6-22.4,129.6-23.6,132.1c-1.2,2.4-3.2,4.3-5.7,5.2
		l-41.6,16.7l-11.8,30.6l18.7,24.2c2.1,2.7,2.8,6.1,1.9,9.4c-0.9,3.3-3.2,5.9-6.4,7.2l-51.5,20.6l-17.4,54.6l12.6,44.8
		c1.1,3.9-0.1,8.1-3.1,10.9c-3,2.7-7.3,3.5-11.1,2l-79-31.2c-5-2-7.7-7.3-6.5-12.4l9.6-40.9l-128.7-80.3l-20.4,13.7
		c-4.1,2.7-9.5,2.4-13.2-0.9l-30-26.9l1,49.4c0.1,3.5-1.6,6.9-4.5,8.9c-2.9,2.1-6.6,2.6-9.9,1.4l-17.3-6.3l-16.2,34l42.5,40.5
		c2.3,2.2,3.6,5.4,3.3,8.6l-3.6,44l77.1-4.3c1.8-0.1,3.7,0.3,5.3,1.1l164.1,80c2.2,1.1,3.9,2.8,4.9,4.9l27.6,56.5
		c0.4,0.8,0.7,1.6,0.8,2.4l10.5,48.2l51.6-6.1l36.8-26.3c4.7-3.4,11.2-2.4,14.7,2.2l54,69.8l43.1,37.4c2.7,2.3,4,5.8,3.6,9.3
		c-0.4,3.5-2.5,6.6-5.6,8.3l-51.7,27.8c-1.4,0.8-3,1.2-4.6,1.3l-49.3,2.1l-0.7,56.9c24.6,27.5,45.1,85.1,52.1,106.2
		c65.6-0.6,159.8,36.5,179.6,44.6c13.5-2.9,31.9,2.6,56,16.6c18.2,10.6,33,22.3,33.6,22.8c2.6,2.1,4.2,5.3,4.1,8.7l-3.5,135.3
		c-0.1,3.7-2,7-5.2,8.9l-23.8,14.4l-5.3,93.4l22.2,28.4c2,2.6,2.7,5.9,2,9.1c-0.7,3.2-2.9,5.8-5.8,7.2l-56.9,27.2l-13.5,62
		l50.8,54.6c1.8,1.9,2.8,4.3,2.9,6.9l1.4,38.8l53.6,75.9c2.6,3.7,2.6,8.6,0.1,12.3l-19,27.7l16.6,36.5l103.8,39.4
		c4.5,1.7,7.4,6.3,6.9,11.1c-0.5,4.8-4.1,8.7-8.9,9.6l-97.1,16.4c3.2,18.5,9.7,57,13,82.3c2.2,17-6.9,41.6-27.8,75.5
		c-7.5,12.1-15,23-20.7,30.9l76.6,20.7c2.6,0.7,4.9,2.4,6.3,4.7l50.3,80.6c1.2,2,1.8,4.3,1.6,6.6l-3.9,48l23,38.8l59,35.7
		c3,1.8,5,5.1,5.2,8.6l1.8,35.3l39.6,95.5c21.9-1.6,38.7,4.3,50,17.6c22.1,26,13.9,72.5,9.2,91.7l18.7,10.4
		c4.1,2.3,6.2,6.9,5.3,11.5l-15.8,78.7l23.9,45.6c1.7,3.2,1.6,7.1-0.1,10.2l-57.8,103.7c-1.9,3.5-5.6,5.6-9.6,5.5l-75.1-1.6
		l-57.1,98c-1.5,2.6-4,4.4-6.9,5.1l-55.7,12.9l29.1,45.5l25.2-7.4c3.4-1,7.1-0.2,9.8,2c2.7,2.3,4.2,5.7,3.9,9.3
		c-2.8,31.1-24.2,53.2-37.2,63.9l8.3,9.8c3.7,4.3,3.4,10.8-0.7,14.7l-37.9,36.4l-10.6,45.3c-0.7,2.9-2.6,5.4-5.2,6.9
		c-2.6,1.5-5.7,1.8-8.6,0.9l-27.7-8.8l-85.8,33.2c-4.1,1.6-8.7,0.5-11.7-2.6l-15.9-16.8c-18.8,12.8-51.2,21.2-96.6,24.8
		c-27.3,2.2-52.1,2.1-64.7,1.9c-6.3,20.8-17.9,35-34.5,42.2c-38.3,16.7-88.3-12.4-90.4-13.7c-3.1-1.8-5.1-5.1-5.3-8.8l-1-21.9
		c-5.5,3.2-11.9,6.9-18.3,10.6c-8.4,4.9-16.9,9.7-23.2,13.4c-3.2,1.8-5.9,3.4-7.7,4.4c-1,0.6-1.8,1-2.3,1.3
		c-7.6,4.1-12.5-0.3-13.8-1.8c-1.2-1.3-2-2.9-2.5-4.5c-1.1-2.5-5.1-10.7-9.5-19.7l-34.2,14.6c-5.1,2.2-11.1,0.1-13.7-4.9l-11.8-22.3
		l-44.7,2.4l-63,44.6c-2.9,2.1-6.8,2.6-10.1,1.2l-10.5-4.1l-2.2,27c0,0.7-0.1,1.3-0.3,2c-0.1,0.4-0.2,0.9-0.4,1.3l-80.8,218.9
		c0,0,0,0,0,0c0,0,0,0,0,0c-0.7,2-2.1,3.7-3.8,4.9c-0.7,0.5-6.1,4.3-15.2,10.1c-20.4,13.1-41.4,24.5-62.8,34.1
		c-17.4,8-36.9,16-57.8,22.6c-37.4,11.9-72.9,17.5-105.7,16.8c-0.3,0-0.6,0-1,0c-6.4-0.2-12.6-0.6-18.8-1.2
		c-47.4-4.9-88.5-24-122.1-56.8l-32.3-9.6l-9,39.6c-0.7,3.1-2.8,5.7-5.6,7.2c-2.8,1.4-6.2,1.6-9.1,0.3l-32.9-14l-27,68.5
		c-0.5,1.3-1.3,2.5-2.3,3.5l-35.5,36.5c-3.5,20,3.1,39.3,19.6,57.4c13.7,15,29.4,23.5,29.6,23.5c4,2.1,6.3,6.6,5.6,11.1l-5.2,34.1
		c-0.8,5-4.9,8.8-9.9,9.1c-61.6,4-73.1,22.1-74.5,24.6c-0.4,2.9-1.9,4.9-4.3,6.6C2494,4569.8,2492.3,4570.2,2490.5,4570.2z
		 M2499.9,4561.7C2499.9,4561.7,2499.9,4561.7,2499.9,4561.7L2499.9,4561.7z M2434.3,4535.4l49.9,11.6c2.6-3.4,6.5-7.2,12.3-11.1
		c15.2-10.1,38-16.5,67.9-19.2l2.8-18.5c-6.8-4.4-17.9-12.3-28.2-23.5c-22.4-24.2-30.9-51.8-24.6-80c0.4-1.9,1.4-3.7,2.8-5.2
		l36.2-37.3l30.3-76.8c1.1-2.7,3.2-4.9,5.8-6c2.7-1.1,5.7-1.1,8.4,0l31.2,13.3l8.7-38.3c0.7-2.9,2.5-5.4,5.1-6.9
		c2.6-1.5,5.6-1.9,8.5-1l16.6,4.9c-45.3-62-97.4-110-112.4-123.3c-4.3,1-10.6,2.4-17.5,3.3c-19,2.4-32.1-0.1-39.9-7.7
		c-4.7-4.5-9.5-12.9-5.7-27c5.8-21.6-39.7-58.2-62.6-72.5c-2-1.3-3.5-3.1-4.4-5.4c-26-69.6-45.9-82-53.3-84c-3.6-1-5.6,0-6.3,0.5
		c-1.9,2.1-4,2.7-6.9,2.8l-39.7,1.7c-1.9,0.1-3.8-0.3-5.5-1.2c-0.6-0.3-60.3-32-122.1-74.5c-84.4-58.1-132.4-108-142.7-148.4
		c-22.6-88.8-101.9-243.8-102.7-245.4c-0.6-1.1-1-2.4-1.1-3.6c-3.3-27.4-8.7-72.1-10.1-79.8c-10.5-19-63.7-122.2-95.8-222.7
		c-15.3-48-3.7-99.1,33.6-147.9c27.5-36,59.1-58,60.4-58.9c2.4-1.7,5.4-2.3,8.2-1.7c2.9,0.6,5.4,2.3,6.9,4.8l65.9,103.4l37.3,12
		c3.8,1.2,6.6,4.4,7.3,8.3l6.1,33.4l15.3,11.3c2.1,1.6,3.6,3.9,4.1,6.5l42.4,207.5c71.5,221.1,156.9,315.4,215.9,355.5
		c62.9,42.8,109.7,34.4,110.2,34.3c2.2-0.5,4.4-0.2,6.4,0.7l54.9,24.2c0.6,0.3,1.2,0.6,1.8,1l128.7,89.5c1.1,0.8,2,1.7,2.8,2.8
		c9.4,13.8,28.1,34.8,38.6,36.2c22.8,3,52.1,28.5,55.3,31.3c1,0.9,1.8,1.9,2.4,3.1c6.7,13.1,25.4,39.6,40,37.9
		c28.8-3.4,54.6,28.2,62.1,38.4c32.9,13.5,85.4,29,99.7,20.9c4.6-2.6,18.8-10.6,84.6-11.1c31.5-0.2,60.1,1.4,60.4,1.4
		c0.9,0.1,1.8,0.2,2.6,0.5l29.1,9.3l13.9-1.6l2.7-32.8c0.3-3.4,2.1-6.4,5-8.2s6.4-2.1,9.6-0.9l18.6,7.3l60.8-43
		c1.7-1.2,3.6-1.9,5.6-2l54.6-2.9c4.1-0.2,8.1,2,10.1,5.7l10.4,19.6l34.4-14.7c5.2-2.2,11.3,0,13.8,5.1c0,0.1,3.9,7.7,7.6,15.3
		c0.9,1.9,1.8,3.7,2.6,5.2c13.9-8,39.5-22.8,57.1-33c3.3-1.9,7.3-1.9,10.6-0.1c3.3,1.8,5.4,5.2,5.6,9l1.5,33.5
		c12.1,6.1,43.5,19.6,66,9.8c12.2-5.3,20.2-17.1,24.3-35.8c1.1-5.1,5.7-8.6,11-8.4c36.3,1.6,136.4-0.2,162.3-27.1
		c2-2.1,4.8-3.3,7.7-3.3c0,0,0,0,0.1,0c2.9,0,5.7,1.2,7.7,3.4l17.8,18.8l82.6-32c2.3-0.9,4.8-1,7.1-0.2l20.3,6.4l8.7-37.1
		c0.5-2,1.5-3.9,3-5.3l32.9-31.6l-9.2-10.8c-2-2.4-2.9-5.6-2.4-8.7c0.5-3.1,2.3-5.8,5-7.5c0.3-0.2,23.2-14.6,33-38.4l-15.1,4.4
		c-4.6,1.3-9.5-0.5-12.1-4.5l-41.7-65.1c-1.9-2.9-2.2-6.6-0.9-9.8c1.3-3.2,4.1-5.6,7.5-6.4l66-15.3l57.9-99.5c2-3.4,5.6-5.4,9.5-5.3
		l74.9,1.6l51.8-93l-23-43.8c-1.1-2.2-1.5-4.7-1-7.1l15-74.8l-19.2-10.7c-4.5-2.5-6.6-7.8-5-12.6c4.9-15.6,13.9-60.3-2.7-79.8
		c-7.6-8.9-20.7-12-38.9-9.3c-4.9,0.7-9.6-2-11.5-6.5l-43.4-104.6c-0.5-1.1-0.7-2.3-0.8-3.6l-1.6-31.5l-56.4-34.1
		c-1.5-0.9-2.8-2.2-3.7-3.7l-26.1-44.1c-1.1-1.9-1.6-4.1-1.5-6.3l3.9-47.9l-46.2-74l-87.8-23.7c-3.5-0.9-6.3-3.6-7.4-7
		c-1.1-3.4-0.5-7.2,1.7-10c22.3-28.4,56.5-81.6,53.7-103.2c-4.3-33.6-14.6-91.3-14.7-91.9c-0.5-2.8,0.1-5.7,1.8-8.1s4.2-3.9,7-4.4
		l68.7-11.6l-70.9-26.9c-2.6-1-4.8-3-6-5.6l-21-46.1c-1.6-3.4-1.2-7.4,0.9-10.5l18.2-26.5l-51.1-72.4c-1.2-1.7-1.9-3.7-2-5.8
		l-1.4-38l-51.9-55.8c-2.4-2.6-3.4-6.2-2.6-9.6l15.8-72.7c0.7-3.2,2.9-6,5.9-7.4l49.6-23.7l-16.4-21.1c-1.6-2.1-2.4-4.6-2.3-7.2
		l5.9-103c0.2-3.5,2.1-6.7,5.1-8.6l23.6-14.3l3.2-124c-22.7-17.1-56.9-36.3-68.8-31.6c-2.6,1-5.5,1-8.1-0.1
		c-1.1-0.5-115.2-48.3-181.8-44.1c-5,0.3-9.5-2.8-11-7.6c-0.2-0.8-25-81.3-52.4-108.5c-2.1-2-3.2-4.8-3.2-7.8l0.8-71.4
		c0.1-5.7,4.6-10.4,10.3-10.6l57.1-2.4l35.8-19.3l-32.1-27.9c-0.5-0.5-1-1-1.5-1.5l-48.4-62.5l-30.7,21.9c-1.5,1-3.2,1.7-5,1.9
		l-64,7.6c-5.5,0.7-10.6-3-11.8-8.4l-12.4-56.5l-25.4-52l-158.2-77.2l-86.6,4.8c-3.1,0.2-6.1-1-8.3-3.2c-2.2-2.2-3.3-5.3-3-8.4
		l4.1-51.2l-44.5-42.3c-3.4-3.2-4.3-8.2-2.3-12.4l23.8-49.8c2.4-5,8.2-7.4,13.4-5.5l11.7,4.2l-1.1-58.4c-0.1-4.3,2.4-8.2,6.3-10
		c3.9-1.8,8.5-1.1,11.6,1.8l42.2,37.8l19.2-12.9c3.5-2.4,8.1-2.4,11.7-0.2l141.2,88c3.9,2.4,5.8,7.1,4.8,11.6l-9.2,39.3l50.3,19.8
		l-7.6-27.1c-0.6-2-0.5-4.2,0.1-6.2l19.9-62.5c1-3.1,3.3-5.5,6.2-6.7l43-17.2l-13.7-17.7c-2.3-3-2.9-6.9-1.5-10.4l15.6-40.6
		c1.1-2.8,3.3-5,6-6.1l42-16.8c5.6-13,23.6-59.1,20.4-110.8l-94.4-42.6c-4.1-1.9-6.7-6.1-6.3-10.7l6.8-84.5l-67.8-3.7l-9.2,61
		c-0.5,3.1-2.3,5.9-5,7.6l-67.6,41.3c-2.4,1.5-5.3,1.9-8.1,1.3l-25.5-6.1l-41.6,43.5c-1.4,1.5-3.2,2.5-5.2,3l-60.5,14.7
		c-3.9,1-8.1-0.4-10.7-3.5l-19.1-22.5l-103.9,5.5c-3,0.2-5.9-0.9-8.1-3.1l-34.8-34.1l-24.1,16.9c-3.6,2.5-8.5,2.6-12.1,0.1
		c-1.6-1.1-39.5-26.6-74.5-66.1c-20.8-23.5-36.2-47-45.8-70c-11.1-26.6-14.4-52.5-9.9-77.2c-12.6-7.7-37.2-25.8-43.7-53.1
		c-4-16.8-0.7-33.9,9.7-51l-112.4-80.9c-30.5,0.4-78.7,7.7-88.1,26.6c-3.9,7.8-0.6,18.8,9.9,32.5c1.5,1.9,2.2,4.3,2.2,6.8
		c-0.1,4.3-1.7,42.1-26.5,55.7c-13.1,7.2-29.2,5.9-47.9-3.9l-39,33l23.1,64.4l14.5-0.4c3.5-0.1,6.8,1.5,8.9,4.3l51.3,68.3
		c0.5,0.6,0.9,1.4,1.2,2.1c0.9,2,21.7,50-2.6,84.3c-17.1,24.2-51.3,34.4-101.4,30.4c-5.7-0.5-10.1-5.3-9.9-11l1-34.1
		c0.2-5.8,4.7-10.4,10.5-10.4c0,0,0.1,0,0.1,0c1.4-0.1,6.7-0.8,8.1-3.7c0.7-1.5,3.5-10-14.1-34.8c-8.7-12.4-16.4-12-18.9-11.9
		c-19.2,0.9-44.6,32.2-57.6,53.7c2.1,14.9,9,69.3,3,121.3c-2,17.3,9.8,32.5,22.2,48.7c13.2,17.1,26.8,34.7,22,55.7
		c-3.9,17.2-19.7,32.5-49.5,48.1l-12.1,65.2c-0.9,4.8-4.9,8.4-9.8,8.8c-0.4,0-41.1,3.4-63.2,34.4c-16.5,23.1-19.2,56.2-8.1,98.3
		c1.5,5.6-1.8,11.4-7.3,13l-39.6,11.7c-6.4,25.2-33.2,118.2-89.8,156c-2.4,1.6-5.4,2.2-8.2,1.6c-2.8-0.6-5.3-2.3-6.8-4.8
		c-1.6-2.5-39.1-62-36.1-100.6c0.6-8.3-0.8-14.4-4.2-18c-4.2-4.5-10.9-4.7-11.6-4.7c-3.8,0.2-7.4-1.6-9.5-4.8
		c-2.1-3.2-2.2-7.4-0.5-10.8l14.2-27.8l-39.8-8.8c-5.6-1.2-9.3-6.7-8.3-12.3l9.3-53.5c0.1-0.8,0.4-1.6,0.7-2.3
		c0.3-0.8,8.2-19.4,23.6-37c19.1-21.8,41.6-32.8,65.5-32.2l10-28.1c1-2.8,3.2-5.1,5.9-6.3l48.8-20.6l13.5-55.2c0.7-3,2.7-5.5,5.5-7
		l30-15.6c-22.8-12.8-57.6-38.9-67-82.2l-82.9-20.5c-4-1-7.1-4.2-7.9-8.2l-7.4-35.2c-6.1-0.9-15.1-2.5-24.7-4.8
		c-20.2-5-34.3-11.2-42.6-19l-30.1,4.5l-18.1,58.5c-1.2,3.8-4.4,6.7-8.3,7.4l-17.5,3.2l4.8,34.7c0.7,5.3-2.5,10.3-7.6,11.8
		c-2.5,0.7-47.7,13.7-98.3,13.7c-15.1,0-30.7-1.2-45.8-4.1l-19.1,33.2c-2.1,3.6-6,5.7-10.2,5.4l-22.3-1.8l4.1,18.4
		c0.9,4.1-0.7,8.4-4,10.9c-1.3,1-29.1,21.5-68,21.5c-0.2,0-0.3,0-0.5,0c1,11.8,4.2,30.7,14.8,45.3c1.9,2.6,2.5,5.8,1.7,8.9
		l-7.8,31.2l19.3,1.6c5,0.4,9,4.2,9.7,9.1l3.3,22.4c24.1-2.3,67.1-8,83.7-16.9c4.7-2.6,10.6-1.3,13.8,3l31.2,42
		c3.1,4.2,2.8,9.9-0.8,13.7l-29.8,32.1c-2.2,2.4-5.5,3.7-8.8,3.4l-50.5-4.2l-54.2,32.9c-2.5,1.5-5.6,2-8.4,1.2l-47.3-13.1l-109,43.6
		c-2.6,1-5.4,1-8,0l-34.2-13.8l-34.6,14.8l-22.6,82.2l5.6,47.7c0.4,3.4-0.8,6.7-3.3,9.1c-2.5,2.3-5.9,3.4-9.2,2.8l-20.2-3.5
		l-19,26.5l0.6,18.6c0.1,4.3-2.3,8.2-6.1,10c-3.8,1.8-8.4,1.2-11.6-1.5l-4.3-3.7l4,32.1c0.4,3.6-0.9,7.1-3.6,9.5
		c-2.7,2.4-6.4,3.2-9.9,2.3c-7.1-1.9-29.2-5.3-37.7,3.6c-6.7,7-3.8,21.7-0.3,32.8c1.3,4.1,0,8.7-3.3,11.5c-3.3,2.8-8,3.4-11.8,1.4
		l-29.8-15.2l-39.1,98.8c-2.2,5.5-8.4,8.2-13.9,6.1c-13.3-5.1-51.8-15.4-70.6-2.3c-8.2,5.8-12.1,15.9-11.8,30.9
		c0,2.1-0.6,4.3-1.7,6.1l-13.2,20.3l24.8,12.4c3.6,1.8,5.9,5.5,6,9.6c0,4.1-2.3,7.8-5.9,9.6l-18.2,9.2c8.2,9.1,14.2,22.8,9.5,40.8
		l-3,63l44.3,7.7c5.4,0.9,9.2,5.8,8.9,11.2c-0.9,14.1-2,54.8,3.3,73.1c0.9,3.1,0.4,6.4-1.4,9c-1.8,2.6-4.6,4.4-7.8,4.7l-31,3.2
		l-1.8,22.3c10.5,19.9,22.2,42.2,27.8,53.3c3,0.2,7,0.6,11.9,1.1c8.5,0.8,16.9,1.8,17,1.8c3.8,0.4,7,2.8,8.6,6.3l25.1,56.3
		c2.1,4.7,0.6,10.2-3.6,13.2l-27.5,19.3c-1.4,14.8-1.4,37.7,4.4,48.5c11.9,22,10.6,42.7,10.6,43.6c-0.2,3.2-1.9,6.2-4.5,8.1
		c-2.6,1.9-6,2.4-9.1,1.6c-0.2-0.1-20.1-5.2-32.2,0.9c11.3,11.4,26.7,23.3,35.4,22.5c6.1-0.6,11.9,1.4,16.5,5.7
		c15.5,14.4,15.4,55.5,15.2,63.5c0,2.2-0.8,4.3-2.1,6.1l-22.2,30.2c-3.3,4.5-9.5,5.7-14.2,2.8l-5.5-3.3l0.7,8.8
		c0.2,2.4-0.4,4.8-1.7,6.8l-16.2,25l14.1,25.3c2.5,4.5,1.5,10.1-2.4,13.4l-21.2,18c-2.6,2.2-6.2,3.1-9.5,2.2
		c-12.5-3.1-49.2-9-67.7,0.2c5.3,1.7,14.4,3.7,28.8,5.1c18,1.8,33,1.5,36.2,0.9c4.2-1.3,8.5-0.8,12.3,1.5c7.5,4.5,11.9,16,14.4,26
		c13.6,0.1,37.6,2.7,50.4,19c9.3,11.8,10.6,27.5,3.8,46.8c-18.4,52.5,14.2,96.9,14.5,97.3c1.7,2.3,2.4,5.1,2,7.9l-4.2,29.6l37.3,1.2
		c5.3,0.2,9.7,4.2,10.3,9.5c0.1,0.5,1.3,11.5-1.1,23.5c-2.7,13.5-9,23.6-18.2,29.2l12.5,59.1c0.5,2.5,0.1,5.1-1.1,7.3l-28,51.7
		l26.1,24.1c2.2,2.1,3.5,5,3.4,8.1l-0.5,29.8c10.3,2,24.7,6.8,30.4,18.7c3.1,6.4,4.5,17-5.7,31.2c-14.7,20.3-19.1,39.2-14.8,45.1
		c1.3,1.7,9.7,9.8,50-3.5c2.8-0.9,6-0.6,8.6,0.8c0.3,0.2,29.7,16.1,53.6,8c10.9-3.7,18.9-11.8,24.6-24.8c0.9-2,2.4-3.8,4.3-4.9
		l46.8-28.2c4.1-2.5,9.3-1.9,12.8,1.3c3.5,3.2,4.5,8.3,2.4,12.6c-5.4,11.2-53,108.8-79.3,130c-22.1,25.2-56.4,71.5-56.5,90.8
		c0,3.3-1.6,6.5-4.2,8.5l-52.7,40c-0.8,0.6-1.7,1.1-2.6,1.5l-114.8,44.8c-3.4,1.3-7.2,0.8-10.2-1.3l-15.3-10.9l10,84.8l36.2,45.1
		c2.4,2.9,3,6.9,1.7,10.4l-16.7,46.1l20.2,19.4c3.1,2.9,4.1,7.4,2.7,11.4l-17.3,47.7l56.4,89.2c0.8,1.2,1.3,2.6,1.5,4.1l21.2,137.5
		l87.1-6.1c3.4-0.2,6.7,1.2,8.9,3.8l27.2,32l33.1,9.5c2.4,0.7,4.4,2.1,5.8,4.1l30,42.4l41.3-0.9c3-0.1,6,1.2,8.1,3.4
		s3.1,5.2,2.9,8.2l-2.1,26l47.7,3.9l48.8-24c1.9-0.9,4-1.3,6.1-1l46.3,6l47.1-44.1c2.4-2.3,5.8-3.3,9.1-2.8l84.4,13.7l8.9-20.8
		c1.6-3.8,5.2-6.3,9.3-6.5l37.2-1.9c0.7,0,1.4,0,2,0.1c2.9,0.4,71.1,10.2,121.8,38.1c45.1,24.8,89.1,12.2,89.6,12.1
		c3.3-1,6.9-0.3,9.6,1.8c2.7,2.1,4.3,5.4,4.2,8.8l-1,35.5c13.8,1.1,36.9,7,61,30.8c1.8,1.8,2.9,4.1,3.2,6.7l3.3,35.6l18.7-17.1
		c2.3-2.1,5.4-3.1,8.5-2.7c3.1,0.3,5.9,2,7.6,4.6l59.8,86.3c1.2,1.7,1.8,3.6,1.9,5.6l2.5,56.2l42.5,60.2c2.8,4,2.6,9.4-0.6,13.1
		l-17.5,20.7l67.4,25.9c2.8,1.1,5,3.2,6.1,6l5.3,13.2c20.4-12.5,62.8-33.1,88.1-6.2c1.8,1.9,2.8,4.3,2.9,6.8L2434.3,4535.4z
		 M2702.3,4253.7c34.1,33.8,76.3,51.5,125.9,53c0.4-0.1,0.7-0.1,1.1-0.1c52.7-2.6,103.5-14.6,151.9-35.9c32.2-14.6,57.2-30,69.4-38
		c1.9-1.2,3.8-2.5,5.7-3.8l73.7-199.5l-7.6,0.9c-1.5,0.2-3,0-4.5-0.4l-30-9.6c-42.6-2.4-115-2.5-131.8,7
		c-13.7,7.7-37.9,6.3-74.1-4.3c-25-7.3-46.4-16.3-47.3-16.7c-1.9-0.8-3.5-2.1-4.7-3.8c-6.1-8.9-27.2-33.8-43.8-31.9
		c-1.3,0.2-2.6,0.2-3.9,0.2c-29,0-51.3-37.8-56.8-47.7c-10.8-9.3-30.6-23.3-42.4-24.9c-22.3-2.9-45.7-34-52.5-43.7l-126.3-87.8
		l-51.1-22.6c-13.2,1.6-60.4,3.5-120.7-36.6c-40.1-26.7-78-66.8-112.7-119.1c-43-64.8-81.3-148.7-113.9-249.6
		c-0.1-0.4-0.2-0.8-0.3-1.2l-41.7-204.1l-15.4-11.4c-2.2-1.6-3.7-4-4.2-6.7l-5.7-31.2L2004,3073c-2.4-0.8-4.4-2.3-5.8-4.4
		l-61.7-96.8c-10.9,8.8-30,25.6-47,47.9c-33.1,43.5-43.1,86.5-29.9,127.9c32.1,100.4,87.7,207.9,94.4,219.5c2,2.7,2.4,5.6,7.5,46.4
		c2.1,16.6,4.1,33.2,4.7,38.8c9.3,18.2,81.4,161.1,103.5,248.2c8.8,34.6,55.1,81.6,133.9,135.9c53.6,36.9,105.6,65.6,117.5,72
		l33.6-1.4c4.2-2.5,11.5-5.3,21.3-3.1c23.7,5.3,46,36.2,68,94.3c6.4,4.2,21.3,14.5,35.8,27.8c27.1,24.9,38.3,47.3,33.1,66.5
		c-0.6,2.4-1,5.2-0.1,6.1c4.2,4.1,24.3,3,42.1-2.2c3.5-1,7.3-0.2,10,2.1C2568.3,4101,2645,4166.5,2702.3,4253.7z M3358.2,3969.6
		c-0.7,1-1.2,2-1.5,3C3357,3971.5,3357.5,3970.5,3358.2,3969.6z M2365.9,3925.1L2365.9,3925.1z M1935.2,3377.3
		c0.3,0.7,0.8,1.7,1.5,2.6C1936.6,3379.7,1936.1,3378.8,1935.2,3377.3z M1954.3,3367.5C1954.3,3367.5,1954.3,3367.5,1954.3,3367.5
		C1954.3,3367.5,1954.3,3367.5,1954.3,3367.5z M1129.3,2652.8c0,0-0.1,0-0.1,0C1129.2,2652.8,1129.3,2652.8,1129.3,2652.8z
		 M2656.3,3422.7c-4,0-7.8-2.2-9.7-6.1l-44.4-92.4c-0.2-0.4-0.4-0.9-0.5-1.3l-34.4-104.9l-60.2-32.8c-3-1.6-5-4.6-5.5-8l-7.1-52.6
		c-28.7-20.3-45.3-45.7-49.5-75.7c-8.7-63.2,42.1-122.9,44.3-125.4c2.2-2.5,5.4-3.9,8.7-3.7c63.9,3.4,96.3,28.2,112.2,48.4
		c12.6,16,17.2,31.8,18.8,39.9c1.2,0.7,2.3,1.5,3.4,2.2c25.7,16.4,50,31.9,60.5,73.4c0,0.1,0.1,0.2,0.1,0.3l12.6,57.5l16,61.7
		l80.9,61.3c1.9,1.4,3.3,3.5,3.9,5.8c3.9,14.4,2.1,27.7-5.3,39.6c-13.4,21.7-42.1,32.2-55.5,36l-6.9,34.6c-0.7,3.4-2.9,6.2-6,7.6
		l-71.9,33.5C2659.4,3422.4,2657.8,3422.7,2656.3,3422.7z M2621.8,3315.5l39.5,82.2l57.4-26.7l7.2-35.9c0.8-4.2,4.1-7.5,8.4-8.4
		c10-2.1,38.2-11.2,48.6-28.1c3.6-5.9,4.8-12.2,3.5-19.3l-80.7-61.2c-1.9-1.5-3.3-3.5-3.9-5.9l-17-65.5c0-0.1-0.1-0.3-0.1-0.4
		l-12.6-57.6c-8.4-33.1-26.4-44.5-51.2-60.4c-2.5-1.6-5-3.2-7.6-4.9c-2.8-1.8-4.6-4.9-4.9-8.2c-0.2-2.7-6.9-66.1-106.1-73.7
		c-10.5,13.6-42.2,59.4-36,104.5c3.4,24.9,18.3,46.3,44.1,63.4c2.6,1.7,4.3,4.5,4.7,7.5l7,51.9l59.1,32.2c2.4,1.3,4.2,3.5,5.1,6.1
		L2621.8,3315.5z M3174.2,3282.9c-0.8,0-1.6-0.1-2.3-0.3l-104.4-23.4c-4.3-1-7.5-4.4-8.2-8.7c-1-5.8-9.5-56.7-9.5-69.1
		c-0.3-6.4-13.3-41.1-25.3-69.5c-1.2-2.8-1.1-5.9,0.1-8.6c2-4.4,5.4-11.9,62.8-42.6c27-14.4,53.5-27.3,53.8-27.5
		c2.6-1.3,5.6-1.4,8.3-0.5c2.7,1,4.9,3,6.1,5.6l78,166.6c1.9,4.1,1.1,8.9-2.1,12.1l-28.7,28.7l-19.3,31.8
		C3181.4,3281,3177.9,3282.9,3174.2,3282.9z M3079.3,3239.9l89.8,20.1l16-26.3c0.4-0.7,1-1.4,1.6-2l24.3-24.3l-70.2-149.9
		c-39.4,19.5-81.4,42.4-93.9,52.4c9,21.5,24.3,60.1,24.4,71.5C3071.2,3188.6,3075.8,3218.5,3079.3,3239.9z"/>
</g>
</svg>
