<?xml version="1.0" encoding="UTF-8"?>
<svg xmlns="http://www.w3.org/2000/svg" xmlns:xlink="http://www.w3.org/1999/xlink" version="1.2" >
<font id="Akrobat ExtraBold">
<font-face  font-family="Akrobat" units-per-em="1000" ascent="931" descent="-273" font-style="normal" font-weight="800" font-stretch="normal" cap-height="700" x-height="529" underline-position="-75" underline-thickness="50" />
<missing-glyph  horiz-adv-x="500" d="M410 800 L93 800 L93 -200 L410 -200 L410 800 Z M333 733 L333 700 L267 700 L267 663 L333 663 L333 630 L167 630 L167 663 L233 663 L233 700 L168 700 L168 733 L333 733 Z M267 604 L267 534 L333 534 L333 500 L167 500 L167 604 L267 604 Z M233 570 L200 570 L200 534 L233 534 L233 570 Z M333 473 L333 440 L267 440 L267 370 L167 370 L167 403 L233 403 L233 440 L167 440 L167 473 L333 473 Z M333 413 L333 313 L167 313 L167 347 L300 347 L300 413 L333 413 Z M333 291 L333 178 L167 178 L167 291 L200 291 L200 211 L300 211 L300 258 L267 258 L267 235 L233 235 L233 291 L333 291 Z M333 118 L333 5 L167 5 L167 118 L333 118 Z M300 85 L200 85 L200 38 L300 38 L300 85 Z M333 -18 L333 -51 L301 -51 L231 -98 L333 -98 L333 -131 L167 -131 L167 -98 L237 -51 L167 -51 L167 -18 L333 -18 Z " />
<glyph glyph-name="NULL" d="" />
<glyph glyph-name="CR" unicode="&#xd;" horiz-adv-x="250" d="" />
<glyph glyph-name="space" unicode="&#x20;" horiz-adv-x="207" d="" />
<glyph glyph-name="exclam" unicode="&#x21;" horiz-adv-x="266" d="M73 181 L192 181 L192 700 L73 700 L73 181 Z M133 -12 C174 -12 201 16 201 57 C201 98 174 125 133 125 C92 125 65 98 65 57 C65 16 92 -12 133 -12 L133 -12 Z " />
<glyph glyph-name="quotedbl" unicode="&#x22;" horiz-adv-x="313" d="M42 700 L21 450 L92 450 L154 700 L42 700 Z M187 700 L167 450 L237 450 L300 700 L187 700 Z " />
<glyph glyph-name="numbersign" unicode="&#x23;" horiz-adv-x="646" d="M84 0 L191 0 L231 174 L337 174 L297 0 L405 0 L445 174 L560 174 L580 261 L464 261 L503 428 L618 428 L638 515 L523 515 L565 700 L457 700 L414 515 L309 515 L351 700 L244 700 L201 515 L86 515 L66 428 L181 428 L143 261 L28 261 L8 174 L124 174 L84 0 Z M250 261 L289 428 L394 428 L356 261 L250 261 Z " />
<glyph glyph-name="dollar" unicode="&#x24;" horiz-adv-x="472" d="M446 183 C446 403 161 407 161 529 C161 569 188 595 234 595 C281 595 309 568 310 512 L436 512 C435 619 379 691 284 709 L284 785 L182 785 L182 709 C90 690 36 621 36 532 C36 321 318 311 318 184 C318 139 291 106 235 106 C182 106 149 135 148 198 L22 198 C23 82 83 9 182 -9 L182 -85 L284 -85 L284 -10 C388 9 446 87 446 183 L446 183 Z " />
<glyph glyph-name="percent" unicode="&#x25;" horiz-adv-x="593" d="M111 388 C174 388 216 426 216 497 L216 601 C216 672 174 711 111 711 C48 711 6 672 6 601 L6 497 C6 426 48 388 111 388 L111 388 Z M17 0 L99 0 L575 700 L493 700 L17 0 Z M111 453 C90 453 78 464 78 496 L78 602 C78 635 90 646 111 646 C132 646 143 635 143 602 L143 496 C143 464 132 453 111 453 L111 453 Z M468 -9 C531 -9 573 29 573 101 L573 204 C573 276 531 315 468 315 C405 315 363 276 363 204 L363 101 C363 29 405 -9 468 -9 L468 -9 Z M468 56 C447 56 435 67 435 99 L435 206 C435 238 447 249 468 249 C489 249 500 238 500 206 L500 99 C500 67 489 56 468 56 L468 56 Z " />
<glyph glyph-name="ampersand" unicode="&#x26;" horiz-adv-x="597" d="M560 0 C527 50 496 95 468 136 C497 184 519 239 532 291 L422 291 C418 275 411 255 401 233 C366 283 337 324 312 358 C367 412 419 471 419 554 C419 634 374 714 262 714 C153 714 105 630 105 554 C105 502 132 444 175 375 C119 320 66 255 66 164 C66 47 154 -14 245 -14 C306 -14 359 12 402 53 C414 36 426 18 438 0 L560 0 Z M211 550 C211 593 235 612 262 612 C298 612 312 580 312 552 C312 515 287 482 252 448 C224 493 211 523 211 550 L211 550 Z M251 96 C211 96 181 125 181 173 C181 215 204 250 237 285 C268 241 303 194 340 142 C314 115 284 96 251 96 L251 96 Z " />
<glyph glyph-name="quotesingle" unicode="&#x27;" horiz-adv-x="168" d="M42 700 L21 450 L92 450 L154 700 L42 700 Z " />
<glyph glyph-name="parenleft" unicode="&#x28;" horiz-adv-x="302" d="M260 -123 L260 -13 C210 -11 184 17 184 71 L184 626 C184 680 210 709 260 710 L260 820 C136 819 66 744 66 619 L66 78 C66 -47 136 -122 260 -123 L260 -123 Z " />
<glyph glyph-name="parenright" unicode="&#x29;" horiz-adv-x="302" d="M42 -123 C166 -122 236 -47 236 78 L236 619 C236 744 166 819 42 820 L42 710 C92 709 118 680 118 626 L118 71 C118 17 92 -11 42 -13 L42 -123 Z " />
<glyph glyph-name="asterisk" unicode="&#x2a;" horiz-adv-x="313" d="M111 480 L156 542 L202 480 L264 525 L218 588 L292 611 L268 684 L195 660 L195 737 L118 737 L118 660 L45 684 L21 611 L95 587 L49 525 L111 480 Z " />
<glyph glyph-name="plus" unicode="&#x2b;" horiz-adv-x="471" d="M430 364 L290 364 L290 508 L181 508 L181 364 L41 364 L41 256 L181 256 L181 112 L290 112 L290 256 L430 256 L430 364 Z " />
<glyph glyph-name="comma" unicode="&#x2c;" horiz-adv-x="181" d="M44 110 L24 -140 L94 -140 L157 110 L44 110 Z " />
<glyph glyph-name="hyphen" unicode="&#x2d;" horiz-adv-x="315" d="M34 206 L281 206 L281 308 L34 308 L34 206 Z " />
<glyph glyph-name="period" unicode="&#x2e;" horiz-adv-x="200" d="M100 -12 C141 -12 169 16 169 57 C169 98 141 125 100 125 C59 125 32 98 32 57 C32 16 59 -12 100 -12 L100 -12 Z " />
<glyph glyph-name="slash" unicode="&#x2f;" horiz-adv-x="433" d="M326 815 L5 -121 L108 -121 L428 815 L326 815 Z " />
<glyph glyph-name="zero" unicode="0" horiz-adv-x="480" d="M239 -10 C361 -10 434 67 434 194 L434 504 C434 632 361 710 239 710 C119 710 46 632 46 504 L46 194 C46 67 119 -10 239 -10 L239 -10 Z M239 100 C187 100 159 133 159 194 L159 504 C159 566 187 600 239 600 C292 600 321 566 321 504 L321 194 C321 133 292 100 239 100 L239 100 Z " />
<glyph glyph-name="one" unicode="1" horiz-adv-x="307" d="M162 700 L24 608 L24 478 L124 541 L124 1 L241 1 L241 700 L162 700 Z " />
<glyph glyph-name="two" unicode="2" horiz-adv-x="430" d="M25 0 L401 0 L401 109 L148 109 C148 238 397 351 397 535 C397 623 337 712 212 712 C103 712 37 643 31 517 L143 517 C145 571 171 601 213 601 C259 601 280 567 280 530 C280 400 25 302 25 76 L25 0 Z " />
<glyph glyph-name="three" unicode="3" horiz-adv-x="429" d="M255 429 L375 622 L375 700 L37 700 L37 593 L232 593 L125 417 L125 338 L190 338 C243 338 273 317 273 245 L273 207 C273 135 254 103 200 103 C156 103 133 129 129 191 L13 191 C17 61 85 -12 202 -12 C333 -12 391 63 391 204 L391 249 C391 340 342 420 255 429 L255 429 Z " />
<glyph glyph-name="four" unicode="4" horiz-adv-x="447" d="M445 273 L370 273 L370 512 L273 512 L257 273 L135 273 L260 700 L143 700 L7 229 L7 166 L255 166 L255 0 L370 0 L370 166 L445 166 L445 273 Z " />
<glyph glyph-name="five" unicode="5" horiz-adv-x="446" d="M251 480 C221 480 193 470 171 456 L171 595 L391 595 L391 700 L54 700 L54 307 L169 307 C178 350 200 368 236 368 C274 368 295 345 295 276 L295 201 C295 126 272 103 231 103 C191 103 169 125 166 184 L47 184 C50 62 120 -12 231 -12 C342 -12 414 63 414 203 L414 275 C414 406 347 480 251 480 L251 480 Z " />
<glyph glyph-name="six" unicode="6" horiz-adv-x="454" d="M251 458 C219 458 187 447 165 429 L165 526 C165 574 191 597 231 597 C270 597 293 571 297 526 L415 526 C411 639 338 712 231 712 C121 712 46 638 46 524 L46 177 C46 63 123 -12 232 -12 C342 -12 419 63 419 177 L419 282 C419 385 349 458 251 458 L251 458 Z M300 178 C300 130 273 103 232 103 C192 103 165 130 165 178 L165 274 C165 322 191 350 232 350 C273 350 300 322 300 274 L300 178 Z " />
<glyph glyph-name="seven" unicode="7" horiz-adv-x="379" d="M-7 700 L-7 592 L226 592 L48 0 L171 0 L359 615 L359 700 L-7 700 Z " />
<glyph glyph-name="eight" unicode="8" horiz-adv-x="465" d="M355 367 C392 401 415 450 415 504 L415 522 C415 637 343 712 233 712 C122 712 51 637 51 522 L51 504 C51 451 73 400 110 366 C66 336 39 281 39 219 L39 191 C39 64 115 -12 233 -12 C350 -12 427 64 427 191 L427 219 C427 281 400 336 355 367 L355 367 Z M166 518 C166 573 190 598 233 598 C275 598 299 573 299 518 L299 500 C299 444 275 416 233 416 C190 416 166 444 166 500 L166 518 Z M309 191 C309 132 282 104 233 104 C183 104 156 132 156 191 L156 218 C156 277 183 306 233 306 C282 306 309 277 309 218 L309 191 Z " />
<glyph glyph-name="nine" unicode="9" horiz-adv-x="454" d="M222 712 C112 712 35 637 35 523 L35 418 C35 315 105 242 203 242 C235 242 267 253 289 271 L289 174 C289 126 263 103 223 103 C184 103 161 129 157 174 L39 174 C43 61 116 -12 223 -12 C333 -12 408 62 408 176 L408 523 C408 637 331 712 222 712 L222 712 Z M222 350 C181 350 154 378 154 426 L154 522 C154 570 181 597 222 597 C262 597 289 570 289 522 L289 426 C289 378 263 350 222 350 L222 350 Z " />
<glyph glyph-name="colon" unicode="&#x3a;" horiz-adv-x="186" d="M99 328 C140 328 168 356 168 397 C168 438 140 465 99 465 C58 465 31 438 31 397 C31 356 58 328 99 328 L99 328 Z M99 -12 C140 -12 168 16 168 57 C168 98 140 125 99 125 C58 125 31 98 31 57 C31 16 58 -12 99 -12 L99 -12 Z " />
<glyph glyph-name="semicolon" unicode="&#x3b;" horiz-adv-x="190" d="M98 330 C139 330 166 358 166 398 C166 439 139 467 98 467 C57 467 29 439 29 398 C29 358 57 330 98 330 L98 330 Z M44 110 L24 -140 L94 -140 L157 110 L44 110 Z " />
<glyph glyph-name="less" unicode="&#x3c;" horiz-adv-x="441" d="M400 492 L41 356 L41 242 L400 105 L400 215 L162 299 L400 382 L400 492 Z " />
<glyph glyph-name="equal" unicode="&#x3d;" horiz-adv-x="471" d="M41 350 L430 350 L430 457 L41 457 L41 350 Z M41 153 L430 153 L430 259 L41 259 L41 153 Z " />
<glyph glyph-name="greater" unicode="&#x3e;" horiz-adv-x="441" d="M41 492 L41 382 L279 299 L41 215 L41 105 L400 242 L400 356 L41 492 Z " />
<glyph glyph-name="question" unicode="&#x3f;" horiz-adv-x="403" d="M127 181 L243 181 L243 216 C243 356 379 376 379 530 C379 641 300 713 191 713 C79 713 11 636 4 513 L118 513 C120 570 144 604 192 604 C243 604 262 568 262 529 C262 414 127 403 127 215 L127 181 Z M186 -12 C227 -12 255 16 255 57 C255 98 227 125 186 125 C145 125 118 98 118 57 C118 16 145 -12 186 -12 L186 -12 Z " />
<glyph glyph-name="at" unicode="&#x40;" horiz-adv-x="818" d="M416 728 C183 728 42 602 42 379 L42 264 C42 19 183 -120 432 -120 C542 -120 622 -95 680 -55 L633 16 C580 -11 510 -30 426 -30 C237 -30 136 73 136 264 L136 379 C136 547 235 637 417 637 C590 637 682 556 682 399 L682 291 C682 220 656 182 607 182 C562 182 553 211 553 256 L553 504 L482 504 L475 466 C456 498 429 518 384 518 C313 518 257 469 257 361 L257 243 C257 143 309 90 390 90 C451 90 484 122 501 156 C518 122 546 92 607 92 C685 92 776 145 776 291 L776 399 C776 609 645 728 416 728 L416 728 Z M403 181 C372 181 354 203 354 246 L354 364 C354 406 373 427 404 427 C439 427 458 398 458 358 L458 252 C458 206 436 181 403 181 L403 181 Z " />
<glyph glyph-name="A" unicode="A" horiz-adv-x="485" d="M353 0 L481 0 L309 700 L177 700 L5 0 L133 0 L161 127 L325 127 L353 0 Z M186 244 L214 374 C224 422 235 499 241 546 L244 546 C251 499 262 422 272 374 L300 244 L186 244 Z " />
<glyph glyph-name="B" unicode="B" horiz-adv-x="513" d="M392 359 C432 390 456 445 456 505 C456 623 381 700 271 700 L66 700 L66 0 L277 0 C398 0 481 80 481 205 C481 273 448 331 392 359 L392 359 Z M252 584 C306 584 331 556 331 500 C331 443 306 412 256 412 L189 412 L189 584 L252 584 Z M258 116 L189 116 L189 297 L257 297 C319 297 355 266 355 205 C355 146 322 116 258 116 L258 116 Z " />
<glyph glyph-name="C" unicode="C" horiz-adv-x="498" d="M256 -12 C391 -12 470 66 475 208 L352 208 C347 138 317 107 256 107 C204 107 173 140 173 210 L173 490 C173 562 204 595 255 595 C315 595 345 564 349 492 L472 492 C466 635 390 714 256 714 C125 714 46 635 46 490 L46 210 C46 66 126 -12 256 -12 L256 -12 Z " />
<glyph glyph-name="D" unicode="D" horiz-adv-x="515" d="M66 0 L251 0 C388 0 469 85 469 229 L469 474 C469 617 388 700 249 700 L66 700 L66 0 Z M189 117 L189 583 L251 583 C312 583 345 546 345 474 L345 230 C345 156 312 117 251 117 L189 117 Z " />
<glyph glyph-name="E" unicode="E" horiz-adv-x="465" d="M189 116 L189 299 L399 299 L399 411 L189 411 L189 584 L418 584 L418 700 L66 700 L66 0 L428 0 L428 116 L189 116 Z " />
<glyph glyph-name="F" unicode="F" horiz-adv-x="428" d="M404 584 L404 700 L66 700 L66 0 L189 0 L189 296 L385 296 L385 409 L189 409 L189 584 L404 584 Z " />
<glyph glyph-name="G" unicode="G" horiz-adv-x="512" d="M260 -12 C392 -12 470 67 473 209 L473 386 L256 386 L256 277 L353 277 L353 209 C353 138 321 107 262 107 C205 107 173 138 173 211 L173 489 C173 562 204 593 260 593 C316 593 343 563 346 492 L469 492 C464 634 390 712 260 712 C126 712 46 634 46 489 L46 211 C46 67 127 -12 260 -12 L260 -12 Z " />
<glyph glyph-name="H" unicode="H" horiz-adv-x="548" d="M358 700 L358 412 L189 412 L189 700 L66 700 L66 0 L189 0 L189 295 L358 295 L358 0 L482 0 L482 700 L358 700 Z " />
<glyph glyph-name="I" unicode="I" horiz-adv-x="254" d="M66 700 L66 0 L189 0 L189 700 L66 700 Z " />
<glyph glyph-name="J" unicode="J" horiz-adv-x="304" d="M0 -136 C159 -136 241 -45 241 109 L241 700 L118 700 L118 109 C118 14 76 -14 0 -14 L0 -136 Z " />
<glyph glyph-name="K" unicode="K" horiz-adv-x="517" d="M377 0 L517 0 L299 395 L487 700 L345 700 L228 495 L187 413 L187 700 L66 700 L66 0 L187 0 L187 218 L230 285 L377 0 Z " />
<glyph glyph-name="L" unicode="L" horiz-adv-x="414" d="M189 117 L189 700 L66 700 L66 0 L408 0 L408 117 L189 117 Z " />
<glyph glyph-name="M" unicode="M" horiz-adv-x="708" d="M518 700 L405 426 C390 389 365 325 356 296 L352 296 C343 325 319 389 304 426 L190 700 L66 700 L66 0 L186 0 L186 219 C183 301 180 381 176 460 L181 462 C202 404 224 341 246 278 L293 154 L415 154 L462 278 C484 341 507 404 527 462 L532 460 C528 381 525 301 522 219 L522 0 L643 0 L643 700 L518 700 Z " />
<glyph glyph-name="N" unicode="N" horiz-adv-x="563" d="M376 700 L376 487 C376 423 383 310 393 231 L390 228 C373 271 352 326 334 371 L188 700 L66 700 L66 0 L187 0 L187 201 C187 274 181 393 172 472 L175 475 C194 423 219 359 240 304 L375 0 L497 0 L497 700 L376 700 Z " />
<glyph glyph-name="O" unicode="O" horiz-adv-x="533" d="M267 -12 C405 -12 487 77 487 225 L487 475 C487 623 405 712 267 712 C128 712 46 623 46 475 L46 225 C46 77 128 -12 267 -12 L267 -12 Z M267 107 C205 107 173 149 173 225 L173 475 C173 551 205 593 267 593 C329 593 360 551 360 475 L360 225 C360 149 329 107 267 107 L267 107 Z " />
<glyph glyph-name="P" unicode="P" horiz-adv-x="514" d="M260 700 L66 700 L66 0 L189 0 L189 235 L260 235 C401 235 484 320 484 467 C484 614 401 700 260 700 L260 700 Z M259 351 L189 351 L189 583 L259 583 C325 583 358 544 358 467 C358 390 325 351 259 351 L259 351 Z " />
<glyph glyph-name="Q" unicode="Q" horiz-adv-x="542" d="M493 475 C493 623 410 712 271 712 C132 712 50 623 50 475 L50 225 C50 77 132 -12 271 -12 C302 -12 330 -8 356 1 L419 -76 L491 -13 L436 53 C473 94 493 152 493 225 L493 475 Z M177 225 L177 475 C177 551 209 593 271 593 C333 593 365 551 365 475 L365 225 C365 149 333 107 271 107 C209 107 177 149 177 225 L177 225 Z " />
<glyph glyph-name="R" unicode="R" horiz-adv-x="516" d="M370 0 L505 0 L364 266 C435 300 474 372 474 474 C474 617 395 700 258 700 L66 700 L66 0 L189 0 L189 244 L245 244 L370 0 Z M189 583 L257 583 C316 583 348 545 348 473 C348 400 316 361 257 361 L189 361 L189 583 Z " />
<glyph glyph-name="S" unicode="S" horiz-adv-x="472" d="M234 -14 C369 -14 446 73 446 183 C446 403 161 407 161 529 C161 569 188 595 234 595 C281 595 309 568 310 512 L436 512 C435 637 359 714 234 714 C110 714 36 636 36 532 C36 321 318 311 318 184 C318 139 291 106 235 106 C182 106 149 135 148 198 L22 198 C23 63 105 -14 234 -14 L234 -14 Z " />
<glyph glyph-name="T" unicode="T" horiz-adv-x="440" d="M424 700 L16 700 L16 583 L157 583 L157 0 L283 0 L283 583 L424 583 L424 700 Z " />
<glyph glyph-name="U" unicode="U" horiz-adv-x="538" d="M269 -11 C403 -11 485 74 485 221 L485 700 L357 700 L357 221 C357 146 325 108 269 108 C213 108 181 146 181 221 L181 700 L54 700 L54 221 C54 74 136 -11 269 -11 L269 -11 Z " />
<glyph glyph-name="V" unicode="V" horiz-adv-x="479" d="M174 0 L305 0 L474 700 L346 700 L273 344 C262 288 250 210 241 153 L237 153 C229 210 217 288 206 344 L133 700 L5 700 L174 0 Z " />
<glyph glyph-name="W" unicode="W" horiz-adv-x="773" d="M641 700 L578 345 C569 294 554 205 548 154 L544 154 C537 205 522 292 513 347 L451 690 L322 690 L260 347 C251 292 236 205 229 154 L225 154 C219 205 204 294 195 345 L132 700 L5 700 L162 0 L293 0 L351 269 C367 340 380 439 385 496 L389 496 C393 439 406 340 422 269 L480 0 L611 0 L768 700 L641 700 Z " />
<glyph glyph-name="X" unicode="X" horiz-adv-x="492" d="M478 0 L312 362 L468 700 L334 700 L246 488 L158 700 L24 700 L180 362 L14 0 L149 0 L246 233 L343 0 L478 0 Z " />
<glyph glyph-name="Y" unicode="Y" horiz-adv-x="460" d="M169 0 L292 0 L292 218 L459 700 L331 700 L265 490 C256 462 241 411 232 377 L229 377 C220 411 205 462 196 488 L129 700 L1 700 L169 218 L169 0 Z " />
<glyph glyph-name="Z" unicode="Z" horiz-adv-x="427" d="M166 117 L400 615 L400 700 L31 700 L31 583 L250 583 L15 84 L15 0 L405 0 L405 117 L166 117 Z " />
<glyph glyph-name="bracketleft" unicode="&#x5b;" horiz-adv-x="311" d="M269 711 L269 820 L66 820 L66 -120 L269 -120 L269 -11 L183 -11 L183 711 L269 711 Z " />
<glyph glyph-name="backslash" unicode="&#x5c;" horiz-adv-x="505" d="M143 815 L41 815 L361 -121 L464 -121 L143 815 Z " />
<glyph glyph-name="bracketright" unicode="&#x5d;" horiz-adv-x="311" d="M42 -11 L42 -120 L245 -120 L245 820 L42 820 L42 711 L128 711 L128 -11 L42 -11 Z " />
<glyph glyph-name="asciicircum" unicode="&#x5e;" horiz-adv-x="349" d="M341 473 L225 700 L123 700 L7 473 L112 473 L175 606 L237 473 L341 473 Z " />
<glyph glyph-name="underscore" unicode="&#x5f;" horiz-adv-x="379" d="M17 -10 L17 -123 L362 -123 L362 -10 L17 -10 Z " />
<glyph glyph-name="a" unicode="a" horiz-adv-x="458" d="M228 542 C116 542 47 477 42 370 L160 370 C165 411 193 428 226 428 C270 428 286 397 286 343 L286 317 L224 317 C108 317 27 263 27 151 C27 54 89 -14 186 -14 C246 -14 283 14 303 50 L310 0 L405 0 L405 343 C405 472 348 542 228 542 L228 542 Z M286 162 C286 117 258 89 214 89 C169 89 147 115 147 151 C147 194 176 217 226 217 L286 217 L286 162 Z " />
<glyph glyph-name="b" unicode="b" horiz-adv-x="470" d="M259 542 C225 542 193 528 169 507 L169 725 L54 725 L54 -1 L136 -1 L143 47 C169 15 214 -12 259 -12 C361 -12 429 68 429 195 L429 336 C429 462 361 542 259 542 L259 542 Z M309 195 C309 131 284 100 241 100 C197 100 169 132 169 195 L169 336 C169 396 195 429 241 429 C285 429 309 400 309 336 L309 195 Z " />
<glyph glyph-name="c" unicode="c" horiz-adv-x="440" d="M226 -12 C343 -12 414 61 417 185 L298 185 C295 129 273 101 228 101 C185 101 161 129 161 185 L161 346 C161 401 185 429 228 429 C270 429 293 401 295 346 L414 346 C410 469 346 542 226 542 C111 542 42 469 42 346 L42 185 C42 61 111 -12 226 -12 L226 -12 Z " />
<glyph glyph-name="d" unicode="d" horiz-adv-x="470" d="M301 725 L301 507 C277 528 244 542 211 542 C109 542 42 462 42 336 L42 195 C42 68 110 -12 211 -12 C256 -12 302 15 328 48 L334 -1 L417 -1 L417 725 L301 725 Z M301 195 C301 132 274 100 230 100 C187 100 162 131 162 195 L162 336 C162 400 186 429 230 429 C275 429 301 396 301 336 L301 195 Z " />
<glyph glyph-name="e" unicode="e" horiz-adv-x="456" d="M305 167 C296 121 278 101 229 101 C185 101 160 129 160 192 L160 223 L417 223 L417 341 C417 468 346 542 228 542 C112 542 42 468 42 341 L42 192 C42 64 112 -12 227 -12 C343 -12 414 54 424 167 L305 167 Z M229 432 C275 432 300 404 300 342 L300 307 L160 307 L160 342 C160 404 185 432 229 432 L229 432 Z " />
<glyph glyph-name="f" unicode="f" horiz-adv-x="311" d="M273 632 L306 632 L306 739 L273 739 C139 739 84 658 84 549 L84 529 L9 529 L9 421 L84 421 L84 0 L201 0 L201 421 L296 421 L296 529 L201 529 L201 549 C201 608 222 632 273 632 L273 632 Z " />
<glyph glyph-name="g" unicode="g" horiz-adv-x="474" d="M337 529 L329 493 C299 525 258 542 211 542 C113 542 42 461 42 342 L42 220 C42 104 113 24 211 24 C245 24 275 34 300 51 L300 -22 C300 -60 277 -84 238 -84 C198 -84 177 -61 173 -23 L57 -23 C60 -126 126 -194 238 -194 C352 -194 420 -125 420 -22 L420 529 L337 529 Z M230 136 C185 136 161 164 161 220 L161 342 C161 400 185 428 230 428 C273 428 300 400 300 344 L300 220 C300 164 275 136 230 136 L230 136 Z " />
<glyph glyph-name="h" unicode="h" horiz-adv-x="473" d="M276 542 C232 542 197 520 172 485 L172 724 L54 724 L54 0 L172 0 L172 331 C172 395 200 429 244 429 C285 429 306 400 306 322 L306 0 L424 0 L424 323 C424 469 369 542 276 542 L276 542 Z " />
<glyph glyph-name="i" unicode="i" horiz-adv-x="226" d="M113 611 C152 611 182 643 182 680 C182 720 152 749 113 749 C73 749 45 720 45 680 C45 641 73 611 113 611 L113 611 Z M54 0 L172 0 L172 529 L54 529 L54 0 Z " />
<glyph glyph-name="j" unicode="j" horiz-adv-x="254" d="M131 610 C170 610 200 642 200 679 C200 719 170 748 131 748 C91 748 63 719 63 679 C63 640 91 610 131 610 L131 610 Z M-12 -194 C121 -193 191 -118 191 12 L191 529 L73 529 L73 5 C73 -52 47 -80 -12 -81 L-12 -194 Z " />
<glyph glyph-name="k" unicode="k" horiz-adv-x="449" d="M321 0 L454 0 L280 318 L430 529 L293 529 L171 344 L171 725 L54 725 L54 0 L171 0 L171 193 L202 226 L321 0 Z " />
<glyph glyph-name="l" unicode="l" horiz-adv-x="216" d="M49 0 L167 0 L167 725 L49 725 L49 0 Z " />
<glyph glyph-name="m" unicode="m" horiz-adv-x="712" d="M515 542 C458 542 415 517 388 471 C363 518 321 542 268 542 C212 542 169 517 143 473 L133 529 L54 529 L54 0 L171 0 L171 331 C171 395 199 429 240 429 C279 429 300 402 300 326 L300 0 L417 0 L417 331 C417 395 445 429 487 429 C525 429 546 402 546 326 L546 0 L663 0 L663 327 C663 470 607 542 515 542 L515 542 Z " />
<glyph glyph-name="n" unicode="n" horiz-adv-x="473" d="M272 542 C214 542 171 517 144 472 L134 529 L54 529 L54 0 L172 0 L172 331 C172 395 200 429 244 429 C285 429 306 400 306 325 L306 0 L424 0 L424 328 C424 472 367 542 272 542 L272 542 Z " />
<glyph glyph-name="o" unicode="o" horiz-adv-x="467" d="M233 -13 C353 -13 425 61 425 193 L425 336 C425 468 353 542 233 542 C114 542 42 468 42 336 L42 193 C42 61 114 -13 233 -13 L233 -13 Z M233 102 C188 102 162 130 162 193 L162 336 C162 400 188 427 233 427 C279 427 305 400 305 336 L305 193 C305 130 279 102 233 102 L233 102 Z " />
<glyph glyph-name="p" unicode="p" horiz-adv-x="470" d="M259 541 C214 541 169 514 143 481 L136 530 L54 530 L54 -180 L169 -180 L169 22 C193 0 225 -13 259 -13 C361 -13 429 66 429 193 L429 334 C429 461 361 541 259 541 L259 541 Z M309 193 C309 129 285 99 241 99 C195 99 169 133 169 193 L169 334 C169 397 197 429 241 429 C284 429 309 398 309 334 L309 193 Z " />
<glyph glyph-name="q" unicode="q" horiz-adv-x="470" d="M334 530 L328 481 C302 514 256 541 211 541 C110 541 42 461 42 334 L42 193 C42 66 109 -13 211 -13 C244 -13 277 0 301 21 L301 -180 L417 -180 L417 530 L334 530 Z M230 99 C186 99 162 129 162 193 L162 334 C162 398 187 429 230 429 C274 429 301 397 301 334 L301 193 C301 133 275 99 230 99 L230 99 Z " />
<glyph glyph-name="r" unicode="r" horiz-adv-x="345" d="M279 541 C218 541 172 516 144 471 L134 529 L54 529 L54 0 L172 0 L172 329 C172 396 210 430 271 430 C296 430 317 425 336 417 L336 531 C321 538 302 541 279 541 L279 541 Z " />
<glyph glyph-name="s" unicode="s" horiz-adv-x="425" d="M219 -14 C334 -14 402 51 402 147 C402 338 147 305 147 390 C147 418 170 437 207 437 C252 437 272 411 274 369 L388 369 C382 468 327 542 207 542 C99 542 30 485 30 391 C30 211 284 241 284 147 C284 115 259 94 216 94 C160 94 140 130 139 166 L21 166 C23 70 90 -14 219 -14 L219 -14 Z " />
<glyph glyph-name="t" unicode="t" horiz-adv-x="326" d="M265 104 C219 104 198 127 198 177 L198 422 L290 422 L290 529 L198 529 L198 655 L81 655 L81 529 L10 529 L10 422 L81 422 L81 178 C81 64 148 -7 258 -7 L298 -7 L298 104 L265 104 Z " />
<glyph glyph-name="u" unicode="u" horiz-adv-x="473" d="M301 529 L301 198 C301 134 273 100 229 100 C188 100 167 129 167 204 L167 529 L49 529 L49 201 C49 57 106 -13 201 -13 C259 -13 302 12 329 57 L339 0 L419 0 L419 529 L301 529 Z " />
<glyph glyph-name="v" unicode="v" horiz-adv-x="422" d="M295 529 L251 330 C238 267 222 181 214 139 L208 139 C201 181 185 267 171 330 L127 529 L2 529 L145 0 L277 0 L420 529 L295 529 Z " />
<glyph glyph-name="w" unicode="w" horiz-adv-x="652" d="M528 529 L491 320 C481 259 467 170 463 130 L458 130 C452 177 439 253 428 315 L389 519 L264 519 L224 315 C213 253 200 177 194 130 L189 130 C185 170 171 259 161 320 L124 529 L2 529 L125 0 L253 0 L288 152 C305 230 319 318 324 376 L329 376 C333 318 347 230 365 152 L400 0 L527 0 L650 529 L528 529 Z " />
<glyph glyph-name="x" unicode="x" horiz-adv-x="423" d="M427 0 L287 266 L414 529 L284 529 L211 367 L138 529 L9 529 L138 266 L-4 0 L129 0 L211 169 L294 0 L427 0 Z " />
<glyph glyph-name="y" unicode="y" horiz-adv-x="434" d="M311 529 L223 224 L125 529 L2 529 L173 54 L156 -6 C143 -50 130 -75 93 -75 L56 -75 L56 -189 L117 -189 C201 -189 242 -119 268 -27 L432 529 L311 529 Z " />
<glyph glyph-name="z" unicode="z" horiz-adv-x="371" d="M158 108 L347 454 L347 529 L25 529 L25 420 L198 420 L6 75 L6 0 L357 0 L357 108 L158 108 Z " />
<glyph glyph-name="braceleft" unicode="&#x7b;" horiz-adv-x="339" d="M222 495 L222 634 C222 679 249 708 298 708 L298 820 C178 820 106 745 106 620 L106 480 C106 435 83 410 42 408 L42 294 C83 292 106 266 106 222 L106 80 C106 -45 178 -120 298 -120 L298 -8 C249 -8 222 21 222 66 L222 207 C222 269 200 317 160 351 C200 385 222 433 222 495 L222 495 Z " />
<glyph glyph-name="bar" unicode="&#x7c;" horiz-adv-x="219" d="M49 803 L49 -96 L169 -96 L169 803 L49 803 Z " />
<glyph glyph-name="braceright" unicode="&#x7d;" horiz-adv-x="339" d="M233 478 L233 620 C233 745 161 820 41 820 L41 708 C90 708 117 679 117 634 L117 493 C117 431 139 383 179 349 C139 315 117 267 117 205 L117 66 C117 21 90 -8 41 -8 L41 -120 C161 -120 233 -45 233 80 L233 220 C233 265 256 290 297 292 L297 406 C256 408 233 434 233 478 L233 478 Z " />
<glyph glyph-name="asciitilde" unicode="&#x7e;" horiz-adv-x="475" d="M382 374 C366 348 347 336 322 336 C272 336 208 383 141 383 C100 383 64 366 32 317 L92 244 C109 269 127 281 153 281 C203 281 266 234 335 234 C376 234 413 252 445 300 L382 374 Z " />
<glyph glyph-name="exclamdown" unicode="&#xa1;" horiz-adv-x="266" d="M133 540 C92 540 65 513 65 472 C65 431 92 404 133 404 C174 404 201 431 201 472 C201 513 174 540 133 540 L133 540 Z M73 348 L73 -180 L192 -180 L192 348 L73 348 Z " />
<glyph glyph-name="cent" unicode="&#xa2;" horiz-adv-x="438" d="M416 185 L297 185 C295 129 272 101 227 101 C185 101 161 129 161 185 L161 345 C161 400 185 427 227 427 C269 427 292 400 294 345 L413 345 C410 452 361 520 270 536 L270 601 L178 601 L178 535 C92 518 42 450 42 345 L42 185 C42 79 92 10 178 -7 L178 -75 L270 -75 L270 -8 C360 9 413 78 416 185 L416 185 Z " />
<glyph glyph-name="sterling" unicode="&#xa3;" horiz-adv-x="482" d="M189 113 C199 132 205 157 205 188 L205 291 L362 291 L362 395 L205 395 L205 520 C205 569 228 593 262 593 C300 593 322 565 328 510 L447 510 C440 638 368 712 263 712 C157 712 86 635 86 519 L86 395 L26 395 L26 291 L86 291 L86 187 C86 135 70 107 27 102 L27 0 L451 0 L451 113 L189 113 Z " />
<glyph glyph-name="currency" unicode="&#xa4;" horiz-adv-x="465" d="M100 71 L144 130 C168 116 200 108 232 108 C265 108 297 116 321 130 L365 71 L433 120 L381 191 C395 216 402 249 402 283 L402 360 C402 395 395 426 382 452 L433 522 L365 572 L323 513 C298 527 266 536 232 536 C199 536 167 527 143 513 L100 572 L32 522 L83 452 C70 426 63 394 63 360 L63 283 C63 249 70 216 84 191 L32 120 L100 71 Z M232 212 C195 212 173 235 173 284 L173 359 C173 409 195 431 232 431 C270 431 292 409 292 359 L292 284 C292 235 270 212 232 212 L232 212 Z " />
<glyph glyph-name="yen" unicode="&#xa5;" horiz-adv-x="460" d="M459 700 L331 700 L265 490 C256 462 241 411 232 377 L229 377 C220 411 205 462 196 488 L129 700 L1 700 L144 291 L11 291 L11 219 L169 219 L169 158 L11 158 L11 86 L169 86 L169 0 L292 0 L292 86 L449 86 L449 158 L292 158 L292 219 L449 219 L449 291 L317 291 L459 700 Z " />
<glyph glyph-name="brokenbar" unicode="&#xa6;" horiz-adv-x="199" d="M39 488 L159 488 L159 803 L39 803 L39 488 Z M39 -92 L159 -92 L159 224 L39 224 L39 -92 Z " />
<glyph glyph-name="section" unicode="&#xa7;" horiz-adv-x="428" d="M346 216 C383 244 402 284 402 333 C402 528 153 502 153 589 C153 614 172 633 208 633 C250 633 268 609 270 567 L384 567 C378 667 324 739 208 739 C105 739 37 682 37 591 C37 541 57 506 89 479 C45 452 22 410 22 357 C22 176 279 198 279 107 C279 73 256 52 214 52 C162 52 144 87 142 123 L25 123 C27 28 90 -56 217 -56 C330 -56 397 8 397 106 C397 154 376 190 346 216 L346 216 Z M245 282 C179 304 139 323 139 360 C139 390 164 410 197 411 C245 391 284 369 284 330 C284 307 270 288 245 282 L245 282 Z " />
<glyph glyph-name="copyright" unicode="&#xa9;" horiz-adv-x="684" d="M342 -7 C528 -7 638 113 638 317 L638 393 C638 595 528 714 342 714 C156 714 46 595 46 393 L46 317 C46 113 156 -7 342 -7 L342 -7 Z M342 67 C201 67 126 154 126 317 L126 393 C126 554 201 639 342 639 C483 639 558 554 558 393 L558 317 C558 154 483 67 342 67 L342 67 Z M340 150 C423 150 473 202 475 291 L392 291 C390 252 373 232 342 232 C312 232 294 252 294 291 L294 414 C294 454 312 473 342 473 C371 473 388 454 389 414 L472 414 C470 502 424 554 340 554 C260 554 211 502 211 414 L211 291 C211 202 260 150 340 150 L340 150 Z " />
<glyph glyph-name="guillemotleft" unicode="&#xab;" horiz-adv-x="488" d="M147 86 L263 86 L136 257 L263 428 L147 428 L34 277 L34 237 L147 86 Z M338 86 L454 86 L327 257 L454 428 L338 428 L225 277 L225 237 L338 86 Z " />
<glyph glyph-name="logicalnot" unicode="&#xac;" horiz-adv-x="475" d="M441 364 L44 364 L44 256 L334 256 L334 187 L441 187 L441 364 Z " />
<glyph glyph-name="registered" unicode="&#xae;" horiz-adv-x="456" d="M231 714 C116 714 49 646 49 523 L49 464 C49 336 116 265 231 265 C345 265 412 336 412 464 L412 523 C412 646 345 714 231 714 L231 714 Z M369 463 C369 357 320 304 231 304 C141 304 92 357 92 463 L92 522 C92 623 141 673 231 673 C320 673 369 623 369 522 L369 463 Z M310 533 C310 584 282 613 233 613 L163 613 L163 369 L209 369 L209 453 L229 453 L271 369 L321 369 L272 461 C296 474 310 499 310 533 L310 533 Z M209 569 L232 569 C253 569 264 557 264 533 C264 509 253 496 232 496 L209 496 L209 569 Z " />
<glyph glyph-name="degree" unicode="&#xb0;" horiz-adv-x="311" d="M22 576 C22 494 75 439 156 439 C237 439 290 494 290 576 C290 657 237 712 156 712 C75 712 22 657 22 576 L22 576 Z M101 576 C101 612 122 636 156 636 C189 636 211 612 211 576 C211 540 189 516 156 516 C122 516 101 540 101 576 L101 576 Z " />
<glyph glyph-name="plusminus" unicode="&#xb1;" horiz-adv-x="475" d="M292 428 L292 558 L183 558 L183 428 L44 428 L44 322 L183 322 L183 192 L292 192 L292 322 L432 322 L432 428 L292 428 Z M44 45 L432 45 L432 146 L44 146 L44 45 Z " />
<glyph glyph-name="paragraph" unicode="&#xb6;" horiz-adv-x="615" d="M549 704 L207 704 C109 704 42 642 42 541 C42 441 109 379 207 379 L207 -91 L326 -91 L326 592 L430 592 L430 -91 L549 -91 L549 704 Z " />
<glyph glyph-name="periodcentered" unicode="&#xb7;" horiz-adv-x="200" d="M100 189 C141 189 169 217 169 258 C169 299 141 326 100 326 C59 326 32 299 32 258 C32 217 59 189 100 189 L100 189 Z " />
<glyph glyph-name="guillemotright" unicode="&#xbb;" horiz-adv-x="488" d="M150 86 L263 237 L263 277 L150 428 L34 428 L161 257 L34 86 L150 86 Z M341 86 L454 237 L454 277 L341 428 L225 428 L352 257 L225 86 L341 86 Z " />
<glyph glyph-name="questiondown" unicode="&#xbf;" horiz-adv-x="403" d="M209 538 C168 538 141 511 141 470 C141 429 168 402 209 402 C250 402 277 429 277 470 C277 511 250 538 209 538 L209 538 Z M269 346 L152 346 L152 311 C152 171 17 150 17 -3 C17 -115 95 -186 204 -186 C317 -186 384 -109 392 14 L278 14 C275 -43 251 -78 203 -78 C153 -78 133 -41 133 -2 C133 113 269 124 269 311 L269 346 Z " />
<glyph glyph-name="Agrave" unicode="&#xc0;" horiz-adv-x="485" d="M321 767 L227 899 L124 899 L235 767 L321 767 Z M353 0 L481 0 L309 700 L177 700 L5 0 L133 0 L161 127 L325 127 L353 0 Z M186 244 L214 374 C224 422 235 499 241 546 L244 546 C251 499 262 422 272 374 L300 244 L186 244 Z " />
<glyph glyph-name="Aacute" unicode="&#xc1;" horiz-adv-x="485" d="M375 899 L272 899 L178 767 L264 767 L375 899 Z M353 0 L481 0 L309 700 L177 700 L5 0 L133 0 L161 127 L325 127 L353 0 Z M186 244 L214 374 C224 422 235 499 241 546 L244 546 C251 499 262 422 272 374 L300 244 L186 244 Z " />
<glyph glyph-name="Acircumflex" unicode="&#xc2;" horiz-adv-x="485" d="M242 835 L288 767 L369 767 L288 898 L194 898 L113 767 L195 767 L242 835 Z M353 0 L481 0 L309 700 L177 700 L5 0 L133 0 L161 127 L325 127 L353 0 Z M186 244 L214 374 C224 422 235 499 241 546 L244 546 C251 499 262 422 272 374 L300 244 L186 244 Z " />
<glyph glyph-name="Atilde" unicode="&#xc3;" horiz-adv-x="485" d="M216 813 C240 813 253 784 294 784 C343 784 376 822 380 883 L309 883 C307 868 297 857 283 857 C260 857 247 886 205 886 C158 886 123 852 119 787 L191 787 C193 804 204 813 216 813 L216 813 Z M353 0 L481 0 L309 700 L177 700 L5 0 L133 0 L161 127 L325 127 L353 0 Z M186 244 L214 374 C224 422 235 499 241 546 L244 546 C251 499 262 422 272 374 L300 244 L186 244 Z " />
<glyph glyph-name="Adieresis" unicode="&#xc4;" horiz-adv-x="485" d="M165 778 C198 778 220 800 220 834 C220 868 198 890 165 890 C131 890 109 868 109 834 C109 800 131 778 165 778 L165 778 Z M319 778 C353 778 375 800 375 834 C375 868 353 890 319 890 C285 890 263 868 263 834 C263 800 285 778 319 778 L319 778 Z M353 0 L481 0 L309 700 L177 700 L5 0 L133 0 L161 127 L325 127 L353 0 Z M186 244 L214 374 C224 422 235 499 241 546 L244 546 C251 499 262 422 272 374 L300 244 L186 244 Z " />
<glyph glyph-name="Aring" unicode="&#xc5;" horiz-adv-x="485" d="M245 763 C297 763 332 797 332 848 C332 897 297 931 245 931 C193 931 159 897 159 848 C159 797 193 763 245 763 L245 763 Z M245 880 C265 880 278 867 278 847 C278 827 265 814 245 814 C226 814 213 827 213 847 C213 867 226 880 245 880 L245 880 Z M353 0 L481 0 L309 700 L177 700 L5 0 L133 0 L161 127 L325 127 L353 0 Z M186 244 L214 374 C224 422 235 499 241 546 L244 546 C251 499 262 422 272 374 L300 244 L186 244 Z " />
<glyph glyph-name="AE" unicode="&#xc6;" horiz-adv-x="705" d="M451 116 L451 299 L639 299 L639 411 L451 411 L451 584 L658 584 L658 700 L268 700 L0 0 L131 0 L179 132 L328 132 L328 0 L668 0 L668 116 L451 116 Z M221 248 L270 381 C290 436 310 507 324 564 L328 564 L328 248 L221 248 Z " />
<glyph glyph-name="Ccedilla" unicode="&#xc7;" horiz-adv-x="498" d="M475 208 L352 208 C347 138 317 107 256 107 C204 107 173 140 173 210 L173 490 C173 562 204 595 255 595 C315 595 345 564 349 492 L472 492 C466 635 390 714 256 714 C125 714 46 635 46 490 L46 210 C46 74 117 -3 234 -11 L215 -77 L234 -96 C244 -90 258 -88 268 -88 C292 -88 303 -100 303 -118 C303 -137 291 -152 267 -152 C247 -152 234 -142 227 -125 L161 -125 C166 -177 212 -212 266 -212 C329 -212 372 -176 372 -121 C372 -77 341 -47 299 -47 C294 -47 291 -47 289 -48 L300 -9 C408 6 471 82 475 208 L475 208 Z " />
<glyph glyph-name="Egrave" unicode="&#xc8;" horiz-adv-x="465" d="M316 767 L222 899 L119 899 L230 767 L316 767 Z M189 116 L189 299 L399 299 L399 411 L189 411 L189 584 L418 584 L418 700 L66 700 L66 0 L428 0 L428 116 L189 116 Z " />
<glyph glyph-name="Eacute" unicode="&#xc9;" horiz-adv-x="465" d="M370 899 L267 899 L173 767 L259 767 L370 899 Z M189 116 L189 299 L399 299 L399 411 L189 411 L189 584 L418 584 L418 700 L66 700 L66 0 L428 0 L428 116 L189 116 Z " />
<glyph glyph-name="Ecircumflex" unicode="&#xca;" horiz-adv-x="465" d="M237 835 L283 767 L364 767 L283 898 L189 898 L108 767 L190 767 L237 835 Z M189 116 L189 299 L399 299 L399 411 L189 411 L189 584 L418 584 L418 700 L66 700 L66 0 L428 0 L428 116 L189 116 Z " />
<glyph glyph-name="Edieresis" unicode="&#xcb;" horiz-adv-x="465" d="M160 778 C193 778 215 800 215 834 C215 868 193 890 160 890 C126 890 104 868 104 834 C104 800 126 778 160 778 L160 778 Z M314 778 C348 778 370 800 370 834 C370 868 348 890 314 890 C280 890 258 868 258 834 C258 800 280 778 314 778 L314 778 Z M189 116 L189 299 L399 299 L399 411 L189 411 L189 584 L418 584 L418 700 L66 700 L66 0 L428 0 L428 116 L189 116 Z " />
<glyph glyph-name="Igrave" unicode="&#xcc;" horiz-adv-x="254" d="M207 767 L113 899 L10 899 L121 767 L207 767 Z M66 700 L66 0 L189 0 L189 700 L66 700 Z " />
<glyph glyph-name="Iacute" unicode="&#xcd;" horiz-adv-x="254" d="M64 767 L150 767 L261 899 L158 899 L64 767 Z M66 700 L66 0 L189 0 L189 700 L66 700 Z " />
<glyph glyph-name="Icircumflex" unicode="&#xce;" horiz-adv-x="254" d="M128 835 L174 767 L255 767 L174 898 L80 898 L-1 767 L81 767 L128 835 Z M66 0 L189 0 L189 700 L66 700 L66 0 Z " />
<glyph glyph-name="Idieresis" unicode="&#xcf;" horiz-adv-x="259" d="M57 778 C91 778 113 800 113 834 C113 868 91 890 57 890 C23 890 1 868 1 834 C1 800 23 778 57 778 L57 778 Z M204 778 C238 778 260 800 260 834 C260 868 238 890 204 890 C170 890 148 868 148 834 C148 800 170 778 204 778 L204 778 Z M68 700 L68 0 L191 0 L191 700 L68 700 Z " />
<glyph glyph-name="Eth" unicode="&#xd0;" horiz-adv-x="525" d="M251 700 L73 700 L73 396 L7 396 L7 319 L73 319 L73 0 L253 0 C390 0 479 77 479 214 L479 490 C479 623 391 700 251 700 L251 700 Z M353 215 C353 141 318 117 259 117 L196 117 L196 319 L273 319 L273 396 L196 396 L196 583 L259 583 C318 583 353 559 353 489 L353 215 Z " />
<glyph glyph-name="Ntilde" unicode="&#xd1;" horiz-adv-x="563" d="M255 813 C279 813 292 784 333 784 C382 784 415 822 419 883 L348 883 C346 868 336 857 322 857 C299 857 286 886 244 886 C197 886 162 852 158 787 L230 787 C232 804 243 813 255 813 L255 813 Z M376 700 L376 487 C376 423 383 310 393 231 L390 228 C373 271 352 326 334 371 L188 700 L66 700 L66 0 L187 0 L187 201 C187 274 181 393 172 472 L175 475 C194 423 219 359 240 304 L375 0 L497 0 L497 700 L376 700 Z " />
<glyph glyph-name="Ograve" unicode="&#xd2;" horiz-adv-x="533" d="M345 767 L251 899 L148 899 L259 767 L345 767 Z M267 -12 C405 -12 487 77 487 225 L487 475 C487 623 405 712 267 712 C128 712 46 623 46 475 L46 225 C46 77 128 -12 267 -12 L267 -12 Z M267 107 C205 107 173 149 173 225 L173 475 C173 551 205 593 267 593 C329 593 360 551 360 475 L360 225 C360 149 329 107 267 107 L267 107 Z " />
<glyph glyph-name="Oacute" unicode="&#xd3;" horiz-adv-x="533" d="M202 767 L288 767 L399 899 L296 899 L202 767 Z M267 -12 C405 -12 487 77 487 225 L487 475 C487 623 405 712 267 712 C128 712 46 623 46 475 L46 225 C46 77 128 -12 267 -12 L267 -12 Z M267 107 C205 107 173 149 173 225 L173 475 C173 551 205 593 267 593 C329 593 360 551 360 475 L360 225 C360 149 329 107 267 107 L267 107 Z " />
<glyph glyph-name="Ocircumflex" unicode="&#xd4;" horiz-adv-x="533" d="M266 835 L312 767 L393 767 L312 898 L218 898 L137 767 L219 767 L266 835 Z M267 712 C128 712 46 623 46 475 L46 225 C46 77 128 -12 267 -12 C405 -12 487 77 487 225 L487 475 C487 623 405 712 267 712 L267 712 Z M360 225 C360 149 329 107 267 107 C205 107 173 149 173 225 L173 475 C173 551 205 593 267 593 C329 593 360 551 360 475 L360 225 Z " />
<glyph glyph-name="Otilde" unicode="&#xd5;" horiz-adv-x="533" d="M240 813 C264 813 277 784 318 784 C367 784 400 822 404 883 L333 883 C331 868 321 857 307 857 C284 857 271 886 229 886 C182 886 147 852 143 787 L215 787 C217 804 228 813 240 813 L240 813 Z M267 -12 C405 -12 487 77 487 225 L487 475 C487 623 405 712 267 712 C128 712 46 623 46 475 L46 225 C46 77 128 -12 267 -12 L267 -12 Z M267 107 C205 107 173 149 173 225 L173 475 C173 551 205 593 267 593 C329 593 360 551 360 475 L360 225 C360 149 329 107 267 107 L267 107 Z " />
<glyph glyph-name="Odieresis" unicode="&#xd6;" horiz-adv-x="533" d="M189 778 C222 778 244 800 244 834 C244 868 222 890 189 890 C155 890 133 868 133 834 C133 800 155 778 189 778 L189 778 Z M343 778 C377 778 399 800 399 834 C399 868 377 890 343 890 C309 890 287 868 287 834 C287 800 309 778 343 778 L343 778 Z M267 -12 C405 -12 487 77 487 225 L487 475 C487 623 405 712 267 712 C128 712 46 623 46 475 L46 225 C46 77 128 -12 267 -12 L267 -12 Z M267 107 C205 107 173 149 173 225 L173 475 C173 551 205 593 267 593 C329 593 360 551 360 475 L360 225 C360 149 329 107 267 107 L267 107 Z " />
<glyph glyph-name="multiply" unicode="&#xd7;" horiz-adv-x="471" d="M114 100 L236 222 L357 100 L434 177 L313 299 L434 419 L357 497 L236 375 L114 497 L38 419 L159 299 L37 177 L114 100 Z " />
<glyph glyph-name="Oslash" unicode="&#xd8;" horiz-adv-x="541" d="M415 666 L445 767 L350 767 L332 705 C313 710 292 712 270 712 C132 712 50 623 50 475 L50 225 C50 138 78 71 130 31 L100 -67 L195 -67 L213 -6 C231 -10 250 -12 270 -12 C409 -12 491 77 491 225 L491 475 C491 560 464 625 415 666 L415 666 Z M364 225 C364 149 332 107 270 107 C209 107 177 149 177 225 L177 475 C177 551 209 593 270 593 C332 593 364 551 364 475 L364 225 Z " />
<glyph glyph-name="Ugrave" unicode="&#xd9;" horiz-adv-x="538" d="M348 767 L254 899 L151 899 L262 767 L348 767 Z M269 -11 C403 -11 485 74 485 221 L485 700 L357 700 L357 221 C357 146 325 108 269 108 C213 108 181 146 181 221 L181 700 L54 700 L54 221 C54 74 136 -11 269 -11 L269 -11 Z " />
<glyph glyph-name="Uacute" unicode="&#xda;" horiz-adv-x="538" d="M205 767 L291 767 L402 899 L299 899 L205 767 Z M269 -11 C403 -11 485 74 485 221 L485 700 L357 700 L357 221 C357 146 325 108 269 108 C213 108 181 146 181 221 L181 700 L54 700 L54 221 C54 74 136 -11 269 -11 L269 -11 Z " />
<glyph glyph-name="Ucircumflex" unicode="&#xdb;" horiz-adv-x="538" d="M269 835 L315 767 L396 767 L315 898 L221 898 L140 767 L222 767 L269 835 Z M357 700 L357 221 C357 146 325 108 269 108 C213 108 181 146 181 221 L181 700 L54 700 L54 221 C54 74 136 -11 269 -11 C403 -11 485 74 485 221 L485 700 L357 700 Z " />
<glyph glyph-name="Udieresis" unicode="&#xdc;" horiz-adv-x="538" d="M192 778 C225 778 247 800 247 834 C247 868 225 890 192 890 C158 890 136 868 136 834 C136 800 158 778 192 778 L192 778 Z M346 778 C380 778 402 800 402 834 C402 868 380 890 346 890 C312 890 290 868 290 834 C290 800 312 778 346 778 L346 778 Z M269 -11 C403 -11 485 74 485 221 L485 700 L357 700 L357 221 C357 146 325 108 269 108 C213 108 181 146 181 221 L181 700 L54 700 L54 221 C54 74 136 -11 269 -11 L269 -11 Z " />
<glyph glyph-name="Yacute" unicode="&#xdd;" horiz-adv-x="460" d="M166 767 L252 767 L363 899 L260 899 L166 767 Z M169 0 L292 0 L292 218 L459 700 L331 700 L265 490 C256 462 241 411 232 377 L229 377 C220 411 205 462 196 488 L129 700 L1 700 L169 218 L169 0 Z " />
<glyph glyph-name="Thorn" unicode="&#xde;" horiz-adv-x="501" d="M260 595 L189 595 L189 700 L66 700 L66 0 L189 0 L189 129 L260 129 C401 129 484 214 484 362 C484 509 401 595 260 595 L260 595 Z M259 246 L189 246 L189 478 L259 478 C325 478 358 439 358 362 C358 285 325 246 259 246 L259 246 Z " />
<glyph glyph-name="germandbls" unicode="&#xdf;" horiz-adv-x="489" d="M376 364 C419 395 445 447 445 504 C445 629 369 714 250 714 C130 714 54 630 54 503 L54 0 L176 0 L176 503 C176 565 202 598 249 598 C296 598 321 565 321 505 C321 447 294 416 240 416 L224 416 L224 303 L245 303 C306 303 339 271 339 207 C339 147 306 117 242 117 L224 117 L224 0 L261 0 C381 0 465 81 465 207 C465 272 430 331 376 364 L376 364 Z " />
<glyph glyph-name="agrave" unicode="&#xe0;" horiz-adv-x="458" d="M304 609 L230 741 L127 741 L219 609 L304 609 Z M228 542 C116 542 47 477 42 370 L160 370 C165 411 193 428 226 428 C270 428 286 397 286 343 L286 317 L224 317 C108 317 27 263 27 151 C27 54 89 -14 186 -14 C246 -14 283 14 303 50 L310 0 L405 0 L405 343 C405 472 348 542 228 542 L228 542 Z M286 162 C286 117 258 89 214 89 C169 89 147 115 147 151 C147 194 176 217 226 217 L286 217 L286 162 Z " />
<glyph glyph-name="aacute" unicode="&#xe1;" horiz-adv-x="458" d="M343 741 L240 741 L166 609 L251 609 L343 741 Z M228 542 C116 542 47 477 42 370 L160 370 C165 411 193 428 226 428 C270 428 286 397 286 343 L286 317 L224 317 C108 317 27 263 27 151 C27 54 89 -14 186 -14 C246 -14 283 14 303 50 L310 0 L405 0 L405 343 C405 472 348 542 228 542 L228 542 Z M286 162 C286 117 258 89 214 89 C169 89 147 115 147 151 C147 194 176 217 226 217 L286 217 L286 162 Z " />
<glyph glyph-name="acircumflex" unicode="&#xe2;" horiz-adv-x="458" d="M229 677 L275 609 L356 609 L275 740 L181 740 L100 609 L182 609 L229 677 Z M228 542 C116 542 47 477 42 370 L160 370 C165 411 193 428 226 428 C270 428 286 397 286 343 L286 317 L224 317 C108 317 27 263 27 151 C27 54 89 -14 186 -14 C246 -14 283 14 303 50 L310 0 L405 0 L405 343 C405 472 348 542 228 542 L228 542 Z M286 162 C286 117 258 89 214 89 C169 89 147 115 147 151 C147 194 176 217 226 217 L286 217 L286 162 Z " />
<glyph glyph-name="atilde" unicode="&#xe3;" horiz-adv-x="458" d="M195 644 C219 644 232 615 273 615 C322 615 355 653 359 714 L288 714 C286 699 276 688 262 688 C239 688 226 717 184 717 C137 717 102 683 98 618 L170 618 C172 635 183 644 195 644 L195 644 Z M228 542 C116 542 47 477 42 370 L160 370 C165 411 193 428 226 428 C270 428 286 397 286 343 L286 317 L224 317 C108 317 27 263 27 151 C27 54 89 -14 186 -14 C246 -14 283 14 303 50 L310 0 L405 0 L405 343 C405 472 348 542 228 542 L228 542 Z M286 162 C286 117 258 89 214 89 C169 89 147 115 147 151 C147 194 176 217 226 217 L286 217 L286 162 Z " />
<glyph glyph-name="adieresis" unicode="&#xe4;" horiz-adv-x="458" d="M153 618 C187 618 209 640 209 674 C209 708 187 729 153 729 C119 729 97 708 97 674 C97 640 119 618 153 618 L153 618 Z M305 618 C338 618 361 640 361 674 C361 708 338 729 305 729 C271 729 248 708 248 674 C248 640 271 618 305 618 L305 618 Z M228 542 C116 542 47 477 42 370 L160 370 C165 411 193 428 226 428 C270 428 286 397 286 343 L286 317 L224 317 C108 317 27 263 27 151 C27 54 89 -14 186 -14 C246 -14 283 14 303 50 L310 0 L405 0 L405 343 C405 472 348 542 228 542 L228 542 Z M286 162 C286 117 258 89 214 89 C169 89 147 115 147 151 C147 194 176 217 226 217 L286 217 L286 162 Z " />
<glyph glyph-name="aring" unicode="&#xe5;" horiz-adv-x="458" d="M229 606 C281 606 316 640 316 691 C316 740 281 774 229 774 C177 774 143 740 143 691 C143 640 177 606 229 606 L229 606 Z M229 723 C249 723 262 710 262 690 C262 670 249 657 229 657 C210 657 197 670 197 690 C197 710 210 723 229 723 L229 723 Z M228 542 C116 542 47 477 42 370 L160 370 C165 411 193 428 226 428 C270 428 286 397 286 343 L286 317 L224 317 C108 317 27 263 27 151 C27 54 89 -14 186 -14 C246 -14 283 14 303 50 L310 0 L405 0 L405 343 C405 472 348 542 228 542 L228 542 Z M286 162 C286 117 258 89 214 89 C169 89 147 115 147 151 C147 194 176 217 226 217 L286 217 L286 162 Z " />
<glyph glyph-name="ae" unicode="&#xe6;" horiz-adv-x="694" d="M542 168 C535 122 517 101 470 101 C426 101 402 129 402 192 L402 225 L656 225 L656 341 C656 468 585 542 469 542 C420 542 378 523 348 488 C321 524 281 542 229 542 C117 542 47 477 42 370 L160 370 C165 411 193 428 227 428 C271 428 287 397 287 345 L287 315 L227 315 C108 315 27 263 27 152 C27 55 88 -13 185 -13 C268 -13 314 14 339 48 C368 14 414 -12 468 -12 C582 -12 653 54 662 168 L542 168 Z M402 342 C402 404 426 432 470 432 C514 432 539 404 539 342 L539 308 L402 308 L402 342 Z M287 162 C287 117 260 89 215 89 C169 89 147 115 147 152 C147 196 177 218 228 218 L287 218 L287 162 Z " />
<glyph glyph-name="ccedilla" unicode="&#xe7;" horiz-adv-x="440" d="M417 185 L298 185 C295 129 273 101 228 101 C185 101 161 129 161 185 L161 346 C161 401 185 429 228 429 C270 429 293 401 295 346 L414 346 C410 469 346 542 226 542 C111 542 42 469 42 346 L42 185 C42 72 99 2 196 -10 L177 -77 L196 -96 C206 -90 220 -88 230 -88 C254 -88 265 -100 265 -118 C265 -137 253 -152 229 -152 C209 -152 196 -142 189 -125 L123 -125 C128 -177 174 -212 228 -212 C291 -212 334 -176 334 -121 C334 -77 303 -47 261 -47 C256 -47 253 -47 251 -48 L261 -10 C357 4 414 74 417 185 L417 185 Z " />
<glyph glyph-name="egrave" unicode="&#xe8;" horiz-adv-x="456" d="M303 608 L229 740 L126 740 L218 608 L303 608 Z M305 167 C296 121 278 101 229 101 C185 101 160 129 160 192 L160 223 L417 223 L417 341 C417 468 346 542 228 542 C112 542 42 468 42 341 L42 192 C42 64 112 -12 227 -12 C343 -12 414 54 424 167 L305 167 Z M229 432 C275 432 300 404 300 342 L300 307 L160 307 L160 342 C160 404 185 432 229 432 L229 432 Z " />
<glyph glyph-name="eacute" unicode="&#xe9;" horiz-adv-x="456" d="M342 740 L239 740 L165 608 L250 608 L342 740 Z M305 167 C296 121 278 101 229 101 C185 101 160 129 160 192 L160 223 L417 223 L417 341 C417 468 346 542 228 542 C112 542 42 468 42 341 L42 192 C42 64 112 -12 227 -12 C343 -12 414 54 424 167 L305 167 Z M229 432 C275 432 300 404 300 342 L300 307 L160 307 L160 342 C160 404 185 432 229 432 L229 432 Z " />
<glyph glyph-name="ecircumflex" unicode="&#xea;" horiz-adv-x="456" d="M228 676 L274 608 L355 608 L274 739 L180 739 L99 608 L181 608 L228 676 Z M305 167 C296 121 278 101 229 101 C185 101 160 129 160 192 L160 223 L417 223 L417 341 C417 468 346 542 228 542 C112 542 42 468 42 341 L42 192 C42 64 112 -12 227 -12 C343 -12 414 54 424 167 L305 167 Z M229 432 C275 432 300 404 300 342 L300 307 L160 307 L160 342 C160 404 185 432 229 432 L229 432 Z " />
<glyph glyph-name="edieresis" unicode="&#xeb;" horiz-adv-x="456" d="M152 617 C186 617 208 639 208 673 C208 707 186 728 152 728 C118 728 96 707 96 673 C96 639 118 617 152 617 L152 617 Z M304 617 C337 617 360 639 360 673 C360 707 337 728 304 728 C270 728 247 707 247 673 C247 639 270 617 304 617 L304 617 Z M305 167 C296 121 278 101 229 101 C185 101 160 129 160 192 L160 223 L417 223 L417 341 C417 468 346 542 228 542 C112 542 42 468 42 341 L42 192 C42 64 112 -12 227 -12 C343 -12 414 54 424 167 L305 167 Z M229 432 C275 432 300 404 300 342 L300 307 L160 307 L160 342 C160 404 185 432 229 432 L229 432 Z " />
<glyph glyph-name="igrave" unicode="&#xec;" horiz-adv-x="226" d="M12 741 L104 609 L189 609 L115 741 L12 741 Z M54 0 L172 0 L172 529 L54 529 L54 0 Z " />
<glyph glyph-name="iacute" unicode="&#xed;" horiz-adv-x="226" d="M228 741 L125 741 L51 609 L136 609 L228 741 Z M54 0 L172 0 L172 529 L54 529 L54 0 Z " />
<glyph glyph-name="icircumflex" unicode="&#xee;" horiz-adv-x="238" d="M119 677 L163 609 L243 609 L164 740 L74 740 L-5 609 L74 609 L119 677 Z M60 0 L178 0 L178 529 L60 529 L60 0 Z " />
<glyph glyph-name="idieresis" unicode="&#xef;" horiz-adv-x="250" d="M55 620 C88 620 109 641 109 674 C109 707 88 728 55 728 C23 728 1 707 1 674 C1 641 23 620 55 620 L55 620 Z M196 620 C228 620 249 641 249 674 C249 707 228 728 196 728 C163 728 141 707 141 674 C141 641 163 620 196 620 L196 620 Z M65 0 L184 0 L184 529 L65 529 L65 0 Z " />
<glyph glyph-name="eth" unicode="&#xf0;" horiz-adv-x="466" d="M352 625 L403 650 L385 690 L323 659 C283 698 235 723 185 738 L143 645 C170 635 195 622 216 605 L159 577 L177 537 L249 573 C268 549 283 521 293 487 C271 500 247 506 221 506 C110 506 42 433 42 301 L42 194 C42 62 113 -12 232 -12 C351 -12 423 62 423 194 L423 378 C422 487 395 567 352 625 L352 625 Z M303 194 C303 131 277 103 232 103 C187 103 162 131 162 194 L162 301 C162 364 187 391 232 391 C277 391 303 364 303 301 L303 194 Z " />
<glyph glyph-name="ntilde" unicode="&#xf1;" horiz-adv-x="473" d="M203 643 C227 643 240 614 281 614 C330 614 363 652 367 713 L296 713 C294 698 284 687 270 687 C247 687 234 716 192 716 C145 716 110 682 106 617 L178 617 C180 634 191 643 203 643 L203 643 Z M272 542 C214 542 171 517 144 472 L134 529 L54 529 L54 0 L172 0 L172 331 C172 395 200 429 244 429 C285 429 306 400 306 325 L306 0 L424 0 L424 328 C424 472 367 542 272 542 L272 542 Z " />
<glyph glyph-name="ograve" unicode="&#xf2;" horiz-adv-x="467" d="M131 741 L223 609 L308 609 L234 741 L131 741 Z M233 -13 C353 -13 425 61 425 193 L425 336 C425 468 353 542 233 542 C114 542 42 468 42 336 L42 193 C42 61 114 -13 233 -13 L233 -13 Z M233 102 C188 102 162 130 162 193 L162 336 C162 400 188 427 233 427 C279 427 305 400 305 336 L305 193 C305 130 279 102 233 102 L233 102 Z " />
<glyph glyph-name="oacute" unicode="&#xf3;" horiz-adv-x="467" d="M347 741 L244 741 L170 609 L255 609 L347 741 Z M233 -13 C353 -13 425 61 425 193 L425 336 C425 468 353 542 233 542 C114 542 42 468 42 336 L42 193 C42 61 114 -13 233 -13 L233 -13 Z M233 102 C188 102 162 130 162 193 L162 336 C162 400 188 427 233 427 C279 427 305 400 305 336 L305 193 C305 130 279 102 233 102 L233 102 Z " />
<glyph glyph-name="ocircumflex" unicode="&#xf4;" horiz-adv-x="467" d="M233 677 L279 609 L360 609 L279 740 L185 740 L104 609 L186 609 L233 677 Z M233 542 C114 542 42 468 42 336 L42 193 C42 61 114 -13 233 -13 C353 -13 425 61 425 193 L425 336 C425 468 353 542 233 542 L233 542 Z M305 193 C305 130 279 102 233 102 C188 102 162 130 162 193 L162 336 C162 400 188 427 233 427 C279 427 305 400 305 336 L305 193 Z " />
<glyph glyph-name="otilde" unicode="&#xf5;" horiz-adv-x="467" d="M199 644 C223 644 236 615 277 615 C326 615 359 653 363 714 L292 714 C290 699 280 688 266 688 C243 688 230 717 188 717 C141 717 106 683 102 618 L174 618 C176 635 187 644 199 644 L199 644 Z M233 -13 C353 -13 425 61 425 193 L425 336 C425 468 353 542 233 542 C114 542 42 468 42 336 L42 193 C42 61 114 -13 233 -13 L233 -13 Z M233 102 C188 102 162 130 162 193 L162 336 C162 400 188 427 233 427 C279 427 305 400 305 336 L305 193 C305 130 279 102 233 102 L233 102 Z " />
<glyph glyph-name="odieresis" unicode="&#xf6;" horiz-adv-x="467" d="M157 618 C191 618 213 640 213 674 C213 708 191 729 157 729 C123 729 101 708 101 674 C101 640 123 618 157 618 L157 618 Z M309 618 C342 618 365 640 365 674 C365 708 342 729 309 729 C275 729 252 708 252 674 C252 640 275 618 309 618 L309 618 Z M233 -13 C353 -13 425 61 425 193 L425 336 C425 468 353 542 233 542 C114 542 42 468 42 336 L42 193 C42 61 114 -13 233 -13 L233 -13 Z M233 102 C188 102 162 130 162 193 L162 336 C162 400 188 427 233 427 C279 427 305 400 305 336 L305 193 C305 130 279 102 233 102 L233 102 Z " />
<glyph glyph-name="divide" unicode="&#xf7;" horiz-adv-x="471" d="M237 396 C276 396 302 422 302 461 C302 500 276 526 237 526 C198 526 172 500 172 461 C172 422 198 396 237 396 L237 396 Z M41 253 L430 253 L430 354 L41 354 L41 253 Z M237 75 C276 75 302 101 302 140 C302 179 276 205 237 205 C198 205 172 179 172 140 C172 101 198 75 237 75 L237 75 Z " />
<glyph glyph-name="oslash" unicode="&#xf8;" horiz-adv-x="454" d="M359 497 L399 603 L319 603 L293 533 C273 539 251 542 227 542 C107 542 35 468 35 336 L35 194 C35 120 57 65 98 30 L59 -71 L139 -71 L165 -4 C184 -9 205 -12 227 -12 C346 -12 419 62 419 194 L419 336 C419 408 397 462 359 497 L359 497 Z M298 194 C298 131 273 103 227 103 C181 103 155 131 155 194 L155 336 C155 400 181 427 227 427 C273 427 298 400 298 336 L298 194 Z " />
<glyph glyph-name="ugrave" unicode="&#xf9;" horiz-adv-x="473" d="M308 608 L234 740 L131 740 L223 608 L308 608 Z M301 529 L301 198 C301 134 273 100 229 100 C188 100 167 129 167 204 L167 529 L49 529 L49 201 C49 57 106 -13 201 -13 C259 -13 302 12 329 57 L339 0 L419 0 L419 529 L301 529 Z " />
<glyph glyph-name="uacute" unicode="&#xfa;" horiz-adv-x="473" d="M347 740 L244 740 L170 608 L255 608 L347 740 Z M301 529 L301 198 C301 134 273 100 229 100 C188 100 167 129 167 204 L167 529 L49 529 L49 201 C49 57 106 -13 201 -13 C259 -13 302 12 329 57 L339 0 L419 0 L419 529 L301 529 Z " />
<glyph glyph-name="ucircumflex" unicode="&#xfb;" horiz-adv-x="473" d="M233 676 L279 608 L360 608 L279 739 L185 739 L104 608 L186 608 L233 676 Z M301 529 L301 198 C301 134 273 100 229 100 C188 100 167 129 167 204 L167 529 L49 529 L49 201 C49 57 106 -13 201 -13 C259 -13 302 12 329 57 L339 0 L419 0 L419 529 L301 529 Z " />
<glyph glyph-name="udieresis" unicode="&#xfc;" horiz-adv-x="473" d="M157 617 C191 617 213 639 213 673 C213 707 191 728 157 728 C123 728 101 707 101 673 C101 639 123 617 157 617 L157 617 Z M309 617 C342 617 365 639 365 673 C365 707 342 728 309 728 C275 728 252 707 252 673 C252 639 275 617 309 617 L309 617 Z M301 529 L301 198 C301 134 273 100 229 100 C188 100 167 129 167 204 L167 529 L49 529 L49 201 C49 57 106 -13 201 -13 C259 -13 302 12 329 57 L339 0 L419 0 L419 529 L301 529 Z " />
<glyph glyph-name="yacute" unicode="&#xfd;" horiz-adv-x="434" d="M329 743 L226 743 L152 611 L237 611 L329 743 Z M311 529 L223 224 L125 529 L2 529 L173 54 L156 -6 C143 -50 130 -75 93 -75 L56 -75 L56 -189 L117 -189 C201 -189 242 -119 268 -27 L432 529 L311 529 Z " />
<glyph glyph-name="thorn" unicode="&#xfe;" horiz-adv-x="469" d="M259 552 C226 552 194 539 169 517 L169 724 L54 724 L54 -180 L169 -180 L169 27 C194 5 226 -8 259 -8 C361 -8 428 71 428 197 L428 346 C428 473 361 552 259 552 L259 552 Z M307 197 C307 134 284 104 241 104 C195 104 169 138 169 197 L169 346 C169 406 195 440 241 440 C284 440 307 410 307 346 L307 197 Z " />
<glyph glyph-name="ydieresis" unicode="&#xff;" horiz-adv-x="434" d="M139 620 C173 620 195 642 195 676 C195 710 173 731 139 731 C105 731 83 710 83 676 C83 642 105 620 139 620 L139 620 Z M291 620 C324 620 347 642 347 676 C347 710 324 731 291 731 C257 731 234 710 234 676 C234 642 257 620 291 620 L291 620 Z M311 529 L223 224 L125 529 L2 529 L173 54 L156 -6 C143 -50 130 -75 93 -75 L56 -75 L56 -189 L117 -189 C201 -189 242 -119 268 -27 L432 529 L311 529 Z " />
<glyph glyph-name="Amacron" unicode="&#x100;" horiz-adv-x="485" d="M350 870 L139 870 L139 791 L350 791 L350 870 Z M353 0 L481 0 L309 700 L177 700 L5 0 L133 0 L161 127 L325 127 L353 0 Z M186 244 L214 374 C224 422 235 499 241 546 L244 546 C251 499 262 422 272 374 L300 244 L186 244 Z " />
<glyph glyph-name="amacron" unicode="&#x101;" horiz-adv-x="458" d="M334 712 L123 712 L123 634 L334 634 L334 712 Z M228 542 C116 542 47 477 42 370 L160 370 C165 411 193 428 226 428 C270 428 286 397 286 343 L286 317 L224 317 C108 317 27 263 27 151 C27 54 89 -14 186 -14 C246 -14 283 14 303 50 L310 0 L405 0 L405 343 C405 472 348 542 228 542 L228 542 Z M286 162 C286 117 258 89 214 89 C169 89 147 115 147 151 C147 194 176 217 226 217 L286 217 L286 162 Z " />
<glyph glyph-name="Abreve" unicode="&#x102;" horiz-adv-x="485" d="M245 769 C314 769 365 812 368 891 L290 891 C289 861 269 844 244 844 C218 844 199 861 198 891 L119 891 C122 814 174 769 245 769 L245 769 Z M353 0 L481 0 L309 700 L177 700 L5 0 L133 0 L161 127 L325 127 L353 0 Z M186 244 L214 374 C224 422 235 499 241 546 L244 546 C251 499 262 422 272 374 L300 244 L186 244 Z " />
<glyph glyph-name="abreve" unicode="&#x103;" horiz-adv-x="458" d="M230 611 C299 611 350 654 353 733 L275 733 C274 703 254 686 229 686 C203 686 184 703 183 733 L104 733 C107 656 159 611 230 611 L230 611 Z M228 542 C116 542 47 477 42 370 L160 370 C165 411 193 428 226 428 C270 428 286 397 286 343 L286 317 L224 317 C108 317 27 263 27 151 C27 54 89 -14 186 -14 C246 -14 283 14 303 50 L310 0 L405 0 L405 343 C405 472 348 542 228 542 L228 542 Z M286 162 C286 117 258 89 214 89 C169 89 147 115 147 151 C147 194 176 217 226 217 L286 217 L286 162 Z " />
<glyph glyph-name="Aogonek" unicode="&#x104;" horiz-adv-x="486" d="M405 -76 C405 -56 422 -23 454 0 L481 0 L309 700 L177 700 L5 0 L133 0 L161 127 L325 127 L353 0 C319 -30 297 -67 297 -109 C297 -159 331 -194 393 -194 C418 -194 442 -193 466 -182 L466 -100 C457 -103 447 -103 437 -103 C417 -103 405 -96 405 -76 L405 -76 Z M186 244 L214 374 C224 422 235 499 241 546 L244 546 C251 499 262 422 272 374 L300 244 L186 244 Z " />
<glyph glyph-name="aogonek" unicode="&#x105;" horiz-adv-x="461" d="M341 -194 C356 -194 386 -192 408 -183 L408 -100 C398 -103 386 -105 376 -105 C358 -105 346 -98 346 -80 C346 -54 369 -24 407 0 L407 343 C407 472 351 542 229 542 C117 542 47 477 42 370 L160 370 C165 411 194 428 227 428 C272 428 288 397 288 343 L288 317 L226 317 C108 317 27 263 27 151 C27 54 89 -14 186 -14 C247 -14 285 14 305 50 L312 0 C270 -31 246 -62 246 -106 C246 -156 273 -194 341 -194 L341 -194 Z M215 89 C169 89 147 115 147 151 C147 194 177 217 227 217 L288 217 L288 162 C288 117 260 89 215 89 L215 89 Z " />
<glyph glyph-name="Cacute" unicode="&#x106;" horiz-adv-x="498" d="M187 767 L273 767 L384 899 L281 899 L187 767 Z M256 -12 C391 -12 470 66 475 208 L352 208 C347 138 317 107 256 107 C204 107 173 140 173 210 L173 490 C173 562 204 595 255 595 C315 595 345 564 349 492 L472 492 C466 635 390 714 256 714 C125 714 46 635 46 490 L46 210 C46 66 126 -12 256 -12 L256 -12 Z " />
<glyph glyph-name="cacute" unicode="&#x107;" horiz-adv-x="440" d="M344 741 L241 741 L167 609 L252 609 L344 741 Z M226 -12 C343 -12 414 61 417 185 L298 185 C295 129 273 101 228 101 C185 101 161 129 161 185 L161 346 C161 401 185 429 228 429 C270 429 293 401 295 346 L414 346 C410 469 346 542 226 542 C111 542 42 469 42 346 L42 185 C42 61 111 -12 226 -12 L226 -12 Z " />
<glyph glyph-name="Cdotaccent" unicode="&#x10a;" horiz-adv-x="498" d="M251 770 C290 770 320 801 320 838 C320 878 290 907 251 907 C211 907 183 878 183 838 C183 799 211 770 251 770 L251 770 Z M256 -12 C391 -12 470 66 475 208 L352 208 C347 138 317 107 256 107 C204 107 173 140 173 210 L173 490 C173 562 204 595 255 595 C315 595 345 564 349 492 L472 492 C466 635 390 714 256 714 C125 714 46 635 46 490 L46 210 C46 66 126 -12 256 -12 L256 -12 Z " />
<glyph glyph-name="cdotaccent" unicode="&#x10b;" horiz-adv-x="440" d="M229 611 C268 611 298 643 298 680 C298 720 268 749 229 749 C189 749 161 720 161 680 C161 641 189 611 229 611 L229 611 Z M226 -12 C343 -12 414 61 417 185 L298 185 C295 129 273 101 228 101 C185 101 161 129 161 185 L161 346 C161 401 185 429 228 429 C270 429 293 401 295 346 L414 346 C410 469 346 542 226 542 C111 542 42 469 42 346 L42 185 C42 61 111 -12 226 -12 L226 -12 Z " />
<glyph glyph-name="Ccaron" unicode="&#x10c;" horiz-adv-x="498" d="M298 768 L379 899 L298 899 L252 831 L205 899 L123 899 L204 768 L298 768 Z M352 208 C347 138 317 107 256 107 C204 107 173 140 173 210 L173 490 C173 562 204 595 255 595 C315 595 345 564 349 492 L472 492 C466 635 390 714 256 714 C125 714 46 635 46 490 L46 210 C46 66 126 -12 256 -12 C391 -12 470 66 475 208 L352 208 Z " />
<glyph glyph-name="ccaron" unicode="&#x10d;" horiz-adv-x="440" d="M276 610 L357 741 L276 741 L230 673 L183 741 L101 741 L182 610 L276 610 Z M298 185 C295 129 273 101 228 101 C185 101 161 129 161 185 L161 346 C161 401 185 429 228 429 C270 429 293 401 295 346 L414 346 C410 469 346 542 226 542 C111 542 42 469 42 346 L42 185 C42 61 111 -12 226 -12 C343 -12 414 61 417 185 L298 185 Z " />
<glyph glyph-name="Dcaron" unicode="&#x10e;" horiz-adv-x="515" d="M295 768 L376 899 L295 899 L249 831 L202 899 L120 899 L201 768 L295 768 Z M249 700 L66 700 L66 0 L251 0 C388 0 469 85 469 229 L469 474 C469 617 388 700 249 700 L249 700 Z M345 230 C345 156 312 117 251 117 L189 117 L189 583 L251 583 C312 583 345 546 345 474 L345 230 Z " />
<glyph glyph-name="dcaron" unicode="&#x10f;" horiz-adv-x="561" d="M483 776 L467 583 L538 583 L585 776 L483 776 Z M301 507 C277 528 244 542 211 542 C109 542 42 462 42 336 L42 195 C42 68 110 -12 211 -12 C256 -12 302 15 328 48 L334 -1 L417 -1 L417 725 L301 725 L301 507 Z M301 195 C301 132 274 100 230 100 C187 100 162 131 162 195 L162 336 C162 400 186 429 230 429 C275 429 301 396 301 336 L301 195 Z " />
<glyph glyph-name="Dcroat" unicode="&#x110;" horiz-adv-x="525" d="M251 700 L73 700 L73 396 L7 396 L7 319 L73 319 L73 0 L253 0 C390 0 479 77 479 214 L479 490 C479 623 391 700 251 700 L251 700 Z M353 215 C353 141 318 117 259 117 L196 117 L196 319 L273 319 L273 396 L196 396 L196 583 L259 583 C318 583 353 559 353 489 L353 215 Z " />
<glyph glyph-name="dcroat" unicode="&#x111;" horiz-adv-x="478" d="M484 654 L417 654 L417 725 L301 725 L301 654 L202 654 L202 593 L301 593 L301 507 C277 528 244 542 211 542 C109 542 42 462 42 336 L42 195 C42 68 110 -12 211 -12 C256 -12 302 15 328 48 L334 -1 L417 -1 L417 593 L484 593 L484 654 Z M301 195 C301 132 274 100 230 100 C187 100 162 131 162 195 L162 336 C162 400 186 429 230 429 C275 429 301 396 301 336 L301 195 Z " />
<glyph glyph-name="Emacron" unicode="&#x112;" horiz-adv-x="465" d="M345 870 L134 870 L134 791 L345 791 L345 870 Z M189 116 L189 299 L399 299 L399 411 L189 411 L189 584 L418 584 L418 700 L66 700 L66 0 L428 0 L428 116 L189 116 Z " />
<glyph glyph-name="emacron" unicode="&#x113;" horiz-adv-x="456" d="M333 711 L122 711 L122 633 L333 633 L333 711 Z M305 167 C296 121 278 101 229 101 C185 101 160 129 160 192 L160 223 L417 223 L417 341 C417 468 346 542 228 542 C112 542 42 468 42 341 L42 192 C42 64 112 -12 227 -12 C343 -12 414 54 424 167 L305 167 Z M229 432 C275 432 300 404 300 342 L300 307 L160 307 L160 342 C160 404 185 432 229 432 L229 432 Z " />
<glyph glyph-name="Edotaccent" unicode="&#x116;" horiz-adv-x="465" d="M237 770 C276 770 306 801 306 838 C306 878 276 907 237 907 C197 907 169 878 169 838 C169 799 197 770 237 770 L237 770 Z M189 116 L189 299 L399 299 L399 411 L189 411 L189 584 L418 584 L418 700 L66 700 L66 0 L428 0 L428 116 L189 116 Z " />
<glyph glyph-name="edotaccent" unicode="&#x117;" horiz-adv-x="456" d="M227 610 C266 610 296 642 296 679 C296 719 266 748 227 748 C187 748 159 719 159 679 C159 640 187 610 227 610 L227 610 Z M305 167 C296 121 278 101 229 101 C185 101 160 129 160 192 L160 223 L417 223 L417 341 C417 468 346 542 228 542 C112 542 42 468 42 341 L42 192 C42 64 112 -12 227 -12 C343 -12 414 54 424 167 L305 167 Z M229 432 C275 432 300 404 300 342 L300 307 L160 307 L160 342 C160 404 185 432 229 432 L229 432 Z " />
<glyph glyph-name="Eogonek" unicode="&#x118;" horiz-adv-x="467" d="M430 -100 C422 -103 411 -103 402 -103 C382 -103 370 -96 370 -75 C370 -56 391 -22 428 0 L428 116 L189 116 L189 299 L399 299 L399 411 L189 411 L189 584 L418 584 L418 700 L66 700 L66 0 L329 0 C288 -30 261 -66 261 -109 C261 -159 295 -194 358 -194 C383 -194 407 -193 431 -182 L430 -100 Z " />
<glyph glyph-name="eogonek" unicode="&#x119;" horiz-adv-x="456" d="M303 -194 C331 -194 355 -190 376 -182 L376 -100 C368 -103 358 -103 343 -103 C321 -103 305 -92 305 -66 C305 -40 330 -1 365 35 C395 65 419 112 424 168 L305 168 C296 123 278 101 229 101 C184 101 160 129 160 192 L160 223 L417 223 L417 341 C417 468 345 542 228 542 C112 542 42 467 42 341 L42 192 C42 64 111 -12 227 -12 C241 -12 254 -10 263 -8 L263 -9 C228 -38 206 -71 206 -108 C206 -160 240 -194 303 -194 L303 -194 Z M160 307 L160 342 C160 405 185 432 229 432 C275 432 300 404 300 342 L300 307 L160 307 Z " />
<glyph glyph-name="Ecaron" unicode="&#x11a;" horiz-adv-x="465" d="M284 768 L365 899 L284 899 L238 831 L191 899 L109 899 L190 768 L284 768 Z M189 116 L189 299 L399 299 L399 411 L189 411 L189 584 L418 584 L418 700 L66 700 L66 0 L428 0 L428 116 L189 116 Z " />
<glyph glyph-name="ecaron" unicode="&#x11b;" horiz-adv-x="456" d="M274 609 L355 740 L274 740 L228 672 L181 740 L99 740 L180 609 L274 609 Z M305 167 C296 121 278 101 229 101 C185 101 160 129 160 192 L160 223 L417 223 L417 341 C417 468 346 542 228 542 C112 542 42 468 42 341 L42 192 C42 64 112 -12 227 -12 C343 -12 414 54 424 167 L305 167 Z M229 432 C275 432 300 404 300 342 L300 307 L160 307 L160 342 C160 404 185 432 229 432 L229 432 Z " />
<glyph glyph-name="Gbreve" unicode="&#x11e;" horiz-adv-x="512" d="M259 769 C328 769 379 812 382 891 L304 891 C303 861 283 844 258 844 C232 844 213 861 212 891 L133 891 C136 814 188 769 259 769 L259 769 Z M260 -12 C392 -12 470 67 473 209 L473 386 L256 386 L256 277 L353 277 L353 209 C353 138 321 107 262 107 C205 107 173 138 173 211 L173 489 C173 562 204 593 260 593 C316 593 343 563 346 492 L469 492 C464 634 390 712 260 712 C126 712 46 634 46 489 L46 211 C46 67 127 -12 260 -12 L260 -12 Z " />
<glyph glyph-name="gbreve" unicode="&#x11f;" horiz-adv-x="474" d="M233 611 C302 611 353 654 356 733 L278 733 C277 703 257 686 232 686 C206 686 187 703 186 733 L107 733 C110 656 162 611 233 611 L233 611 Z M337 529 L329 493 C299 525 258 542 211 542 C113 542 42 461 42 342 L42 220 C42 104 113 24 211 24 C245 24 275 34 300 51 L300 -22 C300 -60 277 -84 238 -84 C198 -84 177 -61 173 -23 L57 -23 C60 -126 126 -194 238 -194 C352 -194 420 -125 420 -22 L420 529 L337 529 Z M230 136 C185 136 161 164 161 220 L161 342 C161 400 185 428 230 428 C273 428 300 400 300 344 L300 220 C300 164 275 136 230 136 L230 136 Z " />
<glyph glyph-name="Gdotaccent" unicode="&#x120;" horiz-adv-x="512" d="M256 770 C295 770 325 801 325 838 C325 878 295 907 256 907 C216 907 188 878 188 838 C188 799 216 770 256 770 L256 770 Z M260 -12 C392 -12 470 67 473 209 L473 386 L256 386 L256 277 L353 277 L353 209 C353 138 321 107 262 107 C205 107 173 138 173 211 L173 489 C173 562 204 593 260 593 C316 593 343 563 346 492 L469 492 C464 634 390 712 260 712 C126 712 46 634 46 489 L46 211 C46 67 127 -12 260 -12 L260 -12 Z " />
<glyph glyph-name="gdotaccent" unicode="&#x121;" horiz-adv-x="474" d="M231 611 C270 611 300 643 300 680 C300 720 270 749 231 749 C191 749 163 720 163 680 C163 641 191 611 231 611 L231 611 Z M337 529 L329 493 C299 525 258 542 211 542 C113 542 42 461 42 342 L42 220 C42 104 113 24 211 24 C245 24 275 34 300 51 L300 -22 C300 -60 277 -84 238 -84 C198 -84 177 -61 173 -23 L57 -23 C60 -126 126 -194 238 -194 C352 -194 420 -125 420 -22 L420 529 L337 529 Z M230 136 C185 136 161 164 161 220 L161 342 C161 400 185 428 230 428 C273 428 300 400 300 344 L300 220 C300 164 275 136 230 136 L230 136 Z " />
<glyph glyph-name="Gcommaaccent" unicode="&#x122;" horiz-adv-x="512" d="M260 -12 C392 -12 470 67 473 209 L473 386 L256 386 L256 277 L353 277 L353 209 C353 138 321 107 262 107 C205 107 173 138 173 211 L173 489 C173 562 204 593 260 593 C316 593 343 563 346 492 L469 492 C464 634 390 712 260 712 C126 712 46 634 46 489 L46 211 C46 67 127 -12 260 -12 L260 -12 Z M194 -273 L265 -273 L313 -71 L210 -71 L194 -273 Z " />
<glyph glyph-name="gcommaaccent" unicode="&#x123;" horiz-adv-x="474" d="M281 602 L226 809 L151 809 L169 602 L281 602 Z M337 529 L329 493 C299 525 258 542 211 542 C113 542 42 461 42 342 L42 220 C42 104 113 24 211 24 C245 24 275 34 300 51 L300 -22 C300 -60 277 -84 238 -84 C198 -84 177 -61 173 -23 L57 -23 C60 -126 126 -194 238 -194 C352 -194 420 -125 420 -22 L420 529 L337 529 Z M230 136 C185 136 161 164 161 220 L161 342 C161 400 185 428 230 428 C273 428 300 400 300 344 L300 220 C300 164 275 136 230 136 L230 136 Z " />
<glyph glyph-name="Hbar" unicode="&#x126;" horiz-adv-x="579" d="M564 583 L498 583 L498 700 L374 700 L374 583 L205 583 L205 700 L82 700 L82 583 L15 583 L15 522 L82 522 L82 0 L205 0 L205 295 L374 295 L374 0 L498 0 L498 522 L564 522 L564 583 Z M374 412 L205 412 L205 522 L374 522 L374 412 Z " />
<glyph glyph-name="hbar" unicode="&#x127;" horiz-adv-x="471" d="M275 542 C231 542 195 520 170 484 L170 602 L263 602 L263 663 L170 663 L170 725 L53 725 L53 663 L-11 663 L-11 602 L53 602 L53 0 L170 0 L170 331 C170 395 198 429 242 429 C283 429 304 400 304 322 L304 0 L423 0 L423 323 C423 469 368 542 275 542 L275 542 Z " />
<glyph glyph-name="Imacron" unicode="&#x12a;" horiz-adv-x="254" d="M25 870 L25 791 L236 791 L236 870 L25 870 Z M66 700 L66 0 L189 0 L189 700 L66 700 Z " />
<glyph glyph-name="imacron" unicode="&#x12b;" horiz-adv-x="223" d="M16 713 L16 632 L207 632 L207 713 L16 713 Z M52 0 L171 0 L171 529 L52 529 L52 0 Z " />
<glyph glyph-name="Iogonek" unicode="&#x12e;" horiz-adv-x="255" d="M175 -103 C149 -103 133 -94 133 -73 C133 -55 147 -22 171 0 L189 0 L189 700 L66 700 L66 0 L83 0 C48 -27 27 -66 27 -104 C27 -158 58 -194 129 -194 C150 -194 179 -191 205 -181 L205 -100 C196 -102 186 -103 175 -103 L175 -103 Z " />
<glyph glyph-name="iogonek" unicode="&#x12f;" horiz-adv-x="224" d="M108 612 C145 612 174 643 174 678 C174 717 145 745 108 745 C69 745 42 717 42 678 C42 641 69 612 108 612 L108 612 Z M154 -103 C129 -103 114 -95 114 -72 C114 -53 126 -21 145 0 L167 0 L167 528 L48 528 L48 -1 C23 -31 7 -68 7 -109 C7 -159 41 -194 103 -194 C130 -194 159 -193 183 -182 L183 -100 C174 -103 164 -103 154 -103 L154 -103 Z " />
<glyph glyph-name="Idotaccent" unicode="&#x130;" horiz-adv-x="254" d="M128 770 C167 770 197 801 197 838 C197 878 167 907 128 907 C88 907 60 878 60 838 C60 799 88 770 128 770 L128 770 Z M66 700 L66 0 L189 0 L189 700 L66 700 Z " />
<glyph glyph-name="dotlessi" unicode="&#x131;" horiz-adv-x="226" d="M54 0 L172 0 L172 529 L54 529 L54 0 Z " />
<glyph glyph-name="Kcommaaccent" unicode="&#x136;" horiz-adv-x="517" d="M299 395 L487 700 L345 700 L228 495 L187 413 L187 700 L66 700 L66 0 L187 0 L187 218 L230 285 L377 0 L517 0 L299 395 Z M188 -273 L259 -273 L307 -71 L204 -71 L188 -273 Z " />
<glyph glyph-name="kcommaaccent" unicode="&#x137;" horiz-adv-x="449" d="M280 318 L430 529 L293 529 L171 344 L171 725 L54 725 L54 0 L171 0 L171 193 L202 226 L321 0 L454 0 L280 318 Z M166 -273 L237 -273 L285 -71 L182 -71 L166 -273 Z " />
<glyph glyph-name="Lacute" unicode="&#x139;" horiz-adv-x="414" d="M294 899 L191 899 L97 767 L183 767 L294 899 Z M189 117 L189 700 L66 700 L66 0 L408 0 L408 117 L189 117 Z " />
<glyph glyph-name="lacute" unicode="&#x13a;" horiz-adv-x="224" d="M45 767 L131 767 L242 899 L139 899 L45 767 Z M49 0 L167 0 L167 725 L49 725 L49 0 Z " />
<glyph glyph-name="Lcommaaccent" unicode="&#x13b;" horiz-adv-x="414" d="M189 117 L189 700 L66 700 L66 0 L408 0 L408 117 L189 117 Z M148 -273 L219 -273 L267 -71 L164 -71 L148 -273 Z " />
<glyph glyph-name="lcommaaccent" unicode="&#x13c;" horiz-adv-x="216" d="M49 0 L167 0 L167 725 L49 725 L49 0 Z M51 -273 L122 -273 L170 -71 L67 -71 L51 -273 Z " />
<glyph glyph-name="Lcaron" unicode="&#x13d;" horiz-adv-x="413" d="M189 700 L66 700 L66 0 L393 0 L393 116 L189 116 L189 700 Z M393 700 L288 700 L279 483 L349 483 L393 700 Z " />
<glyph glyph-name="lcaron" unicode="&#x13e;" horiz-adv-x="311" d="M218 581 L288 581 L335 776 L233 776 L218 581 Z M49 0 L167 0 L167 725 L49 725 L49 0 Z " />
<glyph glyph-name="Lslash" unicode="&#x141;" horiz-adv-x="439" d="M217 116 L217 336 L336 381 L336 484 L217 439 L217 700 L94 700 L94 393 L20 365 L20 261 L94 289 L94 0 L433 0 L433 116 L217 116 Z " />
<glyph glyph-name="lslash" unicode="&#x142;" horiz-adv-x="271" d="M260 493 L194 471 L194 724 L77 724 L77 432 L11 410 L11 318 L77 340 L77 0 L194 0 L194 379 L260 401 L260 493 Z " />
<glyph glyph-name="Nacute" unicode="&#x143;" horiz-adv-x="563" d="M217 767 L303 767 L414 899 L311 899 L217 767 Z M376 700 L376 487 C376 423 383 310 393 231 L390 228 C373 271 352 326 334 371 L188 700 L66 700 L66 0 L187 0 L187 201 C187 274 181 393 172 472 L175 475 C194 423 219 359 240 304 L375 0 L497 0 L497 700 L376 700 Z " />
<glyph glyph-name="nacute" unicode="&#x144;" horiz-adv-x="473" d="M351 740 L248 740 L174 608 L259 608 L351 740 Z M272 542 C214 542 171 517 144 472 L134 529 L54 529 L54 0 L172 0 L172 331 C172 395 200 429 244 429 C285 429 306 400 306 325 L306 0 L424 0 L424 328 C424 472 367 542 272 542 L272 542 Z " />
<glyph glyph-name="Ncommaaccent" unicode="&#x145;" horiz-adv-x="563" d="M376 700 L376 487 C376 423 383 310 393 231 L390 228 C373 271 352 326 334 371 L188 700 L66 700 L66 0 L187 0 L187 201 C187 274 181 393 172 472 L175 475 C194 423 219 359 240 304 L375 0 L497 0 L497 700 L376 700 Z M219 -273 L290 -273 L338 -71 L235 -71 L219 -273 Z " />
<glyph glyph-name="ncommaaccent" unicode="&#x146;" horiz-adv-x="473" d="M272 542 C214 542 171 517 144 472 L134 529 L54 529 L54 0 L172 0 L172 331 C172 395 200 429 244 429 C285 429 306 400 306 325 L306 0 L424 0 L424 328 C424 472 367 542 272 542 L272 542 Z M156 -273 L227 -273 L275 -71 L172 -71 L156 -273 Z " />
<glyph glyph-name="Ncaron" unicode="&#x147;" horiz-adv-x="563" d="M328 768 L409 899 L328 899 L282 831 L235 899 L153 899 L234 768 L328 768 Z M376 700 L376 487 C376 423 383 310 393 231 L390 228 C373 271 352 326 334 371 L188 700 L66 700 L66 0 L187 0 L187 201 C187 274 181 393 172 472 L175 475 C194 423 219 359 240 304 L375 0 L497 0 L497 700 L376 700 Z " />
<glyph glyph-name="ncaron" unicode="&#x148;" horiz-adv-x="473" d="M283 609 L364 740 L283 740 L237 672 L190 740 L108 740 L189 609 L283 609 Z M272 542 C214 542 171 517 144 472 L134 529 L54 529 L54 0 L172 0 L172 331 C172 395 200 429 244 429 C285 429 306 400 306 325 L306 0 L424 0 L424 328 C424 472 367 542 272 542 L272 542 Z " />
<glyph glyph-name="Eng" unicode="&#x14a;" horiz-adv-x="563" d="M376 700 L376 486 C376 421 383 307 394 227 L391 224 C374 269 354 323 335 369 L188 700 L66 700 L66 0 L187 0 L187 201 C187 274 181 393 172 472 L175 475 C194 423 217 362 239 306 L380 -9 C377 -56 350 -80 303 -81 L303 -194 C425 -193 494 -122 497 0 L497 700 L376 700 Z " />
<glyph glyph-name="eng" unicode="&#x14b;" horiz-adv-x="473" d="M272 542 C215 542 171 517 144 472 L134 529 L54 529 L54 0 L172 0 L172 331 C172 395 200 429 244 429 C285 429 306 400 306 325 L306 -3 C306 -56 279 -83 229 -84 L229 -197 C354 -196 424 -122 424 4 L424 328 C424 472 368 542 272 542 L272 542 Z " />
<glyph glyph-name="Omacron" unicode="&#x14c;" horiz-adv-x="533" d="M163 870 L163 791 L374 791 L374 870 L163 870 Z M267 -12 C405 -12 487 77 487 225 L487 475 C487 623 405 712 267 712 C128 712 46 623 46 475 L46 225 C46 77 128 -12 267 -12 L267 -12 Z M267 107 C205 107 173 149 173 225 L173 475 C173 551 205 593 267 593 C329 593 360 551 360 475 L360 225 C360 149 329 107 267 107 L267 107 Z " />
<glyph glyph-name="omacron" unicode="&#x14d;" horiz-adv-x="467" d="M127 712 L127 634 L338 634 L338 712 L127 712 Z M233 -13 C353 -13 425 61 425 193 L425 336 C425 468 353 542 233 542 C114 542 42 468 42 336 L42 193 C42 61 114 -13 233 -13 L233 -13 Z M233 102 C188 102 162 130 162 193 L162 336 C162 400 188 427 233 427 C279 427 305 400 305 336 L305 193 C305 130 279 102 233 102 L233 102 Z " />
<glyph glyph-name="Ohungarumlaut" unicode="&#x150;" horiz-adv-x="533" d="M308 900 L214 900 L139 768 L217 768 L308 900 Z M450 900 L356 900 L276 768 L354 768 L450 900 Z M267 -12 C405 -12 487 77 487 225 L487 475 C487 623 405 712 267 712 C128 712 46 623 46 475 L46 225 C46 77 128 -12 267 -12 L267 -12 Z M267 107 C205 107 173 149 173 225 L173 475 C173 551 205 593 267 593 C329 593 360 551 360 475 L360 225 C360 149 329 107 267 107 L267 107 Z " />
<glyph glyph-name="ohungarumlaut" unicode="&#x151;" horiz-adv-x="467" d="M271 741 L177 741 L102 609 L180 609 L271 741 Z M413 741 L319 741 L239 609 L317 609 L413 741 Z M233 -13 C353 -13 425 61 425 193 L425 336 C425 468 353 542 233 542 C114 542 42 468 42 336 L42 193 C42 61 114 -13 233 -13 L233 -13 Z M233 102 C188 102 162 130 162 193 L162 336 C162 400 188 427 233 427 C279 427 305 400 305 336 L305 193 C305 130 279 102 233 102 L233 102 Z " />
<glyph glyph-name="OE" unicode="&#x152;" horiz-adv-x="760" d="M484 116 L484 299 L694 299 L694 411 L484 411 L484 584 L713 584 L713 700 L361 700 L361 667 C331 696 295 712 251 712 C124 712 46 623 46 475 L46 225 C46 77 124 -12 251 -12 C295 -12 331 4 361 33 L361 0 L724 0 L724 116 L484 116 Z M360 225 C360 149 326 107 261 107 C202 107 173 149 173 225 L173 475 C173 551 202 593 261 593 C326 593 360 551 360 475 L360 225 Z " />
<glyph glyph-name="oe" unicode="&#x153;" horiz-adv-x="714" d="M563 169 C556 122 537 101 489 101 C445 101 421 129 421 192 L421 224 L676 224 L676 340 C676 467 606 540 488 540 C436 540 392 521 362 484 C330 521 286 540 232 540 C113 540 42 469 42 335 L42 194 C42 62 113 -12 232 -12 C286 -12 330 7 362 46 C392 8 436 -12 488 -12 C602 -12 673 55 682 169 L563 169 Z M421 341 C421 403 445 431 489 431 C535 431 560 403 560 341 L560 307 L421 307 L421 341 Z M304 194 C304 131 278 103 232 103 C186 103 161 131 161 194 L161 335 C161 399 186 426 232 426 C278 426 304 399 304 335 L304 194 Z " />
<glyph glyph-name="Racute" unicode="&#x154;" horiz-adv-x="516" d="M397 899 L294 899 L200 767 L286 767 L397 899 Z M370 0 L505 0 L364 266 C435 300 474 372 474 474 C474 617 395 700 258 700 L66 700 L66 0 L189 0 L189 244 L245 244 L370 0 Z M189 583 L257 583 C316 583 348 545 348 473 C348 400 316 361 257 361 L189 361 L189 583 Z " />
<glyph glyph-name="racute" unicode="&#x155;" horiz-adv-x="345" d="M301 741 L198 741 L124 609 L209 609 L301 741 Z M279 541 C218 541 172 516 144 471 L134 529 L54 529 L54 0 L172 0 L172 329 C172 396 210 430 271 430 C296 430 317 425 336 417 L336 531 C321 538 302 541 279 541 L279 541 Z " />
<glyph glyph-name="Rcommaaccent" unicode="&#x156;" horiz-adv-x="516" d="M364 266 C435 300 474 372 474 474 C474 617 395 700 258 700 L66 700 L66 0 L189 0 L189 244 L245 244 L370 0 L505 0 L364 266 Z M189 583 L257 583 C316 583 348 545 348 473 C348 400 316 361 257 361 L189 361 L189 583 Z M202 -273 L273 -273 L321 -71 L218 -71 L202 -273 Z " />
<glyph glyph-name="rcommaaccent" unicode="&#x157;" horiz-adv-x="345" d="M279 541 C218 541 172 516 144 471 L134 529 L54 529 L54 0 L172 0 L172 329 C172 396 210 430 271 430 C296 430 317 425 336 417 L336 531 C321 538 302 541 279 541 L279 541 Z M64 -273 L135 -273 L183 -71 L80 -71 L64 -273 Z " />
<glyph glyph-name="Rcaron" unicode="&#x158;" horiz-adv-x="516" d="M311 768 L392 899 L311 899 L265 831 L218 899 L136 899 L217 768 L311 768 Z M370 0 L505 0 L364 266 C435 300 474 372 474 474 C474 617 395 700 258 700 L66 700 L66 0 L189 0 L189 244 L245 244 L370 0 Z M189 583 L257 583 C316 583 348 545 348 473 C348 400 316 361 257 361 L189 361 L189 583 Z " />
<glyph glyph-name="rcaron" unicode="&#x159;" horiz-adv-x="345" d="M233 610 L314 741 L233 741 L187 673 L140 741 L58 741 L139 610 L233 610 Z M279 541 C218 541 172 516 144 471 L134 529 L54 529 L54 0 L172 0 L172 329 C172 396 210 430 271 430 C296 430 317 425 336 417 L336 531 C321 538 302 541 279 541 L279 541 Z " />
<glyph glyph-name="Sacute" unicode="&#x15a;" horiz-adv-x="472" d="M171 767 L257 767 L368 899 L265 899 L171 767 Z M234 -14 C369 -14 446 73 446 183 C446 403 161 407 161 529 C161 569 188 595 234 595 C281 595 309 568 310 512 L436 512 C435 637 359 714 234 714 C110 714 36 636 36 532 C36 321 318 311 318 184 C318 139 291 106 235 106 C182 106 149 135 148 198 L22 198 C23 63 105 -14 234 -14 L234 -14 Z " />
<glyph glyph-name="sacute" unicode="&#x15b;" horiz-adv-x="425" d="M328 743 L225 743 L151 611 L236 611 L328 743 Z M219 -14 C334 -14 402 51 402 147 C402 338 147 305 147 390 C147 418 170 437 207 437 C252 437 272 411 274 369 L388 369 C382 468 327 542 207 542 C99 542 30 485 30 391 C30 211 284 241 284 147 C284 115 259 94 216 94 C160 94 140 130 139 166 L21 166 C23 70 90 -14 219 -14 L219 -14 Z " />
<glyph glyph-name="Scedilla" unicode="&#x15e;" horiz-adv-x="472" d="M446 183 C446 403 161 407 161 529 C161 569 188 595 234 595 C281 595 309 568 310 512 L436 512 C435 637 359 714 234 714 C110 714 36 636 36 532 C36 321 318 311 318 184 C318 139 291 106 235 106 C182 106 149 135 148 198 L22 198 C23 72 95 -4 209 -13 L191 -77 L210 -96 C220 -90 234 -88 244 -88 C268 -88 279 -100 279 -118 C279 -137 267 -152 243 -152 C223 -152 210 -142 203 -125 L137 -125 C142 -177 188 -212 242 -212 C305 -212 348 -176 348 -121 C348 -77 317 -47 275 -47 C270 -47 267 -47 265 -48 L275 -11 C384 5 446 85 446 183 L446 183 Z " />
<glyph glyph-name="scedilla" unicode="&#x15f;" horiz-adv-x="425" d="M402 147 C402 338 147 305 147 390 C147 418 170 437 207 437 C252 437 272 411 274 369 L388 369 C382 468 327 542 207 542 C99 542 30 485 30 391 C30 211 284 241 284 147 C284 115 259 94 216 94 C160 94 140 130 139 166 L21 166 C23 80 76 4 180 -11 L161 -77 L180 -96 C190 -90 204 -88 214 -88 C238 -88 249 -100 249 -118 C249 -137 237 -152 213 -152 C193 -152 180 -142 173 -125 L107 -125 C112 -177 158 -212 212 -212 C275 -212 318 -176 318 -121 C318 -77 287 -47 245 -47 C240 -47 237 -47 235 -48 L245 -13 C344 -4 402 58 402 147 L402 147 Z " />
<glyph glyph-name="Scaron" unicode="&#x160;" horiz-adv-x="472" d="M282 768 L363 899 L282 899 L236 831 L189 899 L107 899 L188 768 L282 768 Z M161 529 C161 569 188 595 234 595 C281 595 309 568 310 512 L436 512 C435 637 359 714 234 714 C110 714 36 636 36 532 C36 321 318 311 318 184 C318 139 291 106 235 106 C182 106 149 135 148 198 L22 198 C23 63 105 -14 234 -14 C369 -14 446 73 446 183 C446 403 161 407 161 529 L161 529 Z " />
<glyph glyph-name="scaron" unicode="&#x161;" horiz-adv-x="425" d="M260 612 L341 743 L260 743 L214 675 L167 743 L85 743 L166 612 L260 612 Z M147 390 C147 418 170 437 207 437 C252 437 272 411 274 369 L388 369 C382 468 327 542 207 542 C99 542 30 485 30 391 C30 211 284 241 284 147 C284 115 259 94 216 94 C160 94 140 130 139 166 L21 166 C23 70 90 -14 219 -14 C334 -14 402 51 402 147 C402 338 147 305 147 390 L147 390 Z " />
<glyph glyph-name="uni0162" unicode="&#x162;" horiz-adv-x="440" d="M424 700 L16 700 L16 583 L157 583 L157 0 L283 0 L283 583 L424 583 L424 700 Z M158 -273 L229 -273 L277 -71 L174 -71 L158 -273 Z " />
<glyph glyph-name="uni0163" unicode="&#x163;" horiz-adv-x="311" d="M265 104 C219 104 198 127 198 177 L198 422 L290 422 L290 529 L198 529 L198 655 L81 655 L81 529 L10 529 L10 422 L81 422 L81 178 C81 64 148 -7 258 -7 L298 -7 L298 104 L265 104 Z M119 -273 L190 -273 L238 -71 L135 -71 L119 -273 Z " />
<glyph glyph-name="Tcaron" unicode="&#x164;" horiz-adv-x="440" d="M267 768 L348 899 L267 899 L221 831 L174 899 L92 899 L173 768 L267 768 Z M424 700 L16 700 L16 583 L157 583 L157 0 L283 0 L283 583 L424 583 L424 700 Z " />
<glyph glyph-name="tcaron" unicode="&#x165;" horiz-adv-x="400" d="M273 775 L254 592 L326 592 L372 775 L273 775 Z M198 177 L198 422 L290 422 L290 529 L198 529 L198 655 L81 655 L81 529 L10 529 L10 422 L81 422 L81 178 C81 64 148 -7 258 -7 L298 -7 L298 104 L265 104 C219 104 198 127 198 177 L198 177 Z " />
<glyph glyph-name="Tbar" unicode="&#x166;" horiz-adv-x="440" d="M424 583 L424 700 L16 700 L16 583 L157 583 L157 387 L78 387 L78 318 L157 318 L157 0 L283 0 L283 318 L361 318 L361 387 L283 387 L283 583 L424 583 Z " />
<glyph glyph-name="tbar" unicode="&#x167;" horiz-adv-x="326" d="M265 104 C219 104 198 127 198 177 L198 242 L264 242 L264 318 L198 318 L198 422 L290 422 L290 529 L198 529 L198 655 L81 655 L81 529 L10 529 L10 422 L81 422 L81 318 L27 318 L27 242 L81 242 L81 178 C81 64 148 -7 258 -7 L298 -7 L298 104 L265 104 Z " />
<glyph glyph-name="Umacron" unicode="&#x16a;" horiz-adv-x="538" d="M166 870 L166 791 L377 791 L377 870 L166 870 Z M269 -11 C403 -11 485 74 485 221 L485 700 L357 700 L357 221 C357 146 325 108 269 108 C213 108 181 146 181 221 L181 700 L54 700 L54 221 C54 74 136 -11 269 -11 L269 -11 Z " />
<glyph glyph-name="umacron" unicode="&#x16b;" horiz-adv-x="473" d="M338 711 L127 711 L127 633 L338 633 L338 711 Z M301 529 L301 198 C301 134 273 100 229 100 C188 100 167 129 167 204 L167 529 L49 529 L49 201 C49 57 106 -13 201 -13 C259 -13 302 12 329 57 L339 0 L419 0 L419 529 L301 529 Z " />
<glyph glyph-name="Uring" unicode="&#x16e;" horiz-adv-x="538" d="M186 848 C186 797 220 763 272 763 C324 763 359 797 359 848 C359 897 324 931 272 931 C220 931 186 897 186 848 L186 848 Z M240 847 C240 867 253 880 272 880 C292 880 305 867 305 847 C305 827 292 814 272 814 C253 814 240 827 240 847 L240 847 Z M269 -11 C403 -11 485 74 485 221 L485 700 L357 700 L357 221 C357 146 325 108 269 108 C213 108 181 146 181 221 L181 700 L54 700 L54 221 C54 74 136 -11 269 -11 L269 -11 Z " />
<glyph glyph-name="uring" unicode="&#x16f;" horiz-adv-x="473" d="M233 605 C285 605 320 639 320 690 C320 739 285 773 233 773 C181 773 147 739 147 690 C147 639 181 605 233 605 L233 605 Z M233 722 C253 722 266 709 266 689 C266 669 253 656 233 656 C214 656 201 669 201 689 C201 709 214 722 233 722 L233 722 Z M301 529 L301 198 C301 134 273 100 229 100 C188 100 167 129 167 204 L167 529 L49 529 L49 201 C49 57 106 -13 201 -13 C259 -13 302 12 329 57 L339 0 L419 0 L419 529 L301 529 Z " />
<glyph glyph-name="Uhungarumlaut" unicode="&#x170;" horiz-adv-x="538" d="M311 900 L217 900 L142 768 L220 768 L311 900 Z M453 900 L359 900 L279 768 L357 768 L453 900 Z M269 -11 C403 -11 485 74 485 221 L485 700 L357 700 L357 221 C357 146 325 108 269 108 C213 108 181 146 181 221 L181 700 L54 700 L54 221 C54 74 136 -11 269 -11 L269 -11 Z " />
<glyph glyph-name="uhungarumlaut" unicode="&#x171;" horiz-adv-x="473" d="M271 740 L177 740 L102 608 L180 608 L271 740 Z M317 608 L413 740 L319 740 L239 608 L317 608 Z M301 529 L301 198 C301 134 273 100 229 100 C188 100 167 129 167 204 L167 529 L49 529 L49 201 C49 57 106 -13 201 -13 C259 -13 302 12 329 57 L339 0 L419 0 L419 529 L301 529 Z " />
<glyph glyph-name="Uogonek" unicode="&#x172;" horiz-adv-x="537" d="M321 -194 C346 -194 370 -192 394 -182 L394 -100 C385 -103 374 -103 365 -103 C345 -103 332 -96 332 -74 C332 -36 372 2 405 31 C451 71 483 123 483 218 L483 700 L356 700 L356 218 C356 146 324 108 268 108 C213 108 181 146 181 218 L181 700 L54 700 L54 218 C54 77 133 -7 261 -11 C268 -11 275 -9 280 -5 L281 -7 C247 -36 224 -70 224 -110 C224 -159 258 -194 321 -194 L321 -194 Z " />
<glyph glyph-name="uogonek" unicode="&#x173;" horiz-adv-x="473" d="M419 0 L419 529 L301 529 L301 198 C301 134 273 100 229 100 C187 100 167 129 167 203 L167 529 L49 529 L49 201 C49 57 106 -13 201 -13 C259 -13 302 12 329 57 L339 0 C287 -31 258 -66 258 -110 C258 -157 289 -194 346 -194 C371 -194 395 -193 419 -182 L419 -100 C410 -102 399 -103 391 -103 C372 -103 358 -96 358 -78 C358 -55 380 -23 419 0 L419 0 Z " />
<glyph glyph-name="Wcircumflex" unicode="&#x174;" horiz-adv-x="773" d="M394 835 L440 767 L521 767 L440 898 L346 898 L265 767 L347 767 L394 835 Z M641 700 L578 345 C569 294 554 205 548 154 L544 154 C537 205 522 292 513 347 L451 690 L322 690 L260 347 C251 292 236 205 229 154 L225 154 C219 205 204 294 195 345 L132 700 L5 700 L162 0 L293 0 L351 269 C367 340 380 439 385 496 L389 496 C393 439 406 340 422 269 L480 0 L611 0 L768 700 L641 700 Z " />
<glyph glyph-name="wcircumflex" unicode="&#x175;" horiz-adv-x="652" d="M323 676 L369 608 L450 608 L369 739 L275 739 L194 608 L276 608 L323 676 Z M528 529 L491 320 C481 259 467 170 463 130 L458 130 C452 177 439 253 428 315 L389 519 L264 519 L224 315 C213 253 200 177 194 130 L189 130 C185 170 171 259 161 320 L124 529 L2 529 L125 0 L253 0 L288 152 C305 230 319 318 324 376 L329 376 C333 318 347 230 365 152 L400 0 L527 0 L650 529 L528 529 Z " />
<glyph glyph-name="Ycircumflex" unicode="&#x176;" horiz-adv-x="460" d="M230 835 L276 767 L357 767 L276 898 L182 898 L101 767 L183 767 L230 835 Z M331 700 L265 490 C256 462 241 411 232 377 L229 377 C220 411 205 462 196 488 L129 700 L1 700 L169 218 L169 0 L292 0 L292 218 L459 700 L331 700 Z " />
<glyph glyph-name="ycircumflex" unicode="&#x177;" horiz-adv-x="434" d="M215 679 L261 611 L342 611 L261 742 L167 742 L86 611 L168 611 L215 679 Z M311 529 L223 224 L125 529 L2 529 L173 54 L156 -6 C143 -50 130 -75 93 -75 L56 -75 L56 -189 L117 -189 C201 -189 242 -119 268 -27 L432 529 L311 529 Z " />
<glyph glyph-name="Ydieresis" unicode="&#x178;" horiz-adv-x="460" d="M153 778 C186 778 208 800 208 834 C208 868 186 890 153 890 C119 890 97 868 97 834 C97 800 119 778 153 778 L153 778 Z M307 778 C341 778 363 800 363 834 C363 868 341 890 307 890 C273 890 251 868 251 834 C251 800 273 778 307 778 L307 778 Z M169 0 L292 0 L292 218 L459 700 L331 700 L265 490 C256 462 241 411 232 377 L229 377 C220 411 205 462 196 488 L129 700 L1 700 L169 218 L169 0 Z " />
<glyph glyph-name="Zacute" unicode="&#x179;" horiz-adv-x="427" d="M152 767 L238 767 L349 899 L246 899 L152 767 Z M166 117 L400 615 L400 700 L31 700 L31 583 L250 583 L15 84 L15 0 L405 0 L405 117 L166 117 Z " />
<glyph glyph-name="zacute" unicode="&#x17a;" horiz-adv-x="371" d="M295 741 L192 741 L118 609 L203 609 L295 741 Z M158 108 L347 454 L347 529 L25 529 L25 420 L198 420 L6 75 L6 0 L357 0 L357 108 L158 108 Z " />
<glyph glyph-name="Zdotaccent" unicode="&#x17b;" horiz-adv-x="427" d="M215 782 C254 782 284 814 284 851 C284 891 254 920 215 920 C175 920 147 891 147 851 C147 812 175 782 215 782 L215 782 Z M166 117 L400 615 L400 700 L31 700 L31 583 L250 583 L15 84 L15 0 L405 0 L405 117 L166 117 Z " />
<glyph glyph-name="zdotaccent" unicode="&#x17c;" horiz-adv-x="371" d="M180 611 C219 611 249 643 249 680 C249 720 219 749 180 749 C140 749 112 720 112 680 C112 641 140 611 180 611 L180 611 Z M158 108 L347 454 L347 529 L25 529 L25 420 L198 420 L6 75 L6 0 L357 0 L357 108 L158 108 Z " />
<glyph glyph-name="Zcaron" unicode="&#x17d;" horiz-adv-x="427" d="M263 768 L344 899 L263 899 L217 831 L170 899 L88 899 L169 768 L263 768 Z M166 117 L400 615 L400 700 L31 700 L31 583 L250 583 L15 84 L15 0 L405 0 L405 117 L166 117 Z " />
<glyph glyph-name="zcaron" unicode="&#x17e;" horiz-adv-x="371" d="M227 610 L308 741 L227 741 L181 673 L134 741 L52 741 L133 610 L227 610 Z M158 108 L347 454 L347 529 L25 529 L25 420 L198 420 L6 75 L6 0 L357 0 L357 108 L158 108 Z " />
<glyph glyph-name="Scommaaccent" unicode="&#x218;" horiz-adv-x="472" d="M234 -14 C369 -14 446 73 446 183 C446 403 161 407 161 529 C161 569 188 595 234 595 C281 595 309 568 310 512 L436 512 C435 637 359 714 234 714 C110 714 36 636 36 532 C36 321 318 311 318 184 C318 139 291 106 235 106 C182 106 149 135 148 198 L22 198 C23 63 105 -14 234 -14 L234 -14 Z M177 -273 L248 -273 L296 -71 L193 -71 L177 -273 Z " />
<glyph glyph-name="scommaaccent" unicode="&#x219;" horiz-adv-x="425" d="M219 -14 C334 -14 402 51 402 147 C402 338 147 305 147 390 C147 418 170 437 207 437 C252 437 272 411 274 369 L388 369 C382 468 327 542 207 542 C99 542 30 485 30 391 C30 211 284 241 284 147 C284 115 259 94 216 94 C160 94 140 130 139 166 L21 166 C23 70 90 -14 219 -14 L219 -14 Z M156 -273 L227 -273 L275 -71 L172 -71 L156 -273 Z " />
<glyph glyph-name="uni021A" unicode="&#x21a;" horiz-adv-x="440" d="M424 700 L16 700 L16 583 L157 583 L157 0 L283 0 L283 583 L424 583 L424 700 Z M158 -273 L229 -273 L277 -71 L174 -71 L158 -273 Z " />
<glyph glyph-name="uni021B" unicode="&#x21b;" horiz-adv-x="311" d="M265 104 C219 104 198 127 198 177 L198 422 L290 422 L290 529 L198 529 L198 655 L81 655 L81 529 L10 529 L10 422 L81 422 L81 178 C81 64 148 -7 258 -7 L298 -7 L298 104 L265 104 Z M119 -273 L190 -273 L238 -71 L135 -71 L119 -273 Z " />
<glyph glyph-name="gravecomb" unicode="&#x300;" d="M-177 741 L-85 609 L0 609 L-74 741 L-177 741 Z " />
<glyph glyph-name="acutecomb" unicode="&#x301;" d="M0 741 L-103 741 L-177 609 L-92 609 L0 741 Z " />
<glyph glyph-name="uni0302" unicode="&#x302;" d="M1 609 L-80 740 L-174 740 L-255 609 L-173 609 L-126 677 L-80 609 L1 609 Z " />
<glyph glyph-name="tildecomb" unicode="&#x303;" d="M-164 651 C-140 651 -127 622 -86 622 C-37 622 -4 660 0 721 L-71 721 C-73 706 -83 695 -97 695 C-120 695 -133 724 -175 724 C-222 724 -257 690 -261 625 L-189 625 C-187 642 -176 651 -164 651 L-164 651 Z " />
<glyph glyph-name="uni0304" unicode="&#x304;" d="M-211 712 L-211 634 L0 634 L0 712 L-211 712 Z " />
<glyph glyph-name="uni0306" unicode="&#x306;" d="M-124 611 C-55 611 -4 654 -1 733 L-79 733 C-80 703 -100 686 -125 686 C-151 686 -170 703 -171 733 L-250 733 C-247 656 -195 611 -124 611 L-124 611 Z " />
<glyph glyph-name="uni0307" unicode="&#x307;" d="M-101 611 C-62 611 -32 643 -32 680 C-32 720 -62 749 -101 749 C-141 749 -169 720 -169 680 C-169 641 -141 611 -101 611 L-101 611 Z " />
<glyph glyph-name="uni0308" unicode="&#x308;" d="M-208 617 C-174 617 -152 639 -152 673 C-152 707 -174 728 -208 728 C-242 728 -264 707 -264 673 C-264 639 -242 617 -208 617 L-208 617 Z M-56 617 C-23 617 0 639 0 673 C0 707 -23 728 -56 728 C-90 728 -113 707 -113 673 C-113 639 -90 617 -56 617 L-56 617 Z " />
<glyph glyph-name="uni030A" unicode="&#x30a;" d="M-177 691 C-177 640 -143 606 -91 606 C-39 606 -4 640 -4 691 C-4 740 -39 774 -91 774 C-143 774 -177 740 -177 691 L-177 691 Z M-123 690 C-123 710 -110 723 -91 723 C-71 723 -58 710 -58 690 C-58 670 -71 657 -91 657 C-110 657 -123 670 -123 690 L-123 690 Z " />
<glyph glyph-name="uni030B" unicode="&#x30b;" d="M-142 741 L-236 741 L-311 609 L-233 609 L-142 741 Z M0 741 L-94 741 L-174 609 L-96 609 L0 741 Z " />
<glyph glyph-name="uni030C" unicode="&#x30c;" d="M-74 741 L-120 673 L-167 741 L-249 741 L-168 610 L-74 610 L7 741 L-74 741 Z " />
<glyph glyph-name="uni0312" unicode="&#x312;" d="M-55 809 L-130 809 L-112 602 L0 602 L-55 809 Z " />
<glyph glyph-name="uni0326" unicode="&#x326;" d="M-119 -273 L-48 -273 L0 -71 L-103 -71 L-119 -273 Z " />
<glyph glyph-name="uni0327" unicode="&#x327;" d="M-110 -212 C-47 -212 -4 -176 -4 -121 C-4 -77 -35 -47 -77 -47 C-82 -47 -85 -47 -87 -48 L-74 0 L-139 0 L-161 -77 L-142 -96 C-132 -90 -118 -88 -108 -88 C-84 -88 -73 -100 -73 -118 C-73 -137 -85 -152 -109 -152 C-129 -152 -142 -142 -149 -125 L-215 -125 C-210 -177 -164 -212 -110 -212 L-110 -212 Z " />
<glyph glyph-name="uni0328" unicode="&#x328;" d="M-8 -182 L-8 -100 C-17 -103 -28 -103 -37 -103 C-57 -103 -70 -96 -70 -76 C-70 -56 -50 -23 -17 0 L-118 0 C-154 -30 -178 -67 -178 -109 C-178 -159 -144 -194 -81 -194 C-56 -194 -32 -193 -8 -182 L-8 -182 Z " />
<glyph glyph-name="uni0335" unicode="&#x335;" d="M-210 372 L-10 372 L-10 433 L-210 433 L-210 372 Z " />
<glyph glyph-name="uni0336" unicode="&#x336;" d="M-330 433 L-330 372 L-10 372 L-10 433 L-330 433 Z " />
<glyph glyph-name="uni0337" unicode="&#x337;" d="M-284 -43 L-157 -43 L0 553 L-128 553 L-284 -43 Z " />
<glyph glyph-name="uni0338" unicode="&#x338;" d="M-360 -39 L-235 -39 L-24 739 L-149 739 L-360 -39 Z " />
<glyph glyph-name="uni0401" unicode="&#x401;" horiz-adv-x="465" d="M175 778 C208 778 230 800 230 834 C230 868 208 890 175 890 C141 890 119 868 119 834 C119 800 141 778 175 778 L175 778 Z M329 778 C363 778 385 800 385 834 C385 868 363 890 329 890 C295 890 273 868 273 834 C273 800 295 778 329 778 L329 778 Z M189 116 L189 299 L399 299 L399 411 L189 411 L189 584 L418 584 L418 700 L66 700 L66 0 L428 0 L428 116 L189 116 Z " />
<glyph glyph-name="uni0402" unicode="&#x402;" horiz-adv-x="573" d="M384 511 C340 511 304 490 280 456 L280 583 L419 583 L419 700 L16 700 L16 583 L154 583 L154 0 L280 0 L280 312 C280 368 309 399 352 399 C392 399 413 370 413 292 L413 198 C413 137 387 108 336 108 L336 -5 C460 -5 531 68 532 197 L532 293 C532 439 478 511 384 511 L384 511 Z " />
<glyph glyph-name="uni0403" unicode="&#x403;" horiz-adv-x="426" d="M364 899 L261 899 L167 767 L253 767 L364 899 Z M410 700 L66 700 L66 0 L189 0 L189 583 L410 583 L410 700 Z " />
<glyph glyph-name="uni0404" unicode="&#x404;" horiz-adv-x="498" d="M352 208 C347 138 317 107 256 107 C204 107 173 140 173 210 L173 304 L333 304 L333 406 L173 406 L173 490 C173 562 204 595 255 595 C315 595 345 564 349 492 L472 492 C466 635 390 714 256 714 C125 714 46 635 46 490 L46 210 C46 66 126 -12 256 -12 C391 -12 470 66 475 208 L352 208 Z " />
<glyph glyph-name="uni0405" unicode="&#x405;" horiz-adv-x="472" d="M234 -14 C369 -14 446 73 446 183 C446 403 161 407 161 529 C161 569 188 595 234 595 C281 595 309 568 310 512 L436 512 C435 637 359 714 234 714 C110 714 36 636 36 532 C36 321 318 311 318 184 C318 139 291 106 235 106 C182 106 149 135 148 198 L22 198 C23 63 105 -14 234 -14 L234 -14 Z " />
<glyph glyph-name="uni0406" unicode="&#x406;" horiz-adv-x="254" d="M66 700 L66 0 L189 0 L189 700 L66 700 Z " />
<glyph glyph-name="uni0407" unicode="&#x407;" horiz-adv-x="254" d="M51 778 C84 778 106 800 106 834 C106 868 84 890 51 890 C17 890 -5 868 -5 834 C-5 800 17 778 51 778 L51 778 Z M205 778 C239 778 261 800 261 834 C261 868 239 890 205 890 C171 890 149 868 149 834 C149 800 171 778 205 778 L205 778 Z M66 700 L66 0 L189 0 L189 700 L66 700 Z " />
<glyph glyph-name="uni0408" unicode="&#x408;" horiz-adv-x="304" d="M0 -136 C159 -136 241 -45 241 109 L241 700 L118 700 L118 109 C118 14 76 -14 0 -14 L0 -136 Z " />
<glyph glyph-name="uni0409" unicode="&#x409;" horiz-adv-x="770" d="M0 -11 C110 -11 171 23 197 172 C210 255 220 417 228 584 L354 584 L354 0 L537 0 C680 0 751 69 751 208 C751 342 683 428 537 428 L481 428 L481 700 L112 700 C101 430 93 273 82 206 C71 126 46 102 0 102 L0 -11 Z M481 113 L481 311 L528 311 C591 311 624 279 624 212 C624 144 591 113 528 113 L481 113 Z " />
<glyph glyph-name="uni040A" unicode="&#x40a;" horiz-adv-x="786" d="M550 421 L479 421 L479 700 L356 700 L356 420 L189 420 L189 700 L66 700 L66 0 L189 0 L189 303 L356 303 L356 0 L550 0 C697 0 767 69 767 210 C767 335 697 421 550 421 L550 421 Z M541 113 L479 113 L479 304 L541 304 C606 304 639 274 639 210 C639 144 606 113 541 113 L541 113 Z " />
<glyph glyph-name="uni040B" unicode="&#x40b;" horiz-adv-x="580" d="M384 511 C340 511 304 490 280 456 L280 583 L419 583 L419 700 L16 700 L16 583 L154 583 L154 0 L280 0 L280 315 C284 369 311 399 352 399 C392 399 413 370 413 292 L413 0 L532 0 L532 293 C532 439 478 511 384 511 L384 511 Z " />
<glyph glyph-name="uni040C" unicode="&#x40c;" horiz-adv-x="517" d="M358 899 L255 899 L161 767 L247 767 L358 899 Z M377 0 L517 0 L299 395 L487 700 L345 700 L228 495 L187 413 L187 700 L66 700 L66 0 L187 0 L187 218 L230 285 L377 0 Z " />
<glyph glyph-name="uni040D" unicode="&#x40d;" horiz-adv-x="563" d="M360 767 L266 899 L163 899 L274 767 L360 767 Z M66 0 L188 0 L329 323 C350 371 369 427 387 475 L390 472 C382 398 377 284 377 218 L377 0 L497 0 L497 700 L374 700 L225 358 C206 316 189 268 174 229 L171 231 C180 307 186 413 186 471 L186 700 L66 700 L66 0 Z " />
<glyph glyph-name="uni040E" unicode="&#x40e;" horiz-adv-x="454" d="M230 769 C299 769 350 812 353 891 L275 891 C274 861 254 844 229 844 C203 844 184 861 183 891 L104 891 C107 814 159 769 230 769 L230 769 Z M324 700 L233 387 L133 700 L3 700 L178 197 C155 119 133 99 79 99 L49 99 L49 -11 L75 -11 C192 -11 244 22 287 160 L453 700 L324 700 Z " />
<glyph glyph-name="uni040F" unicode="&#x40f;" horiz-adv-x="546" d="M213 -118 L334 -118 L334 0 L481 0 L481 700 L358 700 L358 117 L189 117 L189 700 L66 700 L66 0 L213 0 L213 -118 Z " />
<glyph glyph-name="uni0410" unicode="&#x410;" horiz-adv-x="485" d="M353 0 L481 0 L309 700 L177 700 L5 0 L133 0 L161 127 L325 127 L353 0 Z M186 244 L214 374 C224 422 235 499 241 546 L244 546 C251 499 262 422 272 374 L300 244 L186 244 Z " />
<glyph glyph-name="uni0411" unicode="&#x411;" horiz-adv-x="510" d="M267 429 L189 429 L189 585 L443 585 L443 700 L66 700 L66 0 L267 0 C409 0 482 70 482 215 C482 342 409 429 267 429 L267 429 Z M258 117 L189 117 L189 314 L258 314 C318 314 355 282 355 215 C355 147 318 117 258 117 L258 117 Z " />
<glyph glyph-name="uni0412" unicode="&#x412;" horiz-adv-x="513" d="M392 359 C432 390 456 445 456 505 C456 623 381 700 271 700 L66 700 L66 0 L277 0 C398 0 481 80 481 205 C481 273 448 331 392 359 L392 359 Z M252 584 C306 584 331 556 331 500 C331 443 306 412 256 412 L189 412 L189 584 L252 584 Z M258 116 L189 116 L189 297 L257 297 C319 297 355 266 355 205 C355 146 322 116 258 116 L258 116 Z " />
<glyph glyph-name="uni0413" unicode="&#x413;" horiz-adv-x="426" d="M410 700 L66 700 L66 0 L189 0 L189 583 L410 583 L410 700 Z " />
<glyph glyph-name="uni0414" unicode="&#x414;" horiz-adv-x="579" d="M501 115 L501 700 L141 700 L129 387 C125 285 105 176 48 115 L5 115 L5 -118 L126 -118 L126 0 L443 0 L443 -118 L564 -118 L564 115 L501 115 Z M379 115 L192 115 C227 178 244 260 247 352 L256 584 L379 584 L379 115 Z " />
<glyph glyph-name="uni0415" unicode="&#x415;" horiz-adv-x="465" d="M189 116 L189 299 L399 299 L399 411 L189 411 L189 584 L418 584 L418 700 L66 700 L66 0 L428 0 L428 116 L189 116 Z " />
<glyph glyph-name="uni0416" unicode="&#x416;" horiz-adv-x="742" d="M606 0 L742 0 L530 383 L724 700 L585 700 L474 500 L431 413 L431 700 L311 700 L311 414 L270 498 L158 700 L18 700 L212 384 L0 0 L137 0 L277 280 L311 227 L311 0 L431 0 L431 226 L465 279 L606 0 Z " />
<glyph glyph-name="uni0417" unicode="&#x417;" horiz-adv-x="489" d="M350 364 C419 393 446 440 446 511 C446 636 365 715 241 715 C104 715 33 622 25 492 L147 492 C150 551 173 597 241 597 C294 597 322 563 322 510 C322 445 290 413 222 413 L181 413 L181 306 L231 306 C300 306 341 271 341 205 C341 141 297 105 240 105 C170 105 139 157 137 207 L13 207 C18 89 99 -14 241 -14 C368 -14 467 66 467 198 C467 277 438 339 350 364 L350 364 Z " />
<glyph glyph-name="uni0418" unicode="&#x418;" horiz-adv-x="563" d="M66 0 L188 0 L329 323 C350 371 369 427 387 475 L390 472 C382 398 377 284 377 218 L377 0 L497 0 L497 700 L374 700 L225 358 C206 316 189 268 174 229 L171 231 C180 307 186 413 186 471 L186 700 L66 700 L66 0 Z " />
<glyph glyph-name="uni0419" unicode="&#x419;" horiz-adv-x="563" d="M285 769 C354 769 405 812 408 891 L330 891 C329 861 309 844 284 844 C258 844 239 861 238 891 L159 891 C162 814 214 769 285 769 L285 769 Z M66 0 L188 0 L329 323 C350 371 369 427 387 475 L390 472 C382 398 377 284 377 218 L377 0 L497 0 L497 700 L374 700 L225 358 C206 316 189 268 174 229 L171 231 C180 307 186 413 186 471 L186 700 L66 700 L66 0 Z " />
<glyph glyph-name="uni041A" unicode="&#x41a;" horiz-adv-x="517" d="M377 0 L517 0 L299 395 L487 700 L345 700 L228 495 L187 413 L187 700 L66 700 L66 0 L187 0 L187 218 L230 285 L377 0 Z " />
<glyph glyph-name="uni041B" unicode="&#x41b;" horiz-adv-x="549" d="M112 700 C99 408 91 274 79 202 C65 121 43 100 0 100 L0 -11 C107 -11 174 22 197 172 C210 253 220 390 230 584 L360 584 L360 0 L483 0 L483 700 L112 700 Z " />
<glyph glyph-name="uni041C" unicode="&#x41c;" horiz-adv-x="708" d="M518 700 L405 426 C390 389 365 325 356 296 L352 296 C343 325 319 389 304 426 L190 700 L66 700 L66 0 L186 0 L186 219 C183 301 180 381 176 460 L181 462 C202 404 224 341 246 278 L293 154 L415 154 L462 278 C484 341 507 404 527 462 L532 460 C528 381 525 301 522 219 L522 0 L643 0 L643 700 L518 700 Z " />
<glyph glyph-name="uni041D" unicode="&#x41d;" horiz-adv-x="548" d="M358 700 L358 412 L189 412 L189 700 L66 700 L66 0 L189 0 L189 295 L358 295 L358 0 L482 0 L482 700 L358 700 Z " />
<glyph glyph-name="uni041E" unicode="&#x41e;" horiz-adv-x="533" d="M267 -12 C405 -12 487 77 487 225 L487 475 C487 623 405 712 267 712 C128 712 46 623 46 475 L46 225 C46 77 128 -12 267 -12 L267 -12 Z M267 107 C205 107 173 149 173 225 L173 475 C173 551 205 593 267 593 C329 593 360 551 360 475 L360 225 C360 149 329 107 267 107 L267 107 Z " />
<glyph glyph-name="uni041F" unicode="&#x41f;" horiz-adv-x="546" d="M481 700 L66 700 L66 0 L189 0 L189 583 L358 583 L358 0 L481 0 L481 700 Z " />
<glyph glyph-name="uni0420" unicode="&#x420;" horiz-adv-x="514" d="M260 700 L66 700 L66 0 L189 0 L189 235 L260 235 C401 235 484 320 484 467 C484 614 401 700 260 700 L260 700 Z M259 351 L189 351 L189 583 L259 583 C325 583 358 544 358 467 C358 390 325 351 259 351 L259 351 Z " />
<glyph glyph-name="uni0421" unicode="&#x421;" horiz-adv-x="498" d="M256 -12 C391 -12 470 66 475 208 L352 208 C347 138 317 107 256 107 C204 107 173 140 173 210 L173 490 C173 562 204 595 255 595 C315 595 345 564 349 492 L472 492 C466 635 390 714 256 714 C125 714 46 635 46 490 L46 210 C46 66 126 -12 256 -12 L256 -12 Z " />
<glyph glyph-name="uni0422" unicode="&#x422;" horiz-adv-x="440" d="M424 700 L16 700 L16 583 L157 583 L157 0 L283 0 L283 583 L424 583 L424 700 Z " />
<glyph glyph-name="uni0423" unicode="&#x423;" horiz-adv-x="454" d="M324 700 L233 387 L133 700 L3 700 L178 197 C155 119 133 99 79 99 L49 99 L49 -11 L75 -11 C192 -11 244 22 287 160 L453 700 L324 700 Z " />
<glyph glyph-name="uni0424" unicode="&#x424;" horiz-adv-x="680" d="M279 -66 L401 -66 L401 13 L415 13 C552 13 657 106 657 272 L657 422 C657 590 552 687 415 687 L401 687 L401 761 L279 761 L279 687 L265 687 C128 687 23 590 23 422 L23 272 C23 106 128 13 265 13 L279 13 L279 -66 Z M259 131 C194 131 146 171 146 272 L146 422 C146 527 194 569 259 569 L279 569 L279 131 L259 131 Z M401 131 L401 569 L420 569 C486 569 534 527 534 422 L534 272 C534 171 486 131 420 131 L401 131 Z " />
<glyph glyph-name="uni0425" unicode="&#x425;" horiz-adv-x="492" d="M478 0 L312 362 L468 700 L334 700 L246 488 L158 700 L24 700 L180 362 L14 0 L149 0 L246 233 L343 0 L478 0 Z " />
<glyph glyph-name="uni0426" unicode="&#x426;" horiz-adv-x="557" d="M422 -118 L543 -118 L543 117 L479 117 L479 700 L355 700 L355 117 L189 117 L189 700 L66 700 L66 0 L422 0 L422 -118 Z " />
<glyph glyph-name="uni0427" unicode="&#x427;" horiz-adv-x="519" d="M331 700 L331 361 C307 353 281 349 257 349 C191 349 157 384 157 459 L157 700 L34 700 L34 465 C34 319 112 234 239 234 C267 234 301 238 331 247 L331 -4 L454 -4 L454 700 L331 700 Z " />
<glyph glyph-name="uni0428" unicode="&#x428;" horiz-adv-x="813" d="M66 0 L747 0 L747 700 L626 700 L626 117 L467 117 L467 700 L346 700 L346 117 L187 117 L187 700 L66 700 L66 0 Z " />
<glyph glyph-name="uni0429" unicode="&#x429;" horiz-adv-x="822" d="M744 117 L744 700 L623 700 L623 117 L466 117 L466 700 L344 700 L344 117 L187 117 L187 700 L66 700 L66 0 L687 0 L687 -118 L808 -118 L808 117 L744 117 Z " />
<glyph glyph-name="uni042A" unicode="&#x42a;" horiz-adv-x="572" d="M147 0 L336 0 C484 0 553 70 553 213 C553 340 484 429 336 429 L271 429 L271 700 L13 700 L13 588 L147 588 L147 0 Z M271 113 L271 312 L327 312 C393 312 427 280 427 213 C427 145 393 113 327 113 L271 113 Z " />
<glyph glyph-name="uni042B" unicode="&#x42b;" horiz-adv-x="724" d="M66 0 L247 0 C393 0 462 69 462 212 C462 340 393 428 247 428 L192 428 L192 700 L66 700 L66 0 Z M536 0 L659 0 L659 700 L536 700 L536 0 Z M192 113 L192 311 L238 311 C302 311 334 279 334 212 C334 144 302 113 238 113 L192 113 Z " />
<glyph glyph-name="uni042C" unicode="&#x42c;" horiz-adv-x="494" d="M66 0 L258 0 C405 0 475 69 475 212 C475 340 405 428 258 428 L189 428 L189 700 L66 700 L66 0 Z M189 113 L189 311 L249 311 C313 311 347 280 347 212 C347 144 313 113 249 113 L189 113 Z " />
<glyph glyph-name="uni042D" unicode="&#x42d;" horiz-adv-x="498" d="M242 714 C108 714 32 635 26 492 L149 492 C153 564 183 595 243 595 C294 595 325 562 325 490 L325 406 L165 406 L165 304 L325 304 L325 210 C325 140 294 107 242 107 C181 107 151 138 146 208 L23 208 C28 66 107 -12 242 -12 C372 -12 452 66 452 210 L452 490 C452 635 373 714 242 714 L242 714 Z " />
<glyph glyph-name="uni042E" unicode="&#x42e;" horiz-adv-x="774" d="M511 711 C374 711 293 622 293 472 L293 412 L188 412 L188 700 L66 700 L66 0 L188 0 L188 295 L293 295 L293 228 C293 78 374 -11 511 -11 C647 -11 728 78 728 228 L728 472 C728 622 647 711 511 711 L511 711 Z M602 228 C602 150 571 108 511 108 C450 108 420 150 420 228 L420 472 C420 550 450 592 511 592 C571 592 602 550 602 472 L602 228 Z " />
<glyph glyph-name="uni042F" unicode="&#x42f;" horiz-adv-x="515" d="M10 0 L146 0 L271 239 L326 239 L326 0 L449 0 L449 700 L257 700 C122 700 41 615 41 469 C41 368 81 296 151 263 L10 0 Z M258 356 C199 356 167 396 167 469 C167 544 199 583 258 583 L326 583 L326 356 L258 356 Z " />
<glyph glyph-name="uni0430" unicode="&#x430;" horiz-adv-x="458" d="M228 542 C116 542 47 477 42 370 L160 370 C165 411 193 428 226 428 C270 428 286 397 286 343 L286 317 L224 317 C108 317 27 263 27 151 C27 54 89 -14 186 -14 C246 -14 283 14 303 50 L310 0 L405 0 L405 343 C405 472 348 542 228 542 L228 542 Z M286 162 C286 117 258 89 214 89 C169 89 147 115 147 151 C147 194 176 217 226 217 L286 217 L286 162 Z " />
<glyph glyph-name="uni0431" unicode="&#x431;" horiz-adv-x="476" d="M266 485 C229 485 196 474 171 453 L171 474 C171 549 233 569 284 585 C336 602 374 625 406 680 L323 749 C297 711 281 704 224 683 C123 645 54 588 54 463 L54 193 C54 62 126 -12 244 -12 C363 -12 435 62 435 193 L435 280 C435 411 366 485 266 485 L266 485 Z M315 193 C315 130 289 102 244 102 C199 102 173 130 173 193 L173 280 C173 345 203 370 245 370 C290 370 315 343 315 278 L315 193 Z " />
<glyph glyph-name="uni0432" unicode="&#x432;" horiz-adv-x="434" d="M336 280 C371 304 390 341 390 379 C390 474 332 529 223 529 L54 529 L54 0 L227 0 C356 0 417 59 417 154 C417 207 395 257 336 280 L336 280 Z M167 434 L214 434 C253 434 275 411 275 376 C275 337 253 317 215 317 L167 317 L167 434 Z M233 97 L167 97 L167 221 L233 221 C280 221 301 201 301 159 C301 118 280 97 233 97 L233 97 Z " />
<glyph glyph-name="uni0433" unicode="&#x433;" horiz-adv-x="349" d="M335 530 L54 530 L54 0 L173 0 L173 417 L335 417 L335 530 Z " />
<glyph glyph-name="uni0434" unicode="&#x434;" horiz-adv-x="494" d="M0 -118 L113 -118 L113 0 L371 0 L371 -118 L484 -118 L484 107 L423 107 L423 529 L97 529 C95 440 90 351 85 263 C81 204 71 144 41 107 L0 107 L0 -118 Z M176 107 C190 145 197 187 200 234 C205 296 207 358 208 420 L306 420 L306 107 L176 107 Z " />
<glyph glyph-name="uni0435" unicode="&#x435;" horiz-adv-x="456" d="M305 167 C296 121 278 101 229 101 C185 101 160 129 160 192 L160 223 L417 223 L417 341 C417 468 346 542 228 542 C112 542 42 468 42 341 L42 192 C42 64 112 -12 227 -12 C343 -12 414 54 424 167 L305 167 Z M229 432 C275 432 300 404 300 342 L300 307 L160 307 L160 342 C160 404 185 432 229 432 L229 432 Z " />
<glyph glyph-name="uni0436" unicode="&#x436;" horiz-adv-x="655" d="M529 0 L659 0 L486 304 L638 529 L503 529 L437 414 C420 385 402 352 384 319 L384 529 L271 529 L271 318 C253 351 235 384 218 414 L152 529 L17 529 L169 304 L-5 0 L126 0 L243 213 L271 183 L271 0 L384 0 L384 183 L412 213 L529 0 Z " />
<glyph glyph-name="uni0437" unicode="&#x437;" horiz-adv-x="427" d="M330 279 C357 297 387 329 387 383 C387 479 318 540 207 540 C97 540 31 476 25 365 L138 365 C141 411 166 434 210 434 C251 434 274 412 274 375 C274 336 251 313 212 313 L151 313 L151 227 L213 227 C261 227 287 205 287 165 C287 120 259 95 210 95 C160 95 132 118 128 158 L15 158 C21 52 93 -13 210 -13 C328 -13 402 52 402 159 C402 216 367 260 330 279 L330 279 Z " />
<glyph glyph-name="uni0438" unicode="&#x438;" horiz-adv-x="474" d="M54 0 L174 0 L240 144 C264 195 304 322 309 344 L312 343 C308 284 307 205 307 156 L307 0 L420 0 L420 529 L301 529 L235 376 C214 320 177 216 168 187 L166 188 C166 255 167 306 167 351 L167 529 L54 529 L54 0 Z " />
<glyph glyph-name="uni0439" unicode="&#x439;" horiz-adv-x="474" d="M239 611 C308 611 359 654 362 733 L284 733 C283 703 263 686 238 686 C212 686 193 703 192 733 L113 733 C116 656 168 611 239 611 L239 611 Z M54 0 L174 0 L240 144 C264 195 304 322 309 344 L312 343 C308 284 307 205 307 156 L307 0 L420 0 L420 529 L301 529 L235 376 C214 320 177 216 168 187 L166 188 C166 255 167 306 167 351 L167 529 L54 529 L54 0 Z " />
<glyph glyph-name="uni043A" unicode="&#x43a;" horiz-adv-x="451" d="M322 0 L456 0 L278 305 L431 529 L293 529 L223 410 C207 382 189 350 171 317 L171 529 L54 529 L54 0 L171 0 L171 181 L200 212 L322 0 Z " />
<glyph glyph-name="uni043B" unicode="&#x43b;" horiz-adv-x="464" d="M-3 -9 C107 -9 165 57 180 197 C189 262 194 367 196 420 L293 420 L293 0 L410 0 L410 529 L83 529 C80 423 71 282 64 219 C57 146 46 105 -3 105 L-3 -9 Z " />
<glyph glyph-name="uni043C" unicode="&#x43c;" horiz-adv-x="565" d="M394 529 L328 366 C311 324 296 284 284 241 L281 241 C269 284 254 324 238 366 L171 529 L54 529 L54 0 L163 0 L163 164 C163 221 159 284 156 333 L162 335 C177 284 191 235 204 196 L230 127 L336 127 L362 196 C374 235 389 284 403 335 L409 333 C407 284 403 221 403 164 L403 0 L512 0 L512 529 L394 529 Z " />
<glyph glyph-name="uni043D" unicode="&#x43d;" horiz-adv-x="461" d="M289 529 L289 323 L172 323 L172 529 L54 529 L54 0 L172 0 L172 214 L289 214 L289 0 L407 0 L407 529 L289 529 Z " />
<glyph glyph-name="uni043E" unicode="&#x43e;" horiz-adv-x="467" d="M233 -13 C353 -13 425 61 425 193 L425 336 C425 468 353 542 233 542 C114 542 42 468 42 336 L42 193 C42 61 114 -13 233 -13 L233 -13 Z M233 102 C188 102 162 130 162 193 L162 336 C162 400 188 427 233 427 C279 427 305 400 305 336 L305 193 C305 130 279 102 233 102 L233 102 Z " />
<glyph glyph-name="uni043F" unicode="&#x43f;" horiz-adv-x="461" d="M407 529 L54 529 L54 0 L172 0 L172 420 L289 420 L289 0 L407 0 L407 529 Z " />
<glyph glyph-name="uni0440" unicode="&#x440;" horiz-adv-x="470" d="M259 541 C214 541 169 514 143 481 L136 530 L54 530 L54 -180 L169 -180 L169 22 C193 0 225 -13 259 -13 C361 -13 429 66 429 193 L429 334 C429 461 361 541 259 541 L259 541 Z M309 193 C309 129 285 99 241 99 C195 99 169 133 169 193 L169 334 C169 397 197 429 241 429 C284 429 309 398 309 334 L309 193 Z " />
<glyph glyph-name="uni0441" unicode="&#x441;" horiz-adv-x="440" d="M226 -12 C343 -12 414 61 417 185 L298 185 C295 129 273 101 228 101 C185 101 161 129 161 185 L161 346 C161 401 185 429 228 429 C270 429 293 401 295 346 L414 346 C410 469 346 542 226 542 C111 542 42 469 42 346 L42 185 C42 61 111 -12 226 -12 L226 -12 Z " />
<glyph glyph-name="uni0442" unicode="&#x442;" horiz-adv-x="364" d="M355 529 L8 529 L8 417 L123 417 L123 0 L241 0 L241 417 L355 417 L355 529 Z " />
<glyph glyph-name="uni0443" unicode="&#x443;" horiz-adv-x="434" d="M311 529 L223 224 L125 529 L2 529 L173 54 L156 -6 C143 -50 130 -75 93 -75 L56 -75 L56 -189 L117 -189 C201 -189 242 -119 268 -27 L432 529 L311 529 Z " />
<glyph glyph-name="uni0444" unicode="&#x444;" horiz-adv-x="628" d="M389 537 L371 537 L371 724 L257 724 L257 537 L239 537 C118 537 42 463 42 331 L42 206 C42 71 119 -6 239 -6 L257 -6 L257 -180 L371 -180 L371 -6 L389 -6 C509 -6 586 71 586 206 L586 331 C586 463 509 537 389 537 L389 537 Z M239 109 C192 109 162 139 162 206 L162 331 C162 394 192 422 239 422 L257 422 L257 109 L239 109 Z M466 206 C466 139 436 109 389 109 L371 109 L371 422 L389 422 C436 422 466 394 466 331 L466 206 Z " />
<glyph glyph-name="uni0445" unicode="&#x445;" horiz-adv-x="423" d="M427 0 L287 266 L414 529 L284 529 L211 367 L138 529 L9 529 L138 266 L-4 0 L129 0 L211 169 L294 0 L427 0 Z " />
<glyph glyph-name="uni0446" unicode="&#x446;" horiz-adv-x="482" d="M354 -118 L467 -118 L467 107 L406 107 L406 529 L288 529 L288 107 L172 107 L172 529 L54 529 L54 0 L354 0 L354 -118 Z " />
<glyph glyph-name="uni0447" unicode="&#x447;" horiz-adv-x="436" d="M272 529 L272 285 C250 271 220 269 204 269 C163 269 138 291 138 375 L138 529 L27 529 L27 375 C27 221 95 159 192 159 C217 159 246 163 272 177 L272 0 L383 0 L383 529 L272 529 Z " />
<glyph glyph-name="uni0448" unicode="&#x448;" horiz-adv-x="679" d="M509 529 L509 109 L395 109 L395 529 L279 529 L279 109 L165 109 L165 529 L49 529 L49 0 L625 0 L625 529 L509 529 Z " />
<glyph glyph-name="uni0449" unicode="&#x449;" horiz-adv-x="706" d="M631 107 L631 529 L514 529 L514 109 L400 109 L400 529 L284 529 L284 109 L170 109 L170 529 L54 529 L54 0 L579 0 L579 -118 L691 -118 L691 107 L631 107 Z " />
<glyph glyph-name="uni044A" unicode="&#x44a;" horiz-adv-x="493" d="M307 354 L231 354 L231 529 L8 529 L8 420 L113 420 L113 0 L307 0 C410 0 482 72 482 179 C482 284 410 354 307 354 L307 354 Z M292 106 L231 106 L231 249 L292 249 C336 249 363 224 363 179 C363 133 336 106 292 106 L292 106 Z " />
<glyph glyph-name="uni044B" unicode="&#x44b;" horiz-adv-x="651" d="M247 351 L172 351 L172 528 L54 528 L54 0 L247 0 C350 0 422 71 422 177 C422 281 350 351 247 351 L247 351 Z M478 528 L478 0 L597 0 L597 528 L478 528 Z M232 106 L172 106 L172 245 L232 245 C276 245 303 221 303 178 C303 132 276 106 232 106 L232 106 Z " />
<glyph glyph-name="uni044C" unicode="&#x44c;" horiz-adv-x="433" d="M247 354 L172 354 L172 529 L54 529 L54 0 L247 0 C350 0 422 72 422 179 C422 284 350 354 247 354 L247 354 Z M232 106 L172 106 L172 249 L232 249 C276 249 303 224 303 179 C303 133 276 106 232 106 L232 106 Z " />
<glyph glyph-name="uni044D" unicode="&#x44d;" horiz-adv-x="440" d="M214 542 C94 542 30 472 26 354 L145 354 C147 404 170 429 212 429 C255 429 279 401 279 346 L279 306 L133 306 L133 228 L279 228 L279 185 C279 129 255 101 212 101 C167 101 145 127 142 177 L23 177 C26 58 97 -12 214 -12 C329 -12 398 61 398 185 L398 346 C398 469 329 542 214 542 L214 542 Z " />
<glyph glyph-name="uni044E" unicode="&#x44e;" horiz-adv-x="648" d="M420 542 C304 542 234 468 234 337 L234 322 L167 322 L167 529 L54 529 L54 0 L167 0 L167 214 L234 214 L234 194 C234 62 304 -12 420 -12 C535 -12 606 62 606 194 L606 337 C606 468 535 542 420 542 L420 542 Z M488 194 C488 131 464 103 420 103 C375 103 351 131 351 194 L351 337 C351 400 375 427 420 427 C464 427 488 400 488 337 L488 194 Z " />
<glyph glyph-name="uni044F" unicode="&#x44f;" horiz-adv-x="427" d="M207 529 C99 529 24 465 24 353 C24 266 63 216 112 190 L7 0 L139 0 L221 171 L265 171 L265 0 L378 0 L378 529 L207 529 Z M265 269 L213 269 C164 269 139 296 139 349 C139 396 164 423 214 423 L265 423 L265 269 Z " />
<glyph glyph-name="uni0451" unicode="&#x451;" horiz-adv-x="456" d="M146 617 C180 617 202 639 202 673 C202 707 180 728 146 728 C112 728 90 707 90 673 C90 639 112 617 146 617 L146 617 Z M298 617 C331 617 354 639 354 673 C354 707 331 728 298 728 C264 728 241 707 241 673 C241 639 264 617 298 617 L298 617 Z M305 167 C296 121 278 101 229 101 C185 101 160 129 160 192 L160 223 L417 223 L417 341 C417 468 346 542 228 542 C112 542 42 468 42 341 L42 192 C42 64 112 -12 227 -12 C343 -12 414 54 424 167 L305 167 Z M229 432 C275 432 300 404 300 342 L300 307 L160 307 L160 342 C160 404 185 432 229 432 L229 432 Z " />
<glyph glyph-name="uni0452" unicode="&#x452;" horiz-adv-x="471" d="M275 542 C230 542 195 520 170 485 L170 605 L263 605 L263 666 L170 666 L170 725 L52 725 L52 666 L-11 666 L-11 605 L52 605 L52 0 L170 0 L170 331 C170 395 198 429 242 429 C283 429 304 400 304 322 L304 -3 C304 -56 278 -83 220 -84 L220 -197 C352 -196 423 -122 423 4 L423 323 C423 469 368 542 275 542 L275 542 Z " />
<glyph glyph-name="uni0453" unicode="&#x453;" horiz-adv-x="349" d="M305 741 L202 741 L128 609 L213 609 L305 741 Z M335 530 L54 530 L54 0 L173 0 L173 417 L335 417 L335 530 Z " />
<glyph glyph-name="uni0454" unicode="&#x454;" horiz-adv-x="440" d="M298 177 C295 127 273 101 228 101 C185 101 161 129 161 185 L161 228 L307 228 L307 306 L161 306 L161 346 C161 401 185 429 228 429 C270 429 293 404 295 354 L414 354 C410 472 346 542 226 542 C111 542 42 469 42 346 L42 185 C42 61 111 -12 226 -12 C343 -12 414 58 417 177 L298 177 Z " />
<glyph glyph-name="uni0455" unicode="&#x455;" horiz-adv-x="425" d="M219 -14 C334 -14 402 51 402 147 C402 338 147 305 147 390 C147 418 170 437 207 437 C252 437 272 411 274 369 L388 369 C382 468 327 542 207 542 C99 542 30 485 30 391 C30 211 284 241 284 147 C284 115 259 94 216 94 C160 94 140 130 139 166 L21 166 C23 70 90 -14 219 -14 L219 -14 Z " />
<glyph glyph-name="uni0456" unicode="&#x456;" horiz-adv-x="226" d="M113 611 C152 611 182 643 182 680 C182 720 152 749 113 749 C73 749 45 720 45 680 C45 641 73 611 113 611 L113 611 Z M54 0 L172 0 L172 529 L54 529 L54 0 Z " />
<glyph glyph-name="uni0457" unicode="&#x457;" horiz-adv-x="250" d="M55 620 C88 620 109 641 109 674 C109 707 88 728 55 728 C23 728 1 707 1 674 C1 641 23 620 55 620 L55 620 Z M196 620 C228 620 249 641 249 674 C249 707 228 728 196 728 C163 728 141 707 141 674 C141 641 163 620 196 620 L196 620 Z M65 0 L184 0 L184 529 L65 529 L65 0 Z " />
<glyph glyph-name="uni0458" unicode="&#x458;" horiz-adv-x="254" d="M131 610 C170 610 200 642 200 679 C200 719 170 748 131 748 C91 748 63 719 63 679 C63 640 91 610 131 610 L131 610 Z M-12 -194 C121 -193 191 -118 191 12 L191 529 L73 529 L73 5 C73 -52 47 -80 -12 -81 L-12 -194 Z " />
<glyph glyph-name="uni0459" unicode="&#x459;" horiz-adv-x="671" d="M-3 -9 C107 -9 165 57 180 197 C188 262 194 367 196 420 L293 420 L293 0 L485 0 C588 0 660 71 660 177 C660 281 588 351 485 351 L409 351 L409 529 L83 529 C80 423 71 282 64 219 C57 146 46 105 -3 105 L-3 -9 Z M409 106 L409 245 L470 245 C514 245 541 221 541 178 C541 132 514 106 470 106 L409 106 Z " />
<glyph glyph-name="uni045A" unicode="&#x45a;" horiz-adv-x="668" d="M482 337 L406 337 L406 529 L289 529 L289 337 L172 337 L172 529 L54 529 L54 0 L172 0 L172 228 L289 228 L289 0 L482 0 C585 0 657 69 657 171 C657 270 585 337 482 337 L482 337 Z M467 106 L406 106 L406 231 L467 231 C511 231 538 209 538 172 C538 130 511 106 467 106 L467 106 Z " />
<glyph glyph-name="uni045B" unicode="&#x45b;" horiz-adv-x="471" d="M275 542 C231 542 195 520 170 484 L170 602 L263 602 L263 663 L170 663 L170 725 L53 725 L53 663 L-11 663 L-11 602 L53 602 L53 0 L170 0 L170 331 C170 395 198 429 242 429 C283 429 304 400 304 322 L304 0 L423 0 L423 323 C423 469 368 542 275 542 L275 542 Z " />
<glyph glyph-name="uni045C" unicode="&#x45c;" horiz-adv-x="451" d="M343 741 L240 741 L166 609 L251 609 L343 741 Z M322 0 L456 0 L278 305 L431 529 L293 529 L223 410 C207 382 189 350 171 317 L171 529 L54 529 L54 0 L171 0 L171 181 L200 212 L322 0 Z " />
<glyph glyph-name="uni045D" unicode="&#x45d;" horiz-adv-x="474" d="M134 741 L226 609 L311 609 L237 741 L134 741 Z M54 0 L174 0 L240 144 C264 195 304 322 309 344 L312 343 C308 284 307 205 307 156 L307 0 L420 0 L420 529 L301 529 L235 376 C214 320 177 216 168 187 L166 188 C166 255 167 306 167 351 L167 529 L54 529 L54 0 Z " />
<glyph glyph-name="uni045E" unicode="&#x45e;" horiz-adv-x="434" d="M218 613 C287 613 338 656 341 735 L263 735 C262 705 242 688 217 688 C191 688 172 705 171 735 L92 735 C95 658 147 613 218 613 L218 613 Z M311 529 L223 224 L125 529 L2 529 L173 54 L156 -6 C143 -50 130 -75 93 -75 L56 -75 L56 -189 L117 -189 C201 -189 242 -119 268 -27 L432 529 L311 529 Z " />
<glyph glyph-name="uni045F" unicode="&#x45f;" horiz-adv-x="461" d="M407 529 L289 529 L289 109 L172 109 L172 529 L54 529 L54 0 L177 0 L177 -118 L286 -118 L286 0 L407 0 L407 529 Z " />
<glyph glyph-name="uni0490" unicode="&#x490;" horiz-adv-x="426" d="M309 823 L309 700 L66 700 L66 0 L189 0 L189 583 L410 583 L410 823 L309 823 Z " />
<glyph glyph-name="uni0491" unicode="&#x491;" horiz-adv-x="350" d="M241 628 L241 529 L54 529 L54 0 L173 0 L173 416 L336 416 L336 628 L241 628 Z " />
<glyph glyph-name="Wgrave" unicode="&#x1e80;" horiz-adv-x="773" d="M473 767 L379 899 L276 899 L387 767 L473 767 Z M641 700 L578 345 C569 294 554 205 548 154 L544 154 C537 205 522 292 513 347 L451 690 L322 690 L260 347 C251 292 236 205 229 154 L225 154 C219 205 204 294 195 345 L132 700 L5 700 L162 0 L293 0 L351 269 C367 340 380 439 385 496 L389 496 C393 439 406 340 422 269 L480 0 L611 0 L768 700 L641 700 Z " />
<glyph glyph-name="wgrave" unicode="&#x1e81;" horiz-adv-x="652" d="M398 608 L324 740 L221 740 L313 608 L398 608 Z M528 529 L491 320 C481 259 467 170 463 130 L458 130 C452 177 439 253 428 315 L389 519 L264 519 L224 315 C213 253 200 177 194 130 L189 130 C185 170 171 259 161 320 L124 529 L2 529 L125 0 L253 0 L288 152 C305 230 319 318 324 376 L329 376 C333 318 347 230 365 152 L400 0 L527 0 L650 529 L528 529 Z " />
<glyph glyph-name="Wacute" unicode="&#x1e82;" horiz-adv-x="773" d="M330 767 L416 767 L527 899 L424 899 L330 767 Z M641 700 L578 345 C569 294 554 205 548 154 L544 154 C537 205 522 292 513 347 L451 690 L322 690 L260 347 C251 292 236 205 229 154 L225 154 C219 205 204 294 195 345 L132 700 L5 700 L162 0 L293 0 L351 269 C367 340 380 439 385 496 L389 496 C393 439 406 340 422 269 L480 0 L611 0 L768 700 L641 700 Z " />
<glyph glyph-name="wacute" unicode="&#x1e83;" horiz-adv-x="652" d="M437 740 L334 740 L260 608 L345 608 L437 740 Z M528 529 L491 320 C481 259 467 170 463 130 L458 130 C452 177 439 253 428 315 L389 519 L264 519 L224 315 C213 253 200 177 194 130 L189 130 C185 170 171 259 161 320 L124 529 L2 529 L125 0 L253 0 L288 152 C305 230 319 318 324 376 L329 376 C333 318 347 230 365 152 L400 0 L527 0 L650 529 L528 529 Z " />
<glyph glyph-name="Wdieresis" unicode="&#x1e84;" horiz-adv-x="773" d="M317 778 C350 778 372 800 372 834 C372 868 350 890 317 890 C283 890 261 868 261 834 C261 800 283 778 317 778 L317 778 Z M471 778 C505 778 527 800 527 834 C527 868 505 890 471 890 C437 890 415 868 415 834 C415 800 437 778 471 778 L471 778 Z M641 700 L578 345 C569 294 554 205 548 154 L544 154 C537 205 522 292 513 347 L451 690 L322 690 L260 347 C251 292 236 205 229 154 L225 154 C219 205 204 294 195 345 L132 700 L5 700 L162 0 L293 0 L351 269 C367 340 380 439 385 496 L389 496 C393 439 406 340 422 269 L480 0 L611 0 L768 700 L641 700 Z " />
<glyph glyph-name="wdieresis" unicode="&#x1e85;" horiz-adv-x="652" d="M247 617 C281 617 303 639 303 673 C303 707 281 728 247 728 C213 728 191 707 191 673 C191 639 213 617 247 617 L247 617 Z M399 617 C432 617 455 639 455 673 C455 707 432 728 399 728 C365 728 342 707 342 673 C342 639 365 617 399 617 L399 617 Z M528 529 L491 320 C481 259 467 170 463 130 L458 130 C452 177 439 253 428 315 L389 519 L264 519 L224 315 C213 253 200 177 194 130 L189 130 C185 170 171 259 161 320 L124 529 L2 529 L125 0 L253 0 L288 152 C305 230 319 318 324 376 L329 376 C333 318 347 230 365 152 L400 0 L527 0 L650 529 L528 529 Z " />
<glyph glyph-name="Ygrave" unicode="&#x1ef2;" horiz-adv-x="460" d="M309 767 L215 899 L112 899 L223 767 L309 767 Z M169 0 L292 0 L292 218 L459 700 L331 700 L265 490 C256 462 241 411 232 377 L229 377 C220 411 205 462 196 488 L129 700 L1 700 L169 218 L169 0 Z " />
<glyph glyph-name="ygrave" unicode="&#x1ef3;" horiz-adv-x="434" d="M290 611 L216 743 L113 743 L205 611 L290 611 Z M311 529 L223 224 L125 529 L2 529 L173 54 L156 -6 C143 -50 130 -75 93 -75 L56 -75 L56 -189 L117 -189 C201 -189 242 -119 268 -27 L432 529 L311 529 Z " />
<glyph glyph-name="endash" unicode="&#x2013;" horiz-adv-x="415" d="M34 206 L381 206 L381 308 L34 308 L34 206 Z " />
<glyph glyph-name="emdash" unicode="&#x2014;" horiz-adv-x="550" d="M34 308 L34 206 L517 206 L517 308 L34 308 Z " />
<glyph glyph-name="quoteleft" unicode="&#x2018;" horiz-adv-x="168" d="M126 450 L146 700 L76 700 L13 450 L126 450 Z " />
<glyph glyph-name="quoteright" unicode="&#x2019;" horiz-adv-x="168" d="M42 702 L21 452 L92 452 L154 702 L42 702 Z " />
<glyph glyph-name="quotesinglbase" unicode="&#x201a;" horiz-adv-x="181" d="M44 110 L24 -140 L94 -140 L157 110 L44 110 Z " />
<glyph glyph-name="quotedblleft" unicode="&#x201c;" horiz-adv-x="313" d="M126 450 L146 700 L76 700 L13 450 L126 450 Z M272 450 L292 700 L222 700 L159 450 L272 450 Z " />
<glyph glyph-name="quotedblright" unicode="&#x201d;" horiz-adv-x="313" d="M42 700 L21 450 L92 450 L154 700 L42 700 Z M187 700 L167 450 L237 450 L300 700 L187 700 Z " />
<glyph glyph-name="quotedblbase" unicode="&#x201e;" horiz-adv-x="181" d="M44 110 L24 -140 L94 -140 L157 110 L44 110 Z " />
<glyph glyph-name="dagger" unicode="&#x2020;" horiz-adv-x="370" d="M351 520 L240 520 L240 705 L130 705 L130 520 L19 520 L19 415 L130 415 L130 -98 L240 -98 L240 415 L351 415 L351 520 Z " />
<glyph glyph-name="daggerdbl" unicode="&#x2021;" horiz-adv-x="375" d="M353 415 L353 520 L242 520 L242 705 L131 705 L131 520 L20 520 L20 415 L131 415 L131 226 L20 226 L20 121 L131 121 L131 -98 L242 -98 L242 121 L353 121 L353 226 L242 226 L242 415 L353 415 Z " />
<glyph glyph-name="bullet" unicode="&#x2022;" horiz-adv-x="225" d="M112 159 C166 159 202 196 202 251 C202 305 166 342 112 342 C57 342 20 305 20 251 C20 196 57 159 112 159 L112 159 Z " />
<glyph glyph-name="ellipsis" unicode="&#x2026;" horiz-adv-x="566" d="M100 -10 C141 -10 169 17 169 58 C169 99 141 127 100 127 C59 127 32 99 32 58 C32 17 59 -10 100 -10 L100 -10 Z M283 -10 C324 -10 351 17 351 58 C351 99 324 127 283 127 C242 127 215 99 215 58 C215 17 242 -10 283 -10 L283 -10 Z M466 -10 C507 -10 534 17 534 58 C534 99 507 127 466 127 C425 127 398 99 398 58 C398 17 425 -10 466 -10 L466 -10 Z " />
<glyph glyph-name="perthousand" unicode="&#x2030;" horiz-adv-x="834" d="M126 388 C189 388 231 426 231 497 L231 601 C231 672 189 711 126 711 C63 711 21 672 21 601 L21 497 C21 426 63 388 126 388 L126 388 Z M13 0 L95 0 L578 700 L496 700 L13 0 Z M126 453 C105 453 94 464 94 496 L94 602 C94 635 105 646 126 646 C147 646 158 635 158 602 L158 496 C158 464 147 453 126 453 L126 453 Z M453 -9 C515 -9 557 29 557 101 L557 204 C557 276 515 315 453 315 C390 315 348 276 348 204 L348 101 C348 29 390 -9 453 -9 L453 -9 Z M711 -9 C773 -9 815 29 815 101 L815 204 C815 276 773 315 711 315 C647 315 605 276 605 204 L605 101 C605 29 647 -9 711 -9 L711 -9 Z M453 56 C432 56 420 67 420 99 L420 206 C420 238 432 249 453 249 C474 249 485 238 485 206 L485 99 C485 67 474 56 453 56 L453 56 Z M711 56 C689 56 678 67 678 99 L678 206 C678 238 689 249 711 249 C731 249 742 238 742 206 L742 99 C742 67 731 56 711 56 L711 56 Z " />
<glyph glyph-name="guilsinglleft" unicode="&#x2039;" horiz-adv-x="297" d="M147 86 L263 86 L136 257 L263 428 L147 428 L34 277 L34 237 L147 86 Z " />
<glyph glyph-name="guilsinglright" unicode="&#x203a;" horiz-adv-x="297" d="M150 86 L263 237 L263 277 L150 428 L34 428 L161 257 L34 86 L150 86 Z " />
<glyph glyph-name="fraction" unicode="&#x2044;" horiz-adv-x="568" d="M9 0 L101 0 L559 700 L467 700 L9 0 Z " />
<glyph glyph-name="Euro" unicode="&#x20ac;" horiz-adv-x="562" d="M416 208 C411 138 381 107 320 107 C268 107 237 140 237 210 L237 260 L364 260 L364 328 L237 328 L237 378 L364 378 L364 447 L237 447 L237 490 C237 562 268 595 319 595 C379 595 408 564 413 492 L536 492 C530 635 453 714 319 714 C189 714 110 635 110 490 L110 447 L30 447 L30 378 L110 378 L110 328 L30 328 L30 260 L110 260 L110 210 C110 66 189 -12 320 -12 C455 -12 534 66 539 208 L416 208 Z " />
<glyph glyph-name="trademark" unicode="&#x2122;" horiz-adv-x="474" d="M20 646 L75 646 L75 428 L132 428 L132 646 L186 646 L186 700 L20 700 L20 646 Z M385 700 L365 651 C357 629 336 567 331 547 C327 567 306 630 298 651 L277 700 L215 700 L215 428 L271 428 L271 474 C271 516 268 578 266 604 L269 605 C275 589 284 562 291 537 L305 494 L358 494 L372 537 C379 562 388 589 393 605 L397 604 C395 578 392 516 392 474 L392 428 L448 428 L448 700 L385 700 Z " />
<glyph glyph-name="partialdiff" unicode="&#x2202;" horiz-adv-x="464" d="M185 738 L143 645 C217 619 269 567 293 487 C271 500 247 506 221 506 C110 506 42 433 42 301 L42 194 C42 62 113 -12 232 -12 C351 -12 423 62 423 194 L423 378 C421 598 311 701 185 738 L185 738 Z M303 194 C303 131 277 103 232 103 C187 103 162 131 162 194 L162 301 C162 364 187 391 232 391 C277 391 303 364 303 301 L303 194 Z " />
<glyph glyph-name="emptyset" unicode="&#x2205;" horiz-adv-x="791" d="M748 733 L618 733 L572 671 C521 697 462 711 395 711 C183 711 42 568 42 350 C42 243 76 153 136 90 L44 -33 L174 -33 L220 28 C270 3 329 -11 395 -11 C607 -11 748 132 748 350 C748 457 714 546 655 609 L748 733 Z M144 350 C144 508 244 613 395 613 C438 613 476 604 510 589 L200 175 C164 220 144 280 144 350 L144 350 Z M645 350 C645 193 545 87 395 87 C353 87 315 95 282 111 L591 524 C626 479 645 420 645 350 L645 350 Z " />
<glyph glyph-name="product" unicode="&#x220f;" horiz-adv-x="517" d="M66 -100 L187 -100 L187 583 L331 583 L331 -100 L452 -100 L452 700 L66 700 L66 -100 Z " />
<glyph glyph-name="summation" unicode="&#x2211;" horiz-adv-x="381" d="M32 -4 L349 -4 L349 106 L165 106 L280 314 L280 386 L165 594 L349 594 L349 704 L32 704 L32 606 L180 350 L32 94 L32 -4 Z " />
<glyph glyph-name="minus" unicode="&#x2212;" horiz-adv-x="471" d="M41 256 L430 256 L430 364 L41 364 L41 256 Z " />
<glyph glyph-name="radical" unicode="&#x221a;" horiz-adv-x="505" d="M493 790 L378 790 L260 105 L190 500 L10 500 L10 395 L95 395 L180 0 L341 0 L493 790 Z " />
<glyph glyph-name="infinity" unicode="&#x221e;" horiz-adv-x="624" d="M437 414 C384 414 342 388 312 351 C282 388 240 414 187 414 C106 414 42 350 42 252 C42 155 104 92 185 92 C240 92 283 120 312 162 C341 120 384 92 439 92 C521 92 583 155 583 252 C583 350 518 414 437 414 L437 414 Z M195 195 C168 195 147 215 147 253 C147 292 168 311 195 311 C223 311 239 289 253 254 C239 218 223 195 195 195 L195 195 Z M430 195 C401 195 386 218 371 254 C386 289 402 311 430 311 C457 311 478 292 478 253 C478 215 457 195 430 195 L430 195 Z " />
<glyph glyph-name="integral" unicode="&#x222b;" horiz-adv-x="337" d="M28 -191 C159 -190 228 -116 228 10 L228 525 C228 571 253 598 309 598 L309 711 C178 711 109 637 109 510 L109 -5 C109 -50 85 -77 28 -78 L28 -191 Z " />
<glyph glyph-name="approxequal" unicode="&#x2248;" horiz-adv-x="475" d="M383 449 C369 433 348 420 325 420 C269 420 210 459 140 459 C102 459 67 445 36 408 L93 327 C106 343 127 355 151 355 C207 355 265 317 335 317 C374 317 409 331 440 369 L383 449 Z M383 273 C369 257 348 244 325 244 C269 244 210 282 140 282 C102 282 67 269 36 231 L93 150 C106 166 127 179 151 179 C207 179 265 141 335 141 C374 141 409 155 440 193 L383 273 Z " />
<glyph glyph-name="notequal" unicode="&#x2260;" horiz-adv-x="475" d="M432 347 L432 456 L351 456 L380 523 L279 523 L250 456 L44 456 L44 347 L202 347 L171 276 L44 276 L44 167 L124 167 L95 101 L196 101 L225 167 L432 167 L432 276 L272 276 L303 347 L432 347 Z " />
<glyph glyph-name="lessequal" unicode="&#x2264;" horiz-adv-x="441" d="M400 576 L41 439 L41 325 L400 188 L400 298 L162 382 L400 466 L400 576 Z M41 58 L400 58 L400 161 L41 161 L41 58 Z " />
<glyph glyph-name="greaterequal" unicode="&#x2265;" horiz-adv-x="441" d="M41 576 L41 466 L279 382 L41 298 L41 188 L400 325 L400 439 L41 576 Z M41 58 L400 58 L400 161 L41 161 L41 58 Z " />
<glyph glyph-name="lozenge" unicode="&#x25ca;" horiz-adv-x="474" d="M174 0 L301 0 L432 334 L432 368 L301 700 L174 700 L42 368 L42 334 L174 0 Z M237 121 L153 351 L237 579 L321 351 L237 121 Z " />
</font>
</svg>
