<svg width="1080" height="1080" viewBox="0 0 1080 1080" fill="none" xmlns="http://www.w3.org/2000/svg">
<path d="M999.134 306.794C1029.71 205.374 1047.33 89.9143 1057.31 0H1038.22C1025.88 110.85 1001.8 259.989 955.93 372.668C955.93 372.668 1018.03 317.596 1079.98 253.513V225.948C1052.05 255.513 1023.14 283.916 999.115 306.794H999.134Z" fill="#25A97A"/>
<path d="M902.343 463.382C965.588 315.31 981.456 135.043 982.618 0H963.797C962.616 148.759 943.3 352.933 860.739 506.073C860.739 506.073 989.629 449.095 1079.98 349.77V320.967C1025.71 387.26 950.977 436.027 902.343 463.382V463.382Z" fill="#25A97A"/>
<path d="M761.662 782.464C761.662 782.464 756.194 835.917 625.8 939.966C625.8 939.966 605.207 1016.56 566.365 1080H625.647L717.352 1035.35C796.389 910.839 761.662 782.483 761.662 782.483V782.464ZM704.094 1020.6L590.672 1075.85C619.361 1024.41 637.02 969.169 642.43 951.053C697.121 906.896 730.173 871.159 750.156 844.242C751.356 889.256 744.06 955.244 704.094 1020.6Z" fill="#25A97A"/>
<path d="M762.614 1073.87C762.614 1073.87 763.89 1076.06 766.062 1079.98H787.702C787.569 1079.73 787.417 1079.45 787.302 1079.22C887.694 1009.42 1014.01 1034.55 1054.99 1045.44C1054.26 1053.54 1052.7 1065.24 1049.39 1080H1068.91C1075.49 1049.01 1074.61 1031.37 1074.61 1031.37C1074.61 1031.37 893.028 969.836 762.633 1073.89L762.614 1073.87Z" fill="#25A97A"/>
<path d="M359.714 1074.84C359.714 1074.84 358.609 1076.72 356.247 1079.98H409.167C472.012 1058.84 520.76 1031.77 554.287 1009.52C544.115 1030.74 529.713 1055.46 509.844 1079.98H533.885C581.376 1016.01 594.844 954.234 594.844 954.234C594.844 954.234 511.94 1035.37 359.714 1074.84V1074.84Z" fill="#25A97A"/>
<path d="M112.793 1024.81C103.535 1026.6 171.618 875.369 162.417 877.14C104.392 888.323 49.5291 892.685 0 893.028V912.077C41.9854 911.792 87.7045 908.687 135.9 901.105C131.252 914.021 125.308 930.175 119.86 944.005C108.945 971.741 98.1056 999.477 94.6195 1012.49C92.7908 1019.31 92.7527 1024.32 93.1337 1026.79C94.2195 1033.96 97.9913 1038 101.516 1040.4C102.678 1041.27 104.049 1042.15 105.687 1042.93C114.603 1047.29 164.913 1063.98 213.165 1079.96H273.438C214.061 1059.88 108.907 1026.24 112.812 1024.79L112.793 1024.81Z" fill="#25A97A"/>
<path d="M359.352 1062.49C374.268 1056.61 642.544 938.328 731.354 796.484C661.461 830.45 581.242 838.432 486.375 858.129L510.587 698.664C437.684 790.712 313.767 846.832 208.003 871.788C198.211 874.093 122.622 1022.93 112.793 1024.83C118.584 1022.66 353.561 1064.8 359.352 1062.49ZM217.718 889.027C307.252 867.158 408.291 823.554 482.584 756.137L467.535 855.252C466.602 861.424 468.735 867.654 473.269 871.94C477.803 876.226 484.127 878.036 490.242 876.759C558.44 862.606 619.17 854.205 674.014 838.317C571.432 945.872 386.898 1029.99 356.133 1043.18C346.589 1041.82 309.823 1036.55 274.81 1030.78C230.329 1023.46 179.124 1014.83 146.93 1009.88C168.799 973.57 203.393 908.572 217.699 888.989L217.718 889.027Z" fill="#25A97A"/>
<path d="M0 964.616C17.2971 964.064 34.7084 962.997 52.4246 961.435C41.8901 989.895 33.9655 1018.37 30.8604 1046.83C30.8604 1046.83 18.7258 1046.34 0 1045.56V1064.63L48.5956 1066.65C49.7767 1024.2 63.7401 981.742 81.7801 939.28C53.7771 942.538 26.7457 944.671 0 945.548V964.616H0Z" fill="#25A97A"/>
<path d="M353.275 1015.9C364.115 1012.85 506.358 960.197 570.956 886.875C509.883 897.905 436.541 900.152 436.541 900.152L449 807.343C395.966 854.91 242.254 912.935 242.254 912.935C232.767 927.108 203.45 1015.54 209.413 1000.3C210.613 997.21 349.066 1017.08 353.275 1015.9V1015.9ZM234.863 982.809C241.13 964.54 250.007 939.699 255.532 928.213C279.782 918.688 366.039 883.846 424.293 848.299L417.663 897.619C416.92 903.162 418.654 908.763 422.407 912.916C426.159 917.069 431.55 919.373 437.132 919.202C437.132 919.202 470.831 918.173 511.826 914.078C449.209 959.702 367.563 991.057 350.647 996.753C333.54 995.286 270.391 986.657 234.863 982.809V982.809Z" fill="#25A97A"/>
<path d="M866.511 863.158C866.511 863.158 965.645 704.494 952.215 653.86C918.954 677.005 838.508 751.946 794.236 767.605C794.236 767.605 815.991 943.147 749.489 1037.12C749.489 1037.12 972.046 954.311 1055.71 1010.26L1080 930.327V890.075C1047.58 893.085 960.978 901.734 923.774 911.315C923.774 911.315 1015.31 874.416 1080 813.515V786.712C1066.74 800.866 1051.6 813.819 1036.13 825.478C979.132 868.454 916.668 893.637 916.668 893.637C907.353 897.39 902.553 907.715 905.696 917.259C908.82 926.784 918.821 932.27 928.536 929.756C960.063 921.659 1027.73 914.268 1066.11 910.515C1059.45 932.442 1050.21 962.883 1044.05 983.152C1018.22 973.398 985.876 970.484 951.644 972.35C893.733 975.532 830.316 991.705 788.75 1004.2C801.685 972.598 809.076 937.433 812.924 903.81C818.944 851.138 816.429 802.542 814.543 779.416C848.014 762.271 893.752 724.477 928.403 696.436C926.498 702.227 924.25 708.284 921.869 714.552C897.885 777.092 850.395 853.043 850.395 853.043C845.842 860.339 846.737 869.787 852.585 876.093C858.434 882.398 867.787 883.998 875.407 880.017C907.41 863.253 939.776 818.334 967.893 762.462C1011.27 676.262 1046.61 564.384 1063.56 506.32C1068.68 514.245 1074.32 523.465 1080.06 533.656V496.776C1066.4 475.555 1056 462.716 1056 462.716C1056 462.716 964.959 811.553 866.568 863.139L866.511 863.158Z" fill="#25A97A"/>
<path d="M911.315 574.461C911.315 574.461 727.582 637.629 729.277 632.81C749.908 574.575 858.281 299.079 825.916 0H806.181C839.022 295.707 731.125 568.67 710.723 626.238C708.456 632.619 709.561 638.048 712.152 642.658C713.942 645.821 716.742 648.983 721.486 651.059C723.029 651.745 729.049 653.745 738.478 651.517C754.289 647.783 806.752 630.543 850.852 615.76C831.898 632.924 810.086 648.202 786.693 661.918C726.953 696.95 656.85 721.695 594.577 740.078C601.778 689.197 602.026 619.856 601.016 571.641L629.228 604.54C633.305 609.284 639.382 611.817 645.611 611.36C651.84 610.903 657.498 607.512 660.832 602.216C683.253 566.631 786.407 338.226 747.184 0H727.391C766.538 332.302 666.185 556.783 644.202 591.701L586.653 524.589C584.595 528.742 582.5 532.856 580.366 536.933C582.347 585.891 585.357 708.646 569.127 767.796C686.72 735.278 846.375 680.32 911.335 574.461H911.315Z" fill="#25A97A"/>
<path d="M1041.39 423.931C971.169 473.098 912.344 543.505 798.446 573.261C846.261 499.405 903.448 221.776 903.658 0H884.665C884.589 108.088 870.683 229.796 851.023 334.093C831.212 439.246 805.971 526.57 782.445 562.898C778.178 569.489 778.387 578.042 782.997 584.405C787.607 590.767 795.646 593.663 803.247 591.682C894.342 567.87 951.282 519.083 1006.13 474.869C917.564 723.105 704.455 760.004 543.543 800.77C548.934 752.289 553.925 661.537 557.221 577.337C550.839 587.529 544.153 597.511 537.162 607.283C532.971 706.456 526.684 806.123 520.284 826.564C699.541 777.682 959.721 748.67 1041.39 423.95V423.931Z" fill="#25A97A"/>
<path d="M638.106 527.046C644.583 525.884 649.993 521.446 652.412 515.331C697.674 401.509 726.191 224.595 698.207 0H679.024C707.008 221.585 679.329 396.118 634.734 508.301C625.742 498.377 616.77 487.975 607.779 477.117C605.131 483.785 602.368 490.376 599.511 496.929C606.54 505.253 613.57 513.331 620.599 521.084C625.019 525.96 631.629 528.208 638.106 527.046V527.046Z" fill="#25A97A"/>
</svg>
