<?xml version="1.0" encoding="utf-8"?>
<!-- Generator: Adobe Illustrator 26.3.1, SVG Export Plug-In . SVG Version: 6.00 Build 0)  -->
<svg version="1.1" id="Ebene_1" xmlns="http://www.w3.org/2000/svg" xmlns:xlink="http://www.w3.org/1999/xlink" x="0px" y="0px"
	 viewBox="0 0 200 276" style="enable-background:new 0 0 200 276;" xml:space="preserve">
<style type="text/css">
	.st0{fill:#FFFFFF;}
	.st1{fill:none;}
	.st2{fill-rule:evenodd;clip-rule:evenodd;fill:#34C899;}
	.st3{fill-rule:evenodd;clip-rule:evenodd;fill:#095A6E;}
	.st4{fill-rule:evenodd;clip-rule:evenodd;fill:#1F8CCD;}
	.st5{fill-rule:evenodd;clip-rule:evenodd;fill:#FFFFFF;}
	.st6{fill:#095A6E;}
</style>
<path class="st0" d="M0,268.6v-8.5c0-4.4,2.5-6.8,6.6-6.8c4.1,0,6.3,2.4,6.4,6.7H9.3c-0.1-2.2-0.9-3.1-2.6-3.1s-2.7,1-2.7,3.2v8.5
	c0,2.2,1,3.2,2.7,3.2c1.8,0,2.8-1,2.8-3.1v-2.1h-3v-3.3h6.7v5.4c-0.1,4.3-2.5,6.7-6.6,6.7C2.6,275.4,0,273,0,268.6L0,268.6z"/>
<path class="st0" d="M26.4,271.5v3.5H15.2v-21.3h10.8v3.5h-7v5.3h6.5v3.4H19v5.6L26.4,271.5L26.4,271.5z"/>
<path class="st0" d="M28,268.6v-8.5c0-4.4,2.5-6.8,6.6-6.8s6.3,2.4,6.4,6.7h-3.8c-0.1-2.2-0.9-3.1-2.6-3.1c-1.7,0-2.7,1-2.7,3.2v8.5
	c0,2.2,1,3.2,2.7,3.2c1.8,0,2.8-1,2.8-3.1v-2.1h-3v-3.3h6.7v5.4c-0.1,4.3-2.5,6.7-6.6,6.7S28,273,28,268.6L28,268.6z"/>
<path class="st0" d="M54.4,271.5v3.5H43.3v-21.3h10.8v3.5h-7v5.3h6.5v3.4h-6.5v5.6L54.4,271.5L54.4,271.5z"/>
<path class="st0" d="M69.9,253.7V275h-3.8l-4.2-9.3c-0.6-1.7-1.4-3.6-2-5.2l-0.1,0.1c0.3,2.4,0.5,6,0.5,8.3v6.1h-3.7v-21.3h3.8
	l4.5,10c0.6,1.4,1.2,3,1.7,4.4l0.1-0.1c-0.3-2.4-0.5-5.8-0.5-7.8v-6.5H69.9z"/>
<path class="st0" d="M71.2,253.7h3.9l2.2,10.9c0.3,1.7,0.7,4.1,1,5.8h0.1c0.3-1.7,0.6-4.1,1-5.8l2.2-10.9h3.9L80.4,275h-4
	L71.2,253.7L71.2,253.7z"/>
<path class="st0" d="M86.3,268.2v-7.6c0-4.5,2.5-7.2,6.8-7.2s6.8,2.7,6.8,7.2v7.6c0,4.5-2.5,7.2-6.8,7.2S86.3,272.7,86.3,268.2z
	 M95.9,268.2v-7.6c0-2.3-1-3.6-2.9-3.6s-2.9,1.3-2.9,3.6v7.6c0,2.3,1,3.6,2.9,3.6S95.9,270.5,95.9,268.2z"/>
<path class="st0" d="M107.9,267.6h-1.7v7.4h-3.8v-21.3h5.9c4.2,0,6.6,2.5,6.6,6.9c0,3.1-1.2,5.3-3.4,6.3l4.3,8.1h-4.2L107.9,267.6
	L107.9,267.6z M106.1,264h2.1c1.8,0,2.8-1.2,2.8-3.4s-1-3.4-2.8-3.4h-2.1V264L106.1,264z"/>
<path class="st0" d="M115.8,269h3.9c0,1.9,1,2.8,2.7,2.8c1.7,0,2.6-1,2.6-2.4c0-3.9-8.7-4.2-8.7-10.6c0-3.2,2.3-5.5,6.1-5.5
	c3.8,0,6.2,2.3,6.2,6.2h-3.9c0-1.7-0.9-2.5-2.3-2.5c-1.4,0-2.2,0.8-2.2,2c0,3.7,8.8,3.8,8.8,10.6c0,3.4-2.4,6-6.5,6
	C118.2,275.5,115.8,273.1,115.8,269L115.8,269z"/>
<path class="st0" d="M130.2,268.6v-8.5c0-4.4,2.4-6.8,6.5-6.8c4,0,6.5,2.4,6.6,6.8h-3.8c-0.1-2.2-1-3.1-2.9-3.1
	c-1.6,0-2.5,1-2.5,3.2v8.5c0,2.1,1,3.1,2.6,3.1c1.9,0,2.8-1,3-3.1h3.8c-0.2,4.3-2.6,6.7-6.7,6.7S130.2,273,130.2,268.6L130.2,268.6z
	"/>
<path class="st0" d="M158,253.7V275h-3.8v-9H149v9h-3.8v-21.3h3.8v8.8h5.2v-8.8H158z"/>
<path class="st0" d="M171.7,271.5v3.6h-10.5v-21.3h3.8v17.8H171.7L171.7,271.5z"/>
<path class="st0" d="M180.9,271.2h-5L175,275h-3.9l5.3-21.3h4.1l5.3,21.3h-3.9L180.9,271.2z M180.2,267.6l-0.9-4
	c-0.3-1.5-0.6-3.8-0.9-5.2h-0.1c-0.2,1.4-0.5,3.8-0.8,5.2l-0.9,4H180.2z"/>
<path class="st0" d="M185.9,268.6v-8.5c0-4.4,2.5-6.8,6.6-6.8c4.1,0,6.3,2.4,6.4,6.7h-3.8c-0.1-2.2-0.9-3.1-2.6-3.1
	c-1.7,0-2.7,1-2.7,3.2v8.5c0,2.2,1,3.2,2.7,3.2c1.8,0,2.8-1,2.8-3.1v-2.1h-3v-3.3h6.7v5.4c-0.1,4.3-2.5,6.7-6.6,6.7
	C188.5,275.4,185.9,273,185.9,268.6L185.9,268.6z"/>
<path class="st0" d="M6.8,209.1v36H0v-36H6.8z"/>
<path class="st0" d="M36.6,209.1v36h-6.7l-7.4-15.6c-1.1-2.8-2.5-6.1-3.6-8.8l-0.2,0.2c0.5,4.1,0.8,10.2,0.8,13.9v10.3H13v-36h6.7
	l8,16.9c1,2.3,2.1,5.1,3.1,7.4l0.2-0.2c-0.6-4.1-0.9-9.9-0.9-13.2v-11L36.6,209.1L36.6,209.1z"/>
<path class="st0" d="M49.7,209.1v36h-6.7v-36H49.7z"/>
<path class="st0" d="M75.6,215.1h-7.7v30h-6.9v-30h-7.7v-6h22.4L75.6,215.1L75.6,215.1z"/>
<path class="st0" d="M85.4,209.1v36h-6.7v-36H85.4z"/>
<path class="st0" d="M105.9,238.6h-9l-1.5,6.5h-7l9.4-36h7.2l9.4,36h-7L105.9,238.6L105.9,238.6z M104.5,232.6l-1.5-6.7
	c-0.6-2.5-1.1-6.4-1.5-8.8h-0.2c-0.3,2.4-0.9,6.4-1.5,8.8l-1.5,6.7H104.5L104.5,232.6z"/>
<path class="st0" d="M134.8,215.1h-7.7v30h-6.9v-30h-7.7v-6h22.4L134.8,215.1L134.8,215.1z"/>
<path class="st0" d="M144.7,209.1v36h-6.7v-36H144.7z"/>
<path class="st0" d="M147.6,209.1h7l4,18.3c0.6,2.9,1.3,6.9,1.7,9.8h0.2c0.5-2.9,1.1-6.9,1.8-9.8l4-18.3h7l-9.3,36h-7.2L147.6,209.1
	L147.6,209.1z"/>
<path class="st0" d="M196.1,239.2v6h-19.9v-36h19.3v6H183v8.9h11.5v5.8H183v9.4L196.1,239.2L196.1,239.2z"/>
<path class="st0" d="M8.4,185.5l-2.2,3.4v11H0v-35.2h6.2v14.4l2.1-4.1l6-10.3h7.3L11.9,180l11.2,19.8h-7.2L8.4,185.5L8.4,185.5z"/>
<path class="st0" d="M34.4,187.6h-2.9v12.3h-6.3v-35.2h9.8c7,0,11.1,4.2,11.1,11.4c0,5.1-2,8.7-5.6,10.5l7.2,13.4h-6.9L34.4,187.6
	L34.4,187.6z M31.6,181.7h3.5c3,0,4.7-2,4.7-5.6c0-3.7-1.6-5.5-4.7-5.5h-3.5V181.7z"/>
<path class="st0" d="M69.4,194v5.8H50.8v-35.2h18v5.8H57.1v8.7h10.8v5.6H57.1v9.2H69.4L69.4,194z"/>
<path class="st0" d="M80.1,164.7v35.2h-6.3v-35.2H80.1z"/>
<path class="st0" d="M83.7,189.9h6.5c0.1,3.2,1.7,4.6,4.5,4.6c2.9,0,4.2-1.7,4.2-3.9c0-6.4-14.4-6.9-14.4-17.5
	c0-5.2,3.8-9.1,10.1-9.1c6.3,0,10.3,3.9,10.3,10.2h-6.5c-0.1-2.8-1.5-4.2-3.9-4.2c-2.4,0-3.7,1.3-3.7,3.3c0,6.1,14.6,6.3,14.6,17.4
	c0,5.5-3.9,9.9-10.9,9.9C87.6,200.6,83.7,196.7,83.7,189.9L83.7,189.9z"/>
<path class="st0" d="M126.2,194v5.9h-17.5v-35.2h6.3V194H126.2z"/>
<path class="st0" d="M142.3,193.5h-8.4l-1.4,6.4h-6.6l8.8-35.2h6.8l8.8,35.2h-6.6L142.3,193.5z M141,187.6l-1.4-6.5
	c-0.5-2.4-1.1-6.3-1.4-8.6H138c-0.3,2.4-0.9,6.2-1.4,8.6l-1.4,6.5H141z"/>
<path class="st0" d="M152.4,188.8v-24.1h6.5v24.1c0,3.8,1.6,5.7,4.5,5.7c2.9,0,4.5-1.9,4.5-5.7v-24.1h6.6v24.1
	c0,7.4-4.2,11.7-11.1,11.7S152.4,196.2,152.4,188.8L152.4,188.8z"/>
<path class="st0" d="M186,170.5v8.8h10v5.7h-10v14.9h-6.3v-35.2H197v5.8H186L186,170.5z"/>
<g transform="matrix(1,0,0,1,-5786.06,-5551.61)">
	<g id="ArtBoard11" transform="matrix(1,0,0,1,5786.06,5551.61)">
		<rect x="26" class="st1" width="147" height="146"/>
		<g transform="matrix(1,0,0,1,26,0)">
			<g transform="matrix(1.61047,-0.255715,0.260566,1.64102,-1052,-400.869)">
				<path class="st2" d="M600.9,373.8c0,0,14.5-31.2,48.8-20.1l2-7.4c0,0,13.8,16,17,21.5l-22.7,7.5c-18-0.4-28.2-14-27,5.2
					L600.9,373.8z"/>
				<path class="st3" d="M600.9,373.8c0,0,14.5-31.2,48.8-20.1l2-7.4c0,0,13.8,16,17,21.5l-22.7,7.5c-18-0.4-28.2-14-27,5.2
					L600.9,373.8z M602.3,373.3c2.7-4.9,17.2-28.5,47.2-18.8c0.2,0.1,0.5,0.1,0.8-0.1c0.2-0.1,0.4-0.3,0.5-0.6l1.5-5.6
					c3.2,3.7,11.9,14,15.2,19l-21.5,7.1c-8.8-0.2-15.7-3.7-20.3-4.7c-2.2-0.5-3.9-0.4-5.2,0.4c-0.8,0.5-1.4,1.4-1.8,2.7
					c-0.5,1.4-0.6,3.5-0.5,6.3L602.3,373.3L602.3,373.3z"/>
			</g>
			<g transform="matrix(1.61047,-0.255715,0.260566,1.64102,-1052,-400.869)">
				<path class="st2" d="M651.5,376l18.2-5.9c0,0,13.7,20.1-2.3,43.6l7.7,4.9c0,0-18.2,6.5-33,9.4c0,0-3.1-22.5-2.9-30.9
					c1.5,1.5,13.8-1.9,15.8-0.4C655,396.7,653.4,388.8,651.5,376z"/>
				<path class="st3" d="M651.5,376l18.2-5.9c0,0,13.7,20.1-2.3,43.6l7.7,4.9c0,0-18.2,6.5-33,9.4c0,0-3.1-22.5-2.9-30.9
					c1.5,1.5,13.8-1.9,15.8-0.4C655,396.7,653.4,388.8,651.5,376z M640.1,398.3c1.1,0.1,2.9,0,4.8-0.3c2.4-0.3,5.1-0.7,7.2-0.8
					c0.6,0,1.2,0,1.6,0c0.3,0,0.5,0.1,0.6,0.2c0.3,0.2,0.8,0.3,1.1,0.1c0.3-0.2,0.5-0.6,0.4-1c0,0-1.6-7.5-3.4-19.9l0,0l16.7-5.4
					c2.1,3.5,11.3,21.4-2.7,42c-0.1,0.2-0.2,0.5-0.1,0.7s0.2,0.5,0.4,0.6l6.1,3.9c-4.8,1.7-18.4,6.2-30.1,8.5
					C642.3,422.7,640.2,406.3,640.1,398.3z"/>
			</g>
			<g transform="matrix(1.61047,-0.255715,0.260566,1.64102,-1052,-400.869)">
				<path class="st2" d="M636.8,406.4c0,0,2.2,14.2,2.7,21.9c-10,0.6-35.5-3-41.5-32.8l-7.3,1.4c0,0,5.6-13.2,9.2-20.7l22,7.9
					l-6.8,2.6C621.5,383.7,607.5,425.8,636.8,406.4z"/>
				<path class="st3" d="M615.3,386.5c5.9-1.8-7.5,39.1,21.5,19.9c0,0,2.2,14.2,2.7,21.9c-10,0.6-35.5-3-41.5-32.8l-7.3,1.4
					c0,0,5.6-13.2,9.2-20.7l22,7.9L615.3,386.5c-0.1,0-0.1,0-0.2,0.1L615.3,386.5z M615,385.6l4.2-1.6l-18.8-6.7
					c-2.8,5.9-6.6,14.7-8.1,18.3l5.6-1.1c0.2,0,0.5,0,0.7,0.1c0.2,0.1,0.4,0.4,0.4,0.6c5.7,28.2,29.2,32.4,39.6,32.1
					c-0.5-6.2-1.9-15.8-2.4-19.4l0,0c-3.6,2.3-6.6,3.6-9,4.2c-2.9,0.7-5.1,0.3-6.7-0.8c-1.9-1.2-3-3.4-3.6-6.1
					c-0.8-3.7-0.7-8.2-0.7-12c0-2.1,0-3.9-0.2-5.1c0-0.2-0.1-0.4-0.1-0.5c0-0.1-0.1-0.2-0.1-0.2l0,0l-0.1,0.1c-0.5,0.2-1,0-1.2-0.5
					c-0.2-0.5,0-1,0.5-1.2C614.8,385.7,614.9,385.7,615,385.6z"/>
			</g>
		</g>
		<g transform="matrix(1.18347,-8.60059e-05,8.60059e-05,1.18347,-143.193,-354.438)">
			<g transform="matrix(1.14465,-0.0590238,0.0592332,1.13428,-7226.68,-6089.11)">
				<path class="st4" d="M6164,6016l1.3,20.1c7.5,4.1,14.3,7.4,21.4,12.5c2.2-1,5-1.2,5.9-1.6l1.6-5.4l6.7-10l4.1-7.4l-2.2-14.1
					L6164,6016z"/>
			</g>
			<g transform="matrix(0.980435,0.0806991,-0.0790977,0.977858,-5137.7,-5929.76)">
				<g>
					<path class="st5" d="M5936.2,5987.6l1.2,0.2c-1.6-2.1-3.7-3.6-3.7-3.6s-1.6,0.6-1.4-0.3s-1.9-2-1.9-2c-1.4-2.9-2.1-2-2.1-2
						l-1,0.1c0,0-6.2-2.6-7-4.9c-0.8-2.2-3.1-6-3.1-6s-0.4-2-0.4-2s-1.8-2.7-2.9-5.4c-1.1-2.7,1.9-5.1,1.9-5.1l1.9,2.5l1.1,0.2
						l0.2,0.9l0.5,0.3l1.5,5.1c4.5,10.7,9.3,9.3,9.3,9.3l1.4,0.5l3.4,2c0,0,0.7,0.9,1.2,0.9s1.3,0.6,1.3,0.6s0.7,1.1,1.4,1
						c0.7-0.1,1.4,0.8,1.4,0.8s2.2,0.7,2.9,0.3c0.6-0.4,3.5-0.5,3.5-0.5l0.8,0.2l0.6-0.1l0-1.1l0.6,0.2l1.6-1.3l1.4-0.2l0.4,0.7
						l1.1-0.6c0,0,0.4,0.7,0.4,0.7c0,0,1.6-1.1,1.6-1.1l0.1,1c0,0,2.4,1.2,2.7-1c0,0,3.4-0.1,4.2-1.1l0.6,0.6l2.2-1.1l0.8,0.2
						l0.2-1.2l0.9-1.1l-0.4-0.4c0,0,0.9-0.7,0.9-1.7l-0.8,0.3l-1.2-1.5l1.7-0.6l1.3-2.7l2.1-0.1l1.2-2.7l-0.7-1.2l0.2-2.1l-0.7-0.3
						c0,0,0.7-3-1.6-2.5l-1.3-2.5l-0.1-0.9l-1.6-0.8l-0.7-1.1l0-1.3l-1.4-1.9l-2.4-0.4c0,0,1.4-2.1,1.2-2.9
						c-0.2-0.8-0.6-2.3-0.6-2.3l2.7-0.7l-2.8-0.8l-0.6-1.1l0.5-0.9l-1.6-1.9l-0.1-1.1l-1.5-1.4l0.2-1.9l1.5-0.9l-0.7-0.7l-0.1-2.6
						l0.7-0.5l-0.2-3.4c0,0-1.6-1-2.2-0.7c0,0-3-1-4.8-0.7c0,0-0.8-2-1.6-2.7l-0.1-1.8l1.5-0.2l1.2-0.8l-1.2-0.9l-1.5-1.7l-0.9,0.8
						l-1.6,0.3l-0.4-1.4l-0.8-1.4l-4.3-1.7l-2.2,0.3l0-1.4l-1.3-1l0.5-1.3l0.7,0.2l-0.2-1.9l1.3,1l0.6-0.5l3.7,1.9l-0.2,1.2l2.1,0.6
						l-0.4-1.2l0.4-1.6l1.4-0.7l-0.6-0.7l0.3-1.1l1.1-0.6c0,0,0.6-1.5,0.3-3.2l-2.6-0.9l0-2.4l-2.2,0.1l-0.1,1.8l-1.6,1.2l-0.8-0.1
						l-1.1,1.3l-1.5,0.5l-0.6-0.6l-2.7,0.4l-1.1-0.9l-0.7,0.6c0,0-4-2.2-3.5-5c0,0-2.1-0.8-1-2.5l-3.3-2c0,0-3.7,0.3-2.1,2.1
						c0,0,0.1,1.9-1.6,1.1l-1.2,1.2l0.9,1.9l0.6-0.1l1.4,1.6c0,0,1.5,2.7-2.1,2.7l0-0.9c0,0,1-0.1,0-1.4c-1.1-1.3-2.3,1.4-2.3,1.4
						s0.4,1.6,0.3,3.1c-0.1,1.5,2.9,2,0.2,3.7l-0.2,1.8c0,0-2.9,0.4-1.7,3.8l-1.1,0.4c0,0-0.4,2.9-1.9,4.1c0,0-1.1-1.4-1.1-2.3
						s-0.7-0.8-0.7-0.8l0.4-1.1l-1.4-0.2l0.1-1.4c0,0,0.6-1.8,2.1-1.7l0.2-0.9l1.3-0.7l0.2-1.5l1.2-0.7c0,0-1.9-0.5-2.2-2.1
						l-2.3-0.4l-0.3-1.1c0,0-1.5,0-1.9-0.5l-1.1,0.2l-0.4,1.7l-0.7,0.2l0.2,1.1c0,0-2,0.8-3.7,0.5l-0.5,1.1l-0.9,0l0.2,0.8
						c0,0-0.7,0.7-1.8,0.6c0,0,0,0.9,0.6,1.5l-0.2,1.1l0.8,0l0.2,0.8c0,0,1.8-0.3,2.4-0.7l0.9,1l-0.7,0.9l-1.4,0l-1.4,1l-1.3-0.2
						l-2.7,1.4l-1-0.3l-1.1,0.6l-0.4,2.3l0.2,1.2l-0.7-0.1l-0.6,0.9l0.1,0.6l-0.7-0.5l0.3,1.5c0,0-1.9-0.3-1.2,1.4l-1.1-0.4
						l-0.9,2.8c0,0-2.6-0.7-2.4,1.2l-0.4,0.8l0.9,0.4l-0.8,0.5c0,0,0.7,0.2,0.6,1l0.1,1.9l1.4,0.1c0,0,0,1.3,0.2,1.9l-1,0.2l0,0.9
						c0,0,0.9,1.4,0.9,1.5c0,0,0,0,0,0s0,0,0,0c0,0,0.9,0,0.9,0l0.7,1.4l-0.7,0.6c0,0-0.1,1,0.2,1.5s0.3,0.9,0.3,0.9
						s-0.9-0.2-1.2,0.4c0,0,0.8,0.8,1.4,0.7c0.5-0.1,0.6,1.4,0.6,1.4l-0.5,0.8l-0.6-0.3l0.1,0.7l-0.4,0.8l0.5,0.7l-0.5,0.5
						c0,0-1.5-0.2-2.1,0.3c-0.6,0.6,1.8,0.5,2.1,0.4c0.2-0.1,0.4,0.7,0.4,0.7s1.8-0.3,1.4,1.2c-0.4,1.5,0.6,2.7,0.6,2.7l-0.1,1.1
						l1.2-0.1c0,0,0.2,1-0.4,1.2l0.5,1.7l-0.7,1.5l0.9,0.7l0.1,1c0,0,1.3,0,0.7,0.8c-0.5,0.8-0.8,2.3,1.3,1.4c0,0,1.8,0.8,2.3-0.7
						l1.1-0.8c0,0-1.1,2.8-1.7,3.3c0,0-1.4,1.8-1.3,2.6l-1.2,1.1l-2.8,1.4l-0.9-0.6l0.6,2.8l1.1,1.1l-0.4,1.4l0.7,0.6l-0.4,1.4
						l1.7,2.2l0.9,3.6l2.4-0.4l0.8,0.8l0.9,0.2l0.9,1.1l1.2-0.1l0,0.9l1.6,0l1.2-0.7l1.3,0.1l1.2-1.3l2.4,0.2l0.2-0.7l0.9-0.1
						c0,0,1.7,0.1,3,0.7c1.3,0.6,2.5,0.1,2.5,0.1l0.1,1.2c0,0,0.8-0.2,1.7,0.6l0.2,1.4l0.8-0.9l1.7,2l0.2,1.5l1.2,1.5l-0.6,0.9
						l2.1,0.6l0.3,0.6c0,0,1.4-1.2,2.1-0.6l0.2,1.9l1.7,0.2c0,0,0.1-0.7,2.1-1l0.1-0.9c0,0-1.8-0.8-1.6-2.3l0.9-1.1l0.6-2l1.1,0.4
						L5936.2,5987.6z M5940.9,5989c2.2-0.3,4.1-1.2,5.8-2.5l1.6-5.7l-1.6,5.7c0,0-5.5,4.6-9.3,1.4 M5929.7,5954.9
						c0,0-2.3,3.1,0.6,4.7l0.3,1.4l1.7,0.7l1.1,2.7l1.3,2.2l1.7-1l0.1-1.1c0,0,1.8-0.5,1.4-1.7l-2.2-1.4l-0.6-1.6l-0.4-1.4
						c-0.3-1-1-1.3-1.7-1.7C5933,5956.8,5932.7,5954.8,5929.7,5954.9z M5943.6,5958.3c0,0,0.8,1.5,0.8,1.8c0,0.3,0.4,1.7,0.4,1.7
						l2.7,0.4l0.4-0.9l0.7-0.8l-2.3-4C5946.3,5956.4,5943.7,5957.9,5943.6,5958.3z"/>
					<path class="st6" d="M5932.9,5996.1C5932.8,5996.1,5932.8,5996.1,5932.9,5996.1l-1.8-0.3c-0.1,0-0.2-0.1-0.2-0.2l-0.2-1.8
						c-0.2-0.1-0.5-0.1-1,0.1c-0.4,0.2-0.7,0.5-0.7,0.5c-0.1,0.1-0.1,0.1-0.2,0.1c-0.1,0-0.2-0.1-0.2-0.1l-0.3-0.5l-2-0.6
						c-0.1,0-0.2-0.1-0.2-0.2c0-0.1,0-0.2,0-0.2l0.5-0.7l-1.1-1.3c0,0-0.1-0.1-0.1-0.1l-0.2-1.4l-1.4-1.7l-0.6,0.6
						c-0.1,0.1-0.2,0.1-0.3,0.1c-0.1,0-0.2-0.1-0.2-0.2l-0.2-1.3c-0.7-0.6-1.3-0.5-1.4-0.4c-0.1,0-0.2,0-0.2,0
						c-0.1,0-0.1-0.1-0.1-0.2l0-0.8c-0.5,0.1-1.4,0.2-2.3-0.2c-1.2-0.5-2.7-0.6-2.9-0.7l-0.7,0.1l-0.2,0.6c0,0.1-0.2,0.2-0.3,0.2
						l-2.2-0.2l-1.1,1.2c-0.1,0.1-0.1,0.1-0.2,0.1l-1.2-0.1l-1.2,0.7c0,0-0.1,0-0.1,0l-1.6,0c-0.1,0-0.3-0.1-0.3-0.3l0-0.6l-0.9,0.1
						c-0.1,0-0.2,0-0.2-0.1l-0.9-1l-0.8-0.2c-0.1,0-0.1,0-0.1-0.1l-0.7-0.7l-2.3,0.4c-0.1,0-0.3-0.1-0.3-0.2l-0.9-3.6l-1.6-2.2
						c-0.1-0.1-0.1-0.2,0-0.2l0.3-1.2l-0.5-0.4c-0.1-0.1-0.1-0.2-0.1-0.3l0.3-1.2l-1-1c0,0-0.1-0.1-0.1-0.1l-0.6-2.8
						c0-0.1,0-0.2,0.1-0.3c0.1-0.1,0.2-0.1,0.3,0l0.8,0.5l2.6-1.3l1.1-1c0-0.4,0.2-0.9,0.7-1.6c0.3-0.6,0.7-1,0.7-1c0,0,0,0,0,0
						c0.3-0.3,0.8-1.4,1.3-2.4l-0.3,0.2c-0.2,0.4-0.5,0.7-0.8,0.9c-0.7,0.3-1.4,0.1-1.7,0c-0.9,0.4-1.5,0.4-1.8,0
						c-0.4-0.4-0.1-1.2,0.2-1.8c0.1-0.1,0.1-0.2,0.1-0.2c-0.1-0.1-0.4-0.2-0.6-0.1c-0.1,0-0.3-0.1-0.3-0.3l-0.1-0.9l-0.8-0.6
						c-0.1-0.1-0.1-0.2-0.1-0.3l0.6-1.5l-0.5-1.6c0-0.1,0-0.3,0.2-0.3c0.2-0.1,0.3-0.4,0.3-0.6l-1,0c-0.1,0-0.2,0-0.2-0.1
						c-0.1-0.1-0.1-0.1-0.1-0.2l0.1-0.9c-0.2-0.3-1-1.4-0.6-2.8c0.1-0.3,0.1-0.5-0.1-0.7c-0.2-0.3-0.9-0.2-1.1-0.2
						c-0.1,0-0.3-0.1-0.3-0.2c0-0.2-0.1-0.4-0.2-0.5c-0.3,0.1-0.8,0.1-1.1,0.1c-0.9,0-1.2-0.2-1.3-0.3c0-0.1-0.2-0.3,0.1-0.6
						c0.5-0.5,1.7-0.5,2.1-0.4l0.2-0.2l-0.4-0.6c-0.1-0.1-0.1-0.2,0-0.3l0.4-0.7l-0.1-0.7c0-0.1,0-0.2,0.1-0.3
						c0.1-0.1,0.2-0.1,0.3,0l0.4,0.2l0.3-0.5c0-0.1,0-0.3-0.1-0.5c-0.1-0.5-0.2-0.6-0.2-0.6c-0.3,0.1-0.7-0.1-1.1-0.4
						c-0.3-0.2-0.5-0.4-0.5-0.4c-0.1-0.1-0.1-0.2,0-0.3c0.3-0.5,0.8-0.5,1.2-0.5c0-0.1-0.1-0.3-0.2-0.5c-0.3-0.5-0.3-1.5-0.3-1.6
						c0-0.1,0-0.1,0.1-0.2l0.6-0.5l-0.6-1c-0.3,0-0.5,0-0.6,0c-0.1,0-0.2,0-0.3-0.1c0,0,0-0.1-0.1-0.1c-0.1-0.1-0.6-0.9-0.9-1.5
						c0,0,0-0.1,0-0.1l0-0.9c0-0.1,0.1-0.2,0.2-0.3l0.7-0.1c-0.1-0.5-0.2-1.1-0.2-1.5l-1.1-0.1c-0.1,0-0.2-0.1-0.2-0.3l-0.1-1.9
						c0,0,0,0,0-0.1c0-0.2,0-0.4-0.1-0.5c-0.1-0.1-0.2-0.2-0.2-0.2c-0.1,0-0.2-0.1-0.2-0.2c0-0.1,0-0.2,0.1-0.3l0.3-0.2l-0.4-0.2
						c-0.1,0-0.1-0.1-0.2-0.2c0-0.1,0-0.2,0-0.2l0.4-0.7c0-0.5,0.1-0.9,0.4-1.2c0.3-0.3,0.8-0.4,1.5-0.3c0.2,0,0.4,0,0.6,0.1
						l0.8-2.6c0-0.1,0.1-0.1,0.1-0.2c0.1,0,0.1,0,0.2,0l0.5,0.2c0-0.3,0-0.6,0.2-0.8c0.3-0.3,0.7-0.4,1.1-0.4l-0.2-1.1
						c0-0.1,0-0.2,0.1-0.3c0.1-0.1,0.2-0.1,0.3,0l0.2,0.1c0,0,0-0.1,0-0.1l0.6-0.9c0.1-0.1,0.2-0.1,0.3-0.1l0.3,0l-0.2-0.9
						c0,0,0-0.1,0-0.1l0.4-2.3c0-0.1,0.1-0.2,0.1-0.2l1.1-0.6c0.1,0,0.1,0,0.2,0l0.9,0.3l2.6-1.3c0.1,0,0.1,0,0.2,0l1.2,0.2l1.3-0.9
						c0,0,0.1-0.1,0.2-0.1l1.2,0l0.5-0.6l-0.6-0.7c-0.7,0.4-2.2,0.6-2.3,0.6c-0.1,0-0.3-0.1-0.3-0.2l-0.1-0.6l-0.6,0
						c-0.1,0-0.2,0-0.2-0.1c-0.1-0.1-0.1-0.1-0.1-0.2l0.2-1c-0.5-0.7-0.5-1.6-0.5-1.6c0-0.1,0-0.1,0.1-0.2c0.1-0.1,0.1-0.1,0.2-0.1
						c0.7,0,1.2-0.3,1.5-0.4l-0.2-0.6c0-0.1,0-0.2,0-0.2s0.1-0.1,0.2-0.1l0.8,0l0.4-0.9c0.1-0.1,0.2-0.2,0.3-0.2
						c1.3,0.2,2.8-0.2,3.3-0.4l-0.2-0.9c0-0.1,0.1-0.3,0.2-0.3l0.5-0.1l0.3-1.5c0-0.1,0.1-0.2,0.2-0.2l1.1-0.2c0.1,0,0.2,0,0.3,0.1
						c0.2,0.2,1.1,0.4,1.7,0.4c0.1,0,0.2,0.1,0.3,0.2l0.3,0.9l2.1,0.3c0.1,0,0.2,0.1,0.2,0.2c0.3,1.4,2,1.9,2,1.9
						c0.1,0,0.2,0.1,0.2,0.2c0,0.1,0,0.2-0.1,0.3l-1.1,0.7l-0.2,1.4c0,0.1-0.1,0.2-0.1,0.2l-1.2,0.6l-0.2,0.8c0,0.1-0.1,0.2-0.3,0.2
						c-1.1-0.1-1.7,1.3-1.8,1.5l-0.1,1.1l1.1,0.1c0.1,0,0.2,0.1,0.2,0.1c0,0.1,0,0.2,0,0.2l-0.3,0.7c0.1,0,0.2,0.1,0.3,0.2
						c0.2,0.2,0.3,0.5,0.3,0.8c0,0.5,0.5,1.4,0.8,1.9c1.2-1.2,1.6-3.7,1.6-3.7c0-0.1,0.1-0.2,0.2-0.2l0.9-0.3
						c-0.3-1.1-0.3-2,0.1-2.7c0.5-0.8,1.3-1.1,1.7-1.2l0.2-1.6c0-0.1,0.1-0.2,0.1-0.2c0.6-0.4,1-0.7,1-1c0-0.3-0.2-0.6-0.5-0.9
						c-0.4-0.4-0.8-0.9-0.8-1.6c0-1.4-0.3-3-0.3-3c0-0.1,0-0.1,0-0.2c0.1-0.2,0.8-1.7,1.8-1.9c0.3,0,0.6,0,1,0.4
						c0.5,0.6,0.7,1,0.5,1.4c-0.1,0.2-0.2,0.3-0.4,0.4l0,0.4c0.9,0,1.5-0.3,1.8-0.7c0.4-0.6,0-1.4-0.1-1.6l-1.3-1.5l-0.4,0
						c-0.1,0-0.2-0.1-0.3-0.2l-0.9-1.9c0-0.1,0-0.2,0.1-0.3l1.2-1.2c0.1-0.1,0.2-0.1,0.3-0.1c0.3,0.1,0.6,0.3,0.9,0.1
						c0.3-0.2,0.3-0.6,0.3-0.9c-0.4-0.5-0.5-0.9-0.3-1.3c0.4-1,2.5-1.2,2.7-1.2c0.1,0,0.1,0,0.2,0l3.3,2c0.1,0,0.1,0.1,0.1,0.2
						c0,0.1,0,0.1,0,0.2c-0.3,0.4-0.3,0.8-0.2,1.1c0.2,0.7,1.1,1,1.1,1c0.1,0,0.2,0.2,0.2,0.3c-0.4,2.3,2.5,4.2,3.3,4.6l0.6-0.5
						c0.1-0.1,0.2-0.1,0.3,0l1,0.9l2.6-0.4c0.1,0,0.2,0,0.2,0.1l0.5,0.5l1.3-0.4l1-1.2c0.1-0.1,0.2-0.1,0.3-0.1l0.7,0.1l1.4-1
						l0.1-1.7c0-0.1,0.1-0.2,0.3-0.3l2.2-0.1c0.1,0,0.1,0,0.2,0.1c0.1,0.1,0.1,0.1,0.1,0.2l0,2.2l2.4,0.9c0.1,0,0.2,0.1,0.2,0.2
						c0.3,1.7-0.3,3.3-0.3,3.4c0,0.1-0.1,0.1-0.1,0.1l-1,0.5l-0.2,0.8l0.5,0.6c0.1,0.1,0.1,0.1,0.1,0.2s-0.1,0.2-0.1,0.2l-1.3,0.6
						l-0.3,1.4l0.4,1.1c0,0.1,0,0.2-0.1,0.3c-0.1,0.1-0.2,0.1-0.3,0.1l-2.1-0.6c-0.1,0-0.2-0.2-0.2-0.3l0.2-1l-3.4-1.7l-0.5,0.4
						c-0.1,0.1-0.2,0.1-0.3,0l-0.8-0.6l0.1,1.2c0,0.1,0,0.2-0.1,0.2s-0.2,0.1-0.2,0.1l-0.4-0.1l-0.3,0.9l1.2,0.9
						c0.1,0.1,0.1,0.1,0.1,0.2l0,1.1l1.9-0.3c0,0,0.1,0,0.1,0l4.3,1.7c0.1,0,0.1,0.1,0.1,0.1l0.8,1.4c0,0,0,0,0,0.1l0.4,1.2l1.3-0.3
						l0.9-0.7c0.1-0.1,0.3-0.1,0.4,0l1.5,1.6l1.2,0.8c0.1,0.1,0.1,0.1,0.1,0.2s0,0.2-0.1,0.2l-1.2,0.8c0,0-0.1,0-0.1,0l-1.2,0.2
						l0.1,1.4c0.7,0.6,1.3,2,1.5,2.6c1.7-0.1,4.1,0.6,4.6,0.7c0.3-0.1,0.8,0,1.4,0.3c0.5,0.2,0.9,0.5,0.9,0.5c0.1,0,0.1,0.1,0.1,0.2
						l0.2,3.4c0,0.1,0,0.2-0.1,0.2l-0.6,0.4l0.1,2.4l0.6,0.7c0.1,0.1,0.1,0.1,0.1,0.2c0,0.1-0.1,0.2-0.1,0.2l-1.4,0.8l-0.2,1.6
						l1.4,1.3c0,0,0.1,0.1,0.1,0.2l0.1,1l1.5,1.8c0.1,0.1,0.1,0.2,0,0.3l-0.4,0.7l0.5,0.9l2.7,0.8c0.1,0,0.2,0.1,0.2,0.3
						c0,0.1-0.1,0.2-0.2,0.3l-2.4,0.6c0.1,0.5,0.4,1.4,0.5,2c0.1,0.4-0.1,1.1-0.5,2c-0.2,0.3-0.3,0.6-0.5,0.8l2,0.4
						c0.1,0,0.1,0,0.2,0.1l1.4,1.9c0,0,0.1,0.1,0.1,0.2l0,1.2l0.7,0.9l1.6,0.8c0.1,0,0.1,0.1,0.1,0.2l0.1,0.9l1.2,2.3
						c0.5-0.1,1,0,1.3,0.3c0.6,0.6,0.5,1.8,0.4,2.3l0.5,0.2c0.1,0,0.2,0.2,0.2,0.3l-0.2,2l0.7,1.1c0,0.1,0.1,0.2,0,0.3l-1.2,2.7
						c0,0.1-0.1,0.2-0.2,0.2l-1.9,0.1l-1.2,2.6c0,0.1-0.1,0.1-0.2,0.1l-1.4,0.4l0.8,1.1l0.6-0.2c0.1,0,0.2,0,0.3,0
						c0.1,0.1,0.1,0.1,0.1,0.2c0,0.8-0.5,1.4-0.8,1.7l0.2,0.2c0.1,0.1,0.1,0.3,0,0.4l-0.9,1l-0.2,1.2c0,0.1-0.1,0.1-0.1,0.2
						c-0.1,0-0.1,0.1-0.2,0l-0.7-0.2l-2.1,1c-0.1,0-0.2,0-0.3,0l-0.4-0.4c-0.4,0.4-1.2,0.6-2.4,0.8c-0.7,0.1-1.3,0.2-1.6,0.2
						c-0.1,0.5-0.4,0.9-0.8,1.1c-0.9,0.5-2.2-0.1-2.3-0.2c-0.1,0-0.1-0.1-0.2-0.2l-0.1-0.5c-0.1,0.1-0.3,0.2-0.4,0.3
						c-0.2,0.1-0.4,0.3-0.6,0.4c-0.1,0.1-0.1,0.1-0.2,0.1c0,0,0,0-0.1,0c-0.2,0.1-0.3,0-0.4,0c0,0-0.1-0.1-0.1-0.1
						c0-0.1-0.1-0.3-0.3-0.5l-0.8,0.4c-0.1,0.1-0.3,0-0.4-0.1l-0.3-0.5l-1.1,0.2l-1.5,1.2c-0.1,0.1-0.2,0.1-0.3,0.1l-0.3-0.1l0,0.7
						c0,0,0,0,0,0.1c0,0,0,0,0,0l-1.6,5.7c0,0,0,0,0,0c0,0,0,0,0,0c0,0.1,0,0.1-0.1,0.1c0,0-0.1,0.1-0.4,0.3c-0.5,0.4-1,0.7-1.5,1
						c-0.4,0.2-0.9,0.5-1.4,0.7c-0.9,0.4-1.8,0.6-2.6,0.6c0,0,0,0,0,0c-0.2,0-0.3,0-0.5,0c-1.2,0-2.3-0.4-3.2-1.2l-0.8-0.2l-0.1,1
						c0,0.1-0.1,0.1-0.1,0.2c-0.1,0-0.2,0.1-0.2,0l-0.9-0.3l-0.5,1.8c0,0,0,0.1-0.1,0.1l-0.8,1c0,0.5,0.2,1,0.6,1.4
						c0.4,0.3,0.8,0.5,0.8,0.5c0.1,0,0.2,0.2,0.2,0.3l-0.1,0.9c0,0.1-0.1,0.2-0.2,0.2c-1.5,0.2-1.8,0.7-1.8,0.8c0,0.1,0,0.1-0.1,0.2
						C5933,5996,5932.9,5996,5932.9,5996.1z M5933.1,5995.8C5933.1,5995.8,5933.1,5995.8,5933.1,5995.8L5933.1,5995.8z
						 M5931.4,5995.3l1.3,0.2c0.1-0.1,0.1-0.2,0.3-0.3c0.4-0.3,0.9-0.5,1.7-0.6l0-0.5c-0.2-0.1-0.5-0.3-0.8-0.5
						c-0.6-0.6-0.9-1.2-0.8-2c0,0,0-0.1,0.1-0.1l0.8-1l0.6-2c0-0.1,0.1-0.1,0.1-0.2c0.1,0,0.1,0,0.2,0l0.8,0.3l0.1-1
						c0-0.1,0.1-0.1,0.1-0.2s0.1-0.1,0.2,0l0.4,0.1c-1.3-1.5-2.7-2.6-3.1-2.9c-0.1,0-0.3,0.1-0.4,0.1c-0.5,0.1-0.8,0.1-1-0.1
						c-0.1-0.1-0.3-0.3-0.2-0.7c0.1-0.6-1.1-1.4-1.7-1.7c-0.1,0-0.1-0.1-0.1-0.1c-0.8-1.7-1.3-2-1.5-2c-0.1,0-0.1,0-0.2,0
						c0,0.1-0.1,0.1-0.2,0.1l-1,0.1c0,0-0.1,0-0.1,0c0,0-1.6-0.7-3.2-1.6c-2.2-1.3-3.6-2.4-3.9-3.4c-0.7-2.2-3.1-5.9-3.1-5.9
						c0,0,0-0.1,0-0.1c-0.1-0.7-0.4-1.8-0.4-2c-0.3-0.5-1.9-2.9-2.9-5.4c-0.5-1.2-0.3-2.5,0.5-3.8c0.6-1,1.4-1.6,1.4-1.6
						c0.1,0,0.1-0.1,0.2-0.1c0.1,0,0.1,0,0.2,0.1l1.9,2.5l1,0.2c0.1,0,0.2,0.1,0.2,0.2l0.2,0.8l0.4,0.3c0.1,0,0.1,0.1,0.1,0.2
						l1.5,5.1c2.2,5.4,4.6,7.6,6.2,8.5c1.7,0.9,2.8,0.6,2.8,0.6c0.1,0,0.1,0,0.2,0l1.4,0.5c0,0,0,0,0,0l3.4,2c0,0,0.1,0,0.1,0.1
						c0.3,0.3,0.8,0.8,1,0.8c0.6,0,1.4,0.6,1.5,0.7c0,0,0,0,0.1,0.1c0.2,0.3,0.7,0.9,1.1,0.9c0.7-0.1,1.4,0.6,1.6,0.8
						c0.9,0.3,2.2,0.5,2.6,0.3c0.1-0.1,0.5-0.3,2.1-0.5c0.8-0.1,1.5-0.1,1.5-0.1c0,0,0,0,0.1,0l0.8,0.2l0.3-0.1l0-0.8
						c0-0.1,0-0.2,0.1-0.2s0.2-0.1,0.2,0l0.5,0.1l1.4-1.2c0,0,0.1-0.1,0.1-0.1l1.4-0.2c0.1,0,0.2,0,0.3,0.1l0.3,0.5l0.8-0.4
						c0.1-0.1,0.3,0,0.4,0.1c0,0,0.1,0.2,0.2,0.4c0,0,0.1,0.1,0.1,0.1c0.3-0.2,0.9-0.7,1.4-0.9c0.1-0.1,0.2-0.1,0.3,0
						c0.1,0,0.1,0.1,0.2,0.2l0.1,0.8c0.3,0.1,1.1,0.4,1.7,0.1c0.3-0.2,0.5-0.5,0.5-0.9c0-0.1,0.1-0.2,0.3-0.2c0.9,0,3.4-0.3,4-1
						c0-0.1,0.1-0.1,0.2-0.1c0,0,0,0,0,0c0.1,0,0.1,0,0.2,0.1l0.5,0.4l2-1c0.1,0,0.1,0,0.2,0l0.5,0.1l0.1-0.9c0-0.1,0-0.1,0.1-0.1
						l0.8-0.9l-0.3-0.3c-0.1-0.1-0.1-0.1-0.1-0.2s0-0.2,0.1-0.2c0,0,0.6-0.4,0.8-1l-0.4,0.1c-0.1,0-0.2,0-0.3-0.1l-1.2-1.5
						c-0.1-0.1-0.1-0.2,0-0.2c0-0.1,0.1-0.1,0.2-0.2l1.6-0.5l1.3-2.6c0-0.1,0.1-0.1,0.2-0.2l1.9-0.1l1.1-2.4l-0.7-1.1
						c0-0.1,0-0.1,0-0.2l0.2-1.9l-0.5-0.2c-0.1-0.1-0.2-0.2-0.2-0.3c0.1-0.4,0.2-1.5-0.2-2c-0.2-0.2-0.5-0.3-1-0.2
						c-0.1,0-0.2,0-0.3-0.1l-1.3-2.5c0,0,0-0.1,0-0.1l-0.1-0.8l-1.5-0.7c0,0-0.1,0-0.1-0.1l-0.7-1.1c0,0,0-0.1,0-0.2l0-1.2l-1.3-1.8
						l-2.3-0.4c-0.1,0-0.2-0.1-0.2-0.2s0-0.2,0-0.3c0.5-0.8,1.3-2.2,1.1-2.7c-0.2-0.8-0.6-2.3-0.6-2.3c0-0.1,0-0.1,0-0.2
						s0.1-0.1,0.2-0.1l1.7-0.4l-1.8-0.5c-0.1,0-0.1-0.1-0.2-0.1l-0.6-1.1c0-0.1,0-0.2,0-0.3l0.4-0.7l-1.4-1.7c0,0-0.1-0.1-0.1-0.1
						l-0.1-1l-1.4-1.3c-0.1-0.1-0.1-0.1-0.1-0.2l0.2-1.9c0-0.1,0.1-0.2,0.1-0.2l1.2-0.7l-0.5-0.5c0,0-0.1-0.1-0.1-0.2l-0.1-2.6
						c0-0.1,0-0.2,0.1-0.2l0.6-0.4l-0.2-3.1c-0.6-0.4-1.5-0.8-1.8-0.6c-0.1,0-0.1,0-0.2,0c0,0-3-1-4.7-0.7c-0.1,0-0.2-0.1-0.3-0.2
						c0,0-0.8-2-1.5-2.6c-0.1,0-0.1-0.1-0.1-0.2l-0.1-1.8c0-0.1,0.1-0.3,0.2-0.3l1.4-0.2l0.9-0.6l-0.9-0.6c0,0,0,0,0,0l-1.3-1.5
						l-0.7,0.6c0,0-0.1,0-0.1,0.1l-1.6,0.3c-0.1,0-0.3-0.1-0.3-0.2l-0.4-1.4l-0.7-1.3l-4.1-1.6l-2.2,0.3c-0.1,0-0.2,0-0.2-0.1
						c-0.1-0.1-0.1-0.1-0.1-0.2l0-1.3l-1.2-1c-0.1-0.1-0.1-0.2-0.1-0.3l0.5-1.3c0-0.1,0.2-0.2,0.3-0.2l0.3,0.1l-0.1-1.5
						c0-0.1,0-0.2,0.1-0.3s0.2,0,0.3,0l1.1,0.9l0.5-0.4c0.1-0.1,0.2-0.1,0.3,0l3.7,1.9c0.1,0.1,0.2,0.2,0.1,0.3l-0.2,1l1.3,0.4
						l-0.2-0.7c0,0,0-0.1,0-0.2l0.4-1.6c0-0.1,0.1-0.1,0.1-0.2l1-0.5l-0.4-0.4c-0.1-0.1-0.1-0.2-0.1-0.3l0.3-1.1
						c0-0.1,0.1-0.1,0.1-0.2l1-0.5c0.1-0.3,0.5-1.5,0.3-2.8l-2.5-0.9c-0.1,0-0.2-0.1-0.2-0.3l0-2.1l-1.7,0l-0.1,1.5
						c0,0.1,0,0.2-0.1,0.2l-1.6,1.2c-0.1,0-0.1,0.1-0.2,0l-0.7-0.1l-1,1.2c0,0-0.1,0.1-0.1,0.1l-1.5,0.5c-0.1,0-0.2,0-0.3-0.1
						l-0.5-0.5l-2.6,0.4c-0.1,0-0.2,0-0.2-0.1l-0.9-0.8l-0.6,0.5c-0.1,0.1-0.2,0.1-0.3,0c0,0-1-0.6-2-1.5c-0.6-0.5-1-1.1-1.3-1.7
						c-0.3-0.6-0.5-1.3-0.4-1.9c-0.3-0.2-1-0.6-1.2-1.2c-0.1-0.4-0.1-0.8,0.1-1.3l-3-1.8c-0.8,0.1-2,0.4-2.2,0.8
						c-0.1,0.2,0,0.5,0.3,0.8c0,0,0.1,0.1,0.1,0.2c0,0.1,0,1.1-0.6,1.5c-0.3,0.2-0.7,0.2-1.2,0l-0.9,0.9l0.7,1.6l0.4,0
						c0.1,0,0.2,0,0.2,0.1l1.4,1.6c0,0,0,0,0,0.1c0,0,0.6,1.2,0.1,2.1c-0.4,0.6-1.2,1-2.5,1c-0.1,0-0.3-0.1-0.3-0.3l0-0.9
						c0-0.1,0.1-0.3,0.2-0.3c0,0,0,0,0,0c0,0,0.2,0,0.2-0.1c0,0,0.1-0.3-0.4-0.8c-0.2-0.3-0.4-0.3-0.5-0.3c-0.5,0.1-1.1,0.9-1.3,1.5
						c0.1,0.4,0.4,1.7,0.3,3c0,0.4,0.3,0.8,0.7,1.2c0.4,0.4,0.7,0.8,0.7,1.4c-0.1,0.4-0.4,0.9-1.1,1.3l-0.2,1.7
						c0,0.1-0.1,0.2-0.2,0.2c0,0-1,0.2-1.5,1c-0.4,0.6-0.4,1.4,0,2.5c0,0.1,0,0.3-0.2,0.3l-1,0.4c-0.1,0.6-0.6,3-1.9,4.1
						c-0.1,0-0.1,0.1-0.2,0.1c-0.1,0-0.1,0-0.2-0.1c0-0.1-1.1-1.5-1.1-2.4c0-0.2,0-0.4-0.1-0.4c-0.1-0.1-0.3-0.1-0.3-0.1
						c-0.1,0-0.2,0-0.2-0.1c-0.1-0.1-0.1-0.2,0-0.3l0.3-0.7l-1-0.1c-0.1,0-0.2-0.1-0.2-0.3l0.1-1.4c0,0,0,0,0-0.1c0,0,0.2-0.5,0.5-1
						c0.4-0.6,1-0.9,1.6-0.9l0.2-0.7c0-0.1,0.1-0.1,0.1-0.2l1.2-0.6l0.2-1.4c0-0.1,0.1-0.1,0.1-0.2l0.7-0.5
						c-0.6-0.3-1.5-0.9-1.9-1.9l-2.1-0.3c-0.1,0-0.2-0.1-0.2-0.2l-0.3-0.9c-0.2,0-0.4,0-0.6-0.1c-0.5-0.1-0.9-0.2-1.1-0.4l-0.7,0.2
						l-0.3,1.5c0,0.1-0.1,0.2-0.2,0.2l-0.4,0.1l0.2,0.9c0,0.1,0,0.3-0.2,0.3c-0.1,0-1.2,0.4-2.4,0.5c-0.4,0-0.8,0-1.2,0l-0.4,0.9
						c0,0.1-0.1,0.2-0.2,0.2l-0.6,0l0.1,0.5c0,0.1,0,0.2-0.1,0.3c0,0-0.7,0.6-1.7,0.7c0,0,0,0,0,0c0,0.3,0.2,0.8,0.5,1.1
						c0.1,0.1,0.1,0.1,0.1,0.2l-0.1,0.8h0.5c0.1,0,0.2,0.1,0.3,0.2l0.1,0.6c0.6-0.1,1.7-0.3,2.1-0.6c0.1-0.1,0.3-0.1,0.4,0l0.9,1
						c0.1,0.1,0.1,0.2,0,0.3l-0.7,0.9c-0.1,0.1-0.1,0.1-0.2,0.1l-1.3,0l-1.3,0.9c-0.1,0-0.1,0.1-0.2,0l-1.2-0.2l-2.7,1.3
						c-0.1,0-0.1,0-0.2,0l-0.9-0.3l-0.8,0.4l-0.4,2.1l0.2,1.2c0,0.1,0,0.2-0.1,0.2c-0.1,0.1-0.1,0.1-0.2,0.1l-0.5,0l-0.4,0.7
						l0.1,0.5c0,0.1,0,0.2-0.1,0.3c-0.1,0.1-0.2,0-0.3,0l-0.1-0.1l0.2,0.8c0,0.1,0,0.2-0.1,0.2s-0.2,0.1-0.2,0.1
						c-0.2,0-0.7-0.1-0.9,0.2c-0.2,0.2-0.1,0.6,0.1,0.8c0,0.1,0,0.2-0.1,0.3c-0.1,0.1-0.2,0.1-0.3,0.1l-0.8-0.3l-0.8,2.6
						c0,0.1-0.2,0.2-0.3,0.2c-0.3-0.1-1.3-0.3-1.8,0.1c-0.2,0.2-0.3,0.4-0.2,0.8c0,0.1,0,0.1,0,0.2l-0.3,0.5l0.7,0.3
						c0.1,0,0.2,0.1,0.2,0.2c0,0.1,0,0.2-0.1,0.3l-0.4,0.3c0.2,0.2,0.4,0.5,0.3,1l0.1,1.6l1.1,0.1c0.1,0,0.2,0.1,0.2,0.3
						c0,0.4,0.1,1.4,0.2,1.8c0,0.1,0,0.2,0,0.2s-0.1,0.1-0.2,0.1l-0.8,0.1v0.6c0.3,0.5,0.6,1,0.8,1.3c0.1,0,0.2,0,0.3,0
						c0.2,0,0.4,0,0.4,0c0.1,0,0.2,0.1,0.2,0.1l0.7,1.4c0.1,0.1,0,0.3-0.1,0.3l-0.7,0.5c0,0.4,0,0.9,0.2,1.2c0.3,0.5,0.4,1,0.4,1.1
						c0,0.1,0,0.2-0.1,0.2c-0.1,0.1-0.1,0.1-0.2,0.1c0,0-0.5-0.1-0.8,0.1c0.3,0.3,0.7,0.5,0.9,0.5c0.2,0,0.3,0,0.4,0.1
						c0.4,0.3,0.5,1.4,0.5,1.6c0,0.1,0,0.1,0,0.2l-0.5,0.8c-0.1,0.1-0.2,0.2-0.4,0.1l-0.1-0.1l0,0.2c0,0.1,0,0.1,0,0.2l-0.4,0.7
						l0.4,0.6c0.1,0.1,0.1,0.3,0,0.3l-0.5,0.5c-0.1,0.1-0.1,0.1-0.2,0.1c-0.3-0.1-1.3-0.1-1.7,0.1c0.1,0,0.4,0.1,0.7,0.1
						c0.5,0,0.8,0,0.9-0.1c0.1,0,0.2,0,0.3,0c0.2,0.1,0.3,0.4,0.4,0.6c0.3,0,1,0,1.3,0.4c0.3,0.3,0.3,0.7,0.2,1.2
						c-0.4,1.4,0.6,2.4,0.6,2.4c0,0.1,0.1,0.1,0.1,0.2l0,0.8l0.9,0c0.1,0,0.3,0.1,0.3,0.2c0,0,0.1,0.3,0,0.6c0,0.3-0.2,0.6-0.4,0.8
						l0.4,1.5c0,0.1,0,0.1,0,0.2l-0.6,1.4l0.7,0.6c0.1,0,0.1,0.1,0.1,0.2l0,0.7c0.3,0,0.6,0.1,0.8,0.4c0.1,0.2,0.1,0.4-0.1,0.8
						c-0.3,0.5-0.4,1-0.3,1.2c0,0,0.3,0.2,1.3-0.2c0.1,0,0.1,0,0.2,0c0,0,0.8,0.3,1.4,0.1c0.3-0.1,0.5-0.3,0.6-0.7
						c0-0.1,0.1-0.1,0.1-0.1l1.1-0.8c0.1-0.1,0.2-0.1,0.3,0c0.1,0.1,0.1,0.2,0.1,0.3c-0.1,0.3-1.1,2.8-1.7,3.4
						c-0.5,0.7-1.3,1.9-1.2,2.4c0,0.1,0,0.2-0.1,0.2l-1.2,1.1c0,0,0,0-0.1,0l-2.8,1.4c-0.1,0-0.2,0-0.3,0l-0.4-0.2l0.4,2.1l1,1.1
						c0.1,0.1,0.1,0.2,0.1,0.3l-0.3,1.2l0.5,0.4c0.1,0.1,0.1,0.2,0.1,0.3l-0.3,1.2l1.6,2.1c0,0,0,0.1,0,0.1l0.8,3.4l2.2-0.3
						c0.1,0,0.2,0,0.2,0.1l0.8,0.7l0.9,0.2c0.1,0,0.1,0,0.2,0.1l0.8,1l1-0.1c0.1,0,0.2,0,0.2,0.1c0.1,0.1,0.1,0.1,0.1,0.2l0,0.7
						l1.2,0l1.2-0.7c0,0,0.1,0,0.2,0l1.2,0.1l1.1-1.2c0.1-0.1,0.1-0.1,0.2-0.1l2.2,0.2l0.2-0.5c0-0.1,0.1-0.2,0.2-0.2l0.9-0.1
						c0,0,0,0,0.1,0c0.1,0,1.8,0.1,3.1,0.7c1.2,0.5,2.3,0.1,2.3,0.1c0.1,0,0.2,0,0.2,0c0.1,0,0.1,0.1,0.1,0.2l0,0.9
						c0.4,0,0.9,0.1,1.6,0.6c0,0,0.1,0.1,0.1,0.2l0.2,0.9l0.4-0.5c0.1-0.1,0.1-0.1,0.2-0.1c0.1,0,0.2,0,0.2,0.1l1.7,2
						c0,0,0.1,0.1,0.1,0.1l0.2,1.4l1.2,1.4c0.1,0.1,0.1,0.2,0,0.3l-0.4,0.6l1.7,0.5c0.1,0,0.1,0.1,0.2,0.1l0.2,0.3
						c0.5-0.4,1.5-1,2.2-0.3c0,0,0.1,0.1,0.1,0.2L5931.4,5995.3z M5937.6,5987.7c0.9,0.8,2,1.1,3.3,1.1c0,0,0,0,0,0
						c1.3-0.2,2.6-0.6,3.8-1.2c0.8-0.4,1.4-0.9,1.7-1.1c0,0,0.1-0.1,0.1-0.1l1.5-5.2l-0.2,0c0,0-0.1,0-0.1,0l-0.8-0.2
						c-1.1,0-2.9,0.2-3.3,0.4c-0.3,0.2-0.9,0.2-1.9,0c-0.6-0.1-1.2-0.3-1.2-0.3c0,0-0.1,0-0.1-0.1c-0.2-0.2-0.8-0.8-1.2-0.7
						c0,0-0.1,0-0.1,0c-0.7,0.1-1.4-0.8-1.5-1.1c-0.3-0.2-0.8-0.5-1.1-0.5c-0.6,0-1.2-0.8-1.4-1l-3.4-1.9l-1.3-0.5
						c-0.3,0.1-1.5,0.2-3.1-0.7c-1.1-0.6-2.1-1.5-3.1-2.8c-1.2-1.5-2.3-3.6-3.4-6c0,0,0,0,0,0l-1.5-5l-0.4-0.3
						c-0.1,0-0.1-0.1-0.1-0.2l-0.2-0.8l-0.9-0.2c-0.1,0-0.1,0-0.2-0.1l-1.7-2.3c-0.3,0.2-0.7,0.7-1.1,1.3c-0.7,1.2-0.9,2.3-0.5,3.3
						c1,2.5,2.6,5,2.8,5.3c0.1,0.1,0.1,0.1,0.3,1.1c0.1,0.4,0.2,0.8,0.2,1c0.3,0.4,2.4,3.9,3.1,6c0.3,0.8,1.6,1.9,3.6,3.1
						c1.4,0.8,2.8,1.4,3.1,1.6l0.8-0.1c0.1-0.1,0.3-0.2,0.5-0.1c0.6,0.1,1.2,0.8,1.9,2.2c0.2,0.1,0.6,0.3,1,0.6
						c0.7,0.6,1.1,1.1,1,1.6c0,0.1,0,0.1,0,0.2c0.1,0.1,0.6,0,1.1-0.1c0.1,0,0.2,0,0.3,0C5933.9,5984.1,5936,5985.6,5937.6,5987.7z
						 M5953.5,5979.2C5953.5,5979.2,5953.5,5979.2,5953.5,5979.2C5953.5,5979.2,5953.5,5979.2,5953.5,5979.2z M5928.4,5980.1
						L5928.4,5980.1z M5916.5,5967.3C5916.5,5967.3,5916.5,5967.3,5916.5,5967.3C5916.5,5967.4,5916.5,5967.3,5916.5,5967.3z
						 M5916.9,5967C5916.9,5967,5916.9,5967,5916.9,5967S5916.9,5967,5916.9,5967z M5894.7,5950.8
						C5894.7,5950.8,5894.7,5950.8,5894.7,5950.8C5894.7,5950.8,5894.7,5950.8,5894.7,5950.8z M5934.7,5966.9c-0.1,0-0.2,0-0.3-0.1
						l-1.3-2.2c0,0,0,0,0,0l-1.1-2.6l-1.6-0.7c-0.1,0-0.1-0.1-0.2-0.2l-0.3-1.3c-0.8-0.4-1.2-1.1-1.4-1.8c-0.3-1.6,0.8-3.2,0.9-3.2
						c0-0.1,0.1-0.1,0.2-0.1c1.6,0,2.5,0.5,2.9,1c0.4,0.4,0.5,0.8,0.6,1c0,0,0.1,0,0.1,0c0.7,0.4,1.3,0.7,1.7,1.7c0,0,0,0,0,0
						l0.4,1.4l0.5,1.5l2.2,1.4c0.1,0,0.1,0.1,0.1,0.1c0.1,0.4,0.1,0.7-0.1,1c-0.3,0.6-1,0.9-1.3,1l-0.1,0.9c0,0.1-0.1,0.2-0.1,0.2
						l-1.7,1C5934.8,5966.9,5934.8,5966.9,5934.7,5966.9z M5933.6,5964.3l1.2,2l1.4-0.8l0.1-0.9c0-0.1,0.1-0.2,0.2-0.2
						c0.2-0.1,0.9-0.4,1.2-0.8c0.1-0.2,0.1-0.3,0.1-0.5l-2.2-1.4c-0.1,0-0.1-0.1-0.1-0.1l-0.6-1.6c0,0,0,0,0,0l-0.4-1.4
						c-0.3-0.8-0.8-1.1-1.4-1.4c-0.1,0-0.1-0.1-0.2-0.1c-0.1,0-0.1-0.1-0.1-0.2c0-0.1-0.3-1.6-2.8-1.6c-0.2,0.4-0.9,1.6-0.7,2.7
						c0.1,0.6,0.6,1.1,1.2,1.5c0.1,0,0.1,0.1,0.1,0.2l0.3,1.3l1.6,0.7c0.1,0,0.1,0.1,0.1,0.1L5933.6,5964.3z M5947.5,5962.4
						C5947.5,5962.4,5947.5,5962.4,5947.5,5962.4l-2.7-0.4c-0.1,0-0.2-0.1-0.2-0.2c0-0.1-0.4-1.4-0.4-1.7c0-0.2-0.4-1-0.8-1.7
						c0-0.1,0-0.1,0-0.2c0-0.1,0.1-0.3,1.5-1.2c0.7-0.4,1.3-0.8,1.3-0.8c0.1,0,0.1,0,0.2,0s0.1,0.1,0.2,0.1l2.3,4
						c0.1,0.1,0,0.2,0,0.3l-0.7,0.8l-0.4,0.8C5947.7,5962.3,5947.6,5962.3,5947.5,5962.4z M5945,5961.5l2.3,0.3l0.3-0.7
						c0,0,0,0,0-0.1l0.6-0.7l-2.1-3.6c-1,0.6-2,1.2-2.3,1.5c0.3,0.5,0.7,1.5,0.8,1.7C5944.7,5960.2,5944.9,5960.9,5945,5961.5z"/>
				</g>
			</g>
		</g>
	</g>
</g>
</svg>
