<?xml version="1.0" encoding="UTF-8" standalone="no"?>
<!DOCTYPE svg PUBLIC "-//W3C//DTD SVG 1.1//EN" "http://www.w3.org/Graphics/SVG/1.1/DTD/svg11.dtd">
<svg width="100%" height="100%" viewBox="0 0 2363 2363" version="1.1" xmlns="http://www.w3.org/2000/svg" xmlns:xlink="http://www.w3.org/1999/xlink" xml:space="preserve" xmlns:serif="http://www.serif.com/" style="fill-rule:evenodd;clip-rule:evenodd;stroke-linecap:round;stroke-linejoin:round;stroke-miterlimit:1.5;">
    <g transform="matrix(1,0,0,1,-5786.06,-5551.61)">
        <g id="ArtBoard11" transform="matrix(1,0,0,1,5786.06,5551.61)">
            <rect x="0" y="0" width="2362.2" height="2362.2" style="fill:none;"/>
            <g transform="matrix(1,0,0,1,26,0)">
                <g transform="matrix(1.61047,-0.255715,0.260566,1.64102,-1052,-400.869)">
                    <path d="M619.447,922.067C619.447,922.067 853.784,416.537 1404.54,595.317L1437.05,476.001C1437.05,476.001 1658.89,734.624 1710.41,823.698L1344.9,946.023C1055.67,940.414 892.691,719.855 911.469,1029.91L619.447,922.067Z" style="fill:rgb(52,200,153);"/>
                    <path d="M619.447,922.067C619.447,922.067 853.784,416.537 1404.54,595.317L1437.05,476.001C1437.05,476.001 1658.89,734.624 1710.41,823.698L1344.9,946.023C1055.67,940.414 892.691,719.855 911.469,1029.91L619.447,922.067ZM640.772,913.867C683.814,833.777 917.57,453.09 1399.73,609.602C1403.74,610.902 1408.11,610.524 1411.83,608.557C1415.54,606.589 1418.26,603.205 1419.35,599.204L1444.24,507.884C1495.19,567.953 1635.05,734.614 1687.43,815.49C1687.43,815.49 1342.52,930.922 1342.52,930.922C1200.55,927.499 1089.56,871.759 1016.17,854.941C981.1,846.905 953.392,847.858 933.333,861.685C920.753,870.356 910.635,884.166 904.018,905.288C896.744,928.507 893.549,961.692 895.074,1007.78C895.074,1007.78 640.772,913.867 640.772,913.867L640.772,913.867Z" style="fill:rgb(9,90,110);"/>
                </g>
                <g transform="matrix(1.61047,-0.255715,0.260566,1.64102,-1052,-400.869)">
                    <path d="M1432.11,955.635L1724.83,859.964C1724.83,859.964 1944.66,1184.82 1687.5,1565.21L1810.77,1644.78C1810.77,1644.78 1517.75,1750.93 1279.63,1796.89C1279.63,1796.89 1229.68,1432.68 1234.14,1296.97C1258.58,1321.17 1456.7,1265.41 1488.36,1290.36C1488.36,1290.36 1461.81,1163.84 1432.11,955.635Z" style="fill:rgb(52,200,153);"/>
                    <path d="M1432.11,955.635L1724.83,859.964C1724.83,859.964 1944.66,1184.82 1687.5,1565.21L1810.77,1644.78C1810.77,1644.78 1517.75,1750.93 1279.63,1796.89C1279.63,1796.89 1229.68,1432.68 1234.14,1296.97C1258.58,1321.17 1456.7,1265.41 1488.36,1290.36C1488.36,1290.36 1461.81,1163.84 1432.11,955.635ZM1249.19,1317.57C1267.28,1319.48 1295.7,1316.88 1327.06,1312.83C1365.88,1307.82 1409.51,1300.77 1442.27,1299.15C1452.31,1298.65 1461.24,1298.66 1468.52,1299.53C1472.99,1300.06 1476.63,1300.42 1478.75,1302.09C1483.8,1306.07 1490.83,1306.51 1496.35,1303.2C1501.87,1299.89 1504.68,1293.54 1503.37,1287.33C1503.37,1287.33 1477.95,1166.17 1449.07,965.949L1449.07,965.949L1718.08,878.028C1751.05,933.969 1900.06,1223.58 1674.73,1556.89C1672.47,1560.23 1671.66,1564.3 1672.48,1568.22C1673.3,1572.14 1675.67,1575.58 1679.08,1577.78L1776.72,1640.81C1699.68,1667.6 1481.58,1740.8 1292.68,1778.97C1283.69,1711.38 1249.47,1445.79 1249.19,1317.57Z" style="fill:rgb(9,90,110);"/>
                </g>
                <g transform="matrix(1.61047,-0.255715,0.260566,1.64102,-1052,-400.869)">
                    <path d="M1195.99,1447.79C1195.99,1447.79 1231.08,1676.9 1239.56,1801.22C1079.15,1811.44 669.647,1753.51 572.863,1271.23L455.256,1294.52C455.256,1294.52 545.314,1080.78 603.205,958.977L956.611,1085.74L847.182,1128.21C949.68,1081.6 724.233,1762.48 1195.99,1447.79Z" style="fill:rgb(52,200,153);"/>
                    <path d="M850.551,1126.91C944.63,1096.99 729.611,1758.89 1195.99,1447.79C1195.99,1447.79 1231.08,1676.9 1239.56,1801.22C1079.15,1811.44 669.647,1753.51 572.863,1271.23L455.256,1294.52C455.256,1294.52 545.314,1080.78 603.205,958.977L956.611,1085.74L850.551,1126.91C849.476,1127.25 848.351,1127.68 847.182,1128.21L850.551,1126.91ZM845.41,1112.72L913.497,1086.29C913.497,1086.29 611.185,977.859 611.185,977.859C566.127,1073.84 505.164,1216.12 480.481,1274.17L569.831,1256.48C573.829,1255.69 577.984,1256.49 581.376,1258.72C584.768,1260.94 587.118,1264.4 587.906,1268.32C679.444,1724.46 1057.18,1792.2 1223.12,1786.94C1215.11,1686.07 1192.96,1531.73 1184.33,1473.42L1184.33,1473.42C1125.67,1510.58 1078.07,1531.74 1039.6,1540.78C992.696,1551.8 958.147,1545.28 932.579,1528.25C902.499,1508.2 884.43,1472.57 874.605,1429.51C861.057,1370.11 862.719,1296.27 863.233,1236.03C863.523,1202.09 863.528,1172.7 859.598,1153.49C858.953,1150.34 858.206,1147.51 857.292,1145.06C856.81,1143.77 855.917,1142.2 855.345,1141.25L854.942,1141.38L852.821,1142.2C845.106,1145.2 836.364,1141.63 833.093,1134.15C829.822,1126.66 833.208,1117.99 840.736,1114.56C842.334,1113.84 843.891,1113.22 845.41,1112.72Z" style="fill:rgb(9,90,110);"/>
                </g>
            </g>
            <g transform="matrix(1.18347,-8.60059e-05,8.60059e-05,1.18347,-143.193,-354.438)">
                <g transform="matrix(1.14465,-0.0590238,0.0592332,1.13428,-7226.68,-6089.11)">
                    <path d="M6651,6997L6671,7322C6790.73,7388.02 6900.85,7442.11 7014.68,7524.82C7050.13,7508.33 7094.36,7504.76 7109.61,7498.63L7135.48,7411.63L7244,7250L7310,7130L7275,6902L6651,6997Z" style="fill:rgb(31,140,205);"/>
                </g>
                <g transform="matrix(0.980435,0.0806991,-0.0790977,0.977858,-5137.7,-5929.76)">
                    <path d="M7049,7523L7068,7527C7041.99,7493.46 7008,7469 7008,7469C7008,7469 6982.26,7479.08 6985,7464C6987.74,7448.92 6955,7432 6955,7432C6933.1,7385.15 6921,7399 6921,7399L6905,7401C6905,7401 6805.35,7358.15 6793,7322C6780.65,7285.85 6743,7225 6743,7225C6743,7225 6736.46,7192.49 6736,7192C6735.54,7191.51 6707.61,7147.95 6690,7105C6672.4,7062.05 6720,7023 6720,7023L6751,7064L6768,7068L6772,7083L6780,7088L6804,7171C6875.61,7344.01 6954,7321 6954,7321L6977,7329L7032,7361C7032,7361 7043.73,7375.6 7052,7376C7060.27,7376.4 7073,7386 7073,7386C7073,7386 7084.24,7404.19 7095,7402C7105.76,7399.81 7118,7415 7118,7415C7118,7415 7153.9,7426.87 7164,7420C7174.1,7413.13 7220,7412 7220,7412L7233,7415L7243,7413L7243,7396L7253,7399L7278,7378L7300,7375L7307,7386L7324,7377C7324,7377 7331.14,7388.76 7331,7389C7330.86,7389.24 7357,7371 7357,7371L7359,7387C7359,7387 7398.26,7406.13 7403,7371C7403,7371 7458.01,7368.86 7471,7353L7481,7362L7516,7345L7529,7348L7532,7328L7547,7311L7540,7304C7540,7304 7554.85,7293.1 7555,7277L7542,7282L7523,7257L7551,7248L7572,7204L7605,7202L7625,7158L7613,7139L7617,7105L7606,7100C7606,7100 7617.02,7051.62 7581,7060L7560,7019L7558,7004L7532,6991L7520,6974L7520,6953L7497,6922L7459,6915C7459,6915 7480.91,6881.75 7478,6868C7475.09,6854.25 7469,6831 7469,6831L7512,6820L7467,6807L7457,6789L7465,6775L7440,6745L7438,6728L7414,6706L7418,6676L7442,6662L7431,6650L7430,6608L7441,6600L7438,6545C7438,6545 7412.87,6528.16 7403,6533C7403,6533 7354.18,6516.87 7326,6521C7326,6521 7312.98,6487.96 7300,6477L7298,6448L7322,6445L7342,6432L7323,6418L7298.56,6391.16L7283.66,6403.77L7258,6409L7251,6386L7238,6364L7169,6337L7133,6342L7133,6319L7112,6302L7120,6281L7131,6284L7128,6254L7149,6270L7159,6262L7219,6293L7216,6313L7249,6323L7242,6304L7248,6278L7270,6267L7260,6256L7265,6239L7283,6230C7283,6230 7292.79,6205.11 7288,6178L7246,6163L7246,6124L7210,6125L7208,6154L7182,6173L7169,6171L7152,6192L7128,6200L7118,6190L7074,6196L7056,6181L7044,6191C7044,6191 6979.26,6154.92 6987,6110C6987,6110 6953.61,6097.16 6971,6070L6918,6038C6918,6038 6857.76,6042.7 6884,6072C6884,6072 6885.82,6103.48 6859,6090L6840,6109L6854,6140L6863,6139L6886,6165C6886,6165 6909.57,6208.42 6851.47,6208.54L6850.77,6194.68C6850.77,6194.68 6867.6,6193.17 6850.04,6172.12C6832.48,6151.08 6812.48,6193.94 6812.48,6193.94C6812.48,6193.94 6818.72,6219.29 6817.9,6243.42C6817.09,6267.55 6864.46,6276.6 6821,6303L6818,6332C6818,6332 6770.69,6339.15 6790,6394L6772,6401C6772,6401 6765.55,6448.3 6742,6467C6742,6467 6725.04,6444.49 6725,6430C6724.96,6415.51 6713,6417 6713,6417L6720,6400L6698,6397L6700,6375C6700,6375 6709.53,6345.59 6733,6347L6737,6332L6758,6321L6762,6296L6781,6284C6781,6284 6750.81,6275.64 6745,6250L6708,6244L6703,6227C6703,6227 6678.99,6226.34 6673,6219L6656,6223L6650,6250L6639,6253L6643,6271C6643,6271 6610.95,6283.31 6584,6279L6576,6296L6561,6296L6565,6309C6565,6309 6553.07,6319.6 6536,6319C6536,6319 6536.51,6334.02 6545,6344L6542,6362L6555,6362L6558,6375C6558,6375 6587.14,6370.46 6597,6364L6611,6380L6600,6394L6578,6394L6556,6410L6535,6406L6491,6428L6475,6423L6458,6432L6451,6469L6455,6489L6444,6488L6435,6503L6436,6512L6425,6504L6430,6528C6430,6528 6399.65,6522.36 6411,6550L6394,6543L6380,6589C6380,6589 6338.91,6576.86 6342,6608L6335,6621L6350,6627L6337,6635C6337,6635 6348.44,6638.97 6346,6651L6347,6681L6369,6683C6369,6683 6369.4,6704.48 6373,6714L6357,6717L6357,6731C6357,6731 6371.44,6753.82 6371.99,6754.96C6371.99,6754.97 6371.99,6754.99 6372,6755C6372.02,6755.02 6372.01,6755 6371.99,6754.96C6372.31,6754.55 6386,6755 6386,6755L6398,6777L6386,6787C6386,6787 6385.1,6803.43 6390,6811C6394.9,6818.57 6395,6826 6395,6826C6395,6826 6380.01,6823.06 6375,6832C6375,6832 6388.43,6845.54 6397,6844C6405.57,6842.46 6407,6867 6407,6867L6399,6880L6389,6875L6391,6887L6384,6900L6392,6912L6384,6920C6384,6920 6359.96,6916.05 6351,6925C6342.04,6933.95 6380.22,6932.62 6384,6931C6387.78,6929.38 6391,6942 6391,6942C6391,6942 6420.39,6936.56 6414,6961C6407.61,6985.44 6424,7004 6424,7004L6423,7021L6443,7020C6443,7020 6446.09,7035.63 6436,7039L6444,7066L6433,7091L6447,7102L6448,7118C6448,7118 6468.17,7117.46 6460,7131C6451.83,7144.54 6446.63,7167.56 6481,7153C6481,7153 6509.45,7165.93 6518,7141L6536,7128C6536,7128 6518.39,7173.71 6509,7182C6509,7182 6487.06,7211.46 6488,7224L6468,7242L6423,7264L6408,7255L6417,7300L6434,7318L6428,7340L6439,7349L6433,7371L6460,7407L6474,7466L6513,7460L6526,7473L6541,7476L6556,7494L6575,7492L6575,7507L6600,7507L6620,7495L6641,7496L6660,7475L6698,7478L6702,7466L6717,7464C6717,7464 6745.07,7465.59 6766,7475C6786.93,7484.41 6806,7477 6806,7477L6807,7496C6807,7496 6819.14,7492.55 6834,7505L6838,7528L6851,7514L6878,7547L6881,7571L6901,7595L6891,7609L6925,7619L6930,7629C6930,7629 6952.06,7609.19 6964,7620L6968,7651L6995,7655C6995,7655 6996.7,7643.64 7028,7639L7029,7625C7029,7625 7000.55,7612.8 7004,7588L7018,7571L7028,7538L7046,7544L7049,7523ZM7124.85,7545.51C7159.78,7540.9 7190.4,7526.74 7217.43,7504.57L7243,7413L7217.43,7504.57C7217.43,7504.57 7129.68,7579.52 7068,7527M6945,6994C6945,6994 6908.13,7044.62 6954,7070L6959,7093L6986,7105L7004,7148L7025,7184L7053,7168L7055,7151C7055,7151 7083.94,7142.47 7077,7123L7041,7100L7032,7074L7025,7051C7019.46,7034.75 7009.37,7030.68 6997,7024C6997,7024 6992.13,6992.64 6945,6994ZM7168,7048C7168,7048 7180.6,7072.19 7181,7077C7181.4,7081.81 7187,7104 7187,7104L7230,7110L7237,7096L7248,7083L7211,7018C7211,7018 7170.05,7042.25 7168,7048Z" style="fill:white;stroke:rgb(9,90,110);stroke-width:21.49px;"/>
                </g>
            </g>
        </g>
    </g>
</svg>
