<?xml version="1.0" encoding="utf-8"?>
<!-- Generator: Adobe Illustrator 26.3.1, SVG Export Plug-In . SVG Version: 6.00 Build 0)  -->
<svg version="1.1" id="Ebene_1" xmlns="http://www.w3.org/2000/svg" xmlns:xlink="http://www.w3.org/1999/xlink" x="0px" y="0px"
	 viewBox="0 0 1080 1080" style="enable-background:new 0 0 1080 1080;" xml:space="preserve">
<style type="text/css">
	.st0{fill:#1E9B7A;}
	.st1{fill:#25A97A;}
	.st2{fill:#FFFFFF;}
	
		.st3{clip-path:url(#SVGID_00000049919959908295083740000009101593326356235701_);fill-rule:evenodd;clip-rule:evenodd;fill:#20B78F;}
	
		.st4{clip-path:url(#SVGID_00000049919959908295083740000009101593326356235701_);fill-rule:evenodd;clip-rule:evenodd;fill:#095A6E;}
	
		.st5{clip-path:url(#SVGID_00000049919959908295083740000009101593326356235701_);fill-rule:evenodd;clip-rule:evenodd;fill:#1F8CCD;}
	
		.st6{clip-path:url(#SVGID_00000049919959908295083740000009101593326356235701_);fill-rule:evenodd;clip-rule:evenodd;fill:#FFFFFF;}
	.st7{clip-path:url(#SVGID_00000049919959908295083740000009101593326356235701_);fill:#095A6E;}
	.st8{fill-rule:evenodd;clip-rule:evenodd;fill:none;}
	.st9{font-family:'Roboto-Bold';}
	.st10{font-size:30px;}
	.st11{font-size:73.1608px;}
	.st12{fill:#095A6E;}
	.st13{font-size:57.5231px;}
</style>
<path class="st0" d="M630.6,0C648.4,60.9,658,128.6,658,202.9h0c0,342.7-211.3,648.3-642.6,648.3c-5.2,0-10.3-0.1-15.5-0.2V1080
	h1080V0H630.6L630.6,0z"/>
<g>
	<path class="st1" d="M1080,253.5v-27.6c-27.9,29.6-56.8,57.9-80.8,80.8c30.6-101.4,48.2-216.9,58.2-306.8h-19.1
		c-12.3,110.8-36.4,260-82.3,372.7C955.9,372.7,1018,317.6,1080,253.5z"/>
	<path class="st1" d="M1080,349.8V321c-54.3,66.3-129,115.1-177.6,142.4C965.6,315.3,981.5,135,982.6,0h-18.8
		c-1.2,148.8-20.5,352.9-103.1,506.1C860.7,506.1,989.6,449.1,1080,349.8z"/>
	<path class="st1" d="M761.7,782.5L761.7,782.5c0,0-5.5,53.4-135.9,157.5c0,0-20.6,76.6-59.4,140h59.3l91.7-44.7
		C796.4,910.8,761.7,782.5,761.7,782.5z M704.1,1020.6l-113.4,55.2c28.7-51.4,46.3-106.7,51.8-124.8
		c54.7-44.2,87.7-79.9,107.7-106.8C751.4,889.3,744.1,955.2,704.1,1020.6z"/>
	<path class="st1" d="M762.6,1073.9L762.6,1073.9c0,0,1.3,2.2,3.4,6.1h21.6c-0.1-0.2-0.3-0.5-0.4-0.8
		c100.4-69.8,226.7-44.7,267.7-33.8c-0.7,8.1-2.3,19.8-5.6,34.6h19.5c6.6-31,5.7-48.6,5.7-48.6S893,969.8,762.6,1073.9z"/>
	<path class="st1" d="M359.7,1074.8c0,0-1.1,1.9-3.5,5.1h52.9c62.8-21.1,111.6-48.2,145.1-70.5c-10.2,21.2-24.6,45.9-44.4,70.5h24
		c47.5-64,61-125.7,61-125.7S511.9,1035.4,359.7,1074.8z"/>
	<path class="st1" d="M112.8,1024.8C112.8,1024.8,112.8,1024.8,112.8,1024.8C112.8,1024.8,112.8,1024.8,112.8,1024.8L112.8,1024.8z"
		/>
	<path class="st1" d="M112.8,1024.8c-9.2,1.7,58.8-149.4,49.6-147.7C104.4,888.3,49.5,892.7,0,893v19c42-0.3,87.7-3.4,135.9-11
		c-4.6,12.9-10.6,29.1-16,42.9c-10.9,27.7-21.8,55.5-25.2,68.5c-1.8,6.8-1.9,11.8-1.5,14.3c1.1,7.2,4.9,11.2,8.4,13.6
		c1.2,0.9,2.5,1.8,4.2,2.5c8.9,4.4,59.2,21,107.5,37h60.3C214.3,1059.9,109.6,1026.5,112.8,1024.8z"/>
	<path class="st1" d="M112.8,1024.8c5.8-2.2,240.8,40,246.6,37.7c14.9-5.9,283.2-124.2,372-266c-69.9,34-150.1,41.9-245,61.6
		l24.2-159.5c-72.9,92-196.8,148.2-302.6,173.1C198.2,874.1,122.6,1022.9,112.8,1024.8z M217.7,889L217.7,889
		c89.6-21.8,190.6-65.4,264.9-132.9l-15,99.1c-0.9,6.2,1.2,12.4,5.7,16.7c4.5,4.3,10.9,6.1,17,4.8c68.2-14.2,128.9-22.6,183.8-38.4
		C571.4,945.9,386.9,1030,356.1,1043.2c-9.5-1.4-46.3-6.6-81.3-12.4c-44.5-7.3-95.7-16-127.9-20.9
		C168.8,973.6,203.4,908.6,217.7,889z"/>
	<path class="st1" d="M0,964.6c17.3-0.6,34.7-1.6,52.4-3.2c-10.5,28.5-18.5,56.9-21.6,85.4c0,0-12.1-0.5-30.9-1.3v19.1l48.6,2
		c1.2-42.5,15.1-84.9,33.2-127.4c-28,3.3-55,5.4-81.8,6.3V964.6z"/>
	<path class="st1" d="M353.3,1015.9c10.8-3.1,153.1-55.7,217.7-129c-61.1,11-134.4,13.3-134.4,13.3l12.5-92.8
		c-53,47.6-206.7,105.6-206.7,105.6c-9.5,14.2-38.8,102.6-32.8,87.4C210.6,997.2,349.1,1017.1,353.3,1015.9z M234.9,982.8
		c6.3-18.3,15.1-43.1,20.7-54.6c24.3-9.5,110.5-44.4,168.8-79.9l-6.6,49.3c-0.7,5.5,1,11.1,4.7,15.3c3.8,4.2,9.1,6.5,14.7,6.3
		c0,0,33.7-1,74.7-5.1c-62.6,45.6-144.3,77-161.2,82.7C333.5,995.3,270.4,986.7,234.9,982.8z"/>
	<path class="st1" d="M850.4,853c-4.6,7.3-3.7,16.7,2.2,23c5.8,6.3,15.2,7.9,22.8,3.9c32-16.8,64.4-61.7,92.5-117.6
		c43.4-86.2,78.7-198.1,95.7-256.1c5.1,7.9,10.8,17.1,16.5,27.3v-36.9c-13.7-21.2-24.1-34.1-24.1-34.1s-91,348.8-189.4,400.4l-0.1,0
		c0,0,99.1-158.7,85.7-209.3c-33.3,23.1-113.7,98.1-158,113.7c0,0,21.8,175.5-44.7,269.5c0,0,222.6-82.8,306.2-26.9l24.3-79.9v-40.3
		c-32.4,3-119,11.7-156.2,21.2c0,0,91.5-36.9,156.2-97.8v-26.8c-13.3,14.2-28.4,27.1-43.9,38.8c-57,43-119.5,68.2-119.5,68.2
		c-9.3,3.8-14.1,14.1-11,23.6c3.1,9.5,13.1,15,22.8,12.5c31.5-8.1,99.2-15.5,137.6-19.2c-6.7,21.9-15.9,52.4-22.1,72.6
		c-25.8-9.8-58.2-12.7-92.4-10.8c-57.9,3.2-121.3,19.4-162.9,31.9c12.9-31.6,20.3-66.8,24.2-100.4c6-52.7,3.5-101.3,1.6-124.4
		c33.5-17.1,79.2-54.9,113.9-83c-1.9,5.8-4.2,11.8-6.5,18.1C897.9,777.1,850.4,853,850.4,853z"/>
	<path class="st1" d="M911.3,574.5L911.3,574.5c0,0-183.8,63.2-182.1,58.3c20.6-58.2,129-333.7,96.6-632.8h-19.7
		c32.8,295.7-75.1,568.7-95.5,626.2c-2.3,6.4-1.2,11.8,1.4,16.4c1.8,3.2,4.6,6.3,9.3,8.4c1.5,0.7,7.6,2.7,17,0.5
		c15.8-3.7,68.3-21,112.4-35.8c-19,17.2-40.8,32.4-64.2,46.2c-59.7,35-129.8,59.8-192.1,78.2c7.2-50.9,7.4-120.2,6.4-168.4
		l28.2,32.9c4.1,4.7,10.2,7.3,16.4,6.8c6.2-0.5,11.9-3.8,15.2-9.1c22.4-35.6,125.6-264,86.4-602.2h-19.8
		c39.1,332.3-61.2,556.8-83.2,591.7l-57.5-67.1c-2.1,4.2-4.2,8.3-6.3,12.3c2,49,5,171.7-11.2,230.9
		C686.7,735.3,846.4,680.3,911.3,574.5z"/>
	<path class="st1" d="M1041.4,424L1041.4,424c-70.2,49.1-129,119.6-242.9,149.3c47.8-73.9,105-351.5,105.2-573.3h-19
		c-0.1,108.1-14,229.8-33.6,334.1c-19.8,105.2-45.1,192.5-68.6,228.8c-4.3,6.6-4.1,15.1,0.6,21.5c4.6,6.4,12.6,9.3,20.2,7.3
		c91.1-23.8,148-72.6,202.9-116.8C917.6,723.1,704.5,760,543.5,800.8c5.4-48.5,10.4-139.2,13.7-223.4c-6.4,10.2-13.1,20.2-20.1,29.9
		c-4.2,99.2-10.5,198.8-16.9,219.3C699.5,777.7,959.7,748.7,1041.4,424z"/>
	<path class="st1" d="M638.1,527c6.5-1.2,11.9-5.6,14.3-11.7C697.7,401.5,726.2,224.6,698.2,0H679c28,221.6,0.3,396.1-44.3,508.3
		c-9-9.9-18-20.3-27-31.2c-2.6,6.7-5.4,13.3-8.3,19.8c7,8.3,14.1,16.4,21.1,24.2C625,526,631.6,528.2,638.1,527z"/>
</g>
<g>
	<g>
		<path class="st2" d="M766,298.6v-8.5c0-4.4,2.5-6.8,6.6-6.8c4.1,0,6.3,2.4,6.4,6.7h-3.8c-0.1-2.2-0.9-3.1-2.6-3.1
			c-1.7,0-2.7,1-2.7,3.2v8.5c0,2.2,1,3.2,2.7,3.2c1.8,0,2.8-1,2.8-3.1v-2.1h-3v-3.3h6.7v5.4c-0.1,4.3-2.5,6.7-6.6,6.7
			C768.6,305.4,766,303,766,298.6L766,298.6z"/>
		<path class="st2" d="M792.4,301.5v3.5h-11.1v-21.3h10.8v3.5h-7v5.3h6.5v3.4H785v5.6L792.4,301.5L792.4,301.5z"/>
		<path class="st2" d="M794,298.6v-8.5c0-4.4,2.5-6.8,6.6-6.8c4.1,0,6.3,2.4,6.4,6.7h-3.8c-0.1-2.2-0.9-3.1-2.6-3.1
			c-1.7,0-2.7,1-2.7,3.2v8.5c0,2.2,1,3.2,2.7,3.2c1.8,0,2.8-1,2.8-3.1v-2.1h-3v-3.3h6.7v5.4c-0.1,4.3-2.5,6.7-6.6,6.7
			C796.6,305.4,794,303,794,298.6L794,298.6z"/>
		<path class="st2" d="M820.4,301.5v3.5h-11.1v-21.3h10.8v3.5h-7v5.3h6.5v3.4h-6.5v5.6L820.4,301.5L820.4,301.5z"/>
		<path class="st2" d="M835.9,283.7V305h-3.8l-4.2-9.3c-0.6-1.7-1.4-3.6-2-5.2l-0.1,0.1c0.3,2.4,0.5,6,0.5,8.3v6.1h-3.7v-21.3h3.8
			l4.5,10c0.6,1.4,1.2,3,1.7,4.4l0.1-0.1c-0.3-2.4-0.5-5.8-0.5-7.8v-6.5H835.9z"/>
		<path class="st2" d="M837.2,283.7h3.9l2.2,10.9c0.3,1.7,0.7,4.1,1,5.8h0.1c0.3-1.7,0.6-4.1,1-5.8l2.2-10.9h3.9l-5.2,21.3h-4
			L837.2,283.7L837.2,283.7z"/>
		<path class="st2" d="M852.3,298.2v-7.6c0-4.5,2.5-7.2,6.8-7.2c4.3,0,6.8,2.7,6.8,7.2v7.6c0,4.5-2.5,7.2-6.8,7.2
			C854.8,305.4,852.3,302.7,852.3,298.2z M861.9,298.2v-7.6c0-2.3-1-3.6-2.9-3.6c-1.9,0-2.9,1.3-2.9,3.6v7.6c0,2.3,1,3.6,2.9,3.6
			C861,301.8,861.9,300.5,861.9,298.2z"/>
		<path class="st2" d="M873.9,297.6h-1.7v7.4h-3.8v-21.3h5.9c4.2,0,6.6,2.5,6.6,6.9c0,3.1-1.2,5.3-3.4,6.3l4.3,8.1h-4.2L873.9,297.6
			L873.9,297.6z M872.1,294h2.1c1.8,0,2.8-1.2,2.8-3.4s-1-3.4-2.8-3.4h-2.1V294L872.1,294z"/>
		<path class="st2" d="M881.8,299h3.9c0,1.9,1,2.8,2.7,2.8c1.7,0,2.6-1,2.6-2.4c0-3.9-8.7-4.2-8.7-10.6c0-3.2,2.3-5.5,6.1-5.5
			s6.2,2.3,6.2,6.2h-3.9c0-1.7-0.9-2.5-2.3-2.5s-2.2,0.8-2.2,2c0,3.7,8.8,3.8,8.8,10.6c0,3.4-2.4,6-6.5,6S881.8,303.1,881.8,299
			L881.8,299z"/>
		<path class="st2" d="M896.2,298.6v-8.5c0-4.4,2.4-6.8,6.5-6.8c4,0,6.5,2.4,6.6,6.8h-3.8c-0.1-2.2-1-3.1-2.9-3.1
			c-1.6,0-2.5,1-2.5,3.2v8.5c0,2.1,1,3.1,2.6,3.1c1.9,0,2.8-1,3-3.1h3.8c-0.2,4.3-2.6,6.7-6.7,6.7
			C898.5,305.4,896.2,303,896.2,298.6L896.2,298.6z"/>
		<path class="st2" d="M924,283.7V305h-3.8v-9H915v9h-3.8v-21.3h3.8v8.8h5.2v-8.8H924z"/>
		<path class="st2" d="M937.7,301.5v3.6h-10.5v-21.3h3.8v17.8H937.7L937.7,301.5z"/>
		<path class="st2" d="M946.9,301.2h-5L941,305h-3.9l5.3-21.3h4.1l5.3,21.3h-3.9L946.9,301.2z M946.2,297.6l-0.9-4
			c-0.3-1.5-0.6-3.8-0.9-5.2h-0.1c-0.2,1.4-0.5,3.8-0.8,5.2l-0.9,4H946.2z"/>
		<path class="st2" d="M951.9,298.6v-8.5c0-4.4,2.5-6.8,6.6-6.8c4.1,0,6.3,2.4,6.4,6.7h-3.8c-0.1-2.2-0.9-3.1-2.6-3.1
			c-1.7,0-2.7,1-2.7,3.2v8.5c0,2.2,1,3.2,2.7,3.2c1.8,0,2.8-1,2.8-3.1v-2.1h-3v-3.3h6.7v5.4c-0.1,4.3-2.5,6.7-6.6,6.7
			C954.5,305.4,951.9,303,951.9,298.6L951.9,298.6z"/>
		<path class="st2" d="M772.8,239.1v36H766v-36H772.8z"/>
		<path class="st2" d="M802.6,239.1v36h-6.7l-7.4-15.6c-1.1-2.8-2.5-6.1-3.6-8.8l-0.2,0.2c0.5,4.1,0.8,10.2,0.8,13.9v10.3H779v-36
			h6.7l8,16.9c1,2.3,2.1,5.1,3.1,7.4l0.2-0.2c-0.6-4.1-0.9-9.9-0.9-13.2v-11L802.6,239.1L802.6,239.1z"/>
		<path class="st2" d="M815.7,239.1v36h-6.7v-36H815.7z"/>
		<path class="st2" d="M841.6,245.1h-7.7v30h-6.9v-30h-7.7v-6h22.4L841.6,245.1L841.6,245.1z"/>
		<path class="st2" d="M851.4,239.1v36h-6.7v-36H851.4z"/>
		<path class="st2" d="M871.9,268.6h-9l-1.5,6.5h-7l9.4-36h7.2l9.4,36h-7L871.9,268.6L871.9,268.6z M870.5,262.6l-1.5-6.7
			c-0.6-2.5-1.1-6.4-1.5-8.8h-0.2c-0.3,2.4-0.9,6.4-1.5,8.8l-1.5,6.7H870.5L870.5,262.6z"/>
		<path class="st2" d="M900.8,245.1h-7.7v30h-6.9v-30h-7.7v-6h22.4L900.8,245.1L900.8,245.1z"/>
		<path class="st2" d="M910.7,239.1v36h-6.7v-36H910.7z"/>
		<path class="st2" d="M913.6,239.1h7l4,18.3c0.6,2.9,1.3,6.9,1.7,9.8h0.2c0.5-2.9,1.1-6.9,1.8-9.8l4-18.3h7l-9.3,36h-7.2
			L913.6,239.1L913.6,239.1z"/>
		<path class="st2" d="M962.1,269.2v6h-19.8v-36h19.3v6H949v8.9h11.5v5.8H949v9.4L962.1,269.2L962.1,269.2z"/>
		<path class="st2" d="M774.4,215.5l-2.2,3.4v11H766v-35.2h6.2v14.4l2.1-4.1l6-10.3h7.3l-9.6,15.3l11.2,19.8h-7.2L774.4,215.5
			L774.4,215.5z"/>
		<path class="st2" d="M800.4,217.6h-2.9v12.3h-6.3v-35.2h9.8c7,0,11.1,4.2,11.1,11.4c0,5.1-2,8.7-5.6,10.5l7.2,13.4h-6.9
			L800.4,217.6L800.4,217.6z M797.6,211.7h3.5c3,0,4.7-2,4.7-5.6c0-3.7-1.6-5.5-4.7-5.5h-3.5V211.7z"/>
		<path class="st2" d="M835.4,224v5.8h-18.5v-35.2h18v5.8h-11.7v8.7h10.8v5.6h-10.8v9.2H835.4L835.4,224z"/>
		<path class="st2" d="M846.1,194.7v35.2h-6.3v-35.2H846.1z"/>
		<path class="st2" d="M849.7,219.9h6.5c0.1,3.2,1.7,4.6,4.5,4.6c2.9,0,4.2-1.7,4.2-3.9c0-6.4-14.4-6.9-14.4-17.5
			c0-5.2,3.8-9.1,10.1-9.1c6.3,0,10.3,3.9,10.3,10.2h-6.5c-0.1-2.8-1.5-4.2-3.9-4.2c-2.4,0-3.7,1.3-3.7,3.3
			c0,6.1,14.6,6.3,14.6,17.4c0,5.5-3.9,9.9-10.9,9.9C853.6,230.6,849.7,226.7,849.7,219.9L849.7,219.9z"/>
		<path class="st2" d="M892.2,224v5.9h-17.5v-35.2h6.3V224H892.2z"/>
		<path class="st2" d="M908.3,223.5h-8.4l-1.4,6.4h-6.6l8.8-35.2h6.8l8.8,35.2h-6.6L908.3,223.5z M907,217.6l-1.4-6.5
			c-0.5-2.4-1.1-6.3-1.4-8.6H904c-0.3,2.4-0.9,6.2-1.4,8.6l-1.4,6.5H907z"/>
		<path class="st2" d="M918.4,218.8v-24.1h6.5v24.1c0,3.8,1.6,5.7,4.5,5.7c2.9,0,4.5-1.9,4.5-5.7v-24.1h6.6v24.1
			c0,7.4-4.2,11.7-11.1,11.7C922.6,230.4,918.4,226.2,918.4,218.8L918.4,218.8z"/>
		<path class="st2" d="M952,200.5v8.8h10v5.7h-10v14.9h-6.3v-35.2H963v5.8H952L952,200.5z"/>
	</g>
	<g>
		<defs>
			<rect id="SVGID_1_" x="792" y="30" width="147" height="146"/>
		</defs>
		<clipPath id="SVGID_00000166666425001236732660000018199385435539523251_">
			<use xlink:href="#SVGID_1_"  style="overflow:visible;"/>
		</clipPath>
		
			<path style="clip-path:url(#SVGID_00000166666425001236732660000018199385435539523251_);fill-rule:evenodd;clip-rule:evenodd;fill:#20B78F;" d="
			M802.8,91.1c0,0,15.9-57.8,76.2-47.9l1.4-13.2c0,0,27.4,23.9,34.3,32.5l-36,19.1C848.5,85.8,827.8,65,835,97.8L802.8,91.1
			L802.8,91.1z"/>
		
			<path style="clip-path:url(#SVGID_00000166666425001236732660000018199385435539523251_);fill-rule:evenodd;clip-rule:evenodd;fill:#095A6E;" d="
			M802.8,91.1c0,0,15.9-57.8,76.2-47.9l1.4-13.2c0,0,27.4,23.9,34.3,32.5l-36,19.1C848.5,85.8,827.8,65,835,97.8L802.8,91.1
			L802.8,91.1z M804.9,89.9c3.1-9.2,21.1-53.7,73.9-45c0.4,0.1,0.9,0,1.2-0.3c0.4-0.3,0.6-0.7,0.6-1.1l1.1-10.1
			c6.3,5.5,23.7,21,30.5,28.7l-34,18c-14.8,2-27.3-2.1-35.2-2.7c-3.8-0.3-6.7,0.3-8.5,2.1c-1.2,1.1-2,2.8-2.3,5.1
			c-0.4,2.6-0.1,6.2,0.8,11.1L804.9,89.9L804.9,89.9z"/>
		
			<path style="clip-path:url(#SVGID_00000166666425001236732660000018199385435539523251_);fill-rule:evenodd;clip-rule:evenodd;fill:#20B78F;" d="
			M888,81.2l28.9-15.1c0,0,28.3,31,8,75.8l14.2,6.4c0,0-28.7,16.2-52.7,25c0,0-11.3-38-13.2-52.5c2.9,2.2,22.6-7.1,26.4-4.9
			C899.5,115.9,894.6,102.9,888,81.2L888,81.2z"/>
		
			<path style="clip-path:url(#SVGID_00000166666425001236732660000018199385435539523251_);fill-rule:evenodd;clip-rule:evenodd;fill:#095A6E;" d="
			M888,81.2l28.9-15.1c0,0,28.3,31,8,75.8l14.2,6.4c0,0-28.7,16.2-52.7,25c0,0-11.3-38-13.2-52.5c2.9,2.2,22.6-7.1,26.4-4.9
			C899.5,115.9,894.6,102.9,888,81.2L888,81.2z M875,122.8c1.9-0.1,4.8-0.8,8-1.8c4-1.2,8.4-2.7,11.8-3.4c1-0.2,2-0.4,2.7-0.4
			c0.5,0,0.9,0,1.1,0.1c0.6,0.3,1.3,0.3,1.8-0.2c0.5-0.4,0.7-1.2,0.5-1.8c0,0-4.7-12.5-11.1-33.3l26.5-13.8
			c4.4,5.4,24.8,33.8,6.9,73c-0.2,0.4-0.2,0.8,0,1.2c0.1,0.4,0.5,0.7,0.8,0.9l11.2,5.1c-7.6,4.1-29,15.6-48.1,22.8
			C885.2,164.2,877.2,136.5,875,122.8L875,122.8z"/>
		
			<path style="clip-path:url(#SVGID_00000166666425001236732660000018199385435539523251_);fill-rule:evenodd;clip-rule:evenodd;fill:#20B78F;" d="
			M871.7,137.5c0,0,7.5,23.8,10.5,36.9c-16.5,3.8-60.1,4.4-78.3-45.4l-11.9,4.4c0,0,5.8-24.3,9.8-38.2l38.9,7.6l-10.7,6.3
			C839.9,102.6,827.9,178.9,871.7,137.5z"/>
		
			<path style="clip-path:url(#SVGID_00000166666425001236732660000018199385435539523251_);fill-rule:evenodd;clip-rule:evenodd;fill:#095A6E;" d="
			M830.3,109.1c9.3-4.8-1.9,69.4,41.4,28.5c0,0,7.5,23.8,10.5,36.9c-16.5,3.8-60.1,4.4-78.3-45.4l-11.9,4.4c0,0,5.8-24.3,9.8-38.2
			l38.9,7.6L830.3,109.1c-0.1,0-0.2,0.1-0.3,0.2L830.3,109.1L830.3,109.1z M829.5,107.7l6.6-4l-33.3-6.5c-3.1,11-7,27.1-8.6,33.7
			l9-3.4c0.4-0.1,0.8-0.1,1.2,0c0.4,0.2,0.7,0.5,0.8,0.9c17.2,47.1,57.7,48,74.9,44.7c-2.5-10.6-7.4-26.7-9.3-32.8
			c-5.5,4.9-10.1,8-13.9,9.6c-4.7,2-8.4,1.8-11.4,0.4c-3.5-1.6-5.9-5.1-7.7-9.6c-2.4-6.1-3.5-14-4.4-20.4c-0.5-3.6-1-6.8-1.8-8.7
			c-0.1-0.3-0.2-0.6-0.4-0.9c-0.1-0.1-0.2-0.3-0.3-0.4h0l-0.2,0.1c-0.7,0.5-1.7,0.2-2.2-0.5c-0.5-0.7-0.3-1.7,0.5-2.2
			C829.3,107.8,829.4,107.8,829.5,107.7L829.5,107.7z"/>
		
			<path style="clip-path:url(#SVGID_00000166666425001236732660000018199385435539523251_);fill-rule:evenodd;clip-rule:evenodd;fill:#1F8CCD;" d="
			M841.1,118l3.2,28.2c10.8,5.2,20.7,9.4,31,16.1c3-1.6,6.9-2.1,8.2-2.7l1.9-7.7l8.8-14.6l5.2-10.8l-4.1-19.7L841.1,118L841.1,118z"
			/>
		
			<path style="clip-path:url(#SVGID_00000166666425001236732660000018199385435539523251_);fill-rule:evenodd;clip-rule:evenodd;fill:#FFFFFF;" d="
			M870,159.5l1.4,0.4c-1.7-2.7-4.1-4.7-4.1-4.7s-2,0.6-1.7-0.5c0.3-1.1-2.1-2.6-2.1-2.6c-1.4-3.7-2.3-2.7-2.3-2.7l-1.2,0
			c0,0-7.2-3.8-7.9-6.6c-0.7-2.8-3.2-7.6-3.2-7.6s-0.3-2.5-0.3-2.5c0,0-1.9-3.5-2.9-6.8c-1.1-3.3,2.7-6,2.7-6l2.1,3.3l1.2,0.4
			l0.2,1.2l0.6,0.4l1.3,6.4c4.3,13.4,10.3,12.2,10.3,12.2l1.7,0.7l3.9,2.8c0,0,0.8,1.2,1.4,1.3c0.6,0.1,1.5,0.9,1.5,0.9
			s0.7,1.4,1.6,1.3c0.8-0.1,1.7,1.1,1.7,1.1s2.6,1.1,3.4,0.7c0.8-0.4,4.2-0.3,4.2-0.3l1,0.3l0.8-0.1l0.1-1.3l0.7,0.3l2-1.4l1.7-0.1
			l0.5,0.9l1.3-0.6c0,0,0.5,0.9,0.5,0.9c0,0,2.1-1.2,2.1-1.2l0,1.2c0,0,2.8,1.7,3.4-0.9c0,0,4.1,0.2,5.2-0.9l0.7,0.7l2.7-1.1l1,0.3
			l0.3-1.5l1.2-1.2l-0.5-0.6c0,0,1.2-0.7,1.3-1.9l-1,0.3l-1.3-2l2.2-0.5l1.8-3.2l2.5,0l1.8-3.2l-0.8-1.5l0.5-2.5l-0.8-0.4
			c0,0,1.1-3.6-1.6-3.2l-1.3-3.2l-0.1-1.1l-1.9-1.1l-0.8-1.3l0.1-1.6l-1.5-2.5l-2.8-0.8c0,0,1.8-2.4,1.7-3.4
			c-0.1-1.1-0.5-2.8-0.5-2.8l3.3-0.6l-3.3-1.3l-0.6-1.4l0.7-1l-1.7-2.4l0-1.3l-1.7-1.8l0.5-2.2l1.9-0.9l-0.7-1l0.2-3.2l0.9-0.5
			l0.1-4.1c0,0-1.8-1.4-2.6-1.1c0,0-3.6-1.5-5.7-1.4c0,0-0.8-2.6-1.7-3.5l0-2.2l1.8-0.1l1.6-0.8l-1.3-1.2l-1.7-2.2l-1.2,0.9l-2,0.2
			l-0.4-1.8l-0.8-1.7l-5-2.5l-2.7,0.1l0.1-1.7l-1.5-1.4l0.7-1.5l0.8,0.3l0-2.3L885,66l0.8-0.5l4.3,2.7l-0.3,1.5l2.4,1l-0.4-1.5
			l0.6-1.9l1.7-0.7l-0.7-0.9l0.5-1.3l1.4-0.6c0,0,0.9-1.8,0.7-3.9l-3.1-1.4l0.2-2.9l-2.7-0.1l-0.3,2.2l-2.1,1.3l-1-0.2l-1.4,1.5
			l-1.8,0.5l-0.7-0.8l-3.3,0.2l-1.3-1.2l-1,0.7c0,0-4.6-3.1-3.8-6.4c0,0-2.4-1.2-1-3.1l-3.8-2.7c0,0-4.6,0-2.8,2.3c0,0,0,2.4-2,1.2
			l-1.5,1.3l0.9,2.4h0.7l1.6,2.1c0,0,1.5,3.4-2.9,3.1l0-1c0,0,1.3,0,0.1-1.7c-1.2-1.7-2.9,1.4-2.9,1.4s0.3,1.9,0.1,3.8
			c-0.2,1.8,3.3,2.8-0.1,4.5l-0.4,2.2c0,0-3.6,0.2-2.5,4.5l-1.4,0.4c0,0-0.8,3.5-2.7,4.8c0,0-1.1-1.8-1.1-2.9
			c0.1-1.1-0.8-1.1-0.8-1.1l0.6-1.2l-1.6-0.4l0.3-1.6c0,0,0.9-2.1,2.6-1.9l0.4-1.1l1.6-0.7l0.5-1.9l1.5-0.8c0,0-2.2-0.8-2.5-2.8
			l-2.7-0.7l-0.3-1.3c0,0-1.8-0.2-2.2-0.8l-1.3,0.2l-0.6,2l-0.8,0.2l0.2,1.4c0,0-2.5,0.7-4.5,0.2l-0.7,1.2l-1.1-0.1l0.2,1
			c0,0-1,0.7-2.2,0.6c0,0,0,1.1,0.5,1.9l-0.3,1.3l1,0.1l0.1,1c0,0,2.2-0.2,3-0.6l1,1.3l-0.9,1l-1.7-0.1l-1.8,1.1l-1.6-0.4l-3.4,1.4
			l-1.2-0.5l-1.3,0.6l-0.7,2.7l0.2,1.5l-0.8-0.1l-0.8,1.1v0.7l-0.8-0.7l0.2,1.8c0,0-2.2-0.6-1.6,1.5l-1.2-0.6l-1.3,3.4
			c0,0-3-1.2-3,1.2l-0.6,0.9l1.1,0.5l-1,0.5c0,0,0.8,0.4,0.6,1.3l-0.1,2.3l1.6,0.3c0,0-0.1,1.6,0.1,2.4l-1.2,0.1l-0.1,1.1
			c0,0,0.9,1.8,1,1.9l1.1,0.1l0.8,1.7l-1,0.7c0,0-0.2,1.2,0.2,1.8c0.3,0.6,0.3,1.2,0.3,1.2s-1.1-0.3-1.5,0.3c0,0,0.9,1.1,1.6,1
			c0.6-0.1,0.6,1.8,0.6,1.8l-0.7,0.9l-0.7-0.4l0.1,0.9l-0.6,0.9l0.5,0.9l-0.6,0.6c0,0-1.8-0.4-2.5,0.2c-0.7,0.6,2.1,0.7,2.4,0.7
			c0.3-0.1,0.5,0.9,0.5,0.9s2.2-0.2,1.6,1.6c-0.6,1.8,0.5,3.3,0.5,3.3l-0.2,1.3l1.5,0c0,0,0.1,1.2-0.6,1.4l0.4,2.1l-1,1.8l1,0.9v1.2
			c0,0,1.5,0.1,0.8,1.1c-0.7,1-1.2,2.7,1.4,1.8c0,0,2.1,1.2,2.9-0.7l1.4-0.9c0,0-1.6,3.3-2.3,3.9c0,0-1.8,2.1-1.8,3l-1.6,1.2
			l-3.5,1.4l-1.1-0.8l0.4,3.4l1.2,1.5l-0.6,1.6l0.8,0.7l-0.6,1.6l1.8,2.9l0.7,4.5l3-0.2l0.9,1.1l1.1,0.3l1,1.4l1.4,0l-0.1,1.1
			l1.9,0.2l1.6-0.8l1.6,0.2l1.6-1.5l2.8,0.5l0.4-0.9l1.1-0.1c0,0,2.1,0.3,3.6,1.1c1.5,0.8,3,0.4,3,0.4l0,1.4c0,0,0.9-0.2,2,0.8
			l0.2,1.8l1.1-1l1.8,2.7l0.1,1.8l1.4,1.9l-0.8,1l2.5,1l0.3,0.8c0,0,1.8-1.4,2.6-0.5l0.1,2.4l2,0.5c0,0,0.2-0.8,2.6-1l0.2-1
			c0,0-2.1-1.1-1.7-2.9l1.2-1.2l1-2.4l1.3,0.6L870,159.5L870,159.5z M875.6,161.7c2.6-0.1,5-1,7.2-2.5l2.5-6.7l-2.5,6.7
			c0,0-7,5.1-11.3,0.8L875.6,161.7z M865.4,119.1c0,0-3.1,3.6,0.2,5.8l0.2,1.8l2,1.1l1.1,3.3l1.4,2.8l2.2-1l0.3-1.3
			c0,0,2.2-0.5,1.8-2l-2.6-2l-0.5-2l-0.4-1.8c-0.3-1.3-1.1-1.6-1.9-2.2C869.1,121.7,869,119.3,865.4,119.1L865.4,119.1z
			 M881.8,124.5c0,0,0.8,1.9,0.8,2.3s0.3,2.1,0.3,2.1l3.2,0.7l0.6-1l0.9-0.9l-2.4-5.1C885.2,122.6,882,124.1,881.8,124.5
			L881.8,124.5z"/>
		<path style="clip-path:url(#SVGID_00000166666425001236732660000018199385435539523251_);fill:#095A6E;" d="M865.2,169.4
			c0,0-0.1,0-0.1,0l-2-0.5c-0.1,0-0.2-0.2-0.3-0.3l-0.1-2.2c-0.6-0.4-1.7,0.3-2.1,0.6c-0.1,0.1-0.2,0.1-0.3,0
			c-0.1,0-0.2-0.1-0.2-0.2l-0.3-0.7l-2.3-0.9c-0.1,0-0.2-0.1-0.2-0.2c0-0.1,0-0.2,0.1-0.3l0.7-0.8l-1.2-1.7c0,0-0.1-0.1-0.1-0.2
			l-0.1-1.7l-1.6-2.3l-0.8,0.7c-0.1,0.1-0.2,0.1-0.3,0.1c-0.1,0-0.2-0.1-0.2-0.3l-0.1-1.6c-0.8-0.8-1.5-0.7-1.6-0.7
			c-0.1,0-0.2,0-0.3-0.1c-0.1-0.1-0.1-0.2-0.1-0.3l0-1c-0.6,0.1-1.7,0.1-2.8-0.5c-1.3-0.7-3.2-1-3.5-1.1l-0.9,0l-0.3,0.7
			c-0.1,0.1-0.2,0.2-0.4,0.2l-2.7-0.4l-1.4,1.4c0,0-0.2,0.1-0.3,0.1l-1.5-0.2l-1.5,0.7c0,0-0.1,0-0.2,0l-1.9-0.2
			c-0.2,0-0.3-0.2-0.3-0.4l0.1-0.8h-1.1c-0.1,0-0.2,0-0.3-0.1l-1-1.3l-1-0.3c0,0-0.1,0-0.2-0.1l-0.8-0.9l-2.8,0.2
			c-0.2,0-0.3-0.1-0.3-0.3l-0.7-4.5l-1.8-2.8c0-0.1-0.1-0.2,0-0.3l0.5-1.4l-0.6-0.6c-0.1-0.1-0.1-0.2-0.1-0.4l0.5-1.4l-1.1-1.3
			c0,0-0.1-0.1-0.1-0.2l-0.4-3.4c0-0.1,0-0.3,0.2-0.3c0.1-0.1,0.3-0.1,0.4,0l0.9,0.7l3.3-1.3l1.5-1.1c0.1-0.5,0.4-1.1,1-1.9
			c0.5-0.7,0.9-1.2,0.9-1.2c0,0,0,0,0,0c0.4-0.3,1.1-1.6,1.7-2.8l-0.4,0.2c-0.2,0.5-0.6,0.9-1.1,1c-0.8,0.3-1.7-0.1-2-0.2
			c-1.1,0.3-1.8,0.3-2.1-0.2c-0.4-0.6,0-1.5,0.5-2.2c0.1-0.1,0.1-0.2,0.1-0.3c0-0.1-0.4-0.2-0.7-0.2c-0.2,0-0.3-0.2-0.3-0.3v-1.1
			l-0.9-0.8c-0.1-0.1-0.1-0.3-0.1-0.4l0.9-1.7l-0.4-2c0-0.2,0.1-0.3,0.2-0.4c0.3-0.1,0.4-0.5,0.4-0.7l-1.2,0c-0.1,0-0.2,0-0.2-0.1
			c-0.1-0.1-0.1-0.2-0.1-0.3l0.2-1.1c-0.3-0.4-1-1.8-0.5-3.5c0.1-0.4,0.1-0.6,0-0.8c-0.3-0.3-1-0.3-1.3-0.3c-0.2,0-0.3-0.1-0.4-0.3
			c0-0.2-0.1-0.5-0.2-0.6c-0.3,0-0.9,0-1.3,0c-1.1-0.1-1.4-0.4-1.5-0.5c0-0.1-0.2-0.4,0.2-0.7c0.7-0.6,2.1-0.4,2.6-0.3l0.3-0.3
			l-0.4-0.7c-0.1-0.1,0-0.2,0-0.3l0.5-0.8l-0.1-0.8c0-0.1,0-0.2,0.1-0.3c0.1-0.1,0.2-0.1,0.3,0l0.5,0.3l0.4-0.6c0-0.1,0-0.4,0-0.6
			c-0.1-0.6-0.2-0.7-0.2-0.7c-0.4,0-0.8-0.2-1.3-0.6c-0.3-0.3-0.6-0.6-0.6-0.6c-0.1-0.1-0.1-0.3,0-0.4c0.4-0.5,1-0.6,1.4-0.5
			c0-0.2-0.1-0.4-0.2-0.6c-0.4-0.7-0.2-1.9-0.2-2c0-0.1,0.1-0.2,0.1-0.2l0.7-0.5l-0.6-1.3c-0.3,0-0.6-0.1-0.8-0.1
			c-0.1,0-0.2,0-0.3-0.1c0,0,0-0.1-0.1-0.1c-0.1-0.2-0.6-1.2-1-1.9c0,0,0-0.1,0-0.2l0.1-1.1c0-0.2,0.1-0.3,0.3-0.3l0.9-0.1
			c-0.1-0.6-0.1-1.4-0.1-1.8l-1.4-0.2c-0.2,0-0.3-0.2-0.3-0.3l0.1-2.3c0,0,0,0,0-0.1c0.1-0.2,0-0.5-0.1-0.6
			c-0.1-0.1-0.3-0.2-0.3-0.2c-0.1,0-0.2-0.2-0.2-0.3c0-0.1,0.1-0.2,0.2-0.3l0.4-0.2l-0.5-0.2c-0.1,0-0.1-0.1-0.2-0.2
			c0-0.1,0-0.2,0-0.3l0.6-0.8c0-0.6,0.2-1.1,0.6-1.4c0.4-0.3,1-0.4,1.8-0.3c0.3,0,0.5,0.1,0.7,0.1l1.2-3.1c0-0.1,0.1-0.1,0.2-0.2
			c0.1,0,0.2,0,0.3,0l0.6,0.3c0-0.4,0.1-0.7,0.3-1c0.4-0.4,0.9-0.4,1.3-0.4L829,79c0-0.1,0-0.3,0.2-0.3s0.3,0,0.4,0l0.2,0.2
			c0,0,0-0.1,0.1-0.1l0.8-1.1c0.1-0.1,0.2-0.1,0.3-0.1l0.4,0.1l-0.1-1.1c0,0,0-0.1,0-0.1l0.7-2.7c0-0.1,0.1-0.2,0.2-0.2l1.3-0.6
			c0,0,0.2,0,0.3,0l1.1,0.4L838,72c0,0,0.1,0,0.2,0l1.4,0.4l1.6-1c0,0,0.1,0,0.2,0l1.5,0.1l0.6-0.7l-0.6-0.9
			c-0.9,0.4-2.7,0.5-2.9,0.5c-0.2,0-0.3-0.1-0.4-0.3l-0.1-0.7l-0.7-0.1c-0.1,0-0.2-0.1-0.2-0.1s-0.1-0.2,0-0.3l0.3-1.2
			c-0.6-0.9-0.5-2-0.5-2c0-0.1,0-0.2,0.1-0.2c0.1-0.1,0.2-0.1,0.2-0.1c0.8,0.1,1.5-0.2,1.8-0.4l-0.2-0.8c0-0.1,0-0.2,0.1-0.3
			c0.1-0.1,0.2-0.1,0.3-0.1l0.9,0.1l0.6-1c0.1-0.1,0.2-0.2,0.4-0.2c1.5,0.4,3.4,0,4-0.2l-0.1-1.1c0-0.2,0.1-0.3,0.3-0.4l0.6-0.1
			l0.5-1.8c0-0.1,0.1-0.2,0.3-0.2l1.3-0.2c0.1,0,0.2,0,0.3,0.1c0.2,0.3,1.3,0.6,2,0.7c0.1,0,0.3,0.1,0.3,0.3l0.2,1.1l2.5,0.6
			c0.1,0,0.2,0.1,0.2,0.3c0.2,1.7,2.3,2.5,2.3,2.5c0.1,0,0.2,0.2,0.2,0.3c0,0.1-0.1,0.3-0.2,0.3l-1.4,0.7l-0.4,1.7
			c0,0.1-0.1,0.2-0.2,0.2l-1.5,0.6l-0.3,1c0,0.1-0.2,0.2-0.4,0.2c-1.4-0.2-2.2,1.4-2.3,1.7l-0.2,1.3l1.3,0.3c0.1,0,0.2,0.1,0.2,0.2
			c0,0.1,0,0.2,0,0.3l-0.4,0.8c0.1,0,0.2,0.1,0.4,0.2c0.2,0.3,0.4,0.6,0.3,1.1c0,0.7,0.5,1.8,0.8,2.4c1.6-1.3,2.2-4.3,2.2-4.4
			c0-0.1,0.1-0.2,0.2-0.2l1.1-0.3c-0.3-1.4-0.2-2.4,0.4-3.3c0.7-0.9,1.7-1.2,2.2-1.3l0.4-1.9c0-0.1,0.1-0.2,0.2-0.2
			c0.8-0.4,1.2-0.8,1.3-1.1c0.1-0.3-0.2-0.7-0.6-1.2c-0.4-0.6-0.9-1.2-0.8-2c0.2-1.7-0.1-3.6-0.1-3.7c0-0.1,0-0.1,0-0.2
			c0.1-0.2,1.2-2,2.3-2.1c0.3,0,0.8,0.1,1.1,0.6c0.5,0.8,0.7,1.3,0.5,1.8c-0.1,0.2-0.3,0.4-0.5,0.4v0.5c1.1,0,1.8-0.2,2.2-0.7
			c0.5-0.7,0.1-1.7,0-1.9l-1.4-1.9h-0.5c-0.1,0-0.3-0.1-0.3-0.2l-0.9-2.4c0-0.1,0-0.3,0.1-0.4l1.5-1.3c0.1-0.1,0.3-0.1,0.4,0
			c0.3,0.2,0.7,0.4,1,0.2c0.3-0.2,0.4-0.7,0.5-1c-0.4-0.6-0.5-1.1-0.3-1.6c0.6-1.2,3.1-1.2,3.4-1.2c0.1,0,0.1,0,0.2,0.1l3.8,2.7
			c0,0,0.1,0.1,0.1,0.2c0,0.1,0,0.2-0.1,0.2c-0.3,0.5-0.5,0.9-0.4,1.3c0.2,0.8,1.2,1.3,1.2,1.3c0.1,0.1,0.2,0.2,0.2,0.4
			c-0.7,2.7,2.6,5.4,3.5,6l0.8-0.5c0.1-0.1,0.3-0.1,0.4,0l1.1,1.1l3.2-0.2c0.1,0,0.2,0,0.3,0.1l0.6,0.7l1.6-0.4l1.3-1.4
			c0.1-0.1,0.2-0.1,0.3-0.1l0.8,0.2l1.8-1.1l0.3-2c0-0.2,0.2-0.3,0.3-0.3l2.7,0.1c0.1,0,0.2,0,0.2,0.1c0.1,0.1,0.1,0.2,0.1,0.2
			l-0.2,2.7l2.9,1.3c0.1,0,0.2,0.1,0.2,0.3c0.2,2.1-0.7,4-0.7,4.1c0,0.1-0.1,0.1-0.2,0.2l-1.3,0.5l-0.4,0.9l0.6,0.7
			c0.1,0.1,0.1,0.2,0.1,0.3c0,0.1-0.1,0.2-0.2,0.2l-1.6,0.6l-0.5,1.7l0.4,1.4c0,0.1,0,0.2-0.1,0.3c-0.1,0.1-0.2,0.1-0.3,0.1l-2.4-1
			c-0.1-0.1-0.2-0.2-0.2-0.4l0.3-1.3l-3.9-2.5l-0.6,0.4c-0.1,0.1-0.3,0.1-0.4,0l-0.9-0.8l0,1.5c0,0.1,0,0.2-0.1,0.3s-0.2,0.1-0.3,0
			l-0.5-0.2l-0.5,1l1.3,1.2c0,0,0.1,0.2,0.1,0.3l-0.1,1.4l2.3-0.1c0,0,0.1,0,0.2,0l5,2.5c0,0,0.1,0.1,0.1,0.1l0.8,1.7c0,0,0,0,0,0.1
			l0.3,1.5l1.6-0.2l1.1-0.8c0.1-0.1,0.3-0.1,0.5,0.1l1.7,2.1l1.3,1.2c0.1,0.1,0.1,0.2,0.1,0.3c0,0.1-0.1,0.2-0.2,0.3l-1.6,0.8
			c0,0-0.1,0-0.1,0l-1.5,0.1v1.7c0.7,0.8,1.4,2.6,1.6,3.3h0c2,0,4.8,1.1,5.4,1.4c0.4-0.1,1,0.1,1.7,0.5c0.6,0.3,1,0.7,1,0.7
			c0.1,0.1,0.1,0.2,0.1,0.3l-0.1,4.1c0,0.1-0.1,0.2-0.2,0.3l-0.7,0.4l-0.2,2.9l0.7,0.9c0,0,0.1,0.2,0.1,0.3c0,0.1-0.1,0.2-0.2,0.2
			l-1.7,0.8l-0.4,1.9l1.6,1.7c0,0,0.1,0.1,0.1,0.2l0,1.2l1.6,2.3c0.1,0.1,0.1,0.3,0,0.4l-0.6,0.8l0.5,1.1l3.2,1.2
			c0.1,0,0.2,0.2,0.2,0.3c0,0.1-0.1,0.3-0.3,0.3l-3,0.5c0.1,0.6,0.3,1.7,0.4,2.5c0.1,0.5-0.2,1.3-0.8,2.3c-0.2,0.4-0.5,0.7-0.6,0.9
			l2.3,0.6c0,0,0.1,0.1,0.2,0.1l1.5,2.5c0,0,0,0.1,0,0.2l-0.1,1.5l0.7,1.2l1.8,1.1c0.1,0,0.1,0.2,0.2,0.3l0,1.1l1.2,2.9
			c0.7,0,1.2,0.1,1.5,0.5c0.7,0.8,0.4,2.2,0.3,2.8l0.6,0.3c0.1,0.1,0.2,0.2,0.2,0.4l-0.5,2.4l0.7,1.4c0,0.1,0,0.2,0,0.3l-1.8,3.2
			c-0.1,0.1-0.2,0.2-0.3,0.2l-2.3,0l-1.7,3c0,0-0.1,0.1-0.2,0.2l-1.7,0.4l0.9,1.4l0.8-0.2c0.1,0,0.2,0,0.3,0.1
			c0.1,0.1,0.1,0.2,0.1,0.3c-0.1,1-0.7,1.6-1.1,2l0.3,0.3c0.1,0.1,0.1,0.3,0,0.5l-1.1,1.1l-0.3,1.4c0,0.1-0.1,0.2-0.2,0.2
			c-0.1,0-0.2,0-0.3,0l-0.8-0.3l-2.6,1c-0.1,0-0.3,0-0.4-0.1l-0.5-0.5c-0.6,0.4-1.6,0.6-2.9,0.8c-0.8,0.1-1.6,0.1-2,0.1
			c-0.2,0.6-0.6,1.1-1.1,1.3c-1.2,0.5-2.7-0.4-2.8-0.4c-0.1,0-0.2-0.2-0.2-0.3l0-0.7c-0.2,0.1-0.4,0.2-0.6,0.3
			c-0.3,0.1-0.5,0.3-0.7,0.4c-0.1,0-0.2,0.1-0.2,0.1l-0.1,0c-0.2,0.1-0.4,0-0.4,0c0,0-0.1-0.1-0.1-0.1c0-0.1-0.2-0.3-0.3-0.6
			l-1.1,0.5c-0.2,0.1-0.3,0-0.4-0.1l-0.4-0.7l-1.4,0.1l-1.9,1.4c-0.1,0.1-0.2,0.1-0.3,0l-0.3-0.1l-0.1,0.8c0,0,0,0,0,0.1v0l-2.5,6.7
			c0,0-0.1,0.1-0.1,0.1c0,0-0.2,0.1-0.5,0.3c-0.6,0.4-1.3,0.7-1.9,1c-0.5,0.2-1.1,0.5-1.8,0.7c-1.2,0.4-2.2,0.5-3.2,0.5c0,0,0,0,0,0
			c-0.2,0-0.4,0-0.6,0c-1.4-0.1-2.7-0.7-3.7-1.7l-1-0.3l-0.3,1.2c0,0.1-0.1,0.2-0.2,0.2c-0.1,0-0.2,0-0.3,0l-1-0.4l-0.8,2.1
			c0,0,0,0.1-0.1,0.1l-1.1,1.1c-0.1,0.6,0.1,1.2,0.6,1.8c0.4,0.5,0.9,0.7,0.9,0.7c0.1,0.1,0.2,0.2,0.2,0.3l-0.2,1
			c0,0.1-0.1,0.3-0.3,0.3c-1.9,0.1-2.2,0.7-2.3,0.7c0,0.1-0.1,0.1-0.1,0.2c0,0-0.1,0-0.1,0L865.2,169.4z M863.5,168.3l1.5,0.4
			c0.1-0.1,0.2-0.2,0.4-0.3c0.5-0.3,1.2-0.5,2.1-0.6l0.1-0.6c-0.2-0.1-0.6-0.4-0.9-0.7c-0.7-0.7-0.9-1.6-0.7-2.5
			c0-0.1,0-0.1,0.1-0.2l1.1-1.1l0.9-2.4c0-0.1,0.1-0.1,0.2-0.2c0.1,0,0.2,0,0.3,0l1,0.4l0.3-1.2c0-0.1,0.1-0.2,0.2-0.2
			c0.1,0,0.2-0.1,0.3,0l0.5,0.1c-1.4-1.9-3-3.4-3.4-3.8c-0.1,0-0.3,0.1-0.5,0.1c-0.6,0.1-1,0-1.2-0.2c-0.1-0.1-0.3-0.4-0.2-0.8
			c0.2-0.7-1.2-1.8-1.9-2.2c-0.1,0-0.1-0.1-0.1-0.2c-0.8-2.1-1.4-2.5-1.6-2.6c-0.1,0-0.2,0-0.2,0c-0.1,0.1-0.1,0.1-0.2,0.1l-1.2,0
			c0,0-0.1,0-0.2,0c0,0-1.8-1-3.7-2.3c-2.6-1.8-4-3.3-4.4-4.6c-0.7-2.7-3.1-7.5-3.1-7.5c0,0,0-0.1,0-0.1c-0.1-0.8-0.3-2.2-0.3-2.5
			c-0.3-0.6-1.9-3.7-2.9-6.8c-0.5-1.5-0.1-3,1-4.5c0.8-1.1,1.8-1.8,1.8-1.8c0.1,0,0.2-0.1,0.3,0c0.1,0,0.2,0.1,0.2,0.1l2,3.2
			l1.1,0.4c0.1,0,0.2,0.1,0.2,0.3l0.2,1l0.5,0.3c0,0,0.1,0.1,0.1,0.2l1.3,6.4c2.2,6.8,4.8,9.7,6.6,10.9c1.9,1.3,3.4,1.1,3.4,1.1
			c0.1,0,0.1,0,0.2,0l1.7,0.7c0,0,0,0,0,0l3.9,2.8c0,0,0.1,0,0.1,0.1c0.3,0.4,0.9,1.1,1.2,1.1c0.7,0.1,1.6,0.9,1.7,1
			c0,0,0,0.1,0.1,0.1c0.2,0.4,0.8,1.2,1.2,1.2c0.9-0.1,1.7,0.9,1.9,1.2c1,0.4,2.6,0.9,3,0.6c0.1-0.1,0.6-0.3,2.6-0.3
			c1,0,1.8,0,1.8,0c0,0,0,0,0.1,0l0.9,0.3l0.4,0l0.1-1c0-0.1,0.1-0.2,0.1-0.3c0.1,0,0.2-0.1,0.3,0l0.6,0.2l1.9-1.3
			c0,0,0.1,0,0.2-0.1l1.7-0.1c0.1,0,0.2,0.1,0.3,0.2l0.3,0.6l1.1-0.5c0.2-0.1,0.3,0,0.4,0.2c0,0,0.1,0.2,0.2,0.5l0.1,0.2
			c0.4-0.2,1.2-0.7,1.7-1c0.1-0.1,0.2-0.1,0.3,0c0.1,0,0.2,0.2,0.2,0.3l0,1c0.4,0.2,1.3,0.6,2,0.3c0.4-0.2,0.6-0.5,0.7-1.1
			c0-0.2,0.2-0.3,0.3-0.3c1.1,0,4.2,0,5-0.8c0.1-0.1,0.1-0.1,0.2-0.1c0.1,0,0.2,0,0.2,0.1l0.5,0.6l2.5-1c0,0,0.1,0,0.2,0l0.6,0.2
			l0.3-1.1c0,0,0-0.1,0.1-0.2l1-1l-0.3-0.3c0,0-0.1-0.2-0.1-0.3c0-0.1,0.1-0.2,0.1-0.2c0,0,0.7-0.5,1-1.2l-0.5,0.1
			c-0.1,0-0.3,0-0.4-0.1l-1.3-2c-0.1-0.1-0.1-0.2,0-0.3c0-0.1,0.1-0.2,0.2-0.2l2-0.5l1.8-3.1c0.1-0.1,0.2-0.2,0.3-0.2l2.3,0l1.6-2.8
			l-0.7-1.4c0,0,0-0.1,0-0.2l0.5-2.3l-0.6-0.3c-0.1-0.1-0.2-0.2-0.1-0.4c0.1-0.5,0.4-1.9-0.1-2.5c-0.2-0.3-0.6-0.4-1.2-0.3
			c-0.1,0-0.3-0.1-0.4-0.2l-1.3-3.2c0,0,0-0.1,0-0.1l0-1l-1.7-1c0,0-0.1-0.1-0.1-0.1l-0.8-1.4c0,0,0-0.1,0-0.2l0.1-1.5l-1.4-2.3
			l-2.7-0.7c-0.1,0-0.2-0.1-0.2-0.2c0-0.1,0-0.2,0-0.3c0.7-0.9,1.7-2.5,1.6-3.2c-0.1-1-0.5-2.8-0.5-2.8c0-0.1,0-0.2,0-0.2
			c0-0.1,0.1-0.1,0.2-0.1l2.1-0.4l-2.2-0.8c0,0-0.1-0.1-0.2-0.2l-0.6-1.4c0-0.1,0-0.2,0-0.3l0.5-0.8l-1.6-2.2c0,0-0.1-0.1-0.1-0.2
			l0-1.2l-1.6-1.7c0,0-0.1-0.2-0.1-0.3l0.5-2.2c0-0.1,0.1-0.2,0.2-0.2l1.5-0.7l-0.5-0.7c0,0-0.1-0.1-0.1-0.2l0.2-3.2
			c0-0.1,0.1-0.2,0.2-0.3l0.7-0.4l0.1-3.8c-0.7-0.5-1.7-1.1-2.1-1c-0.1,0-0.2,0-0.2,0c0,0-3.5-1.5-5.6-1.4c-0.1,0-0.3-0.1-0.3-0.2
			c0,0-0.8-2.5-1.6-3.3c-0.1-0.1-0.1-0.1-0.1-0.2l0-2.2c0-0.2,0.1-0.3,0.3-0.3l1.7-0.1l1.1-0.6l-1-0.9c0,0,0,0,0,0l-1.5-1.9
			l-0.9,0.7c0,0-0.1,0-0.1,0.1l-2,0.2c-0.2,0-0.3-0.1-0.4-0.3l-0.4-1.7l-0.8-1.6l-4.8-2.4l-2.6,0.1c-0.1,0-0.2,0-0.3-0.1
			c-0.1-0.1-0.1-0.2-0.1-0.3l0.1-1.6l-1.4-1.3c-0.1-0.1-0.1-0.2-0.1-0.4l0.7-1.5c0.1-0.1,0.2-0.2,0.4-0.2l0.4,0.1l0-1.8
			c0-0.1,0.1-0.2,0.2-0.3c0.1,0,0.3,0,0.4,0l1.3,1.2l0.6-0.4c0.1-0.1,0.2-0.1,0.4,0l4.3,2.7c0.1,0.1,0.2,0.2,0.1,0.4l-0.3,1.2
			l1.5,0.6l-0.2-0.8c0,0,0-0.1,0-0.2l0.6-1.9c0-0.1,0.1-0.2,0.2-0.2l1.3-0.5l-0.4-0.5c-0.1-0.1-0.1-0.2,0-0.3l0.5-1.3
			c0-0.1,0.1-0.1,0.2-0.2l1.3-0.5c0.2-0.4,0.7-1.8,0.6-3.4l-2.9-1.3c-0.1-0.1-0.2-0.2-0.2-0.3l0.2-2.6l-2.1-0.1l-0.3,1.9
			c0,0.1-0.1,0.2-0.1,0.2l-2.1,1.3c0,0-0.2,0.1-0.2,0l-0.8-0.2l-1.3,1.3c0,0-0.1,0.1-0.2,0.1l-1.8,0.5c-0.1,0-0.2,0-0.3-0.1
			l-0.6-0.7l-3.2,0.2c-0.1,0-0.2,0-0.2-0.1l-1.1-1l-0.7,0.5c-0.1,0.1-0.3,0.1-0.4,0c0,0-1.2-0.8-2.3-2c-0.6-0.7-1.1-1.4-1.4-2.1
			c-0.3-0.8-0.4-1.6-0.3-2.4c-0.4-0.2-1.1-0.8-1.3-1.6c-0.1-0.5,0-1,0.3-1.6l-3.4-2.5c-0.9,0-2.4,0.2-2.7,0.8c-0.1,0.2,0,0.6,0.3,1
			c0,0.1,0.1,0.1,0.1,0.2c0,0.1,0,1.3-0.8,1.7c-0.4,0.2-0.9,0.2-1.5-0.1l-1.2,1l0.7,2h0.4c0.1,0,0.2,0,0.3,0.1l1.6,2.1
			c0,0,0,0,0,0.1c0,0.1,0.7,1.5-0.1,2.6c-0.5,0.7-1.6,1.1-3.1,0.9c-0.2,0-0.3-0.2-0.3-0.3l0-1c0-0.2,0.1-0.3,0.3-0.3
			c0,0,0.2,0,0.2-0.1c0,0,0.1-0.3-0.4-1.1c-0.3-0.4-0.5-0.4-0.6-0.4c-0.6,0-1.5,1.1-1.8,1.6c0.1,0.5,0.3,2.1,0.1,3.7
			c-0.1,0.5,0.3,1,0.7,1.5c0.4,0.5,0.8,1.1,0.7,1.7c-0.1,0.5-0.6,1-1.5,1.5l-0.4,2c0,0.1-0.1,0.3-0.3,0.3c0,0-1.2,0.1-1.9,1.1
			c-0.5,0.7-0.6,1.7-0.2,3c0,0.2,0,0.3-0.2,0.4l-1.2,0.4c-0.2,0.8-1,3.6-2.7,4.8c-0.1,0-0.2,0.1-0.2,0c-0.1,0-0.2-0.1-0.2-0.1
			c0-0.1-1.2-1.9-1.1-3.1c0-0.3,0-0.4-0.1-0.6c-0.1-0.1-0.3-0.1-0.4-0.1c-0.1,0-0.2,0-0.3-0.1c-0.1-0.1-0.1-0.2,0-0.3l0.4-0.8
			l-1.2-0.3c-0.2,0-0.3-0.2-0.3-0.4l0.3-1.6c0,0,0,0,0-0.1c0,0,0.2-0.6,0.7-1.1c0.6-0.7,1.3-1,2-1l0.3-0.9c0-0.1,0.1-0.2,0.2-0.2
			l1.5-0.6l0.4-1.7c0-0.1,0.1-0.2,0.2-0.2l0.9-0.5c-0.7-0.4-1.8-1.2-2-2.5l-2.5-0.6c-0.1,0-0.2-0.1-0.2-0.3l-0.2-1.1
			c-0.2,0-0.5-0.1-0.8-0.1c-0.6-0.1-1.1-0.3-1.3-0.6l-0.9,0.1l-0.6,1.8c0,0.1-0.1,0.2-0.3,0.2l-0.5,0.1l0.1,1.1
			c0,0.2-0.1,0.3-0.2,0.4c-0.1,0-1.5,0.4-3,0.4c-0.5,0-0.9,0-1.4-0.1l-0.6,1c-0.1,0.1-0.2,0.2-0.3,0.2l-0.7,0l0.1,0.6
			c0,0.1,0,0.3-0.1,0.3c0,0-0.9,0.7-2.1,0.7c0,0.4,0.1,0.9,0.5,1.4c0,0.1,0.1,0.2,0,0.3l-0.2,1l0.6,0c0.1,0,0.3,0.1,0.3,0.3l0.1,0.7
			c0.7-0.1,2.1-0.2,2.6-0.5c0.1-0.1,0.3,0,0.4,0.1l1,1.3c0.1,0.1,0.1,0.3,0,0.4l-0.9,1c0,0-0.2,0.1-0.3,0.1l-1.5-0.1l-1.7,1
			c0,0-0.2,0.1-0.3,0l-1.4-0.4l-3.3,1.3c0,0-0.2,0-0.2,0l-1-0.4l-1.1,0.5l-0.7,2.5l0.2,1.5c0,0.1,0,0.2-0.1,0.3
			c-0.1,0.1-0.2,0.1-0.3,0.1l-0.6-0.1l-0.6,0.8v0.6c0,0.1,0,0.2-0.2,0.3c-0.1,0-0.3,0-0.4,0l-0.1-0.1l0.1,1c0,0.1,0,0.2-0.1,0.3
			c-0.1,0.1-0.2,0.1-0.3,0.1c-0.2-0.1-0.9-0.2-1.2,0.1c-0.2,0.2-0.1,0.7,0,1c0,0.1,0,0.3-0.1,0.4c-0.1,0.1-0.2,0.1-0.4,0l-0.9-0.5
			l-1.2,3c-0.1,0.2-0.3,0.2-0.4,0.2c-0.4-0.2-1.6-0.5-2.2-0.1c-0.3,0.2-0.4,0.5-0.4,0.9c0,0.1,0,0.1,0,0.2l-0.4,0.6l0.8,0.4
			c0.1,0,0.2,0.2,0.2,0.3c0,0.1-0.1,0.2-0.2,0.3l-0.5,0.3c0.2,0.3,0.4,0.7,0.3,1.3l-0.1,1.9l1.4,0.2c0.2,0,0.3,0.2,0.3,0.3
			c0,0.4-0.1,1.7,0.1,2.2c0,0.1,0,0.2,0,0.3c0,0.1-0.1,0.1-0.2,0.1l-0.9,0.1l0,0.7c0.3,0.6,0.7,1.3,0.8,1.6c0.1,0,0.2,0,0.4,0
			c0.3,0,0.5,0,0.5,0c0.1,0,0.2,0.1,0.3,0.2l0.8,1.7c0.1,0.1,0,0.3-0.1,0.4l-0.8,0.6c0,0.5,0,1.2,0.1,1.5c0.4,0.7,0.3,1.3,0.3,1.3
			c0,0.1-0.1,0.2-0.1,0.2c-0.1,0-0.2,0.1-0.3,0c0,0-0.6-0.2-1,0c0.3,0.3,0.8,0.7,1.1,0.7c0.2,0,0.4,0,0.5,0.2c0.5,0.4,0.5,1.7,0.5,2
			c0,0.1,0,0.1-0.1,0.2l-0.7,0.9c-0.1,0.1-0.3,0.2-0.4,0.1l-0.2-0.1v0.3c0,0,0,0.1,0,0.2l-0.5,0.8l0.4,0.8c0.1,0.1,0,0.3-0.1,0.4
			L824,110c0,0-0.2,0.1-0.3,0.1c-0.4-0.1-1.5-0.3-2.1,0c0.2,0,0.4,0.1,0.9,0.2c0.6,0,1,0,1.1,0c0.1,0,0.3,0,0.4,0
			c0.2,0.1,0.4,0.5,0.4,0.8c0.4,0,1.2,0.1,1.5,0.6c0.3,0.4,0.3,0.8,0.1,1.4c-0.6,1.6,0.4,3,0.4,3c0,0.1,0.1,0.2,0.1,0.2l-0.1,0.9
			l1.1,0c0.2,0,0.3,0.1,0.3,0.3c0,0,0,0.4,0,0.7c-0.1,0.4-0.3,0.7-0.6,0.9l0.4,1.8c0,0,0,0.2,0,0.2l-0.9,1.6l0.8,0.7
			c0,0,0.1,0.1,0.1,0.2v0.9c0.3,0.1,0.7,0.2,0.9,0.6c0.1,0.2,0.1,0.5-0.2,1c-0.5,0.6-0.6,1.2-0.5,1.4c0,0,0.3,0.3,1.5-0.1
			c0.1,0,0.2,0,0.3,0c0,0,0.9,0.5,1.6,0.2c0.3-0.1,0.6-0.4,0.7-0.8c0-0.1,0.1-0.1,0.1-0.1l1.4-0.9c0.1-0.1,0.3-0.1,0.4,0
			c0.1,0.1,0.1,0.3,0.1,0.4c-0.2,0.3-1.6,3.3-2.4,4c-0.7,0.8-1.7,2.2-1.7,2.8c0,0.1,0,0.2-0.1,0.3l-1.6,1.2c0,0,0,0-0.1,0l-3.5,1.4
			c-0.1,0-0.2,0-0.3,0l-0.5-0.3l0.3,2.6l1.1,1.4c0.1,0.1,0.1,0.2,0,0.3l-0.5,1.4l0.6,0.6c0.1,0.1,0.1,0.2,0.1,0.4l-0.5,1.5l1.7,2.7
			c0,0,0,0.1,0,0.1l0.6,4.2l2.7-0.2c0.1,0,0.2,0,0.3,0.1l0.8,1l1,0.3c0,0,0.1,0.1,0.2,0.1l0.9,1.3l1.3,0c0.1,0,0.2,0,0.2,0.1
			c0.1,0.1,0.1,0.2,0.1,0.3l-0.1,0.8l1.5,0.1l1.5-0.7c0,0,0.1,0,0.2,0l1.4,0.2l1.4-1.4c0,0,0.2-0.1,0.3-0.1l2.6,0.4l0.3-0.6
			c0-0.1,0.2-0.2,0.3-0.2l1.1-0.1c0,0,0,0,0.1,0c0.1,0,2.2,0.3,3.7,1.2c1.4,0.7,2.7,0.4,2.7,0.4c0.1,0,0.2,0,0.3,0
			c0.1,0.1,0.1,0.2,0.1,0.3l0,1.1c0.4,0,1.1,0.2,1.9,0.9c0,0,0.1,0.1,0.1,0.2l0.1,1.1l0.6-0.5c0,0,0.2-0.1,0.3-0.1
			c0.1,0,0.2,0.1,0.2,0.1l1.8,2.7c0,0,0,0.1,0.1,0.2l0.1,1.7l1.3,1.9c0.1,0.1,0.1,0.3,0,0.4l-0.5,0.6l2.1,0.8c0.1,0,0.1,0.1,0.2,0.2
			l0.2,0.4c0.6-0.4,1.9-1,2.7-0.2c0,0.1,0.1,0.1,0.1,0.2l0.1,2.1L863.5,168.3z M871.7,159.7c1,1,2.3,1.6,3.8,1.6h0
			c1.6-0.1,3.2-0.5,4.7-1.1c1-0.4,1.7-0.9,2.1-1.1c0.1,0,0.1-0.1,0.2-0.1l2.3-6.1l-0.2,0c0,0-0.1,0-0.1,0l-0.9-0.3
			c-1.3-0.1-3.5-0.1-4,0.2c-0.4,0.2-1.2,0.2-2.3-0.1c-0.8-0.2-1.4-0.5-1.4-0.5c-0.1,0-0.1-0.1-0.1-0.1c-0.2-0.3-0.8-1-1.3-1
			c0,0-0.1,0-0.1,0c-0.9,0-1.6-1.2-1.7-1.5c-0.3-0.3-0.9-0.7-1.3-0.8c-0.7-0.1-1.4-1-1.6-1.3l-3.9-2.7l-1.6-0.7
			c-0.4,0-1.8,0.1-3.7-1.1c-1.2-0.8-2.4-2.1-3.5-3.7c-1.3-2-2.5-4.6-3.5-7.7v0l-1.3-6.3l-0.5-0.4c0,0-0.1-0.1-0.1-0.2l-0.2-1
			l-1.1-0.3c0,0-0.1-0.1-0.2-0.1l-1.9-3c-0.3,0.3-0.9,0.8-1.4,1.5c-1,1.3-1.3,2.7-0.9,3.9c1,3.1,2.7,6.4,2.9,6.7
			c0.1,0.1,0.1,0.2,0.2,1.4c0.1,0.5,0.1,1,0.1,1.2c0.3,0.6,2.5,4.9,3.2,7.6c0.3,1.1,1.7,2.5,4.1,4.2c1.6,1.1,3.2,2,3.6,2.2l1,0
			c0.1-0.1,0.4-0.2,0.6-0.1c0.7,0.2,1.4,1.1,2.1,2.9c0.2,0.1,0.6,0.4,1.1,0.8c0.8,0.8,1.2,1.4,1,2c0,0.1,0,0.2,0,0.2
			c0.1,0.1,0.7,0.1,1.3-0.1c0.1,0,0.2,0,0.3,0.1C867.5,155,869.9,157,871.7,159.7L871.7,159.7z M848.3,132.8
			C848.3,132.8,848.3,132.8,848.3,132.8C848.3,132.9,848.3,132.8,848.3,132.8z M870.3,134.2c-0.1,0-0.2-0.1-0.3-0.2l-1.4-2.8v0
			l-1.1-3.2l-1.8-1c-0.1,0-0.2-0.1-0.2-0.2l-0.2-1.6c-0.9-0.6-1.4-1.4-1.5-2.3c-0.3-1.9,1.3-3.8,1.4-3.9c0.1-0.1,0.2-0.1,0.3-0.1
			c2,0.1,2.9,0.9,3.4,1.5c0.4,0.5,0.5,1,0.6,1.2l0.1,0.1c0.8,0.5,1.5,1,1.8,2.2l0.4,1.8l0.5,1.9l2.5,1.9c0,0,0.1,0.1,0.1,0.2
			c0.1,0.4,0.1,0.8-0.2,1.2c-0.4,0.7-1.3,1-1.7,1.1l-0.2,1.1c0,0.1-0.1,0.2-0.2,0.2l-2.2,1C870.4,134.1,870.3,134.2,870.3,134.2
			L870.3,134.2z M869.2,130.9l1.2,2.5l1.8-0.8l0.2-1.1c0-0.1,0.1-0.2,0.3-0.3c0.3-0.1,1.2-0.3,1.5-0.9c0.1-0.2,0.1-0.4,0.1-0.6
			l-2.5-1.9c0,0-0.1-0.1-0.1-0.2l-0.5-2l-0.4-1.8c-0.3-1-0.8-1.4-1.6-1.9c-0.1,0-0.1-0.1-0.2-0.1c-0.1,0-0.1-0.1-0.1-0.3
			c0-0.1-0.2-2-3.2-2.3c-0.3,0.4-1.3,1.8-1.1,3.2c0.1,0.8,0.6,1.4,1.3,2c0.1,0,0.1,0.1,0.1,0.2l0.2,1.6l1.8,1c0,0,0.1,0.1,0.2,0.2
			L869.2,130.9L869.2,130.9z M886.1,129.9C886.1,129.9,886,129.9,886.1,129.9l-3.3-0.7c-0.1,0-0.2-0.1-0.3-0.3
			c0-0.2-0.3-1.7-0.3-2.1c0-0.2-0.4-1.3-0.8-2.1c0-0.1,0-0.2,0-0.3c0.1-0.1,0.2-0.4,1.9-1.3c0.8-0.4,1.6-0.8,1.6-0.8
			c0.1,0,0.2,0,0.3,0c0.1,0,0.1,0.1,0.2,0.2l2.4,5.1c0.1,0.1,0,0.3-0.1,0.4l-0.9,0.9l-0.6,1C886.3,129.9,886.2,129.9,886.1,129.9
			L886.1,129.9z M883.2,128.6l2.7,0.6l0.5-0.8c0,0,0,0,0-0.1l0.7-0.7l-2.1-4.6c-1.2,0.6-2.5,1.3-2.9,1.6c0.3,0.7,0.7,1.8,0.7,2.2
			C883,127,883.1,127.9,883.2,128.6L883.2,128.6z"/>
	</g>
</g>
<path class="st2" d="M510.8,733.2v-18.3h5.9v18.3c0,1.8-0.4,3.3-1.2,4.6c-0.8,1.3-1.9,2.3-3.2,3c-1.3,0.7-2.9,1-4.6,1
	c-1.7,0-3.3-0.3-4.7-0.9c-1.4-0.6-2.4-1.5-3.2-2.7c-0.8-1.2-1.1-2.8-1.1-4.7h5.9c0,0.9,0.1,1.7,0.3,2.2c0.2,0.5,0.6,0.9,1.1,1.1
	c0.5,0.2,1,0.3,1.7,0.3c0.6,0,1.2-0.2,1.6-0.5c0.5-0.3,0.8-0.8,1.1-1.4C510.7,734.8,510.8,734,510.8,733.2z M531.7,720l-6.8,21.5
	h-6.3l9.8-26.5h4L531.7,720z M537.4,741.4l-6.9-21.5l-0.7-5h4.1l9.8,26.5H537.4z M537.1,731.5v4.6h-13.8v-4.6H537.1z M570.8,737v4.4
	h-15.1V737H570.8z M570.6,724.9l-12.4,16.5h-3.9v-3.3l12.4-16.4h3.9V724.9z M568.6,721.7v4.4h-14v-4.4H568.6z M585.5,736.7v-14.9
	h5.7v19.7h-5.3L585.5,736.7z M586.1,732.6l1.6,0c0,1.3-0.2,2.5-0.5,3.7c-0.3,1.1-0.8,2.1-1.4,2.9c-0.6,0.8-1.4,1.5-2.3,1.9
	c-0.9,0.4-1.9,0.7-3.1,0.7c-1,0-1.9-0.1-2.7-0.4c-0.8-0.3-1.5-0.7-2.1-1.3c-0.6-0.6-1-1.4-1.3-2.3c-0.3-0.9-0.5-2-0.5-3.3v-12.7h5.7
	v12.8c0,0.5,0.1,0.9,0.2,1.3c0.1,0.4,0.3,0.6,0.5,0.9c0.2,0.2,0.5,0.4,0.8,0.5c0.3,0.1,0.7,0.2,1.1,0.2c1,0,1.8-0.2,2.4-0.6
	c0.6-0.4,1-1,1.2-1.7C586,734.3,586.1,733.5,586.1,732.6z M600.7,726.3v15.1H595v-19.7h5.3L600.7,726.3z M606.5,721.6l-0.1,5.3
	c-0.2,0-0.6-0.1-0.9-0.1c-0.4,0-0.7-0.1-1-0.1c-0.7,0-1.4,0.1-1.9,0.3c-0.5,0.2-1,0.4-1.3,0.8c-0.3,0.3-0.6,0.8-0.8,1.3
	c-0.2,0.5-0.3,1.1-0.3,1.7l-1.1-0.5c0-1.3,0.1-2.5,0.4-3.6c0.3-1.1,0.6-2,1.1-2.8c0.5-0.8,1.1-1.4,1.8-1.9c0.7-0.4,1.5-0.7,2.4-0.7
	c0.3,0,0.6,0,0.9,0.1C606.1,721.4,606.3,721.5,606.5,721.6z M623.9,713.4v28h-5.7v-28H623.9z M636.4,721.7l-8.6,9.9l-4.5,4.5
	l-2.3-3.8l3.7-4.8l4.9-5.9H636.4z M630.3,741.4l-5.5-9l4.1-3.2l8,12.2H630.3z M648.7,736.7v-8.4c0-0.6-0.1-1.1-0.3-1.5
	c-0.2-0.4-0.5-0.8-0.9-1c-0.4-0.2-0.9-0.4-1.5-0.4c-0.5,0-1,0.1-1.4,0.3c-0.4,0.2-0.7,0.4-0.9,0.8c-0.2,0.3-0.3,0.8-0.3,1.3h-5.7
	c0-0.9,0.2-1.7,0.6-2.5c0.4-0.8,1-1.4,1.7-2c0.8-0.6,1.7-1,2.7-1.3c1-0.3,2.2-0.5,3.5-0.5c1.5,0,2.9,0.3,4.1,0.8
	c1.2,0.5,2.2,1.3,2.9,2.3c0.7,1,1.1,2.3,1.1,3.9v8.2c0,1.2,0.1,2.1,0.2,2.8c0.1,0.7,0.4,1.2,0.6,1.7v0.3h-5.7
	c-0.3-0.6-0.5-1.3-0.6-2.1C648.8,738.4,648.7,737.6,648.7,736.7z M649.4,729.4l0,3.1h-2.8c-0.6,0-1.2,0.1-1.6,0.2
	c-0.4,0.2-0.8,0.4-1.1,0.7c-0.3,0.3-0.5,0.6-0.6,0.9c-0.1,0.4-0.2,0.7-0.2,1.2c0,0.4,0.1,0.8,0.3,1.1c0.2,0.3,0.5,0.6,0.8,0.7
	c0.3,0.2,0.7,0.3,1.2,0.3c0.7,0,1.4-0.1,1.9-0.4c0.5-0.3,0.9-0.6,1.2-1.1c0.3-0.4,0.4-0.8,0.4-1.2l1.4,2.4c-0.2,0.5-0.5,1-0.8,1.5
	c-0.3,0.5-0.7,1-1.2,1.4c-0.5,0.4-1.1,0.8-1.8,1.1c-0.7,0.3-1.5,0.4-2.5,0.4c-1.2,0-2.4-0.2-3.4-0.7c-1-0.5-1.8-1.2-2.4-2.1
	c-0.6-0.9-0.9-1.9-0.9-3.1c0-1,0.2-1.9,0.6-2.7c0.4-0.8,0.9-1.5,1.7-2c0.8-0.6,1.7-1,2.9-1.3c1.2-0.3,2.5-0.4,4-0.4H649.4z
	 M663.7,725.9v15.5H658v-19.7h5.4L663.7,725.9z M663,730.9l-1.4,0c0-1.5,0.2-2.8,0.5-4c0.4-1.2,0.9-2.2,1.5-3
	c0.7-0.8,1.5-1.5,2.4-1.9c0.9-0.4,2-0.7,3.1-0.7c0.9,0,1.8,0.1,2.5,0.4c0.8,0.3,1.4,0.7,2,1.3c0.6,0.6,1,1.4,1.3,2.3
	c0.3,1,0.4,2.1,0.4,3.5v12.5h-5.7v-12.5c0-0.8-0.1-1.5-0.3-1.9c-0.2-0.4-0.6-0.8-1-0.9c-0.4-0.2-1-0.3-1.6-0.3
	c-0.7,0-1.2,0.1-1.7,0.4c-0.5,0.3-0.9,0.6-1.2,1.1c-0.3,0.5-0.5,1-0.7,1.6C663.1,729.5,663,730.2,663,730.9z M689.1,721.7v4h-11.7
	v-4H689.1z M680.1,716.8h5.7v18.4c0,0.5,0.1,1,0.2,1.3c0.1,0.3,0.4,0.5,0.7,0.6c0.3,0.1,0.7,0.2,1.2,0.2c0.3,0,0.6,0,0.9,0
	c0.2,0,0.5-0.1,0.7-0.1v4.1c-0.5,0.2-1,0.3-1.5,0.4c-0.5,0.1-1.1,0.1-1.8,0.1c-1.2,0-2.3-0.2-3.2-0.6c-0.9-0.4-1.6-1-2-1.9
	c-0.5-0.9-0.7-2-0.7-3.4V716.8z M690.5,731.8v-0.4c0-1.4,0.2-2.8,0.6-4c0.4-1.2,1-2.3,1.8-3.2c0.8-0.9,1.8-1.6,2.9-2.1
	c1.2-0.5,2.5-0.8,4-0.8c1.5,0,2.9,0.3,4,0.8c1.2,0.5,2.2,1.2,3,2.1c0.8,0.9,1.4,2,1.8,3.2c0.4,1.2,0.6,2.5,0.6,4v0.4
	c0,1.4-0.2,2.8-0.6,4c-0.4,1.2-1,2.3-1.8,3.2c-0.8,0.9-1.8,1.6-2.9,2.1c-1.2,0.5-2.5,0.7-4,0.7c-1.5,0-2.8-0.2-4-0.7s-2.2-1.2-3-2.1
	c-0.8-0.9-1.4-2-1.8-3.2C690.8,734.5,690.5,733.2,690.5,731.8z M696.2,731.4v0.4c0,0.8,0.1,1.5,0.2,2.2c0.1,0.7,0.3,1.3,0.6,1.8
	c0.3,0.5,0.7,0.9,1.1,1.2c0.5,0.3,1.1,0.4,1.8,0.4c0.7,0,1.3-0.1,1.7-0.4c0.5-0.3,0.9-0.7,1.1-1.2c0.3-0.5,0.5-1.1,0.6-1.8
	c0.1-0.7,0.2-1.4,0.2-2.2v-0.4c0-0.8-0.1-1.5-0.2-2.1c-0.1-0.7-0.3-1.3-0.6-1.8c-0.3-0.5-0.7-0.9-1.2-1.2c-0.5-0.3-1.1-0.4-1.8-0.4
	c-0.7,0-1.3,0.1-1.7,0.4c-0.5,0.3-0.9,0.7-1.1,1.2c-0.3,0.5-0.5,1.1-0.6,1.8C696.3,729.9,696.2,730.6,696.2,731.4z M717.9,725.9
	v15.5h-5.7v-19.7h5.3L717.9,725.9z M717.2,730.9l-1.4,0c0-1.5,0.2-2.8,0.5-4s0.9-2.2,1.5-3c0.7-0.8,1.5-1.5,2.4-1.9
	c0.9-0.4,2-0.7,3.1-0.7c0.9,0,1.8,0.1,2.5,0.4c0.8,0.3,1.4,0.7,2,1.3c0.6,0.6,1,1.4,1.3,2.3c0.3,1,0.4,2.1,0.4,3.5v12.5h-5.7v-12.5
	c0-0.8-0.1-1.5-0.3-1.9c-0.2-0.4-0.6-0.8-1-0.9c-0.4-0.2-1-0.3-1.6-0.3c-0.7,0-1.2,0.1-1.7,0.4c-0.5,0.3-0.9,0.6-1.2,1.1
	c-0.3,0.5-0.5,1-0.7,1.6C717.3,729.5,717.2,730.2,717.2,730.9z M743.8,736.7v-8.4c0-0.6-0.1-1.1-0.3-1.5c-0.2-0.4-0.5-0.8-0.9-1
	c-0.4-0.2-0.9-0.4-1.5-0.4c-0.5,0-1,0.1-1.4,0.3c-0.4,0.2-0.7,0.4-0.9,0.8c-0.2,0.3-0.3,0.8-0.3,1.3h-5.7c0-0.9,0.2-1.7,0.6-2.5
	c0.4-0.8,1-1.4,1.7-2c0.8-0.6,1.7-1,2.7-1.3c1-0.3,2.2-0.5,3.5-0.5c1.5,0,2.9,0.3,4.1,0.8c1.2,0.5,2.2,1.3,2.9,2.3
	c0.7,1,1.1,2.3,1.1,3.9v8.2c0,1.2,0.1,2.1,0.2,2.8c0.1,0.7,0.4,1.2,0.6,1.7v0.3h-5.7c-0.3-0.6-0.5-1.3-0.6-2.1
	C743.8,738.4,743.8,737.6,743.8,736.7z M744.5,729.4l0,3.1h-2.8c-0.6,0-1.2,0.1-1.6,0.2c-0.4,0.2-0.8,0.4-1.1,0.7
	c-0.3,0.3-0.5,0.6-0.6,0.9c-0.1,0.4-0.2,0.7-0.2,1.2c0,0.4,0.1,0.8,0.3,1.1c0.2,0.3,0.5,0.6,0.8,0.7c0.3,0.2,0.7,0.3,1.2,0.3
	c0.7,0,1.4-0.1,1.9-0.4c0.5-0.3,0.9-0.6,1.2-1.1c0.3-0.4,0.4-0.8,0.4-1.2l1.4,2.4c-0.2,0.5-0.5,1-0.8,1.5c-0.3,0.5-0.7,1-1.2,1.4
	c-0.5,0.4-1.1,0.8-1.8,1.1c-0.7,0.3-1.5,0.4-2.5,0.4c-1.2,0-2.4-0.2-3.4-0.7c-1-0.5-1.8-1.2-2.4-2.1c-0.6-0.9-0.9-1.9-0.9-3.1
	c0-1,0.2-1.9,0.6-2.7c0.4-0.8,0.9-1.5,1.7-2c0.8-0.6,1.7-1,2.9-1.3c1.2-0.3,2.5-0.4,4-0.4H744.5z M759.2,713.5v28h-5.7v-28H759.2z
	 M772.6,741.8c-1.6,0-3-0.2-4.2-0.7c-1.2-0.5-2.3-1.2-3.1-2.1c-0.8-0.9-1.5-1.9-1.9-3.1c-0.4-1.2-0.7-2.4-0.7-3.7v-0.7
	c0-1.5,0.2-2.8,0.6-4.1c0.4-1.2,1-2.3,1.8-3.2c0.8-0.9,1.8-1.6,2.9-2.1c1.2-0.5,2.5-0.8,4-0.8c1.4,0,2.6,0.2,3.7,0.7
	c1.1,0.4,2,1.1,2.8,1.9c0.8,0.8,1.3,1.9,1.7,3c0.4,1.2,0.6,2.5,0.6,4v2.3h-15.9v-3.7h10.3v-0.4c0-0.7-0.1-1.3-0.4-1.8
	c-0.2-0.5-0.6-0.9-1.1-1.2c-0.5-0.3-1.1-0.4-1.8-0.4c-0.7,0-1.3,0.1-1.7,0.4c-0.5,0.3-0.8,0.7-1.1,1.2c-0.3,0.5-0.5,1.1-0.6,1.8
	c-0.1,0.7-0.2,1.4-0.2,2.2v0.7c0,0.8,0.1,1.5,0.3,2.1c0.2,0.6,0.5,1.2,0.9,1.6c0.4,0.4,0.9,0.8,1.5,1.1s1.2,0.4,1.9,0.4
	c0.9,0,1.8-0.2,2.6-0.5c0.8-0.4,1.5-0.9,2.1-1.6l2.7,3c-0.4,0.6-1,1.1-1.7,1.7c-0.7,0.5-1.6,1-2.6,1.3
	C775,741.6,773.8,741.8,772.6,741.8z M789.1,725.9v15.5h-5.7v-19.7h5.3L789.1,725.9z M788.3,730.9l-1.4,0c0-1.5,0.2-2.8,0.5-4
	s0.9-2.2,1.5-3c0.7-0.8,1.5-1.5,2.4-1.9c0.9-0.4,2-0.7,3.1-0.7c0.9,0,1.8,0.1,2.5,0.4c0.8,0.3,1.4,0.7,2,1.3c0.6,0.6,1,1.4,1.3,2.3
	c0.3,1,0.4,2.1,0.4,3.5v12.5h-5.7v-12.5c0-0.8-0.1-1.5-0.3-1.9c-0.2-0.4-0.6-0.8-1-0.9c-0.4-0.2-1-0.3-1.6-0.3
	c-0.7,0-1.2,0.1-1.7,0.4c-0.5,0.3-0.9,0.6-1.2,1.1s-0.5,1-0.7,1.6C788.4,729.5,788.3,730.2,788.3,730.9z M825.1,720l-6.8,21.5h-6.3
	l9.8-26.5h4L825.1,720z M830.7,741.4l-6.9-21.5l-0.7-5h4.1l9.8,26.5H830.7z M830.4,731.5v4.6h-13.8v-4.6H830.4z M839,713.5h5.7v23.3
	l-0.6,4.7H839V713.5z M857,731.3v0.4c0,1.5-0.2,2.9-0.5,4.1c-0.3,1.2-0.8,2.3-1.4,3.2c-0.6,0.9-1.4,1.6-2.4,2.1
	c-1,0.5-2.1,0.7-3.4,0.7c-1.2,0-2.2-0.2-3.1-0.7c-0.9-0.5-1.6-1.2-2.2-2.1c-0.6-0.9-1.1-1.9-1.4-3.1c-0.4-1.2-0.6-2.5-0.8-3.9v-0.7
	c0.2-1.4,0.5-2.7,0.8-3.9c0.4-1.2,0.8-2.3,1.4-3.1c0.6-0.9,1.3-1.6,2.1-2.1c0.9-0.5,1.9-0.8,3.1-0.8c1.3,0,2.4,0.2,3.4,0.7
	c1,0.5,1.8,1.2,2.4,2.1c0.6,0.9,1.1,1.9,1.4,3.2C856.8,728.6,857,729.9,857,731.3z M851.3,731.7v-0.4c0-0.8-0.1-1.5-0.2-2.1
	c-0.1-0.7-0.3-1.3-0.5-1.8c-0.2-0.5-0.6-0.9-1-1.2c-0.4-0.3-1-0.5-1.7-0.5c-0.7,0-1.3,0.1-1.7,0.3c-0.5,0.2-0.9,0.6-1.1,1
	c-0.3,0.4-0.5,0.9-0.6,1.5c-0.1,0.6-0.2,1.3-0.2,2v1.9c0,1,0.1,1.8,0.4,2.5c0.2,0.7,0.6,1.3,1.2,1.7c0.5,0.4,1.3,0.6,2.2,0.6
	c0.7,0,1.3-0.1,1.7-0.4c0.4-0.3,0.8-0.7,1-1.2c0.2-0.5,0.4-1.1,0.5-1.8C851.2,733.3,851.3,732.6,851.3,731.7z M870.5,735.9
	c0-0.4-0.1-0.7-0.3-1c-0.2-0.3-0.6-0.5-1.2-0.8c-0.6-0.2-1.4-0.5-2.4-0.7c-1-0.2-1.9-0.5-2.7-0.8c-0.8-0.3-1.6-0.7-2.2-1.2
	c-0.6-0.5-1.1-1.1-1.5-1.7c-0.4-0.7-0.5-1.4-0.5-2.3c0-0.8,0.2-1.6,0.5-2.3c0.4-0.7,0.9-1.4,1.6-2c0.7-0.6,1.5-1,2.5-1.3
	c1-0.3,2.1-0.5,3.4-0.5c1.7,0,3.2,0.3,4.5,0.8c1.3,0.5,2.2,1.3,2.9,2.3c0.7,1,1,2.1,1,3.3h-5.7c0-0.5-0.1-1-0.3-1.3
	c-0.2-0.4-0.5-0.7-0.9-0.9c-0.4-0.2-0.9-0.3-1.6-0.3c-0.5,0-1,0.1-1.3,0.3c-0.4,0.2-0.7,0.4-0.9,0.7c-0.2,0.3-0.3,0.7-0.3,1.1
	c0,0.3,0.1,0.5,0.2,0.8c0.1,0.2,0.3,0.4,0.6,0.6c0.3,0.2,0.6,0.3,1.1,0.5c0.4,0.1,1,0.3,1.6,0.4c1.4,0.3,2.6,0.6,3.7,1.1
	c1.1,0.5,2.1,1.1,2.7,1.9c0.7,0.8,1,1.9,1,3.2c0,0.9-0.2,1.7-0.6,2.4c-0.4,0.7-1,1.4-1.7,1.9c-0.7,0.5-1.6,1-2.7,1.3
	c-1,0.3-2.2,0.5-3.5,0.5c-1.9,0-3.4-0.3-4.7-1c-1.3-0.7-2.3-1.5-2.9-2.5c-0.6-1-1-2.1-1-3.1h5.3c0,0.7,0.2,1.2,0.5,1.6
	c0.3,0.4,0.7,0.7,1.2,0.9c0.5,0.2,1.1,0.3,1.7,0.3c0.6,0,1.1-0.1,1.5-0.3c0.4-0.2,0.7-0.4,0.9-0.7
	C870.4,736.7,870.5,736.3,870.5,735.9z M889.1,721.7v4h-11.7v-4H889.1z M880.1,716.8h5.7v18.4c0,0.5,0.1,1,0.2,1.3
	c0.1,0.3,0.4,0.5,0.7,0.6c0.3,0.1,0.7,0.2,1.2,0.2c0.3,0,0.6,0,0.9,0c0.2,0,0.5-0.1,0.7-0.1v4.1c-0.5,0.2-1,0.3-1.5,0.4
	c-0.5,0.1-1.1,0.1-1.8,0.1c-1.2,0-2.3-0.2-3.2-0.6c-0.9-0.4-1.6-1-2-1.9c-0.5-0.9-0.7-2-0.7-3.4V716.8z M897.8,721.7v19.7h-5.7
	v-19.7H897.8z M891.8,716.6c0-0.8,0.3-1.5,0.9-2c0.6-0.5,1.3-0.8,2.3-0.8c0.9,0,1.7,0.3,2.3,0.8c0.6,0.5,0.9,1.2,0.9,2
	c0,0.8-0.3,1.5-0.9,2c-0.6,0.5-1.3,0.8-2.3,0.8c-0.9,0-1.7-0.3-2.3-0.8C892.1,718.1,891.8,717.4,891.8,716.6z M907.6,725.8v15.6H902
	v-19.7h5.3L907.6,725.8z M906.9,730.9l-1.4,0c0-1.4,0.2-2.7,0.5-3.8c0.3-1.2,0.8-2.2,1.5-3c0.6-0.9,1.4-1.5,2.4-2
	c1-0.5,2.1-0.7,3.3-0.7c0.9,0,1.7,0.1,2.4,0.4c0.7,0.3,1.3,0.7,1.8,1.2c0.5,0.5,0.9,1.3,1.2,2.1c0.3,0.9,0.4,1.9,0.4,3.1v13.1h-5.7
	V729c0-0.9-0.1-1.5-0.3-2c-0.2-0.5-0.5-0.8-0.9-0.9c-0.4-0.2-0.9-0.3-1.4-0.3c-0.6,0-1.1,0.1-1.6,0.4c-0.5,0.3-0.9,0.6-1.2,1.1
	s-0.6,1-0.7,1.6C907,729.5,906.9,730.2,906.9,730.9z M918.4,730.6l-1.8,0.1c0-1.3,0.2-2.6,0.5-3.7c0.3-1.1,0.8-2.1,1.4-3
	c0.6-0.8,1.4-1.5,2.3-2c0.9-0.5,2-0.7,3.3-0.7c0.9,0,1.8,0.1,2.5,0.4c0.8,0.3,1.4,0.7,2,1.3c0.6,0.6,1,1.4,1.3,2.3
	c0.3,1,0.5,2.1,0.5,3.5v12.5h-5.7v-12.5c0-0.9-0.1-1.5-0.3-2c-0.2-0.4-0.5-0.8-0.9-0.9c-0.4-0.2-0.9-0.3-1.4-0.3
	c-0.6,0-1.1,0.1-1.6,0.4c-0.4,0.2-0.8,0.6-1.1,1c-0.3,0.4-0.5,0.9-0.7,1.5C918.5,729.3,918.4,729.9,918.4,730.6z M939.8,725.8v15.6
	h-5.7v-19.7h5.3L939.8,725.8z M939.1,730.9l-1.4,0c0-1.4,0.2-2.7,0.5-3.8c0.3-1.2,0.8-2.2,1.5-3c0.6-0.9,1.4-1.5,2.4-2
	c1-0.5,2.1-0.7,3.3-0.7c0.9,0,1.7,0.1,2.4,0.4c0.7,0.3,1.3,0.7,1.8,1.2c0.5,0.5,0.9,1.3,1.2,2.1c0.3,0.9,0.4,1.9,0.4,3.1v13.1h-5.7
	V729c0-0.9-0.1-1.5-0.3-2c-0.2-0.5-0.5-0.8-0.9-0.9c-0.4-0.2-0.9-0.3-1.4-0.3c-0.6,0-1.1,0.1-1.6,0.4c-0.5,0.3-0.8,0.6-1.2,1.1
	c-0.3,0.5-0.6,1-0.7,1.6C939.2,729.5,939.1,730.2,939.1,730.9z M950.6,730.6l-1.8,0.1c0-1.3,0.2-2.6,0.5-3.7c0.3-1.1,0.8-2.1,1.4-3
	c0.6-0.8,1.4-1.5,2.3-2c0.9-0.5,2-0.7,3.3-0.7c0.9,0,1.8,0.1,2.5,0.4c0.8,0.3,1.4,0.7,2,1.3c0.6,0.6,1,1.4,1.3,2.3
	c0.3,1,0.5,2.1,0.5,3.5v12.5h-5.7v-12.5c0-0.9-0.1-1.5-0.3-2c-0.2-0.4-0.5-0.8-0.9-0.9c-0.4-0.2-0.9-0.3-1.4-0.3
	c-0.6,0-1.1,0.1-1.6,0.4c-0.4,0.2-0.8,0.6-1.1,1c-0.3,0.4-0.5,0.9-0.7,1.5C950.7,729.3,950.6,729.9,950.6,730.6z M977.9,736.7v-14.9
	h5.7v19.7h-5.3L977.9,736.7z M978.5,732.6l1.6,0c0,1.3-0.2,2.5-0.5,3.7c-0.3,1.1-0.8,2.1-1.4,2.9c-0.6,0.8-1.4,1.5-2.3,1.9
	c-0.9,0.4-1.9,0.7-3.1,0.7c-1,0-1.9-0.1-2.7-0.4c-0.8-0.3-1.5-0.7-2.1-1.3c-0.6-0.6-1-1.4-1.3-2.3c-0.3-0.9-0.5-2-0.5-3.3v-12.7h5.7
	v12.8c0,0.5,0.1,0.9,0.2,1.3c0.1,0.4,0.3,0.6,0.5,0.9c0.2,0.2,0.5,0.4,0.8,0.5c0.3,0.1,0.7,0.2,1.1,0.2c1,0,1.8-0.2,2.4-0.6
	c0.6-0.4,1-1,1.2-1.7C978.4,734.3,978.5,733.5,978.5,732.6z M992.9,725.9v15.5h-5.7v-19.7h5.3L992.9,725.9z M992.1,730.9l-1.4,0
	c0-1.5,0.2-2.8,0.5-4c0.4-1.2,0.9-2.2,1.5-3c0.7-0.8,1.5-1.5,2.4-1.9c0.9-0.4,2-0.7,3.1-0.7c0.9,0,1.8,0.1,2.5,0.4
	c0.8,0.3,1.4,0.7,2,1.3c0.5,0.6,1,1.4,1.3,2.3c0.3,1,0.4,2.1,0.4,3.5v12.5h-5.7v-12.5c0-0.8-0.1-1.5-0.3-1.9c-0.2-0.4-0.6-0.8-1-0.9
	c-0.4-0.2-1-0.3-1.6-0.3c-0.7,0-1.2,0.1-1.7,0.4c-0.5,0.3-0.9,0.6-1.2,1.1c-0.3,0.5-0.5,1-0.7,1.6
	C992.2,729.5,992.1,730.2,992.1,730.9z M1020.7,721.7h5.2v19c0,1.8-0.4,3.3-1.2,4.6c-0.8,1.3-2,2.2-3.4,2.9c-1.5,0.7-3.2,1-5.1,1
	c-0.8,0-1.7-0.1-2.6-0.3c-0.9-0.2-1.8-0.6-2.6-1c-0.8-0.4-1.5-1-2-1.7l2.4-3.3c0.5,0.6,1.2,1.1,2,1.5c0.8,0.4,1.7,0.6,2.7,0.6
	c0.9,0,1.7-0.2,2.3-0.5c0.6-0.3,1.1-0.8,1.4-1.4c0.3-0.6,0.5-1.4,0.5-2.3v-14.4L1020.7,721.7z M1007.5,731.8v-0.4
	c0-1.5,0.2-2.9,0.6-4.1c0.4-1.2,0.9-2.3,1.6-3.2c0.7-0.9,1.5-1.6,2.5-2.1c1-0.5,2.1-0.7,3.3-0.7c1.3,0,2.4,0.3,3.3,0.8
	c0.9,0.5,1.6,1.2,2.1,2.1c0.5,0.9,1,2,1.3,3.2c0.3,1.2,0.6,2.5,0.8,3.9v0.7c-0.2,1.4-0.5,2.6-0.8,3.8c-0.4,1.2-0.8,2.2-1.4,3.1
	c-0.6,0.9-1.3,1.6-2.2,2.1c-0.9,0.5-1.9,0.7-3.1,0.7c-1.2,0-2.3-0.2-3.3-0.7c-1-0.5-1.8-1.2-2.5-2.1c-0.7-0.9-1.2-2-1.6-3.2
	C1007.7,734.6,1007.5,733.2,1007.5,731.8z M1013.2,731.4v0.4c0,0.8,0.1,1.5,0.2,2.2c0.2,0.7,0.4,1.3,0.7,1.8
	c0.3,0.5,0.7,0.9,1.2,1.2c0.5,0.3,1,0.4,1.7,0.4c0.9,0,1.7-0.2,2.2-0.6c0.6-0.4,1-1,1.3-1.7c0.3-0.7,0.4-1.5,0.4-2.5v-1.9
	c0-0.8-0.1-1.5-0.2-2.1c-0.2-0.6-0.4-1.1-0.7-1.6c-0.3-0.4-0.7-0.7-1.2-1c-0.5-0.2-1.1-0.3-1.8-0.3c-0.6,0-1.2,0.1-1.6,0.4
	c-0.5,0.3-0.9,0.7-1.2,1.2c-0.3,0.5-0.6,1.1-0.7,1.8C1013.3,729.9,1013.2,730.6,1013.2,731.4z"/>
<path class="st2" d="M457.3,783.3v-8.4c0-0.6-0.1-1.1-0.3-1.5s-0.5-0.8-0.9-1c-0.4-0.2-0.9-0.4-1.5-0.4c-0.5,0-1,0.1-1.4,0.3
	c-0.4,0.2-0.7,0.4-0.9,0.8c-0.2,0.3-0.3,0.8-0.3,1.3h-5.7c0-0.9,0.2-1.7,0.6-2.5c0.4-0.8,1-1.4,1.7-2c0.8-0.6,1.6-1,2.7-1.3
	c1-0.3,2.2-0.5,3.5-0.5c1.5,0,2.9,0.3,4.1,0.8c1.2,0.5,2.2,1.3,2.9,2.3c0.7,1,1.1,2.3,1.1,3.9v8.2c0,1.2,0.1,2.1,0.2,2.8
	c0.1,0.7,0.4,1.2,0.6,1.7v0.3h-5.7c-0.3-0.6-0.5-1.3-0.6-2.1C457.4,785,457.3,784.2,457.3,783.3z M458,776l0,3.1h-2.8
	c-0.6,0-1.2,0.1-1.6,0.2c-0.4,0.2-0.8,0.4-1.1,0.7c-0.3,0.3-0.5,0.6-0.6,0.9c-0.1,0.4-0.2,0.7-0.2,1.2c0,0.4,0.1,0.8,0.3,1.1
	c0.2,0.3,0.5,0.6,0.8,0.7c0.3,0.2,0.7,0.3,1.2,0.3c0.7,0,1.4-0.1,1.9-0.4c0.5-0.3,0.9-0.6,1.2-1.1c0.3-0.4,0.4-0.8,0.4-1.2l1.4,2.4
	c-0.2,0.5-0.5,1-0.8,1.5c-0.3,0.5-0.7,1-1.2,1.4c-0.5,0.4-1.1,0.8-1.8,1.1c-0.7,0.3-1.5,0.4-2.5,0.4c-1.2,0-2.4-0.2-3.4-0.7
	c-1-0.5-1.8-1.2-2.4-2.1c-0.6-0.9-0.9-1.9-0.9-3.1c0-1,0.2-1.9,0.6-2.7c0.4-0.8,0.9-1.5,1.7-2c0.8-0.6,1.7-1,2.9-1.3
	c1.2-0.3,2.5-0.4,4-0.4H458z M472.5,772.4V788h-5.7v-19.7h5.3L472.5,772.4z M471.7,777.5l-1.4,0c0-1.4,0.2-2.7,0.5-3.8
	c0.3-1.2,0.8-2.2,1.5-3c0.6-0.9,1.4-1.5,2.4-2c1-0.5,2.1-0.7,3.3-0.7c0.9,0,1.7,0.1,2.4,0.4c0.7,0.3,1.3,0.7,1.8,1.2
	c0.5,0.5,0.9,1.3,1.2,2.1c0.3,0.9,0.4,1.9,0.4,3.1V788h-5.7v-12.4c0-0.9-0.1-1.5-0.3-2c-0.2-0.5-0.5-0.8-0.9-0.9
	c-0.4-0.2-0.9-0.3-1.4-0.3c-0.6,0-1.1,0.1-1.6,0.4c-0.5,0.3-0.8,0.6-1.2,1.1c-0.3,0.5-0.6,1-0.7,1.6
	C471.8,776.1,471.7,776.7,471.7,777.5z M483.2,777.2l-1.8,0.1c0-1.3,0.2-2.6,0.5-3.7c0.3-1.1,0.8-2.1,1.4-3c0.6-0.8,1.4-1.5,2.3-2
	c0.9-0.5,2-0.7,3.3-0.7c0.9,0,1.8,0.1,2.5,0.4c0.8,0.3,1.4,0.7,2,1.3c0.6,0.6,1,1.4,1.3,2.3c0.3,1,0.5,2.1,0.5,3.5V788h-5.7v-12.5
	c0-0.9-0.1-1.5-0.3-2c-0.2-0.4-0.5-0.8-0.9-0.9c-0.4-0.2-0.9-0.3-1.4-0.3c-0.6,0-1.1,0.1-1.6,0.4c-0.4,0.2-0.8,0.6-1.1,1
	c-0.3,0.4-0.5,0.9-0.7,1.5C483.3,775.9,483.2,776.5,483.2,777.2z M526.4,783.6v4.4h-18.3v-3.7l8.6-9.1c0.8-0.9,1.4-1.7,1.9-2.4
	c0.5-0.7,0.8-1.3,1.1-1.9c0.2-0.6,0.3-1.1,0.3-1.6c0-0.8-0.1-1.5-0.4-2c-0.2-0.5-0.6-1-1.1-1.3c-0.5-0.3-1-0.4-1.7-0.4
	c-0.7,0-1.4,0.2-1.9,0.6c-0.5,0.4-0.9,0.9-1.2,1.6c-0.3,0.7-0.4,1.4-0.4,2.2h-5.7c0-1.6,0.4-3.1,1.2-4.4c0.8-1.3,1.9-2.4,3.3-3.2
	c1.4-0.8,3-1.2,4.9-1.2c1.9,0,3.5,0.3,4.8,0.9c1.3,0.6,2.3,1.5,2.9,2.6c0.7,1.1,1,2.5,1,4.1c0,0.9-0.1,1.8-0.4,2.6
	c-0.3,0.8-0.7,1.7-1.2,2.5c-0.5,0.8-1.2,1.7-1.9,2.5c-0.8,0.8-1.6,1.7-2.5,2.7l-4,4.5H526.4z M534.7,776.1l-4.5-1.1l1.5-13.5h15.2
	v4.5h-10.5l-0.6,5.6c0.3-0.2,0.8-0.4,1.5-0.6c0.7-0.2,1.5-0.4,2.4-0.4c1.3,0,2.5,0.2,3.5,0.6c1,0.4,1.9,1,2.5,1.7
	c0.7,0.8,1.2,1.7,1.6,2.8c0.4,1.1,0.5,2.4,0.5,3.8c0,1.2-0.2,2.3-0.5,3.3c-0.4,1.1-0.9,2-1.7,2.8c-0.7,0.8-1.7,1.5-2.8,2
	c-1.1,0.5-2.5,0.7-4,0.7c-1.2,0-2.3-0.2-3.4-0.5s-2.1-0.9-2.9-1.5c-0.9-0.7-1.5-1.5-2.1-2.5c-0.5-1-0.8-2.1-0.8-3.3h5.7
	c0.1,0.7,0.2,1.3,0.5,1.8c0.3,0.5,0.7,0.9,1.2,1.2c0.5,0.3,1.1,0.4,1.7,0.4c0.6,0,1.2-0.1,1.6-0.4c0.4-0.3,0.8-0.6,1-1
	c0.3-0.4,0.5-0.9,0.6-1.5c0.1-0.6,0.2-1.2,0.2-1.9c0-0.7-0.1-1.3-0.2-1.9c-0.2-0.6-0.4-1-0.7-1.4c-0.3-0.4-0.7-0.7-1.3-0.9
	c-0.5-0.2-1.1-0.3-1.8-0.3c-0.9,0-1.6,0.2-2.2,0.5C535.4,775.4,535,775.7,534.7,776.1z M551.6,785.3c0-0.8,0.3-1.5,0.9-2.1
	c0.6-0.6,1.4-0.8,2.3-0.8c1,0,1.7,0.3,2.3,0.8c0.6,0.6,0.9,1.2,0.9,2.1c0,0.8-0.3,1.5-0.9,2.1c-0.6,0.6-1.3,0.8-2.3,0.8
	c-0.9,0-1.7-0.3-2.3-0.8C551.9,786.8,551.6,786.1,551.6,785.3z M585.6,781c0-0.4-0.1-0.8-0.2-1.2c-0.1-0.4-0.4-0.7-0.7-1
	c-0.4-0.3-0.8-0.6-1.5-0.9c-0.6-0.3-1.5-0.6-2.5-1c-1.2-0.4-2.3-0.8-3.4-1.3c-1.1-0.5-2-1.1-2.9-1.7c-0.8-0.7-1.5-1.4-2-2.3
	c-0.5-0.9-0.7-1.9-0.7-3.1c0-1.1,0.2-2.1,0.7-3.1c0.5-0.9,1.2-1.7,2.1-2.3c0.9-0.7,2-1.2,3.2-1.5c1.2-0.4,2.5-0.5,4-0.5
	c1.9,0,3.6,0.3,5.1,1c1.5,0.7,2.6,1.6,3.5,2.9c0.8,1.2,1.2,2.7,1.2,4.3h-5.9c0-0.7-0.2-1.3-0.5-1.9c-0.3-0.6-0.7-1-1.3-1.3
	c-0.6-0.3-1.3-0.5-2.2-0.5c-0.9,0-1.6,0.1-2.2,0.4c-0.6,0.3-1,0.6-1.3,1.1c-0.3,0.4-0.4,0.9-0.4,1.5c0,0.4,0.1,0.8,0.3,1.2
	c0.2,0.3,0.6,0.7,1,1c0.4,0.3,1,0.6,1.6,0.8c0.6,0.3,1.4,0.5,2.2,0.8c1.4,0.4,2.7,0.9,3.8,1.5c1.1,0.5,2,1.2,2.8,1.9
	c0.8,0.7,1.3,1.5,1.7,2.3c0.4,0.9,0.6,1.9,0.6,3c0,1.2-0.2,2.2-0.7,3.1c-0.4,0.9-1.1,1.7-2,2.3c-0.8,0.6-1.9,1.1-3.1,1.4
	c-1.2,0.3-2.5,0.5-4,0.5c-1.3,0-2.7-0.2-3.9-0.5c-1.3-0.4-2.5-0.9-3.5-1.6c-1-0.7-1.9-1.6-2.5-2.7c-0.6-1.1-0.9-2.4-0.9-4h5.9
	c0,0.8,0.1,1.5,0.3,2c0.2,0.5,0.6,1,1,1.3c0.4,0.3,1,0.6,1.6,0.7c0.6,0.1,1.3,0.2,2.1,0.2c0.9,0,1.6-0.1,2.1-0.4
	c0.6-0.3,1-0.6,1.2-1C585.5,782,585.6,781.5,585.6,781z M604,788.4c-1.6,0-3-0.2-4.2-0.7c-1.2-0.5-2.3-1.2-3.1-2.1
	c-0.8-0.9-1.5-1.9-1.9-3.1c-0.4-1.2-0.7-2.4-0.7-3.7v-0.7c0-1.5,0.2-2.8,0.6-4.1c0.4-1.2,1-2.3,1.8-3.2c0.8-0.9,1.8-1.6,2.9-2.1
	c1.2-0.5,2.5-0.8,4-0.8c1.4,0,2.6,0.2,3.7,0.7c1.1,0.4,2,1.1,2.8,1.9c0.8,0.8,1.3,1.8,1.7,3c0.4,1.2,0.6,2.5,0.6,4v2.3h-15.9v-3.7
	h10.3v-0.4c0-0.7-0.1-1.3-0.4-1.8c-0.2-0.5-0.6-0.9-1.1-1.2c-0.5-0.3-1.1-0.4-1.8-0.4c-0.7,0-1.3,0.1-1.7,0.4s-0.8,0.7-1.1,1.2
	c-0.3,0.5-0.5,1.1-0.6,1.8c-0.1,0.7-0.2,1.4-0.2,2.2v0.7c0,0.8,0.1,1.5,0.3,2.1c0.2,0.6,0.5,1.2,0.9,1.6c0.4,0.4,0.9,0.8,1.5,1.1
	s1.2,0.4,1.9,0.4c0.9,0,1.8-0.2,2.6-0.5c0.8-0.4,1.5-0.9,2.1-1.6l2.7,3c-0.4,0.6-1,1.1-1.7,1.7c-0.7,0.5-1.6,1-2.6,1.3
	C606.5,788.2,605.3,788.4,604,788.4z M620.7,772.1v23.5H615v-27.3h5.3L620.7,772.1z M633,777.9v0.4c0,1.4-0.2,2.8-0.5,4
	c-0.3,1.2-0.8,2.3-1.5,3.2c-0.6,0.9-1.4,1.6-2.4,2.1c-0.9,0.5-2,0.7-3.3,0.7c-1.2,0-2.2-0.2-3.1-0.7c-0.9-0.5-1.6-1.2-2.2-2.1
	c-0.6-0.9-1.1-1.9-1.4-3.1c-0.4-1.2-0.6-2.4-0.8-3.8v-0.7c0.2-1.4,0.5-2.7,0.8-3.9c0.4-1.2,0.8-2.3,1.4-3.1c0.6-0.9,1.3-1.6,2.2-2.1
	c0.9-0.5,1.9-0.7,3.1-0.7c1.2,0,2.3,0.2,3.3,0.7c1,0.5,1.8,1.2,2.4,2c0.7,0.9,1.1,1.9,1.5,3.1C632.8,775.1,633,776.4,633,777.9z
	 M627.3,778.3v-0.4c0-0.8-0.1-1.5-0.2-2.2c-0.1-0.7-0.3-1.3-0.6-1.8c-0.3-0.5-0.6-0.9-1.1-1.2c-0.4-0.3-1-0.4-1.6-0.4
	c-0.7,0-1.3,0.1-1.7,0.3c-0.5,0.2-0.9,0.5-1.1,1c-0.3,0.4-0.5,0.9-0.6,1.5c-0.1,0.6-0.2,1.3-0.2,2.1v2c0,0.9,0.1,1.7,0.4,2.4
	c0.3,0.7,0.6,1.3,1.2,1.7c0.5,0.4,1.3,0.6,2.2,0.6c0.6,0,1.2-0.1,1.6-0.4c0.4-0.3,0.8-0.7,1-1.2c0.3-0.5,0.5-1.1,0.6-1.8
	C627.2,779.8,627.3,779.1,627.3,778.3z M646,768.3v4h-11.7v-4H646z M637,763.4h5.7v18.4c0,0.5,0.1,1,0.2,1.3
	c0.1,0.3,0.4,0.5,0.7,0.6c0.3,0.1,0.7,0.2,1.2,0.2c0.3,0,0.6,0,0.9,0c0.2,0,0.5-0.1,0.7-0.1v4.1c-0.5,0.2-1,0.3-1.5,0.4
	c-0.5,0.1-1.1,0.1-1.8,0.1c-1.2,0-2.3-0.2-3.2-0.6c-0.9-0.4-1.6-1-2-1.9c-0.5-0.9-0.7-2-0.7-3.4V763.4z M658,788.4
	c-1.6,0-3-0.2-4.2-0.7c-1.2-0.5-2.3-1.2-3.1-2.1c-0.9-0.9-1.5-1.9-1.9-3.1c-0.4-1.2-0.7-2.4-0.7-3.7v-0.7c0-1.5,0.2-2.8,0.6-4.1
	c0.4-1.2,1-2.3,1.8-3.2c0.8-0.9,1.8-1.6,2.9-2.1c1.2-0.5,2.5-0.8,4-0.8c1.4,0,2.6,0.2,3.7,0.7c1.1,0.4,2,1.1,2.8,1.9
	c0.8,0.8,1.3,1.8,1.7,3c0.4,1.2,0.6,2.5,0.6,4v2.3h-15.9v-3.7h10.3v-0.4c0-0.7-0.1-1.3-0.4-1.8c-0.2-0.5-0.6-0.9-1.1-1.2
	c-0.5-0.3-1.1-0.4-1.8-0.4c-0.7,0-1.3,0.1-1.7,0.4s-0.8,0.7-1.1,1.2c-0.3,0.5-0.5,1.1-0.6,1.8c-0.1,0.7-0.2,1.4-0.2,2.2v0.7
	c0,0.8,0.1,1.5,0.3,2.1c0.2,0.6,0.5,1.2,0.9,1.6c0.4,0.4,0.9,0.8,1.5,1.1s1.2,0.4,1.9,0.4c0.9,0,1.8-0.2,2.6-0.5
	c0.8-0.4,1.5-0.9,2.1-1.6l2.7,3c-0.4,0.6-1,1.1-1.7,1.7c-0.7,0.5-1.6,1-2.6,1.3C660.4,788.2,659.3,788.4,658,788.4z M674.7,772.4
	V788H669v-19.7h5.3L674.7,772.4z M673.9,777.5l-1.4,0c0-1.4,0.2-2.7,0.5-3.8c0.3-1.2,0.8-2.2,1.5-3c0.6-0.9,1.4-1.5,2.4-2
	c1-0.5,2.1-0.7,3.3-0.7c0.9,0,1.7,0.1,2.4,0.4c0.7,0.3,1.3,0.7,1.8,1.2c0.5,0.5,0.9,1.3,1.2,2.1c0.3,0.9,0.4,1.9,0.4,3.1V788h-5.7
	v-12.4c0-0.9-0.1-1.5-0.3-2c-0.2-0.5-0.5-0.8-0.9-0.9c-0.4-0.2-0.9-0.3-1.4-0.3c-0.6,0-1.1,0.1-1.6,0.4c-0.5,0.3-0.9,0.6-1.2,1.1
	s-0.6,1-0.7,1.6C674,776.1,673.9,776.7,673.9,777.5z M685.4,777.2l-1.8,0.1c0-1.3,0.2-2.6,0.5-3.7c0.3-1.1,0.8-2.1,1.4-3
	c0.6-0.8,1.4-1.5,2.3-2c0.9-0.5,2-0.7,3.3-0.7c0.9,0,1.8,0.1,2.5,0.4c0.8,0.3,1.4,0.7,2,1.3c0.6,0.6,1,1.4,1.3,2.3
	c0.3,1,0.5,2.1,0.5,3.5V788h-5.7v-12.5c0-0.9-0.1-1.5-0.3-2c-0.2-0.4-0.5-0.8-0.9-0.9c-0.4-0.2-0.9-0.3-1.4-0.3
	c-0.6,0-1.1,0.1-1.6,0.4c-0.4,0.2-0.8,0.6-1.1,1c-0.3,0.4-0.5,0.9-0.7,1.5C685.5,775.9,685.4,776.5,685.4,777.2z M701.2,760h5.7
	v23.3l-0.6,4.7h-5.1V760z M719.2,777.9v0.4c0,1.5-0.2,2.9-0.5,4.1c-0.3,1.2-0.8,2.3-1.4,3.2c-0.6,0.9-1.4,1.6-2.4,2.1
	s-2.1,0.7-3.4,0.7c-1.2,0-2.2-0.2-3.1-0.7c-0.9-0.5-1.6-1.2-2.2-2.1c-0.6-0.9-1.1-1.9-1.4-3.1c-0.4-1.2-0.6-2.5-0.8-3.9v-0.7
	c0.2-1.4,0.5-2.7,0.8-3.9c0.4-1.2,0.8-2.3,1.4-3.1c0.6-0.9,1.3-1.6,2.1-2.1c0.9-0.5,1.9-0.8,3.1-0.8c1.3,0,2.4,0.2,3.4,0.7
	c1,0.5,1.8,1.2,2.4,2.1c0.6,0.9,1.1,1.9,1.4,3.2C719,775.2,719.2,776.5,719.2,777.9z M713.5,778.3v-0.4c0-0.8-0.1-1.5-0.2-2.1
	c-0.1-0.7-0.3-1.3-0.5-1.8c-0.2-0.5-0.6-0.9-1-1.2c-0.4-0.3-1-0.5-1.7-0.5c-0.7,0-1.3,0.1-1.7,0.3c-0.5,0.2-0.9,0.6-1.1,1
	c-0.3,0.4-0.5,0.9-0.6,1.5c-0.1,0.6-0.2,1.3-0.2,2v1.9c0,1,0.1,1.8,0.4,2.5c0.2,0.7,0.6,1.3,1.2,1.7c0.5,0.4,1.3,0.6,2.2,0.6
	c0.7,0,1.3-0.1,1.7-0.4c0.4-0.3,0.8-0.7,1-1.2c0.2-0.5,0.4-1.1,0.5-1.8C713.4,779.9,713.5,779.1,713.5,778.3z M731.5,788.4
	c-1.6,0-3-0.2-4.2-0.7c-1.2-0.5-2.3-1.2-3.1-2.1c-0.8-0.9-1.5-1.9-1.9-3.1c-0.4-1.2-0.7-2.4-0.7-3.7v-0.7c0-1.5,0.2-2.8,0.6-4.1
	c0.4-1.2,1-2.3,1.8-3.2c0.8-0.9,1.8-1.6,2.9-2.1c1.2-0.5,2.5-0.8,4-0.8c1.4,0,2.6,0.2,3.7,0.7c1.1,0.4,2,1.1,2.8,1.9
	c0.8,0.8,1.3,1.8,1.7,3c0.4,1.2,0.6,2.5,0.6,4v2.3h-15.9v-3.7h10.3v-0.4c0-0.7-0.1-1.3-0.4-1.8c-0.2-0.5-0.6-0.9-1.1-1.2
	c-0.5-0.3-1.1-0.4-1.8-0.4c-0.7,0-1.3,0.1-1.7,0.4s-0.8,0.7-1.1,1.2c-0.3,0.5-0.5,1.1-0.6,1.8c-0.1,0.7-0.2,1.4-0.2,2.2v0.7
	c0,0.8,0.1,1.5,0.3,2.1c0.2,0.6,0.5,1.2,0.9,1.6c0.4,0.4,0.9,0.8,1.5,1.1c0.6,0.3,1.2,0.4,1.9,0.4c0.9,0,1.8-0.2,2.6-0.5
	c0.8-0.4,1.5-0.9,2.1-1.6l2.7,3c-0.4,0.6-1,1.1-1.7,1.7c-0.7,0.5-1.6,1-2.6,1.3C733.9,788.2,732.7,788.4,731.5,788.4z M748.1,772.9
	V788h-5.7v-19.7h5.3L748.1,772.9z M754,768.2l-0.1,5.3c-0.2,0-0.6-0.1-0.9-0.1c-0.4,0-0.7-0.1-1-0.1c-0.7,0-1.4,0.1-1.9,0.3
	c-0.5,0.2-1,0.4-1.3,0.8c-0.3,0.3-0.6,0.8-0.8,1.3c-0.2,0.5-0.3,1.1-0.3,1.7l-1.1-0.5c0-1.3,0.1-2.5,0.4-3.6c0.3-1.1,0.6-2,1.1-2.8
	c0.5-0.8,1.1-1.4,1.8-1.9c0.7-0.4,1.5-0.7,2.4-0.7c0.3,0,0.6,0,0.9,0.1C753.5,768,753.8,768.1,754,768.2z M783.7,783.6v4.4h-18.3
	v-3.7l8.6-9.1c0.8-0.9,1.4-1.7,1.9-2.4c0.5-0.7,0.8-1.3,1.1-1.9c0.2-0.6,0.3-1.1,0.3-1.6c0-0.8-0.1-1.5-0.4-2
	c-0.2-0.5-0.6-1-1.1-1.3c-0.5-0.3-1-0.4-1.7-0.4c-0.7,0-1.4,0.2-1.9,0.6c-0.5,0.4-0.9,0.9-1.2,1.6c-0.3,0.7-0.4,1.4-0.4,2.2h-5.7
	c0-1.6,0.4-3.1,1.2-4.4c0.8-1.3,1.9-2.4,3.3-3.2c1.4-0.8,3-1.2,4.9-1.2c1.9,0,3.5,0.3,4.8,0.9c1.3,0.6,2.3,1.5,2.9,2.6
	c0.7,1.1,1,2.5,1,4.1c0,0.9-0.1,1.8-0.4,2.6c-0.3,0.8-0.7,1.7-1.2,2.5c-0.5,0.8-1.2,1.7-1.9,2.5c-0.8,0.8-1.6,1.7-2.5,2.7l-4,4.5
	H783.7z M805.1,772.4v4.7c0,1.9-0.2,3.6-0.7,5c-0.4,1.4-1,2.6-1.9,3.5c-0.8,0.9-1.8,1.6-2.9,2.1c-1.1,0.4-2.3,0.7-3.7,0.7
	c-1.1,0-2.1-0.1-3-0.4c-0.9-0.3-1.8-0.7-2.5-1.3c-0.7-0.6-1.4-1.3-1.9-2.2c-0.5-0.9-0.9-1.9-1.2-3.2c-0.3-1.2-0.4-2.6-0.4-4.2v-4.7
	c0-2,0.2-3.7,0.6-5.1c0.4-1.4,1.1-2.6,1.9-3.5c0.8-0.9,1.8-1.6,2.9-2c1.1-0.4,2.3-0.7,3.7-0.7c1.1,0,2.1,0.1,3,0.4
	c0.9,0.3,1.8,0.7,2.5,1.3c0.8,0.6,1.4,1.3,1.9,2.2c0.5,0.9,0.9,1.9,1.2,3.2C804.9,769.4,805.1,770.8,805.1,772.4z M799.4,777.8v-6.2
	c0-0.9-0.1-1.7-0.2-2.4c-0.1-0.7-0.2-1.3-0.4-1.7c-0.2-0.5-0.4-0.9-0.7-1.1c-0.3-0.3-0.6-0.5-1-0.6c-0.4-0.1-0.7-0.2-1.2-0.2
	c-0.5,0-1,0.1-1.4,0.3s-0.8,0.6-1.1,1c-0.3,0.5-0.5,1.1-0.7,1.9c-0.1,0.8-0.2,1.7-0.2,2.9v6.2c0,0.9,0,1.7,0.1,2.4
	c0.1,0.7,0.3,1.3,0.4,1.7c0.2,0.5,0.4,0.9,0.7,1.2c0.3,0.3,0.6,0.5,1,0.6c0.4,0.1,0.8,0.2,1.2,0.2c0.5,0,1-0.1,1.4-0.3
	c0.4-0.2,0.8-0.6,1.1-1c0.3-0.5,0.5-1.1,0.7-1.9C799.3,779.9,799.4,778.9,799.4,777.8z M826.8,783.6v4.4h-18.3v-3.7l8.6-9.1
	c0.8-0.9,1.4-1.7,1.9-2.4c0.5-0.7,0.8-1.3,1.1-1.9c0.2-0.6,0.3-1.1,0.3-1.6c0-0.8-0.1-1.5-0.4-2c-0.2-0.5-0.6-1-1.1-1.3
	c-0.5-0.3-1-0.4-1.7-0.4c-0.7,0-1.4,0.2-1.9,0.6c-0.5,0.4-0.9,0.9-1.2,1.6c-0.3,0.7-0.4,1.4-0.4,2.2h-5.7c0-1.6,0.4-3.1,1.2-4.4
	c0.8-1.3,1.9-2.4,3.3-3.2c1.4-0.8,3-1.2,4.9-1.2c1.9,0,3.5,0.3,4.8,0.9c1.3,0.6,2.3,1.5,2.9,2.6c0.7,1.1,1,2.5,1,4.1
	c0,0.9-0.1,1.8-0.4,2.6c-0.3,0.8-0.7,1.7-1.2,2.5c-0.5,0.8-1.2,1.7-1.9,2.5c-0.8,0.8-1.6,1.7-2.5,2.7l-4,4.5H826.8z M848.3,783.6
	v4.4H830v-3.7l8.6-9.1c0.8-0.9,1.4-1.7,1.9-2.4c0.5-0.7,0.8-1.3,1.1-1.9c0.2-0.6,0.3-1.1,0.3-1.6c0-0.8-0.1-1.5-0.4-2
	c-0.2-0.5-0.6-1-1.1-1.3c-0.5-0.3-1-0.4-1.7-0.4c-0.7,0-1.4,0.2-1.9,0.6c-0.5,0.4-0.9,0.9-1.2,1.6c-0.3,0.7-0.4,1.4-0.4,2.2h-5.7
	c0-1.6,0.4-3.1,1.2-4.4c0.8-1.3,1.9-2.4,3.3-3.2c1.4-0.8,3-1.2,4.9-1.2c1.9,0,3.5,0.3,4.8,0.9c1.3,0.6,2.3,1.5,2.9,2.6
	c0.7,1.1,1,2.5,1,4.1c0,0.9-0.1,1.8-0.4,2.6c-0.3,0.8-0.7,1.7-1.2,2.5c-0.5,0.8-1.2,1.7-1.9,2.5c-0.8,0.8-1.6,1.7-2.5,2.7l-4,4.5
	H848.3z"/>
<rect x="30" y="962" class="st2" width="699" height="75"/>
<rect x="30" y="839" class="st2" width="510" height="94.7"/>
<path class="st8" d="M671.5,356.7c-18.2,103.6-55.8,200.4-113,283.6v30.4h491v-314H671.5L671.5,356.7z"/>
<text transform="matrix(1 0 0 1 671.0742 379.1864)"><tspan x="0" y="0" class="st2 st9 st10">Lorem ipsum dolor sit amet, </tspan><tspan x="-7.3" y="36" class="st2 st9 st10">consectetuer adipiscing elit, </tspan><tspan x="-16.3" y="72" class="st2 st9 st10">sed diam nonummy nibh eu</tspan><tspan x="354.8" y="72" class="st2 st9 st10">-</tspan><tspan x="-27.3" y="108" class="st2 st9 st10">ismod tincidunt ut laoreet </tspan><tspan x="-40.3" y="144" class="st2 st9 st10">dolore magna aliquam erat vo</tspan><tspan x="360.9" y="144" class="st2 st9 st10">-</tspan><tspan x="-55.5" y="180" class="st2 st9 st10">lutpat. Ut wisi enim ad minim </tspan><tspan x="-73.1" y="216" class="st2 st9 st10">veniam, quis nostrud exerci </tspan><tspan x="-93.6" y="252" class="st2 st9 st10">tation ullamcorper suscipit lobor</tspan><tspan x="345.2" y="252" class="st2 st9 st10">-</tspan><tspan x="-112.6" y="288" class="st2 st9 st10">tis nisl ut aliquip ex ea commodo</tspan></text>
<text transform="matrix(1 0 0 1 47.9678 913.8721)" class="st1 st9 st11">Kathrin Heierli</text>
<text transform="matrix(1 0 0 1 44.4839 1021.7758)" class="st12 st9 st13">Vorstand Junge Grne ZH</text>
</svg>
